<svg xmlns="http://www.w3.org/2000/svg" xmlns:xlink="http://www.w3.org/1999/xlink" width="400" height="264.952" viewBox="0 0 400 264.952"><defs><clipPath id="a"><rect width="400" height="264.952" fill="none"/></clipPath><clipPath id="c"><rect width="400" height="230.812" fill="none"/></clipPath><clipPath id="e"><rect width="399.016" height="230.244" fill="none"/></clipPath><clipPath id="f"><rect width="398.031" height="229.677" fill="none"/></clipPath><clipPath id="g"><rect width="397.048" height="229.109" fill="none"/></clipPath><clipPath id="h"><rect width="396.064" height="228.541" fill="none"/></clipPath><clipPath id="i"><rect width="395.08" height="227.973" fill="none"/></clipPath><clipPath id="j"><rect width="394.096" height="227.406" fill="none"/></clipPath><clipPath id="k"><rect width="393.112" height="226.838" fill="none"/></clipPath><clipPath id="l"><rect width="392.128" height="226.27" fill="none"/></clipPath><clipPath id="m"><rect width="391.143" height="225.702" fill="none"/></clipPath><clipPath id="n"><rect width="390.16" height="225.134" fill="none"/></clipPath><clipPath id="o"><rect width="389.176" height="224.566" fill="none"/></clipPath><clipPath id="p"><rect width="388.191" height="223.998" fill="none"/></clipPath><clipPath id="q"><rect width="387.208" height="223.431" fill="none"/></clipPath><clipPath id="r"><rect width="386.224" height="222.862" fill="none"/></clipPath><clipPath id="s"><rect width="385.24" height="222.295" fill="none"/></clipPath><clipPath id="t"><rect width="384.255" height="221.727" fill="none"/></clipPath><clipPath id="u"><rect width="383.272" height="221.16" fill="none"/></clipPath><clipPath id="v"><rect width="382.288" height="220.591" fill="none"/></clipPath><clipPath id="w"><rect width="381.303" height="220.024" fill="none"/></clipPath><clipPath id="x"><rect width="380.32" height="219.456" fill="none"/></clipPath><clipPath id="y"><rect width="379.336" height="218.889" fill="none"/></clipPath><clipPath id="z"><rect width="378.351" height="218.32" fill="none"/></clipPath><clipPath id="aa"><rect width="377.368" height="217.753" fill="none"/></clipPath><clipPath id="ab"><rect width="376.384" height="217.185" fill="none"/></clipPath><clipPath id="ac"><rect width="375.4" height="216.617" fill="none"/></clipPath><clipPath id="ad"><rect width="374.415" height="216.049" fill="none"/></clipPath><clipPath id="ae"><rect width="373.432" height="215.482" fill="none"/></clipPath><clipPath id="af"><rect width="372.448" height="214.914" fill="none"/></clipPath><clipPath id="ag"><rect width="371.463" height="214.346" fill="none"/></clipPath><clipPath id="ah"><rect width="370.48" height="213.778" fill="none"/></clipPath><clipPath id="ai"><rect width="369.496" height="213.211" fill="none"/></clipPath><clipPath id="aj"><rect width="368.512" height="212.643" fill="none"/></clipPath><clipPath id="ak"><rect width="367.527" height="212.075" fill="none"/></clipPath><clipPath id="al"><rect width="366.544" height="211.507" fill="none"/></clipPath><clipPath id="am"><rect width="365.56" height="210.939" fill="none"/></clipPath><clipPath id="an"><rect width="364.575" height="210.371" fill="none"/></clipPath><clipPath id="ao"><rect width="363.592" height="209.804" fill="none"/></clipPath><clipPath id="ap"><rect width="362.608" height="209.236" fill="none"/></clipPath><clipPath id="aq"><rect width="361.623" height="208.668" fill="none"/></clipPath><clipPath id="ar"><rect width="360.64" height="208.1" fill="none"/></clipPath><clipPath id="as"><rect width="359.656" height="207.533" fill="none"/></clipPath><clipPath id="at"><rect width="358.672" height="206.965" fill="none"/></clipPath><clipPath id="au"><path d="M133.254,0l80.564,46.779a.447.447,0,1,1-.449.774L133.179.992l-40.11,16a.448.448,0,1,1-.331-.832L133.05.081Z" transform="translate(-92.456)" fill="none"/></clipPath><linearGradient id="av" x1="-0.608" y1="-2.7" x2="-0.601" y2="-2.7" gradientUnits="objectBoundingBox"><stop offset="0" stop-color="#45108a"/><stop offset="0.005" stop-color="#45108a"/><stop offset="0.111" stop-color="#54118f"/><stop offset="0.313" stop-color="#7b159d"/><stop offset="0.475" stop-color="#9f19ab"/><stop offset="0.577" stop-color="#a31cac"/><stop offset="0.686" stop-color="#b026b1"/><stop offset="0.799" stop-color="#c536b9"/><stop offset="0.913" stop-color="#e34dc3"/><stop offset="1" stop-color="#ff63ce"/></linearGradient><clipPath id="aw"><path d="M393.375,106.687l-62.822,25.477-58.427,45.654-57.714,19.508-55.32,45.688L11.335,156.653l51.45-42.028,58.754-19.613,57.738-44.781L248.56,22.6Z" transform="translate(-11.335 -22.6)" fill="none"/></clipPath><linearGradient id="ax" x1="0.043" y1="0.138" x2="0.046" y2="0.138" gradientUnits="objectBoundingBox"><stop offset="0" stop-color="#f0eff2"/><stop offset="0.076" stop-color="#f0eff2"/><stop offset="1" stop-color="#fff"/></linearGradient><clipPath id="az"><path d="M263.188,36.209c-11.211,13.5-31.834,19.81-47.942,27.948-9.894,5-20.914,14.647-22.091,18.923-1.783,6.488-.454,12.933,1.086,20.4,1.939,9.4,6.918,20.7,2.918,32.985-3.2,9.837-9.637,16.737-15.313,22.823-7.86,8.429-15.055,13-14.34,22.276.973,12.658,7.347,27.545,12.226,37.33l-24.267,20.042c-2.43-12.746-6.77-39.158-8.211-57.879-1.35-17.555,13.6-26.152,21.471-34.591,4.838-5.189,6.664-10.118,8.64-16.189,2.532-7.776,1.059-14.915-.647-23.181-1.753-8.494-6.147-19.179-3.222-29.813,3.279-11.925,19.832-18.013,36.209-26.286a86.2,86.2,0,0,0,31.39-27.61Z" transform="translate(-147.169 -23.381)" fill="none"/></clipPath><linearGradient id="ba" x1="-0.277" y1="-0.194" x2="-0.274" y2="-0.194" gradientUnits="objectBoundingBox"><stop offset="0" stop-color="#138bbd"/><stop offset="0.035" stop-color="#138bbd"/><stop offset="0.227" stop-color="#169ac6"/><stop offset="0.599" stop-color="#1fc3df"/><stop offset="1" stop-color="#2af6ff"/></linearGradient><clipPath id="bc"><path d="M253.866,133.976c1.091-.629,1.456-1.236,1.456-1.417s-.354-.758-1.407-1.366a12.305,12.305,0,0,0-5.943-1.366,12.482,12.482,0,0,0-6.033,1.395c-1.091.63-1.456,1.236-1.456,1.418s.353.756,1.407,1.364a12.314,12.314,0,0,0,5.944,1.367,12.489,12.489,0,0,0,6.032-1.395m87.56-46.466-68,28.525-13.416,10.908a8.009,8.009,0,0,1,2.468,5.617,7.544,7.544,0,0,1-1.08,3.817l35.978,21.855-6.031,4.712-35.9-21.809a20.723,20.723,0,0,1-7.611,1.393,21.288,21.288,0,0,1-5.963-.836l-23.064,18.75a3.563,3.563,0,0,1-3.445.6l-62.183-21.894-35.755,15.749L66.994,200.2l-6.488-3.791,52.561-47.223a3.55,3.55,0,0,1,.948-.612l37.575-16.55a3.569,3.569,0,0,1,2.63-.1l61.627,21.7,19.487-15.843a7.842,7.842,0,0,1-2.009-5.141,7.357,7.357,0,0,1,.473-2.54L207.45,115.549l-40.376-3.073a3.585,3.585,0,0,1-1.555-.49L128.354,89.918l6.078-4.715,34.02,20.2,40.318,3.068a3.573,3.573,0,0,1,1.458.435L238.9,124.74a19.827,19.827,0,0,1,9.072-2.07,21.623,21.623,0,0,1,5.186.62l16.153-13.132a3.6,3.6,0,0,1,.873-.523L333.667,83Z" transform="translate(-60.506 -83.004)" fill="none"/></clipPath><linearGradient id="bd" x1="-0.396" y1="0.066" x2="-0.392" y2="0.066" gradientUnits="objectBoundingBox"><stop offset="0" stop-color="#ffa98c"/><stop offset="0.035" stop-color="#ffa98c"/><stop offset="0.308" stop-color="#feb792"/><stop offset="0.828" stop-color="#fedda2"/><stop offset="1" stop-color="#feeca8"/></linearGradient><clipPath id="bf"><path d="M323.623,133.056a1.119,1.119,0,0,1-.565,1.478l-1.634.729a1.118,1.118,0,0,1-.912-2.042l1.633-.729a1.119,1.119,0,0,1,1.478.564" transform="translate(-319.85 -132.394)" fill="none"/></clipPath><linearGradient id="bg" x1="-59.728" y1="-27.81" x2="-59.541" y2="-27.81" gradientUnits="objectBoundingBox"><stop offset="0" stop-color="#9f19ab"/><stop offset="0.035" stop-color="#9f19ab"/><stop offset="0.245" stop-color="#ae24b0"/><stop offset="0.648" stop-color="#d644bf"/><stop offset="1" stop-color="#ff63ce"/></linearGradient><clipPath id="bh"><path d="M318.034,129.861a1.121,1.121,0,0,1-.565,1.478l-3.2,1.429a1.118,1.118,0,1,1-.912-2.042l3.2-1.429a1.129,1.129,0,0,1,.455-.1,1.118,1.118,0,0,1,1.023.661" transform="translate(-312.692 -129.2)" fill="none"/></clipPath><linearGradient id="bi" x1="-44.829" y1="-21.15" x2="-44.685" y2="-21.15" xlink:href="#bg"/><clipPath id="bj"><path d="M308.908,126.948l1.531.927a1.118,1.118,0,0,1-1.158,1.914l-1.031-.624-1.1.491a1.118,1.118,0,0,1-.912-2.042l1.635-.729a1.114,1.114,0,0,1,1.034.064" transform="translate(-305.577 -126.786)" fill="none"/></clipPath><linearGradient id="bk" x1="-47.139" y1="-22.536" x2="-46.984" y2="-22.536" xlink:href="#bg"/><clipPath id="bl"><path d="M298.792,137.7l3.134,1.9a1.119,1.119,0,0,1-1.159,1.914l-3.133-1.9a1.118,1.118,0,0,1,1.158-1.914m-6.268-3.8,3.134,1.9a1.118,1.118,0,1,1-1.159,1.913l-3.134-1.9a1.118,1.118,0,0,1,1.159-1.914m-6.268-3.8,3.134,1.9a1.119,1.119,0,0,1-1.159,1.914l-3.133-1.9a1.118,1.118,0,0,1,1.159-1.913" transform="translate(-284.557 -129.944)" fill="none"/></clipPath><linearGradient id="bm" x1="-12.777" y1="-6.092" x2="-12.732" y2="-6.092" xlink:href="#bg"/><clipPath id="bn"><path d="M279.164,142.835l1.07.649,1.173-.432a1.118,1.118,0,0,1,.774,2.1l-1.678.619a1.122,1.122,0,0,1-.966-.092l-1.531-.928a1.118,1.118,0,0,1,1.159-1.914" transform="translate(-277.466 -142.674)" fill="none"/></clipPath><linearGradient id="bo" x1="-42.661" y1="-20.26" x2="-42.507" y2="-20.26" xlink:href="#bg"/><clipPath id="bp"><path d="M264.729,159.756l3.27,1.151a1.118,1.118,0,0,1-.371,2.172,1.1,1.1,0,0,1-.37-.063l-3.272-1.151a1.119,1.119,0,0,1,.369-2.174,1.129,1.129,0,0,1,.375.065m-6.541-2.3,3.271,1.151a1.119,1.119,0,1,1-.743,2.11l-3.271-1.152a1.118,1.118,0,1,1,.743-2.109m-6.542-2.3,3.271,1.151a1.118,1.118,0,1,1-.743,2.109l-3.271-1.151a1.119,1.119,0,0,1,.369-2.174,1.094,1.094,0,0,1,.373.065m-6.54-2.3L248.376,154a1.118,1.118,0,1,1-.742,2.109l-3.272-1.151a1.118,1.118,0,1,1,.743-2.109m-6.542-2.3,3.271,1.152a1.118,1.118,0,0,1-.371,2.172,1.129,1.129,0,0,1-.371-.064l-3.271-1.151a1.119,1.119,0,0,1,.37-2.174,1.105,1.105,0,0,1,.372.064m-6.54-2.3,3.27,1.151a1.118,1.118,0,1,1-.742,2.109l-3.271-1.152a1.118,1.118,0,1,1,.743-2.109m-6.542-2.3,3.271,1.151a1.118,1.118,0,0,1-.371,2.173,1.1,1.1,0,0,1-.371-.064l-3.271-1.151a1.118,1.118,0,1,1,.743-2.109m-6.54-2.3,3.27,1.151a1.118,1.118,0,0,1-.37,2.172,1.1,1.1,0,0,1-.371-.064l-3.271-1.151a1.119,1.119,0,0,1,.368-2.174,1.1,1.1,0,0,1,.375.065m-6.542-2.3,3.271,1.151a1.118,1.118,0,0,1-.371,2.173,1.1,1.1,0,0,1-.371-.064l-3.271-1.151a1.118,1.118,0,1,1,.743-2.11m-2.591-.259a1.119,1.119,0,0,1-.663,1.437l-3.254,1.2a1.118,1.118,0,0,1-.774-2.1l3.254-1.2a1.116,1.116,0,0,1,1.437.662" transform="translate(-204.385 -140.338)" fill="none"/></clipPath><linearGradient id="bq" x1="-3.431" y1="-1.427" x2="-3.415" y2="-1.427" xlink:href="#bg"/><clipPath id="br"><path d="M202.352,164.36a1.119,1.119,0,0,1-.161,1.574l-1.388,1.129a1.119,1.119,0,0,1-1.077.187l-1.689-.595a1.118,1.118,0,0,1,.743-2.109l1.1.386.9-.734a1.118,1.118,0,0,1,1.573.162" transform="translate(-197.291 -163.948)" fill="none"/></clipPath><linearGradient id="bs" x1="-29.882" y1="-17.382" x2="-29.73" y2="-17.382" xlink:href="#bg"/><clipPath id="bt"><path d="M179.679,158.459a1.117,1.117,0,0,1-.163,1.572l-2.467,2.007a1.118,1.118,0,1,1-1.41-1.735l2.467-2.007a1.115,1.115,0,0,1,1.573.163m4.936-4.013a1.121,1.121,0,0,1-.163,1.574l-2.468,2.006a1.118,1.118,0,0,1-1.41-1.736l2.467-2.006a1.117,1.117,0,0,1,1.574.162m4.935-4.011a1.118,1.118,0,0,1-.163,1.573l-2.467,2.006a1.118,1.118,0,0,1-1.41-1.736l2.467-2.006a1.118,1.118,0,0,1,1.573.163m4.936-4.012a1.118,1.118,0,0,1-.163,1.572L191.854,150a1.118,1.118,0,0,1-1.411-1.735l2.467-2.007a1.116,1.116,0,0,1,1.574.163" transform="translate(-175.226 -146.008)" fill="none"/></clipPath><linearGradient id="bu" x1="-6.295" y1="-4.451" x2="-6.258" y2="-4.451" xlink:href="#bg"/><clipPath id="bv"><path d="M172.967,141.5a9.451,9.451,0,0,0,1.133,1.089,1.116,1.116,0,0,1,.026,1.756l-1.389,1.128a1.117,1.117,0,1,1-1.409-1.735l.38-.31c-.132-.135-.272-.284-.414-.445a1.118,1.118,0,1,1,1.674-1.483" transform="translate(-170.914 -141.124)" fill="none"/></clipPath><linearGradient id="bw" x1="-25.657" y1="-23.494" x2="-25.505" y2="-23.494" xlink:href="#bg"/><clipPath id="bx"><path d="M163.319,134.015a1.12,1.12,0,0,1,.6,1.464,3.152,3.152,0,0,0-.254,1.242,3.784,3.784,0,0,0,.2,1.162,1.117,1.117,0,0,1-.716,1.409,1.1,1.1,0,0,1-.347.056,1.12,1.12,0,0,1-1.064-.772,6,6,0,0,1-.306-1.855,5.41,5.41,0,0,1,.426-2.105,1.118,1.118,0,0,1,1.464-.6m5.552-3.269a1.121,1.121,0,0,1-.731,1.4,8.134,8.134,0,0,0-2.541,1.281,1.118,1.118,0,0,1-1.366-1.77,10.349,10.349,0,0,1,3.235-1.644,1.1,1.1,0,0,1,.336-.052,1.118,1.118,0,0,1,1.066.782m5.45-1.4a1.119,1.119,0,0,1,1.045,1.187,1.1,1.1,0,0,1-1.187,1.044,21.694,21.694,0,0,0-3.089.019c-.031,0-.063,0-.093,0a1.118,1.118,0,0,1-.092-2.233c.582-.048,1.2-.072,1.813-.072.544,0,1.088.018,1.6.051" transform="translate(-161.43 -129.297)" fill="none"/></clipPath><linearGradient id="by" x1="-8.9" y1="-7.887" x2="-8.845" y2="-7.887" xlink:href="#bg"/><clipPath id="bz"><path d="M159.4,129.323a1.117,1.117,0,0,1-.137,1.575l-1.37,1.15a1.117,1.117,0,0,1-.718.262,1.162,1.162,0,0,1-.293-.039c-.005,0-.644-.173-1.651-.352a1.118,1.118,0,0,1,.392-2.2c.521.093.951.183,1.265.255l.938-.787a1.117,1.117,0,0,1,1.575.137" transform="translate(-154.311 -128.924)" fill="none"/></clipPath><linearGradient id="ca" x1="-23.317" y1="-22.181" x2="-23.165" y2="-22.181" xlink:href="#bg"/><clipPath id="cb"><path d="M152.808,124.038a1.115,1.115,0,0,1-.137,1.575l-2.814,2.365a1.119,1.119,0,0,1-1.439-1.713l2.814-2.364a1.115,1.115,0,0,1,1.575.137" transform="translate(-148.02 -123.638)" fill="none"/></clipPath><linearGradient id="cc" x1="-19.415" y1="-21.289" x2="-19.283" y2="-21.289" xlink:href="#bg"/><clipPath id="cd"><path d="M145.021,118.857l1.549.9a1.118,1.118,0,0,1,.159,1.823l-1.37,1.151a1.119,1.119,0,0,1-1.44-1.712l.152-.127-.171-.1a1.119,1.119,0,0,1,.563-2.086,1.1,1.1,0,0,1,.558.151" transform="translate(-143.342 -118.706)" fill="none"/></clipPath><linearGradient id="ce" x1="-22.075" y1="-27.078" x2="-21.92" y2="-27.078" xlink:href="#bg"/><clipPath id="cf"><path d="M166.238,114.181l2.738,1.588a1.119,1.119,0,0,1-1.123,1.935l-2.738-1.59a1.118,1.118,0,1,1,1.123-1.933M160.762,111l2.738,1.589a1.118,1.118,0,0,1-1.124,1.934l-2.738-1.59A1.118,1.118,0,1,1,160.762,111m-5.475-3.18,2.738,1.59a1.119,1.119,0,0,1-1.124,1.935l-2.738-1.59a1.119,1.119,0,0,1,1.123-1.935m-5.475-3.179,2.738,1.59a1.118,1.118,0,0,1-1.124,1.934l-2.737-1.59a1.118,1.118,0,1,1,1.123-1.934" transform="translate(-148.133 -104.491)" fill="none"/></clipPath><linearGradient id="cg" x1="-5.688" y1="-5.966" x2="-5.65" y2="-5.966" xlink:href="#bg"/><clipPath id="ch"><path d="M174.511,99.824a1.118,1.118,0,0,1,.777,1.377l-.249.891.8.465a1.118,1.118,0,1,1-1.123,1.933l-1.548-.9a1.119,1.119,0,0,1-.515-1.267l.48-1.724a1.117,1.117,0,0,1,1.377-.777" transform="translate(-172.613 -99.783)" fill="none"/></clipPath><linearGradient id="ci" x1="-24.379" y1="-28.131" x2="-24.237" y2="-28.131" xlink:href="#bg"/><clipPath id="cj"><path d="M174.13,92.715a1.118,1.118,0,0,1,.776,1.378l-.886,3.18a1.118,1.118,0,0,1-1.076.817,1.092,1.092,0,0,1-.3-.041,1.118,1.118,0,0,1-.777-1.377l.887-3.18a1.118,1.118,0,0,1,1.378-.777" transform="translate(-171.824 -92.674)" fill="none"/></clipPath><linearGradient id="ck" x1="-23.847" y1="-30.392" x2="-23.707" y2="-30.392" xlink:href="#bg"/><clipPath id="cl"><path d="M171.938,86.39l1.583.832a1.119,1.119,0,0,1,.556,1.289l-.479,1.724a1.119,1.119,0,0,1-1.077.819,1.081,1.081,0,0,1-.3-.041,1.118,1.118,0,0,1-.778-1.377l.238-.854-.785-.413a1.118,1.118,0,1,1,1.041-1.979" transform="translate(-170.298 -86.261)" fill="none"/></clipPath><linearGradient id="cm" x1="-24.192" y1="-30.15" x2="-24.049" y2="-30.15" xlink:href="#bg"/><clipPath id="cn"><path d="M177.65,83.006l2.234,1.1a1.118,1.118,0,0,1-1.039,1.98l-2.235-1.1a1.119,1.119,0,0,1,.522-2.109,1.105,1.105,0,0,1,.519.129" transform="translate(-176.011 -82.877)" fill="none"/></clipPath><linearGradient id="co" x1="-28.934" y1="-31.925" x2="-28.769" y2="-31.925" xlink:href="#bg"/><clipPath id="cp"><path d="M183.173,82.168a1.2,1.2,0,0,1-.012,2.269,4.345,4.345,0,0,1-3.931.008,1.2,1.2,0,0,1,.013-2.27,4.345,4.345,0,0,1,3.93-.007" transform="translate(-178.423 -81.702)" fill="none"/></clipPath><linearGradient id="cq" x1="-25.769" y1="-26.866" x2="-25.624" y2="-26.866" xlink:href="#bg"/><clipPath id="cs"><rect width="213.415" height="135.499" fill="none"/></clipPath><clipPath id="ct"><rect width="213.108" height="137.809" fill="none"/></clipPath><clipPath id="cu"><path d="M235.081,225.3l106.589,62.3,24.645-20.354a.448.448,0,1,1,.571.69L342,288.492l-.242.2L234.631,226.077a.448.448,0,0,1,.225-.835.436.436,0,0,1,.225.062" transform="translate(-234.409 -225.242)" fill="none"/></clipPath><linearGradient id="cv" x1="-1.422" y1="0.154" x2="-1.416" y2="0.154" xlink:href="#av"/><clipPath id="cx"><rect width="46.582" height="23.753" fill="none"/></clipPath><clipPath id="cy"><path d="M302.607,132.33c0,6.559,10.428,11.877,23.29,11.877s23.291-5.318,23.291-11.877-10.428-11.876-23.291-11.876-23.29,5.318-23.29,11.876" transform="translate(-302.607 -120.454)" fill="none"/></clipPath><radialGradient id="cz" cx="0.49" cy="0.5" r="0.981" gradientTransform="translate(3.838 9.992) rotate(180) scale(0.51 0.51)" gradientUnits="objectBoundingBox"><stop offset="0" stop-color="#c7c8c9"/><stop offset="1" stop-color="#fff"/></radialGradient><clipPath id="da"><path d="M345.107,32.818l5.454,2.544-.67,3.5a24.638,24.638,0,0,1,1.836,9.846c0,11.163-5.968,28.771-12.153,44.031l-6.448,33.672-7.113-3.556S300.3,101.574,300.3,78.4c0-16.3,11.513-36.154,25.715-44.353A23.318,23.318,0,0,1,337.5,30.537a13.071,13.071,0,0,1,7.609,2.281" transform="translate(-300.297 -30.537)" fill="none"/></clipPath><linearGradient id="db" x1="-2.935" y1="-1.249" x2="-2.925" y2="-1.249" gradientUnits="objectBoundingBox"><stop offset="0" stop-color="#9f19ab"/><stop offset="0.035" stop-color="#9f19ab"/><stop offset="0.165" stop-color="#ae24b0"/><stop offset="0.414" stop-color="#d644bf"/><stop offset="0.631" stop-color="#ff63ce"/><stop offset="0.874" stop-color="#dc48c1"/><stop offset="1" stop-color="#dc48c1"/></linearGradient><clipPath id="dc"><path d="M343.776,52.682c0,23.172-25.714,74.147-25.714,74.147s-25.716-21.282-25.716-44.454c0-16.3,11.514-36.155,25.716-44.355A23.445,23.445,0,0,1,329.6,34.489c8.4,0,14.172,6.66,14.172,18.193" transform="translate(-292.347 -34.489)" fill="none"/></clipPath><linearGradient id="dd" x1="-2.425" y1="-1.305" x2="-2.416" y2="-1.305" xlink:href="#bg"/><clipPath id="df"><rect width="44.49" height="92.321" fill="none"/></clipPath><clipPath id="dg"><path d="M327.639,37.029c7.418-4.283,14.083-4.505,18.776-1.449-4.552-2.058-10.549-1.471-17.146,2.339-14.2,8.2-25.715,28.057-25.715,44.354,0,19.856,18.868,38.311,24.272,43.19-.112.225-.188.376-.188.376s-25.714-21.283-25.714-44.455c0-16.3,11.513-36.155,25.714-44.354" transform="translate(-301.925 -33.517)" fill="none"/></clipPath><radialGradient id="dh" cx="0.327" cy="0.359" r="0.388" gradientTransform="translate(-6.389 5.057) rotate(180) scale(2.097 1)" gradientUnits="objectBoundingBox"><stop offset="0" stop-color="#fff"/><stop offset="1" stop-color="#1d1d1b"/></radialGradient><clipPath id="di"><path d="M330.955,63.271c0,7.087-5.006,15.724-11.182,19.289s-11.183.711-11.183-6.375S313.6,60.461,319.774,56.9a10.2,10.2,0,0,1,5.019-1.535c3.655,0,6.163,2.9,6.163,7.911" transform="translate(-308.591 -55.36)" fill="none"/></clipPath><linearGradient id="dj" x1="6.946" y1="3.773" x2="6.926" y2="3.773" gradientUnits="objectBoundingBox"><stop offset="0" stop-color="#d4d1d8"/><stop offset="0.947" stop-color="#fcfcfc"/><stop offset="1" stop-color="#fff"/></linearGradient><clipPath id="dl"><rect width="20.239" height="28.689" fill="none"/></clipPath></defs><g transform="translate(19 -1)"><g transform="translate(-19 1)" clip-path="url(#a)"><g clip-path="url(#a)"><g transform="translate(0 17.226)"><g clip-path="url(#c)"><g opacity="0.1" style="mix-blend-mode:multiply;isolation:isolate"><g clip-path="url(#c)"><path d="M245.41,19.255,400,109.017,156.016,250.067,0,158.88Z" transform="translate(0 -19.255)" fill="#d1d3d4"/></g></g><g transform="translate(0.521 0.231)" opacity="0.121" style="mix-blend-mode:multiply;isolation:isolate"><g clip-path="url(#e)"><path d="M245.325,19.513l154.21,89.542L156.15,249.757.519,158.794Z" transform="translate(-0.519 -19.513)" fill="#d0d2d3"/></g></g><g transform="translate(1.041 0.462)" opacity="0.143" style="mix-blend-mode:multiply;isolation:isolate"><g clip-path="url(#f)"><path d="M245.239,19.771l153.83,89.321L156.284,249.448,1.037,158.709Z" transform="translate(-1.037 -19.771)" fill="#cfd1d2"/></g></g><g transform="translate(1.561 0.692)" opacity="0.164" style="mix-blend-mode:multiply;isolation:isolate"><g clip-path="url(#g)"><path d="M245.153,20.029l153.449,89.1L156.419,249.138,1.555,158.624Z" transform="translate(-1.555 -20.029)" fill="#ced0d1"/></g></g><g transform="translate(2.082 0.924)" opacity="0.186" style="mix-blend-mode:multiply;isolation:isolate"><g clip-path="url(#h)"><path d="M245.067,20.288l153.069,88.879L156.553,248.828,2.073,158.539Z" transform="translate(-2.073 -20.288)" fill="#cdcfd0"/></g></g><g transform="translate(2.602 1.155)" opacity="0.207" style="mix-blend-mode:multiply;isolation:isolate"><g clip-path="url(#i)"><path d="M244.982,20.546,397.671,109.2,156.687,248.519,2.591,158.453Z" transform="translate(-2.591 -20.546)" fill="#cccecf"/></g></g><g transform="translate(3.122 1.386)" opacity="0.229" style="mix-blend-mode:multiply;isolation:isolate"><g clip-path="url(#j)"><path d="M244.9,20.8,397.2,109.241,156.821,248.21,3.109,158.369Z" transform="translate(-3.108 -20.804)" fill="#cbcdce"/></g></g><g transform="translate(3.643 1.617)" opacity="0.25" style="mix-blend-mode:multiply;isolation:isolate"><g clip-path="url(#k)"><path d="M244.811,21.063,396.74,109.279,156.956,247.9,3.627,158.283Z" transform="translate(-3.628 -21.062)" fill="#cacccd"/></g></g><g transform="translate(4.164 1.848)" opacity="0.271" style="mix-blend-mode:multiply;isolation:isolate"><g clip-path="url(#l)"><path d="M244.725,21.321l151.548,88L157.09,247.59,4.145,158.2Z" transform="translate(-4.146 -21.321)" fill="#c9cbcc"/></g></g><g transform="translate(4.684 2.079)" opacity="0.293" style="mix-blend-mode:multiply;isolation:isolate"><g clip-path="url(#m)"><path d="M244.641,21.579l151.167,87.775L157.225,247.281,4.664,158.113Z" transform="translate(-4.665 -21.579)" fill="#c8cacb"/></g></g><g transform="translate(5.204 2.31)" opacity="0.314" style="mix-blend-mode:multiply;isolation:isolate"><g clip-path="url(#n)"><path d="M244.555,21.837l150.787,87.554L157.36,246.971,5.183,158.028Z" transform="translate(-5.182 -21.837)" fill="#c7c9ca"/></g></g><g transform="translate(5.725 2.542)" opacity="0.336" style="mix-blend-mode:multiply;isolation:isolate"><g clip-path="url(#o)"><path d="M244.469,22.1l150.407,87.333L157.494,246.662,5.7,157.943Z" transform="translate(-5.701 -22.096)" fill="#c6c8c9"/></g></g><g transform="translate(6.245 2.772)" opacity="0.357" style="mix-blend-mode:multiply;isolation:isolate"><g clip-path="url(#p)"><path d="M244.384,22.354,394.41,109.466,157.629,246.353l-151.41-88.5Z" transform="translate(-6.219 -22.354)" fill="#c5c7c8"/></g></g><g transform="translate(6.765 3.003)" opacity="0.379" style="mix-blend-mode:multiply;isolation:isolate"><g clip-path="url(#q)"><path d="M244.3,22.612,393.945,109.5,157.763,246.043,6.737,157.772Z" transform="translate(-6.737 -22.612)" fill="#c4c6c7"/></g></g><g transform="translate(7.286 3.235)" opacity="0.4" style="mix-blend-mode:multiply;isolation:isolate"><g clip-path="url(#r)"><path d="M244.213,22.871l149.266,86.671L157.9,245.733,7.255,157.687Z" transform="translate(-7.255 -22.871)" fill="#c3c5c6"/></g></g><g transform="translate(7.806 3.466)" opacity="0.421" style="mix-blend-mode:multiply;isolation:isolate"><g clip-path="url(#s)"><path d="M244.127,23.129l148.886,86.45L158.032,245.424,7.773,157.6Z" transform="translate(-7.774 -23.129)" fill="#c2c4c5"/></g></g><g transform="translate(8.327 3.697)" opacity="0.443" style="mix-blend-mode:multiply;isolation:isolate"><g clip-path="url(#t)"><path d="M244.042,23.387l148.506,86.229-234.381,135.5L8.291,157.517Z" transform="translate(-8.292 -23.387)" fill="#c1c3c4"/></g></g><g transform="translate(8.847 3.927)" opacity="0.464" style="mix-blend-mode:multiply;isolation:isolate"><g clip-path="url(#u)"><path d="M243.956,23.645l148.125,86.008L158.3,244.8,8.81,157.431Z" transform="translate(-8.809 -23.645)" fill="#c0c2c3"/></g></g><g transform="translate(9.367 4.159)" opacity="0.486" style="mix-blend-mode:multiply;isolation:isolate"><g clip-path="url(#v)"><path d="M243.87,23.9l147.745,85.787L158.434,244.5,9.328,157.346Z" transform="translate(-9.327 -23.904)" fill="#bfc1c2"/></g></g><g transform="translate(9.888 4.39)" opacity="0.507" style="mix-blend-mode:multiply;isolation:isolate"><g clip-path="url(#w)"><path d="M243.785,24.162,391.15,109.729,158.569,244.186,9.846,157.261Z" transform="translate(-9.846 -24.162)" fill="#bec0c1"/></g></g><g transform="translate(10.408 4.621)" opacity="0.529" style="mix-blend-mode:multiply;isolation:isolate"><g clip-path="url(#x)"><path d="M243.7,24.42l146.985,85.346L158.7,243.876l-148.339-86.7Z" transform="translate(-10.364 -24.42)" fill="#bdbfc0"/></g></g><g transform="translate(10.929 4.851)" opacity="0.55" style="mix-blend-mode:multiply;isolation:isolate"><g clip-path="url(#y)"><path d="M243.615,24.678l146.6,85.125L158.839,243.567,10.883,157.09Z" transform="translate(-10.883 -24.678)" fill="#bdbfc0"/></g></g><g transform="translate(11.449 5.083)" opacity="0.571" style="mix-blend-mode:multiply;isolation:isolate"><g clip-path="url(#z)"><path d="M243.529,24.937l146.224,84.9L158.973,243.257,11.4,157Z" transform="translate(-11.401 -24.937)" fill="#bcbebf"/></g></g><g transform="translate(11.969 5.314)" opacity="0.593" style="mix-blend-mode:multiply;isolation:isolate"><g clip-path="url(#aa)"><path d="M243.443,25.2l145.843,84.683L159.106,242.948,11.919,156.92Z" transform="translate(-11.919 -25.195)" fill="#bbbdbe"/></g></g><g transform="translate(12.49 5.545)" opacity="0.614" style="mix-blend-mode:multiply;isolation:isolate"><g clip-path="url(#ab)"><path d="M243.357,25.453l145.463,84.462L159.241,242.639l-146.8-85.8Z" transform="translate(-12.437 -25.453)" fill="#babcbd"/></g></g><g transform="translate(13.01 5.777)" opacity="0.636" style="mix-blend-mode:multiply;isolation:isolate"><g clip-path="url(#ac)"><path d="M243.273,25.712l145.083,84.242L159.376,242.329,12.956,156.75Z" transform="translate(-12.956 -25.712)" fill="#b9bbbc"/></g></g><g transform="translate(13.531 6.007)" opacity="0.657" style="mix-blend-mode:multiply;isolation:isolate"><g clip-path="url(#ad)"><path d="M243.187,25.97l144.7,84.021L159.51,242.019,13.474,156.665Z" transform="translate(-13.474 -25.97)" fill="#b8babb"/></g></g><g transform="translate(14.051 6.238)" opacity="0.679" style="mix-blend-mode:multiply;isolation:isolate"><g clip-path="url(#ae)"><path d="M243.1,26.228l144.322,83.8L159.644,241.71,13.992,156.58Z" transform="translate(-13.991 -26.228)" fill="#b7b9ba"/></g></g><g transform="translate(14.571 6.469)" opacity="0.7" style="mix-blend-mode:multiply;isolation:isolate"><g clip-path="url(#af)"><path d="M243.015,26.486l143.942,83.579L159.779,241.4,14.51,156.494Z" transform="translate(-14.51 -26.486)" fill="#b6b8b9"/></g></g><g transform="translate(15.092 6.701)" opacity="0.721" style="mix-blend-mode:multiply;isolation:isolate"><g clip-path="url(#ag)"><path d="M242.93,26.745,386.492,110.1,159.912,241.09,15.028,156.409Z" transform="translate(-15.028 -26.745)" fill="#b5b7b8"/></g></g><g transform="translate(15.612 6.931)" opacity="0.743" style="mix-blend-mode:multiply;isolation:isolate"><g clip-path="url(#ah)"><path d="M242.844,27l143.182,83.138L160.047,240.781l-144.5-84.457Z" transform="translate(-15.545 -27.003)" fill="#b4b6b7"/></g></g><g transform="translate(16.132 7.162)" opacity="0.764" style="mix-blend-mode:multiply;isolation:isolate"><g clip-path="url(#ai)"><path d="M242.759,27.261l142.8,82.917L160.182,240.472,16.064,156.239Z" transform="translate(-16.064 -27.261)" fill="#b3b5b6"/></g></g><g transform="translate(16.653 7.393)" opacity="0.786" style="mix-blend-mode:multiply;isolation:isolate"><g clip-path="url(#aj)"><path d="M242.674,27.52l142.421,82.7L160.317,240.162,16.583,156.153Z" transform="translate(-16.583 -27.519)" fill="#b2b4b5"/></g></g><g transform="translate(17.174 7.625)" opacity="0.807" style="mix-blend-mode:multiply;isolation:isolate"><g clip-path="url(#ak)"><path d="M242.589,27.778l142.04,82.475-224.177,129.6L17.1,156.068Z" transform="translate(-17.102 -27.778)" fill="#b1b3b4"/></g></g><g transform="translate(17.694 7.856)" opacity="0.829" style="mix-blend-mode:multiply;isolation:isolate"><g clip-path="url(#al)"><path d="M242.5,28.036l141.66,82.254L160.585,239.543,17.62,155.983Z" transform="translate(-17.619 -28.036)" fill="#b0b2b3"/></g></g><g transform="translate(18.214 8.086)" opacity="0.85" style="mix-blend-mode:multiply;isolation:isolate"><g clip-path="url(#am)"><path d="M242.417,28.294,383.7,110.328,160.719,239.234,18.138,155.9Z" transform="translate(-18.137 -28.294)" fill="#afb1b2"/></g></g><g transform="translate(18.735 8.318)" opacity="0.871" style="mix-blend-mode:multiply;isolation:isolate"><g clip-path="url(#an)"><path d="M242.332,28.553l140.9,81.813L160.854,238.924l-142.2-83.111Z" transform="translate(-18.656 -28.553)" fill="#aeb0b1"/></g></g><g transform="translate(19.255 8.549)" opacity="0.893" style="mix-blend-mode:multiply;isolation:isolate"><g clip-path="url(#ao)"><path d="M242.246,28.811,382.766,110.4,160.989,238.615,19.174,155.727Z" transform="translate(-19.174 -28.811)" fill="#adafb0"/></g></g><g transform="translate(19.775 8.78)" opacity="0.914" style="mix-blend-mode:multiply;isolation:isolate"><g clip-path="url(#ap)"><path d="M242.161,29.069,382.3,110.441,161.123,238.305,19.692,155.642Z" transform="translate(-19.692 -29.069)" fill="#acaeaf"/></g></g><g transform="translate(20.296 9.011)" opacity="0.936" style="mix-blend-mode:multiply;isolation:isolate"><g clip-path="url(#aq)"><path d="M242.075,29.328l139.759,81.15L161.257,238,20.21,155.557Z" transform="translate(-20.21 -29.328)" fill="#abadae"/></g></g><g transform="translate(20.816 9.242)" opacity="0.957" style="mix-blend-mode:multiply;isolation:isolate"><g clip-path="url(#ar)"><path d="M241.989,29.586l139.379,80.929L161.391,237.686,20.728,155.471Z" transform="translate(-20.728 -29.586)" fill="#aaacad"/></g></g><g transform="translate(21.337 9.473)" opacity="0.979" style="mix-blend-mode:multiply;isolation:isolate"><g clip-path="url(#as)"><path d="M241.9,29.844l139,80.708L161.526,237.377l-140.28-81.99Z" transform="translate(-21.247 -29.844)" fill="#a9abac"/></g></g><g transform="translate(21.857 9.704)" style="mix-blend-mode:multiply;isolation:isolate"><g clip-path="url(#at)"><path d="M241.819,30.1l138.618,80.488L161.661,237.067,21.765,155.3Z" transform="translate(-21.765 -30.102)" fill="#a8aaab"/></g></g></g></g></g><path d="M400,106.817l-70.7,28.672-58.534,45.736-57.654,19.49-57.094,47.151L0,156.68l57.075-46.622,58.809-19.631,57.635-44.7,71.89-28.672Z" transform="translate(0 -1.797)" fill="#fff"/><g transform="translate(195.703)"><g clip-path="url(#au)"><rect width="129.562" height="75.336" transform="matrix(-0.971, -0.239, 0.239, -0.971, 114.689, 75.873)" fill="url(#av)"/></g></g><g transform="translate(7.82 20.218)"><g clip-path="url(#aw)"><rect width="440.642" height="371.838" transform="matrix(-0.887, -0.461, 0.461, -0.887, 300.686, 376.816)" fill="url(#ax)"/></g></g><g clip-path="url(#a)"><path d="M183.162,74.627l5.368,3.281-6.56,7.753-9.543-4.771Z" transform="translate(57.216 -7.865)" fill="#d1d3d4"/><path d="M191.327,185.537l-32.889-20.652-11.169,8.306a1.39,1.39,0,0,1-.372.194l-6.9,2.336,16.841,9.846-1.354,2.317L136.1,176.552a1.341,1.341,0,0,1,.247-2.43l9.49-3.212L156,163.354l-9.648-6.057,1.427-2.273,45.8,28.757Z" transform="translate(85.262 -16.337)" fill="#d1d3d4"/><path d="M41.024,101.111l29.852,17.668-3.127,1.269-29.8-17.636.116-.2-13.576,5.069-.938-2.514L48.97,95.279l3,1.744Z" transform="translate(308.053 -10.041)" fill="#d1d3d4"/><path d="M144.2,103.52a1.337,1.337,0,0,1-1.26-.09L131.8,96.437l-4.175,1.781L103.64,120.425l-1.824-1.969,5.615-5.2L78.022,95.238a1.342,1.342,0,0,1-.186-2.151l16.4-14.462A1.277,1.277,0,0,1,94.4,78.5L112,67.316l1.439,2.264-17.5,11.127-8.262,7.285L116,105.321l9.969-9.23a1.346,1.346,0,0,1,.386-.25L163.93,79.813l1.054,2.468L134.8,95.155l8.96,5.622,46.387-20.686-18.11-10.865,1.38-2.3,19.721,11.833,7.556-3.371,2.863,1.663ZM85.566,89.848,80.974,93.9l28.5,17.466,4.48-4.148Z" transform="translate(127.212 -7.053)" fill="#d1d3d4"/><path d="M338.531,214.211l1.857,1.936-12.925,12.4-2.408-1.407Z" transform="translate(-231.186 -22.575)" fill="#d1d3d4"/><path d="M199.971,206.951l1.468-2.247,12.794,8.363L211,214.159Z" transform="translate(6.87 -21.573)" fill="#d1d3d4"/><path d="M346.438,154.147a1.343,1.343,0,0,1-.954,1.065l-20.874,5.964-.738-2.58,20.062-5.733,1.149-6.746-32.671-18.746,2.224-1.817L345.563,143.3l.615-3.619a1.34,1.34,0,0,1,.713-.97l6.341-3.237L327.7,120.779l3.4-1.136,24.982,14.376,19.436-9.92,1.219,2.39L348.711,140.8Z" transform="translate(-256.225 -12.609)" fill="#d1d3d4"/><path d="M256.969,65.44,267.157,71.3l-1.338,2.326-11.141-6.412Z" transform="translate(-94.995 -6.896)" fill="#d1d3d4"/><path d="M288.345,118.977l-36.381-1.491-33.1-6.858-16.1,8.349,28.032,17.3,10.139-2.684,45.923,16.4,14.016-25.944Z" transform="translate(-82.261 -11.659)" fill="#cfe4bd"/><path d="M141.141,20.96l57.7,34.443L177.373,66.138,153.218,56.3l-17,1.342L107.593,41.984l2.684-8.5Z" transform="translate(104.903 -2.209)" fill="#cfe4bd"/><path d="M277.582,161.827l28.18,9.841-.447,5.815-4.026,11.183-22.365,9.841L274.9,201.19l-2.236,1.789-41.152,8.946-9.841,6.71L201.093,206.11l9.841-16.55-9.841-19.234,9.393-7.6L243.14,147.96Z" transform="translate(-85.663 -15.593)" fill="#cfe4bd"/></g><g transform="translate(152.322 20.917)"><g clip-path="url(#az)"><rect width="244.802" height="196.308" transform="translate(19.024 259.91) rotate(-114.577)" fill="url(#ba)"/></g></g><g clip-path="url(#a)"><path d="M125.048,215.513,58.54,174.384a2.683,2.683,0,0,1-1.271-2.355l.855-32.079L40.03,127.678l4.337-3.544,17.985,12.2a2.682,2.682,0,0,1,1.177,2.292l-.853,32.006,66.678,41.235-.052.083,9.441-7.91a2.693,2.693,0,0,1,1.213-.577l43.029-8.342,4.341-4.34a2.674,2.674,0,0,1,.964-.618L243.3,169.754,288,130.9,235.257,99.255A2.684,2.684,0,0,1,234.129,96l8.723-23L204.68,51.609l-19.919,7.884-56.5,44.489a2.733,2.733,0,0,1-.412.267l-15.388,8.078,31.673,19.927-2.858,4.543L90.2,104.667l6.585-2.2,10.9,6.86-.23-.437,17.674-9.279,56.614-44.578a2.688,2.688,0,0,1,.672-.386l21.471-8.5a2.684,2.684,0,0,1,2.3.154l40.181,22.519,30.411,2.142,21.775-11.187,5.514,3.2-21.24,10.912,75.083,45.668-6.2,2.514L276.5,76.325l-28.412-2-8.149,21.483,53.99,32.393a2.685,2.685,0,0,1,.379,4.327l-47.862,41.6a2.69,2.69,0,0,1-.828.49l-16.438,6.1,10.807,7.117-6.45,2.18-10.6-6.981-32.235,11.958-4.506,4.505a2.694,2.694,0,0,1-1.387.738L141.659,208.6,118.873,227.69l-4.924-2.878Z" transform="translate(6.274 -4.844)" fill="#fee2a6"/></g><g transform="translate(64.951 74.257)"><g clip-path="url(#bc)"><rect width="217.158" height="304.384" transform="matrix(-0.389, -0.921, 0.921, -0.389, 42.427, 217.789)" fill="url(#bd)"/></g></g><g clip-path="url(#a)"><path d="M420.112,201.61l9.393-9.393-12.525-8.051L402.219,145.7l-5.368-2.237L365.093,169.4Z" transform="translate(-356.122 -15.119)" fill="#cfe4bd"/><path d="M89.774,158.137l22.813-17,2.237-17,9.841-6.262L103.194,104.46l-33.1,12.972,2.237,6.262,17.445,10.288,7.6,4.92-11.63,3.131L82.17,155.006Z" transform="translate(212.63 -11.009)" fill="#cfe4bd"/></g><g transform="translate(109.987 118.441)"><g transform="translate(0)" clip-path="url(#bf)"><rect width="4.783" height="5.123" transform="translate(1.124 4.892) rotate(-123.576)" fill="url(#bg)"/></g></g><g transform="translate(114.823 115.584)"><g transform="translate(0)" clip-path="url(#bh)"><rect width="6.231" height="6.815" transform="matrix(-0.553, -0.833, 0.833, -0.553, 1.604, 6.312)" fill="url(#bi)"/></g></g><g transform="translate(121.226 113.424)"><g transform="translate(0)" clip-path="url(#bj)"><rect width="5.795" height="6.509" transform="translate(1.593 5.796) rotate(-123.576)" fill="url(#bk)"/></g></g><g transform="translate(127.524 116.25)"><g transform="translate(0)" clip-path="url(#bl)"><rect width="19.848" height="21.668" transform="translate(5.416 20.123) rotate(-123.576)" fill="url(#bm)"/></g></g><g transform="translate(146.329 127.638)"><g transform="translate(0)" clip-path="url(#bn)"><rect width="5.814" height="6.538" transform="matrix(-0.553, -0.833, 0.833, -0.553, 1.6, 5.812)" fill="url(#bo)"/></g></g><g transform="translate(152.793 125.548)"><g transform="translate(0)" clip-path="url(#bp)"><rect width="54.7" height="66.438" transform="translate(19.629 52.529) rotate(-123.576)" fill="url(#bq)"/></g></g><g transform="translate(218.189 146.67)"><g transform="translate(0)" clip-path="url(#br)"><rect width="5.897" height="6.52" transform="translate(1.569 5.942) rotate(-123.576)" fill="url(#bs)"/></g></g><g transform="translate(223.732 130.621)"><g transform="translate(0)" clip-path="url(#bt)"><rect width="24.507" height="25.489" transform="matrix(-0.553, -0.833, 0.833, -0.553, 5.913, 25.397)" fill="url(#bu)"/></g></g><g transform="translate(243.472 126.251)"><g transform="translate(0)" clip-path="url(#bv)"><rect width="5.918" height="5.685" transform="translate(1.014 6.337) rotate(-123.576)" fill="url(#bw)"/></g></g><g transform="translate(241.645 115.671)"><g transform="translate(0)" clip-path="url(#bx)"><rect width="16.103" height="17.202" transform="translate(4.274 16.49) rotate(-123.576)" fill="url(#by)"/></g></g><g transform="translate(256.598 115.337)"><g transform="translate(0)" clip-path="url(#bz)"><rect width="5.908" height="6.522" transform="matrix(-0.553, -0.833, 0.833, -0.553, 1.616, 5.958)" fill="url(#ca)"/></g></g><g transform="translate(262.528 110.608)"><g transform="translate(0)" clip-path="url(#cb)"><rect width="6.776" height="6.978" transform="translate(1.493 7.053) rotate(-123.576)" fill="url(#cc)"/></g></g><g transform="translate(267.979 106.196)"><g transform="translate(0)" clip-path="url(#cd)"><rect width="5.767" height="5.679" transform="matrix(-0.553, -0.833, 0.833, -0.553, 1.056, 6.116)" fill="url(#ce)"/></g></g><g transform="translate(246.079 93.479)"><g transform="translate(0)" clip-path="url(#cf)"><rect width="23.144" height="25.484" transform="matrix(-0.553, -0.833, 0.833, -0.553, 6.484, 23.37)" fill="url(#cg)"/></g></g><g transform="translate(241.794 89.267)"><g transform="translate(0)" clip-path="url(#ch)"><rect width="6.282" height="6.051" transform="matrix(-0.553, -0.833, 0.833, -0.553, 1.14, 6.72)" fill="url(#ci)"/></g></g><g transform="translate(243.16 82.907)"><g transform="translate(0)" clip-path="url(#cj)"><rect width="6.378" height="5.805" transform="matrix(-0.553, -0.833, 0.833, -0.553, 0.907, 6.97)" fill="url(#ck)"/></g></g><g transform="translate(243.83 77.17)"><g transform="translate(0)" clip-path="url(#cl)"><rect width="6.248" height="6.048" transform="translate(1.089 6.672) rotate(-123.576)" fill="url(#cm)"/></g></g><g transform="translate(238.066 74.143)"><g transform="translate(0)" clip-path="url(#cn)"><rect width="5.426" height="5.833" transform="matrix(-0.553, -0.833, 0.833, -0.553, 1.306, 5.54)" fill="url(#co)"/></g></g><g transform="translate(234.823 73.092)"><g transform="translate(0)" clip-path="url(#cp)"><rect width="6.182" height="6.949" transform="translate(1.594 6.181) rotate(-123.576)" fill="url(#cq)"/></g></g><g clip-path="url(#a)"><path d="M334.529,205.062l-16.1-9.543,19.384-17.892,5.666,3.877L332.74,193.432,339.9,197.9Z" transform="translate(-228.344 -18.719)" fill="#d1d3d4"/><path d="M294.53,256.308l-16.1-9.543,14.761-12.972,5.667,3.877,1.043,11.481Z" transform="translate(-148.981 -24.639)" fill="#d1d3d4"/><path d="M319.756,132.96l12.822,8.052-8.489,4.759L316,143.382l-9.069,5.084-9.841-5.666Z" transform="translate(-198.362 -14.012)" fill="#d1d3d4"/><path d="M156.091,81.96l3.578,2.386-17,7.455-3.578-3.578,3.281-6.262Z" transform="translate(115.897 -8.637)" fill="#d1d3d4"/><path d="M156.249,167.537l-12.823-8.052,5.069-5.07,5.368,2.983,5.07-4.772,9.543,5.667Z" transform="translate(103.214 -16.085)" fill="#d1d3d4"/><path d="M262.653,100.712l-12.227-8.349,12.227-10.735,4.175,3.876-6.561,5.07,5.666,4.771Z" transform="translate(-90.862 -8.602)" fill="#d1d3d4"/><path d="M339.706,185.992l-8.946-5.666.3-14.314,6.859-1.193,1.789,9.245,3.281,2.385L357.6,163.627l4.771,2.684Z" transform="translate(-258.271 -17.244)" fill="#d1d3d4"/><path d="M193.6,155.728l-9.841-5.07,11.332-22.365,8.946,4.772.3,6.56,4.771,3.579Z" transform="translate(26.499 -13.52)" fill="#d1d3d4"/><g transform="translate(115.884 43.929)" style="mix-blend-mode:multiply;isolation:isolate"><g clip-path="url(#cs)"><path d="M79.03,93.8l57.635-44.7,155.78,89.763L233.91,184.6Z" transform="translate(-79.03 -49.104)" fill="#c8cacc"/></g></g><g transform="translate(0 108.261)" style="mix-blend-mode:multiply;isolation:isolate"><g clip-path="url(#ct)"><path d="M422.016,211.671l-57.093,47.152L208.908,167.635l57.075-46.621Z" transform="translate(-208.907 -121.014)" fill="#c8cacc"/></g></g></g><g transform="translate(57.655 201.505)"><g clip-path="url(#cu)"><rect width="143.61" height="91.618" transform="matrix(-0.975, -0.224, 0.224, -0.975, 126.011, 92.476)" fill="url(#cv)"/></g></g><g clip-path="url(#a)"><g transform="translate(82.702 107.76)" style="mix-blend-mode:multiply;isolation:isolate"><g clip-path="url(#cx)"><g transform="translate(0 0)"><g clip-path="url(#cy)"><rect width="46.582" height="23.753" transform="translate(0 0)" fill="url(#cz)"/></g></g></g></g></g><g transform="translate(79.921 27.319)"><g transform="translate(0)" clip-path="url(#da)"><rect width="85.695" height="108.471" transform="matrix(-0.915, -0.403, 0.403, -0.915, 43.083, 114.838)" fill="url(#db)"/></g></g><g transform="translate(87.033 30.854)"><g transform="translate(0)" clip-path="url(#dc)"><rect width="98.199" height="104.072" transform="translate(30.908 117.525) rotate(-140.826)" fill="url(#dd)"/></g></g><g clip-path="url(#a)"><g transform="translate(85.404 29.985)" style="mix-blend-mode:color-dodge;isolation:isolate"><g clip-path="url(#df)"><g transform="translate(0 0)"><g clip-path="url(#dg)"><rect width="44.49" height="93.314" transform="translate(0 -0.993)" fill="url(#dh)"/></g></g></g></g></g><g transform="translate(101.566 49.526)"><g clip-path="url(#di)"><path d="M320.075,99.514l20.673-32.773L316.856,38.4,296.184,71.169Z" transform="translate(-307.283 -53.572)" fill="url(#dj)"/></g></g><g clip-path="url(#a)"><g transform="translate(103.692 49.565)" style="mix-blend-mode:multiply;isolation:isolate"><g transform="translate(0)"><g clip-path="url(#dl)"><path d="M314.2,80.971c6.176-3.566,11.183-12.2,11.183-19.289a8.7,8.7,0,0,0-2.126-6.278c3.331.3,5.577,3.131,5.577,7.872,0,7.087-5.007,15.723-11.183,19.288-3.73,2.154-7.025,1.952-9.057-.1a9.638,9.638,0,0,0,5.606-1.5" transform="translate(-308.592 -55.404)" fill="#d1d3d4"/></g></g></g></g></g></g></svg>