<svg id="Grupo_888275" data-name="Grupo 888275" xmlns="http://www.w3.org/2000/svg" xmlns:xlink="http://www.w3.org/1999/xlink" width="109" height="109" viewBox="0 0 109 109">
  <defs>
    <clipPath id="clip-path">
      <rect id="Rectángulo_326048" data-name="Rectángulo 326048" width="109" height="109" fill="#9ea257"/>
    </clipPath>
  </defs>
  <g id="Grupo_876852" data-name="Grupo 876852" clip-path="url(#clip-path)">
    <path id="Trazado_616564" data-name="Trazado 616564" d="M54.5,109A54.5,54.5,0,1,1,109,54.5,54.563,54.563,0,0,1,54.5,109" fill="#fff"/>
    <path id="Trazado_616565" data-name="Trazado 616565" d="M69.074,108.586a39.511,39.511,0,1,1,39.511-39.511,39.556,39.556,0,0,1-39.511,39.511" transform="translate(-14.574 -14.575)" fill="#e0e0e0"/>
    <path id="Trazado_616566" data-name="Trazado 616566" d="M68.448,69.318V29.578a39.553,39.553,0,0,0-38.885,39.5c0,21.577,15.844,32,19.344,32.5.208,0,19.331-32.5,19.541-32.5,8.453,0-15.473,12.039-9.041,7.5Z" transform="translate(-14.574 -14.582)" fill="#9ea257"/>
    <path id="Trazado_616567" data-name="Trazado 616567" d="M108.218,88.092A19.953,19.953,0,1,1,88.266,68.139a19.953,19.953,0,0,1,19.952,19.953" transform="translate(-33.677 -33.592)" fill="#eee"/>
    <path id="Trazado_616568" data-name="Trazado 616568" d="M84.918,107.361v-2.027H80.794v-1.69l4.371-6.4h1.622v6.391h1.251v1.7H86.787v2.027Zm0-3.724v-3.444L82.6,103.637Z" transform="translate(-39.83 -47.941)"/>
    <path id="Trazado_616569" data-name="Trazado 616569" d="M100.155,97.246a2.751,2.751,0,0,1,2.289,1.044,6.671,6.671,0,0,1,.983,4.1,6.675,6.675,0,0,1-.99,4.109,2.748,2.748,0,0,1-2.282,1.031,2.883,2.883,0,0,1-2.37-1.131,6.678,6.678,0,0,1-.9-4.031,6.656,6.656,0,0,1,.99-4.1,2.748,2.748,0,0,1,2.281-1.031m0,1.6a.964.964,0,0,0-.625.224,1.5,1.5,0,0,0-.426.8,16.376,16.376,0,0,0-.022,4.958,1.713,1.713,0,0,0,.451.883.988.988,0,0,0,1.247,0,1.5,1.5,0,0,0,.426-.8,16.354,16.354,0,0,0,.02-4.951,1.74,1.74,0,0,0-.45-.886.953.953,0,0,0-.623-.224" transform="translate(-47.763 -47.941)"/>
    <path id="Trazado_616570" data-name="Trazado 616570" d="M112.363,99.648a2.908,2.908,0,0,1,.594-2.007,2.073,2.073,0,0,1,1.613-.653,2.12,2.12,0,0,1,1.645.649,3.693,3.693,0,0,1,0,4.018,2.072,2.072,0,0,1-1.612.653,2.12,2.12,0,0,1-1.646-.649,2.9,2.9,0,0,1-.594-2.01m1.506-.014a2.606,2.606,0,0,0,.226,1.319.585.585,0,0,0,.955,0,2.665,2.665,0,0,0,.221-1.319,2.621,2.621,0,0,0-.221-1.312.58.58,0,0,0-.955-.008,2.609,2.609,0,0,0-.226,1.32m2.171,7.985h-1.429l5.367-10.63h1.388Zm3.12-2.645a2.908,2.908,0,0,1,.595-2.007,2.359,2.359,0,0,1,3.258,0,3.7,3.7,0,0,1,0,4.021,2.072,2.072,0,0,1-1.611.652,2.114,2.114,0,0,1-1.646-.652,2.919,2.919,0,0,1-.595-2.014m1.505-.007a2.561,2.561,0,0,0,.227,1.312.542.542,0,0,0,.474.255.535.535,0,0,0,.475-.248,2.6,2.6,0,0,0,.227-1.319,2.682,2.682,0,0,0-.22-1.321.552.552,0,0,0-.481-.246.536.536,0,0,0-.474.246,2.611,2.611,0,0,0-.227,1.321" transform="translate(-55.394 -47.814)"/>
  </g>
</svg>
