<svg xmlns="http://www.w3.org/2000/svg" xmlns:xlink="http://www.w3.org/1999/xlink" width="109" height="109" viewBox="0 0 109 109"><defs><clipPath id="a"><rect width="109" height="109" fill="#fff"/></clipPath></defs><g clip-path="url(#a)"><path d="M54.5,109A54.5,54.5,0,1,1,109,54.5,54.562,54.562,0,0,1,54.5,109" fill="#fff"/><path d="M69.074,108.586a39.511,39.511,0,1,1,39.512-39.511,39.555,39.555,0,0,1-39.512,39.511" transform="translate(-14.574 -14.575)" fill="#e0e0e0"/><path d="M29.563,69.077A39.555,39.555,0,0,0,68.8,108.585V29.569A39.556,39.556,0,0,0,29.563,69.077" transform="translate(-14.574 -14.577)" fill="#ced371"/><path d="M108.045,88.092A19.953,19.953,0,1,1,88.093,68.139a19.953,19.953,0,0,1,19.952,19.953" transform="translate(-33.593 -33.592)" fill="#eee"/><path d="M80.981,104.944l1.924-.2a1.651,1.651,0,0,0,.488,1.034,1.323,1.323,0,0,0,.934.381,1.3,1.3,0,0,0,1.024-.491,2.236,2.236,0,0,0,.419-1.481,2.031,2.031,0,0,0-.415-1.392,1.391,1.391,0,0,0-1.083-.464,1.966,1.966,0,0,0-1.491.736l-1.567-.228L82.2,97.6H87.31v1.807H83.668l-.3,1.711a2.954,2.954,0,0,1,3.5.611,3.363,3.363,0,0,1,.894,2.426,3.635,3.635,0,0,1-.722,2.22,3.2,3.2,0,0,1-2.728,1.333,3.385,3.385,0,0,1-2.274-.748,3.084,3.084,0,0,1-1.052-2.014" transform="translate(-39.923 -48.115)"/><path d="M99.623,97.245a2.752,2.752,0,0,1,2.288,1.044,6.669,6.669,0,0,1,.983,4.1,6.684,6.684,0,0,1-.99,4.11,2.748,2.748,0,0,1-2.281,1.03,2.881,2.881,0,0,1-2.371-1.13,6.682,6.682,0,0,1-.9-4.031,6.65,6.65,0,0,1,.989-4.1,2.748,2.748,0,0,1,2.282-1.031m0,1.6a.966.966,0,0,0-.626.223,1.506,1.506,0,0,0-.426.8,16.419,16.419,0,0,0-.021,4.958,1.707,1.707,0,0,0,.45.883.987.987,0,0,0,1.247,0,1.5,1.5,0,0,0,.426-.8,16.335,16.335,0,0,0,.021-4.952,1.749,1.749,0,0,0-.45-.887.954.954,0,0,0-.622-.223" transform="translate(-47.501 -47.941)"/><path d="M111.831,99.648a2.908,2.908,0,0,1,.594-2.007,2.069,2.069,0,0,1,1.612-.653,2.119,2.119,0,0,1,1.645.649,3.686,3.686,0,0,1,0,4.017,2.074,2.074,0,0,1-1.612.653,2.118,2.118,0,0,1-1.645-.649,2.907,2.907,0,0,1-.594-2.01m1.5-.014a2.605,2.605,0,0,0,.227,1.319.546.546,0,0,0,.475.248.553.553,0,0,0,.481-.248,2.663,2.663,0,0,0,.22-1.319,2.622,2.622,0,0,0-.22-1.313.58.58,0,0,0-.955-.007,2.61,2.61,0,0,0-.227,1.32m2.172,7.985h-1.429l5.367-10.63h1.388Zm3.12-2.646a2.906,2.906,0,0,1,.594-2.006,2.359,2.359,0,0,1,3.258,0,3.693,3.693,0,0,1,0,4.02,2.073,2.073,0,0,1-1.611.654,2.114,2.114,0,0,1-1.646-.654,2.917,2.917,0,0,1-.594-2.013m1.5-.007a2.551,2.551,0,0,0,.227,1.312.572.572,0,0,0,.948.008,2.6,2.6,0,0,0,.227-1.319,2.674,2.674,0,0,0-.22-1.32.553.553,0,0,0-.481-.247.536.536,0,0,0-.474.247,2.6,2.6,0,0,0-.227,1.32" transform="translate(-55.132 -47.814)"/></g></svg>