<svg xmlns="http://www.w3.org/2000/svg" xmlns:xlink="http://www.w3.org/1999/xlink" width="109" height="109" viewBox="0 0 109 109"><defs><clipPath id="a"><rect width="109" height="109" fill="#a3314f"/></clipPath></defs><g clip-path="url(#a)"><path d="M54.5,109A54.5,54.5,0,1,1,109,54.5,54.562,54.562,0,0,1,54.5,109" fill="#fff"/><path d="M69.074,108.586a39.511,39.511,0,1,1,39.511-39.511,39.556,39.556,0,0,1-39.511,39.511" transform="translate(-14.574 -14.575)" fill="#e0e0e0"/><path d="M68.341,69.267V29.581a39.556,39.556,0,0,0-38.778,39.5c0,.061,0,.122,0,.183a39.556,39.556,0,0,0,38.776,39.319c.244,0,.488.008.733.008a39.554,39.554,0,0,0,39.509-39.327Z" transform="translate(-14.574 -14.583)" fill="#ffb500"/><path d="M105.791,88.093A19.953,19.953,0,1,1,85.838,68.14a19.954,19.954,0,0,1,19.953,19.953" transform="translate(-32.481 -33.592)" fill="#eee"/><path d="M78.7,99.393V97.6h6.6V99a10.347,10.347,0,0,0-1.663,2.308,13.488,13.488,0,0,0-1.289,3.2,11.855,11.855,0,0,0-.436,3.027H80.053a12.928,12.928,0,0,1,.862-4.261,14.168,14.168,0,0,1,2.175-3.882Z" transform="translate(-38.798 -48.115)"/><path d="M97.4,97.247a2.754,2.754,0,0,1,2.289,1.044,6.673,6.673,0,0,1,.983,4.1,6.682,6.682,0,0,1-.99,4.109,2.749,2.749,0,0,1-2.281,1.031,2.884,2.884,0,0,1-2.371-1.131,6.679,6.679,0,0,1-.9-4.03,6.652,6.652,0,0,1,.99-4.1A2.746,2.746,0,0,1,97.4,97.247m0,1.6a.967.967,0,0,0-.626.223,1.508,1.508,0,0,0-.426.8,11.078,11.078,0,0,0-.2,2.523,10.921,10.921,0,0,0,.179,2.436,1.717,1.717,0,0,0,.45.883.988.988,0,0,0,1.247,0,1.5,1.5,0,0,0,.426-.8,16.332,16.332,0,0,0,.021-4.951,1.751,1.751,0,0,0-.45-.887.955.955,0,0,0-.622-.223" transform="translate(-46.402 -47.942)"/><path d="M109.6,99.648a2.91,2.91,0,0,1,.593-2.007,2.074,2.074,0,0,1,1.612-.654,2.122,2.122,0,0,1,1.646.65,3.7,3.7,0,0,1,0,4.018,2.076,2.076,0,0,1-1.612.652,2.122,2.122,0,0,1-1.647-.649,2.908,2.908,0,0,1-.593-2.01m1.5-.014a2.6,2.6,0,0,0,.228,1.319.543.543,0,0,0,.474.247.551.551,0,0,0,.481-.247,2.675,2.675,0,0,0,.219-1.319,2.631,2.631,0,0,0-.219-1.312.58.58,0,0,0-.955-.008,2.6,2.6,0,0,0-.228,1.32m2.172,7.985h-1.429l5.367-10.632h1.388Zm3.12-2.645a2.906,2.906,0,0,1,.594-2.007,2.36,2.36,0,0,1,3.258,0,3.7,3.7,0,0,1,0,4.02,2.07,2.07,0,0,1-1.611.654,2.114,2.114,0,0,1-1.647-.654,2.914,2.914,0,0,1-.594-2.013m1.505-.007a2.554,2.554,0,0,0,.227,1.312.542.542,0,0,0,.474.255.536.536,0,0,0,.475-.248,2.61,2.61,0,0,0,.227-1.319,2.67,2.67,0,0,0-.22-1.32.553.553,0,0,0-.481-.247.536.536,0,0,0-.474.247,2.6,2.6,0,0,0-.227,1.32" transform="translate(-54.034 -47.813)"/></g></svg>