<svg xmlns="http://www.w3.org/2000/svg" xmlns:xlink="http://www.w3.org/1999/xlink" width="109" height="109" viewBox="0 0 109 109"><defs><clipPath id="a"><rect width="109" height="109" fill="#a3314f"/></clipPath></defs><g clip-path="url(#a)"><path d="M54.5,109A54.5,54.5,0,1,1,109,54.5,54.562,54.562,0,0,1,54.5,109" fill="#fff"/><path d="M69.074,108.586a39.511,39.511,0,1,1,39.512-39.511,39.556,39.556,0,0,1-39.512,39.511" transform="translate(-14.574 -14.575)" fill="#e0e0e0"/><path d="M69.074,29.563c-.174,0-.347,0-.521.007V67.591l-26.089-27.7a39.491,39.491,0,0,0,26.089,68.686c.174,0,.347.007.521.007a39.511,39.511,0,1,0,0-79.022" transform="translate(-14.574 -14.574)" fill="#a3314f"/><path d="M107.32,88.092A19.953,19.953,0,1,1,87.368,68.139,19.953,19.953,0,0,1,107.32,88.092" transform="translate(-33.235 -33.592)" fill="#eee"/><path d="M80.273,105.031l1.869-.206a1.352,1.352,0,0,0,.357.846,1.059,1.059,0,0,0,.763.275,1.244,1.244,0,0,0,1.018-.55,4.677,4.677,0,0,0,.535-2.282,2.306,2.306,0,0,1-1.821.845,2.722,2.722,0,0,1-2.051-.917,3.347,3.347,0,0,1-.863-2.388,3.4,3.4,0,0,1,.911-2.471,3.3,3.3,0,0,1,4.834.248,6.121,6.121,0,0,1,.983,3.9,6.2,6.2,0,0,1-1.024,3.986,3.315,3.315,0,0,1-2.666,1.223,2.822,2.822,0,0,1-1.911-.629,3.031,3.031,0,0,1-.934-1.879m4.371-4.219a2.2,2.2,0,0,0-.43-1.451,1.267,1.267,0,0,0-.992-.516,1.11,1.11,0,0,0-.89.423,2.16,2.16,0,0,0-.354,1.385,2.2,2.2,0,0,0,.384,1.432,1.21,1.21,0,0,0,.962.457,1.2,1.2,0,0,0,.938-.44,1.924,1.924,0,0,0,.382-1.292" transform="translate(-39.478 -47.941)"/><path d="M99.076,97.245a2.751,2.751,0,0,1,2.288,1.045,6.665,6.665,0,0,1,.982,4.1,6.687,6.687,0,0,1-.989,4.11,2.747,2.747,0,0,1-2.281,1.031A2.883,2.883,0,0,1,96.7,106.4a6.685,6.685,0,0,1-.9-4.031,6.651,6.651,0,0,1,.989-4.1,2.749,2.749,0,0,1,2.282-1.031m0,1.6a.968.968,0,0,0-.626.223,1.5,1.5,0,0,0-.426.8A16.376,16.376,0,0,0,98,104.829a1.723,1.723,0,0,0,.45.883.989.989,0,0,0,1.248,0,1.5,1.5,0,0,0,.426-.8,16.352,16.352,0,0,0,.02-4.951,1.743,1.743,0,0,0-.45-.887.956.956,0,0,0-.622-.223" transform="translate(-47.231 -47.941)"/><path d="M111.283,99.648a2.907,2.907,0,0,1,.594-2.007,2.071,2.071,0,0,1,1.612-.653,2.122,2.122,0,0,1,1.646.649,3.692,3.692,0,0,1,0,4.017,2.07,2.07,0,0,1-1.612.653,2.119,2.119,0,0,1-1.646-.649,2.905,2.905,0,0,1-.594-2.01m1.5-.014a2.589,2.589,0,0,0,.228,1.319.545.545,0,0,0,.474.247.552.552,0,0,0,.481-.247,2.675,2.675,0,0,0,.219-1.319,2.634,2.634,0,0,0-.219-1.313.579.579,0,0,0-.955-.007,2.593,2.593,0,0,0-.228,1.32m2.171,7.985H113.53l5.368-10.63h1.388Zm3.121-2.645a2.905,2.905,0,0,1,.594-2.007,2.359,2.359,0,0,1,3.258,0,3.693,3.693,0,0,1,0,4.02,2.069,2.069,0,0,1-1.611.653,2.112,2.112,0,0,1-1.646-.653,2.913,2.913,0,0,1-.594-2.013m1.505-.007a2.549,2.549,0,0,0,.227,1.312.542.542,0,0,0,.474.255.533.533,0,0,0,.474-.248,2.593,2.593,0,0,0,.228-1.319,2.676,2.676,0,0,0-.22-1.32.553.553,0,0,0-.482-.247.535.535,0,0,0-.474.247,2.6,2.6,0,0,0-.227,1.32" transform="translate(-54.861 -47.814)"/></g></svg>