<svg xmlns="http://www.w3.org/2000/svg" width="156" height="156" viewBox="0 0 156 156"><g transform="translate(5956 -1748)"><g transform="translate(-6468 -4381)"><circle cx="78" cy="78" r="78" transform="translate(512 6129)" fill="#f1a99c"/></g><g transform="translate(-5929.324 1773.648)"><g transform="translate(7.323 10.352)"><path d="M37.159,19.66l1.329-.931c.4.058.89.283,1.157.125s.289-.7.419-1.076l1.533-.625a1.252,1.252,0,0,0,1.534.47,11.579,11.579,0,0,1,6.147.208,12.292,12.292,0,0,1,8.8,9.445c.24,1,.545,1.231,1.44,1.042a7.185,7.185,0,0,1,8.886,5.569c.234.934.639,1.16,1.52.773a4.227,4.227,0,0,1,2.991-.195c1.372.407,1.6.256,1.772-1.212A8.317,8.317,0,0,1,90.562,30.73a1.39,1.39,0,0,0,1.821.973,4.86,4.86,0,0,1,3.692.715,5.372,5.372,0,0,1,2.431,5.825,5.565,5.565,0,0,1-4.932,4.2,5.4,5.4,0,0,0-3.21.975,4.622,4.622,0,0,0-1.713,3.854c0,4.355-.023,8.71-.037,13.065l-4.18-.011c-.01-4.47-.008-8.94-.033-13.41a4.286,4.286,0,0,0-4.279-4.412q-8.022-.082-16.045,0a4.283,4.283,0,0,0-4.3,4.388c-.021.9-.029,1.809-.043,2.714l-6.147,0c-.015-.788-.036-1.575-.042-2.363A4.387,4.387,0,0,0,48.8,42.487c-3.419-.005-6.841.089-10.257-.028a4.713,4.713,0,0,0-5.1,5.083c.112,6.308.019,12.62.01,18.93H30.7q-.014-9.6-.029-19.208a4.42,4.42,0,0,0-4.741-4.78c-1.959-.009-3.92.042-5.877-.029a5.3,5.3,0,0,1-5.043-3.576A4.972,4.972,0,0,1,16.186,33.3a5.126,5.126,0,0,1,5.946-1.271,1.158,1.158,0,0,0,1.607-.548A7.134,7.134,0,0,1,31.971,28.4c.921.244,1.3.028,1.485-.921a12.167,12.167,0,0,1,3.331-6.34,1.229,1.229,0,0,0,.37-1.482m26.2,12.307c.177-.182.575-.406.613-.681a1.114,1.114,0,0,0-.425-.924,4.458,4.458,0,0,0-3.043-.481,6.079,6.079,0,0,1-1.977.184c-1.464-.245-1.922-1.4-2.223-2.7a10.764,10.764,0,0,0-10.156-8.281c-.635-.017-1.178.173-1.209.841s.485.9,1.128.928a9.053,9.053,0,0,1,8.659,7.43,4.463,4.463,0,0,0,5.369,3.526,11.428,11.428,0,0,1,2.564.027,5.582,5.582,0,0,1,.7.135m28.488,3.3c.213-.029.643-.1,1.075-.147.639-.077,1.117-.361.931-1.069-.163-.62-.623-.792-1.3-.645-1.74.378-2.649-.132-3.451-1.737a8.767,8.767,0,0,0-1.089-1.784,6.6,6.6,0,0,0-4.892-2.36.854.854,0,0,0-.992.871c-.031.574.294.841.854.879a5.032,5.032,0,0,1,4.6,3.316,4.2,4.2,0,0,0,4.262,2.676M20.334,33.316a3.836,3.836,0,0,0-3.9,3.444c-.017.585.173,1.082.757,1.04a1.359,1.359,0,0,0,.948-.787c.581-1.814,1.358-2.248,3.094-1.586A4.354,4.354,0,0,0,26.236,34c.406-.532.789-1.088,1.239-1.58.383-.418.6-.842.193-1.3-.444-.5-.982-.334-1.4.053a8.02,8.02,0,0,0-1.056,1.273,2.765,2.765,0,0,1-3.76,1.187,11.2,11.2,0,0,0-1.123-.311m11.18-1.471c.157-.167.578-.424.691-.779.187-.587-.629-1.214-1.686-1.184a1.412,1.412,0,0,0-1.024.788c-.2.569.589,1.053,2.019,1.175M96.88,37.127c-.016-1.28-.482-2.045-1.034-2.034-.663.013-.9.54-.737,1.659.008.057,0,.116.011.173.086.6.425,1.048,1.022.9.353-.087.609-.568.739-.7M66.8,34.6a6.089,6.089,0,0,0-.512-1.458c-.175-.253-.686-.523-.907-.434a1.239,1.239,0,0,0-.617.893,2,2,0,0,0,.331,1.237,1.237,1.237,0,0,0,.956.5c.282-.038.509-.486.748-.741" transform="translate(-12.904 -15.562)" fill="#adadad"/><path d="M27.87,61.264c.009-6.31.1-12.622-.01-18.93a4.713,4.713,0,0,1,5.1-5.083c3.415.116,6.838.022,10.257.028a4.386,4.386,0,0,1,4.744,4.752c.006.788.028,1.576.042,2.363-.018.173-.027.348-.056.519-.139.821.157,1.134,1.028,1.083,1.25-.074,2.507-.019,3.761-.019,1.56,0,1.56,0,1.415-1.581.014-.9.022-1.81.043-2.714a4.283,4.283,0,0,1,4.3-4.388q8.022-.073,16.045,0a4.285,4.285,0,0,1,4.279,4.412c.026,4.47.024,8.94.034,13.41v1.529h4.179V55.13c.014-4.355.037-8.71.037-13.065a4.623,4.623,0,0,1,1.713-3.854,5.4,5.4,0,0,1,3.21-.975,5.565,5.565,0,0,0,4.932-4.2,5.372,5.372,0,0,0-2.431-5.825,4.86,4.86,0,0,0-3.692-.715,1.39,1.39,0,0,1-1.821-.973A8.316,8.316,0,0,0,69.11,28.045c-.168,1.468-.4,1.619-1.772,1.212a4.229,4.229,0,0,0-2.992.2c-.881.386-1.285.161-1.52-.774A7.185,7.185,0,0,0,53.94,23.11c-.9.189-1.2-.04-1.44-1.042a12.292,12.292,0,0,0-8.8-9.446,11.581,11.581,0,0,0-6.147-.208,1.252,1.252,0,0,1-1.534-.47c-.062-.757.325-1.083,1.041-1.243A14.337,14.337,0,0,1,53.92,20.525c.067.22.147.435.219.648,4.985-.441,8.391,1.648,10.236,6.231h2.968c.176-.623.3-1.251.53-1.839A9.722,9.722,0,0,1,76.6,18.881a9.624,9.624,0,0,1,9.485,4.951,1.381,1.381,0,0,0,1.461.816,7.2,7.2,0,0,1,7.234,6.21,7.27,7.27,0,0,1-5.452,7.928,14,14,0,0,1-1.907.245,2.627,2.627,0,0,0-2.575,2.693c-.029,4.886-.011,9.771-.007,14.657a1.407,1.407,0,0,0,.068.286c.2.012.4.037.6.032.743-.018,1.033.367,1.062,1.08.157,3.917.333,7.832.5,11.749.063,1.49.091,2.983.206,4.47a1.223,1.223,0,0,0,.582.805c2.07,1.14,4.176,2.214,6.24,3.364a1.351,1.351,0,0,1,.668.968c-.018.295-.519.56-.808.839L89.2,77.579l-1.859-1.021c.274,6.13.536,12.019.8,17.908-.307.289-.61.8-.921.8-.294,0-.6-.519-.9-.81-.065-1.735-.129-3.471-.195-5.233H84.392l-1.752,0H75.634v5.233c-.307.293-.609.807-.924.816s-.621-.507-.932-.792c.029-.259.074-.518.084-.779.207-5.185.4-10.37.63-15.553a1.067,1.067,0,0,0-.764-1.256c-.245-.085-.474-.214-.71-.323-.51-.333-1.024-.662-.766-1.411.812-1.087,1.541-.018,2.36.131.118-2.864.235-5.69.351-8.516.121-2.95.251-5.9.358-8.851.029-.811.33-1.286,1.213-1.219.161.012.323,0,.527,0,0-5.12.019-10.145-.012-15.17a2.507,2.507,0,0,0-2.568-2.477q-7.984-.048-15.968,0a2.433,2.433,0,0,0-2.5,2.145c-.1,1.562-.024,3.135-.024,4.769.234,0,.4,0,.572,0,1.331.017,1.487.179,1.533,1.515.054,1.548.121,3.1.184,4.644q.454,11.042.918,22.083c.01.234.093.584.256.674,1.6.883,3.217,1.723,4.922,2.622.014-.261.026-.4.026-.531,0-1.784-.011-3.567.006-5.351.009-.971.565-1.311,1.436-.9.422.2.825.437,1.241.646a.969.969,0,0,1,.589,1.285l-1.511.606c0,1.648.007,3.484,0,5.32-.007,1.228-.566,1.549-1.673.981l-3.569-1.83L59.3,76.8c.259,6,.511,11.834.763,17.663-.3.288-.608.809-.9.8-.311-.008-.609-.518-.912-.809-.081-2.32-.162-4.64-.245-7h-1.73l-1.819,0c-.662-.04-1.358-.025-1.5-.918.106-.91.8-.873,1.456-.909h3.313v-6.1H55.992l-1.756,0H44.4v6.13c.626,0,1.349.028,2.07-.008a1.071,1.071,0,0,1,1.286.886,1.119,1.119,0,0,1-1.307.888c-.743-.031-1.488-.007-2.3-.007L43.9,94.458c-.3.291-.6.8-.912.81-.293.008-.6-.513-.9-.8.245-5.693.437-11.388.77-17.076.082-1.4-.289-2.21-1.622-2.568l-3.644-1.968c0,.479,0,.758,0,1.037,0,1.632.015,3.263-.006,4.895-.013.972-.578,1.311-1.444.887-.808-.4-1.6-.823-2.4-1.236l-1.817-1c0,.373-.007.547,0,.72q.357,8.151.717,16.3c-.31.289-.614.8-.932.8-.292.008-.6-.519-.9-.811v-4.2H28.927l-1.752,0h-5.01v4.2c-.3.291-.605.818-.9.811-.316-.008-.62-.514-.929-.8.061-1.1.134-2.208.181-3.313.147-3.461.272-6.924.429-10.385.084-1.853.383-1.344-1.3-2.268a.644.644,0,0,0-.169-.039c-.735-.409-1.463-.833-2.207-1.225q-4.52-2.384-9.047-4.752c-.191-.13-.476-.219-.554-.4-.147-.34-.342-.824-.2-1.075s.653-.345,1.018-.4c.189-.027.414.183.62.292L20.159,76.77c.276.146.555.287.936.485.1-2.258.2-4.384.29-6.51.085-2.045.151-4.091.235-6.136.067-1.636.1-1.666,1.707-1.829v-.851q0-9.87,0-19.74c0-2.155-1-3.155-3.167-3.162-1.96-.007-3.921.04-5.879-.025a7.241,7.241,0,0,1-6.915-6.386,7.025,7.025,0,0,1,5.335-7.7,17.765,17.765,0,0,1,3.626-.055,1.177,1.177,0,0,0,.8-.24,8.915,8.915,0,0,1,8.7-3.375c.115.017.233.02.331.027A28.126,28.126,0,0,1,27.571,18a37.51,37.51,0,0,1,2.339-3.261,1.089,1.089,0,0,1,1.668-.289,1.229,1.229,0,0,1-.37,1.482,12.169,12.169,0,0,0-3.331,6.34c-.185.948-.564,1.165-1.485.921a7.135,7.135,0,0,0-8.233,3.078,1.157,1.157,0,0,1-1.607.548,5.126,5.126,0,0,0-5.946,1.271,4.972,4.972,0,0,0-1.181,5.582,5.3,5.3,0,0,0,5.043,3.576c1.957.071,3.918.02,5.877.029a4.42,4.42,0,0,1,4.741,4.78q.017,9.6.029,19.208v1.521H27.87Zm.907,23.884-1.756,0H22.468v3.162l.16.13,4.4,0,1.747,0h1.672v-3.29ZM28.206,73.03h1.6V69.747H28.055l-1.745,0H23.128v3.281h3.257l1.821,0m.037,1.85L26.5,74.873H22.973l-.16,3.3H26.68l1.735-.01h1.563V74.88H28.243m.343,8.435h1.8c-.06-1.156-.115-2.237-.174-3.387l-1.781.093-1.74.019H22.721v3.266h4.132l1.733.008M84.259,87.4h1.8L85.85,83.07h-9.88V87.4h8.289m-.527-12.292H85.4V70.782H83.557l-1.751,0H76.488v4.328h7.245m-.371-10.478H76.792v4.336h8.492c-.069-1.5-.135-2.907-.2-4.333Zm.69,16.621h1.605V76.927H83.879l-1.755,0H76.264v4.333H82.3l1.753,0M55.284,63.613l-1.746,0H45.044v6.093h8.665l1.759,0h1.607v-6.1Zm-.357-7.927H45.385v6.1h8l1.755,0h1.6v-6.1Zm.875,22h1.6V71.47l-1.816.09-1.72,0H44.735v6.1h9.337l1.73.021M27.9,67.925H29.61V64.652H23.36v3.27h2.785l1.752,0m55.308-5.108H84.88v-4.3H77.086c-.066,1.464-.129,2.875-.194,4.3h4.563l1.75,0M53.01,53.87l1.751,0H56.4v-6.09H45.723V53.87ZM42.91,73.682a2.557,2.557,0,0,0,.08-.347q.529-12.534,1.049-25.069c.087-2.133.059-2.134,2.164-2.38,0-1.264,0-2.542,0-3.819-.008-2.025-1-3.022-3.01-3.025q-5.266-.007-10.532,0c-1.993,0-3,1.027-3,3.04q0,9.959,0,19.918v.83c1.519.043,1.616.109,1.679,1.5.157,3.447.282,6.9.44,10.343.013.283.1.7.3.813,1.2.7,2.438,1.322,3.759,2.022,0-1.917,0-3.7,0-5.477,0-1.524.515-1.821,1.885-1.1l2.32,1.23,2.871,1.517" transform="translate(-7.323 -10.352)" fill="#050404"/><path d="M11.179,275.865q4.524,2.375,9.047,4.752c.744.392,1.472.816,2.207,1.225-.064,1.922-.11,3.845-.2,5.767-.154,3.4-.335,6.8-.5,10.2H11.179V275.865" transform="translate(-10.277 -213.734)" fill="#eebe27"/><path d="M236.344,281.677l3.569,1.83c1.107.568,1.666.248,1.673-.981.01-1.836,0-3.672,0-5.32l1.511-.606,1.492.782c.123.405.133,1,.4,1.161s.788-.141,1.2-.239l1.49.8c-.259.749.256,1.079.766,1.411-.054.548-.134,1.094-.159,1.643-.126,2.729-.258,5.458-.348,8.189-.089,2.677-.13,5.355-.192,8.033l-10.712,0c-.061-2.148-.1-4.3-.19-6.445-.147-3.418-.333-6.834-.5-10.251" transform="translate(-182.753 -214.297)" fill="#eebe27"/><path d="M119.614,283.04c.8.413,1.594.839,2.4,1.236.865.424,1.431.085,1.444-.887.021-1.631.006-3.263.007-4.895v-1.037l3.644,1.967q-.166,4.573-.332,9.146-.184,5.229-.358,10.458l-6.338,0c-.053-.52-.136-1.038-.155-1.559-.129-3.554-.24-7.11-.368-10.664-.018-.492-.141-.984-.128-1.473.021-.765.118-1.527.182-2.29" transform="translate(-93.197 -214.954)" fill="#edbd27"/><path d="M172.7,335.92c.139.893.835.878,1.5.918.048,1.108.094,2.216.145,3.323.028.6.3,1.042.945,1.027.688-.016.834-.512.814-1.105-.036-1.08-.057-2.161-.085-3.242h1.73c.083,2.361.164,4.681.245,7H163.64c.08-2.3.16-4.607.244-7.039.812,0,1.558-.024,2.3.007a1.119,1.119,0,0,0,1.307-.888h1.692c.3.292.607.821.9.811.317-.011.618-.519.925-.81H172.7" transform="translate(-127.061 -259.736)" fill="#f95b3c"/><path d="M356.714,297.642l4.754,2.395V314.49h-4.26c-.054-.753-.132-1.5-.159-2.258-.129-3.636-.241-7.274-.368-10.91-.016-.462-.135-.924-.125-1.384.018-.766.1-1.531.158-2.3" transform="translate(-274.834 -230.415)" fill="#eebe27"/><path d="M299.246,352.621v-5.233h7.006c.022.873.029,1.746.073,2.618.029.565.328.971.925.938s.849-.43.826-1.02c-.032-.843-.049-1.687-.073-2.531h1.739c.066,1.762.13,3.5.195,5.233l-10.691,0" transform="translate(-230.935 -268.521)" fill="#f85c3c"/><path d="M77.512,351.826H79.4v4.2H70.75v-4.2h5.01q0,.307.007.614c.006.545.245.921.818.935.6.015.9-.348.935-.932.012-.2,0-.409-.008-.614" transform="translate(-55.908 -271.918)" fill="#f95b3c"/><path d="M149.3,305.47q.179-5.229.358-10.459.161-4.574.332-9.146c1.333.358,1.7,1.17,1.622,2.568-.332,5.687-.525,11.383-.77,17.075l-1.543-.039" transform="translate(-116.075 -221.394)" fill="#cb9120"/><path d="M285.078,311.18c.062-2.678.1-5.356.192-8.033.091-2.73.223-5.46.349-8.189.025-.549.1-1.1.159-1.643.237.109.466.238.711.323a1.066,1.066,0,0,1,.764,1.256c-.235,5.183-.424,10.369-.63,15.553-.01.26-.055.52-.084.779l-1.459-.046" transform="translate(-220.083 -227.101)" fill="#cb9120"/><path d="M351.146,294.3c-.056.765-.14,1.53-.158,2.3-.011.46.109.921.125,1.384.127,3.636.239,7.274.368,10.91.027.754.1,1.505.159,2.258l-1.555.038c-.263-5.889-.525-11.778-.8-17.908l1.859,1.021" transform="translate(-269.267 -227.073)" fill="#cb9120"/><path d="M231.062,295.257c.169,3.417.354,6.833.5,10.251.093,2.147.128,4.3.19,6.445l-1.542.038c-.252-5.829-.5-11.658-.763-17.663l1.613.928" transform="translate(-177.471 -227.878)" fill="#cb9120"/><path d="M114.259,298.051c-.065.763-.161,1.526-.182,2.29-.014.489.11.981.128,1.473.127,3.555.239,7.11.368,10.664.019.521.1,1.039.155,1.559l-1.566.038q-.359-8.151-.718-16.3c-.007-.173,0-.347,0-.72l1.817,1" transform="translate(-87.842 -229.965)" fill="#cb9120"/><path d="M56.275,317.375c.169-3.4.349-6.8.5-10.2.087-1.921.133-3.844.2-5.767a.644.644,0,0,1,.169.039c1.684.924,1.384.415,1.3,2.268-.156,3.461-.282,6.924-.428,10.385-.047,1.1-.12,2.209-.181,3.313l-1.561-.039" transform="translate(-44.82 -233.301)" fill="#cb9120"/><path d="M118.23,18.123c-.13.375-.158.921-.419,1.076s-.762-.068-1.157-.125c.093-.442.043-1.04.314-1.29.408-.377.925-.112,1.262.339" transform="translate(-91.07 -15.907)" fill="#0d0c08"/><path d="M162.623,38.274a5.527,5.527,0,0,0-.7-.134,11.413,11.413,0,0,0-2.564-.027,4.463,4.463,0,0,1-5.369-3.526,9.053,9.053,0,0,0-8.659-7.43c-.644-.026-1.159-.256-1.128-.928s.574-.857,1.209-.841a10.764,10.764,0,0,1,10.156,8.281c.3,1.305.759,2.459,2.223,2.7a6.079,6.079,0,0,0,1.977-.184,4.458,4.458,0,0,1,3.043.481,1.113,1.113,0,0,1,.425.924c-.038.274-.436.5-.613.681" transform="translate(-112.171 -21.869)" fill="#ebebeb"/><path d="M312.848,69.228a4.2,4.2,0,0,1-4.261-2.676,5.032,5.032,0,0,0-4.6-3.316c-.56-.038-.885-.3-.854-.879a.855.855,0,0,1,.992-.871,6.6,6.6,0,0,1,4.892,2.36A8.764,8.764,0,0,1,310.1,65.63c.8,1.6,1.711,2.115,3.451,1.737.677-.147,1.138.024,1.3.644.186.708-.292.992-.931,1.069-.432.052-.862.118-1.075.147" transform="translate(-233.908 -49.519)" fill="#ebebeb"/><path d="M26.295,77.995a11.073,11.073,0,0,1,1.123.311,2.765,2.765,0,0,0,3.76-1.187,8.008,8.008,0,0,1,1.056-1.273c.413-.388.952-.556,1.4-.053.408.462.19.886-.193,1.3-.451.492-.833,1.048-1.24,1.58a4.353,4.353,0,0,1-5.006,1.429c-1.736-.663-2.513-.228-3.094,1.586a1.358,1.358,0,0,1-.948.787c-.583.043-.774-.455-.756-1.04a3.835,3.835,0,0,1,3.9-3.444" transform="translate(-18.865 -60.24)" fill="#ebebeb"/><path d="M187.034,155.828c.145,1.581.145,1.581-1.415,1.581-1.254,0-2.511-.055-3.761.019-.87.051-1.166-.261-1.028-1.083.029-.171.038-.346.056-.519l6.148,0" transform="translate(-140.204 -121.785)" fill="#7e7e7e"/><path d="M317.183,201.67v1.518H313v-1.529l4.179.011" transform="translate(-241.474 -156.893)" fill="#848484"/><path d="M86.11,227.923v1.522H83.355v-1.521H86.11" transform="translate(-65.563 -177.011)" fill="#848484"/><path d="M80.143,73.511c-1.429-.122-2.218-.606-2.019-1.175a1.411,1.411,0,0,1,1.024-.788c1.057-.031,1.874.6,1.686,1.183-.113.355-.534.613-.691.779" transform="translate(-61.533 -57.227)" fill="#eaeaea"/><path d="M360.236,95.85c-.129.131-.385.612-.738.7-.6.147-.936-.306-1.022-.9-.008-.057,0-.116-.011-.173-.16-1.119.074-1.646.737-1.659.552-.011,1.018.754,1.034,2.034" transform="translate(-276.26 -74.285)" fill="#eaeaea"/><path d="M230.959,85.474c-.239.255-.466.7-.748.741a1.237,1.237,0,0,1-.956-.5,2,2,0,0,1-.331-1.237,1.239,1.239,0,0,1,.617-.893c.22-.088.732.181.907.434a6.088,6.088,0,0,1,.512,1.458" transform="translate(-177.064 -66.433)" fill="#ebebeb"/><path d="M174.32,312.983h-1.693c-.307-.291-.607-.8-.925-.811-.288-.011-.6.518-.9.809h-1.692a1.071,1.071,0,0,0-1.286-.886c-.72.036-1.443.008-2.07.008v-6.131H175.6q.09,3.049.179,6.1c-.652.036-1.35,0-1.456.909" transform="translate(-128.684 -236.799)" fill="#ececec"/><path d="M178.709,176.394h-7.287v-6.088H182.1v6.09H180.46c0-.175,0-.35,0-.524,0-.961.044-1.927-.038-2.881a.906.906,0,0,0-1.035-.942c-.6.069-.695.512-.689,1.025.013,1.107.006,2.213.007,3.32" transform="translate(-133.022 -132.876)" fill="#ececec"/><path d="M176.536,278.018H167.2v-6.1h9.134q.1,3.051.2,6.1" transform="translate(-129.788 -210.709)" fill="#f95c3c"/><path d="M177.187,244.06h-8.665v-6.093h8.494q.085,3.046.171,6.093" transform="translate(-130.801 -184.705)" fill="#ededed"/><path d="M177.972,210.178h-8v-6.1h7.789q.1,3.049.206,6.1" transform="translate(-131.916 -158.747)" fill="#f95c3c"/><path d="M309.185,220.466h-4.563c.064-1.427.128-2.838.194-4.3h7.794v4.3h-1.675a6.189,6.189,0,0,0-.036-1.653,1.435,1.435,0,0,0-.862-.89c-.517-.112-.829.337-.848.878s0,1.109,0,1.664" transform="translate(-235.053 -168.003)" fill="#ebebeb"/><path d="M307.221,325.447h-6.538v-4.333h6.362q.088,2.166.175,4.333" transform="translate(-232.036 -248.395)" fill="#ececec"/><path d="M307.971,299.181h-6.035v-4.332h5.86q.088,2.166.175,4.332" transform="translate(-232.996 -228.276)" fill="#f95c3c"/><path d="M308.386,272.931h-5.494V268.6h5.319l.176,4.328" transform="translate(-233.728 -208.172)" fill="#ececec"/><path d="M309.181,246.657h-4.989v-4.336h4.814q.088,2.168.175,4.336" transform="translate(-234.724 -188.04)" fill="#f95c3c"/><path d="M78.64,245.67H75.855V242.4H82.1v3.273H80.392c0-.2,0-.4,0-.6.02-.528-.182-1.017-.734-.913-.378.071-.719.5-1,.84-.113.136-.021.443-.022.673" transform="translate(-59.818 -188.1)" fill="#ececec"/><path d="M76.6,333.27l-4.4,0-.16-.13v-3.162H76.6q0,1.644,0,3.289" transform="translate(-56.899 -255.187)" fill="#ececec"/><path d="M77.253,311.425H73.121v-3.266h3.972q.08,1.633.16,3.266" transform="translate(-57.724 -238.471)" fill="#f85c3c"/><path d="M77.385,289.377H73.518l.16-3.3h3.531q.088,1.65.176,3.3" transform="translate(-58.028 -221.557)" fill="#dbdbdb"/><path d="M213.579,271.627l1.816-.09v6.212h-1.6q-.107-3.06-.213-6.121" transform="translate(-165.315 -210.419)" fill="#da5338"/><path d="M207.95,271.917q.107,3.061.213,6.122l-1.729-.021q-.1-3.052-.2-6.1l1.719,0" transform="translate(-159.686 -210.709)" fill="#fec7be"/><path d="M203.471,210.178q-.1-3.049-.206-6.1h1.752q.1,3.05.208,6.1l-1.755,0" transform="translate(-157.414 -158.747)" fill="#fec7be"/><path d="M212.281,237.959h1.791v6.1h-1.607q-.092-3.05-.184-6.1" transform="translate(-164.32 -184.698)" fill="#e3e3e3"/><path d="M215.307,305.99h1.737v6.1h-1.566l-.171-6.1" transform="translate(-166.638 -236.81)" fill="#e8e8e8"/><path d="M206.566,237.959q.092,3.05.184,6.1l-1.759,0q-.085-3.046-.171-6.093l1.746,0" transform="translate(-158.605 -184.698)" fill="#fefefe"/><path d="M209.56,305.98l.171,6.1h-1.748q-.09-3.049-.179-6.1l1.756,0" transform="translate(-160.891 -236.8)" fill="#fefefe"/><path d="M210.962,210.186q-.1-3.051-.208-6.1h1.8v6.1Z" transform="translate(-163.151 -158.751)" fill="#f85c3c"/><path d="M78.119,267.447H74.862v-3.281h3.182q.038,1.641.075,3.281" transform="translate(-59.058 -204.773)" fill="#f85c3c"/><path d="M327.152,299.181q-.087-2.166-.175-4.332l1.755,0q.087,2.165.173,4.329l-1.753,0" transform="translate(-252.177 -228.276)" fill="#fefaf9"/><path d="M324.939,246.657q-.087-2.168-.175-4.336h1.755q.088,2.167.176,4.333h-1.756" transform="translate(-250.482 -188.04)" fill="#fefaf9"/><path d="M333.1,268.6h1.841v4.331h-1.665L333.1,268.6" transform="translate(-256.87 -208.165)" fill="#eaeaea"/><path d="M335.353,321.109h1.767c.068,1.418.137,2.848.208,4.334h-1.8q-.088-2.167-.176-4.334" transform="translate(-258.593 -248.391)" fill="#eaeaea"/><path d="M332.442,246.658q-.088-2.167-.176-4.333h1.723c.066,1.427.131,2.833.2,4.333Z" transform="translate(-256.229 -188.043)" fill="#f75c3d"/><path d="M329.623,321.109q.088,2.167.176,4.334h-1.751q-.088-2.166-.175-4.333h1.751" transform="translate(-252.863 -248.391)" fill="#fefefe"/><path d="M327.372,268.6l.176,4.331H325.8l-.176-4.328,1.751,0" transform="translate(-251.139 -208.165)" fill="#fefefe"/><path d="M334.651,299.185l-.173-4.329h1.778v4.329Z" transform="translate(-257.923 -228.281)" fill="#f75c3d"/><path d="M210.564,339.846c.027,1.081.049,2.162.085,3.242.02.593-.126,1.089-.814,1.105-.648.015-.917-.423-.945-1.027-.051-1.108-.1-2.215-.145-3.323l1.819,0" transform="translate(-161.612 -262.742)" fill="#fec7be"/><path d="M202.538,182.072c0-1.107.005-2.214-.007-3.32-.006-.513.086-.955.689-1.025a.906.906,0,0,1,1.035.942c.082.954.033,1.92.038,2.881,0,.175,0,.349,0,.524Z" transform="translate(-156.851 -138.554)" fill="#fefefe"/><path d="M97.531,307.773l1.781-.093c.059,1.15.115,2.231.174,3.387h-1.8q-.077-1.647-.153-3.294" transform="translate(-76.422 -238.104)" fill="#e1593d"/><path d="M89.469,289.377q-.088-1.65-.176-3.3l1.738.007q.086,1.641.173,3.282l-1.735.01" transform="translate(-70.112 -221.557)" fill="#fefefe"/><path d="M330.936,347.394c.023.844.04,1.687.073,2.531.022.59-.24.988-.826,1.021s-.9-.373-.925-.938c-.044-.872-.05-1.745-.073-2.618l1.752,0" transform="translate(-253.868 -268.521)" fill="#fefaf9"/><path d="M88.534,267.447q-.038-1.641-.075-3.281l1.745,0q.076,1.641.151,3.282l-1.821,0" transform="translate(-69.473 -204.773)" fill="#fec7be"/><path d="M91.834,308.077q.077,1.647.153,3.294l-1.733-.009q-.08-1.633-.16-3.266l1.74-.019" transform="translate(-70.725 -238.409)" fill="#fec7be"/><path d="M96.892,289.389l-.173-3.283h1.736v3.283Z" transform="translate(-75.8 -221.579)" fill="#ededed"/><path d="M98.984,329.989h1.667v3.29H98.979q0-1.645.005-3.29" transform="translate(-77.531 -255.193)" fill="#e3e3e3"/><path d="M93.254,329.983q0,1.645-.005,3.29l-1.747,0q0-1.644,0-3.289l1.756,0" transform="translate(-71.801 -255.187)" fill="#fefefe"/><path d="M96.068,267.457q-.076-1.641-.151-3.282h1.755v3.282Z" transform="translate(-75.186 -204.78)" fill="#f75c3d"/><path d="M324.1,226.174c0-.555-.016-1.11,0-1.664s.331-.99.848-.878a1.435,1.435,0,0,1,.862.89,6.194,6.194,0,0,1,.036,1.653l-1.75,0" transform="translate(-249.971 -173.712)" fill="#fefefe"/><path d="M93.913,351.826c0,.2.02.41.008.614-.035.584-.333.947-.935.932-.573-.015-.812-.39-.818-.935q0-.307-.007-.614l1.752,0" transform="translate(-72.309 -271.918)" fill="#fec7be"/><path d="M87.642,251.379c0-.229-.092-.537.022-.673.28-.336.622-.768,1-.84.552-.1.754.385.734.913-.007.2,0,.4,0,.6l-1.752,0" transform="translate(-68.821 -193.809)" fill="#fefefe"/><path d="M72.044,343.492l.16.13-.16-.13" transform="translate(-56.899 -265.536)" fill="#e3e3e3"/><path d="M271.593,279.019c.411-.1.937-.392,1.2-.238s.277.756.4,1.161c-.41.1-.937.393-1.2.238s-.278-.756-.4-1.161" transform="translate(-209.753 -215.934)" fill="#0d0c08"/><path d="M187.329,333.271c.3-.291.608-.82.9-.809.318.012.618.519.925.811-.308.291-.608.8-.925.81-.289.01-.6-.52-.9-.812" transform="translate(-145.207 -257.087)" fill="#0d0c08"/></g></g></g></svg>