<svg xmlns="http://www.w3.org/2000/svg" width="156" height="156" viewBox="0 0 156 156"><g transform="translate(5636 -1407)"><g transform="translate(-6148 -4722)"><circle cx="78" cy="78" r="78" transform="translate(512 6129)" fill="#f1a99c"/></g><g transform="translate(-5601.66 1442)"><g transform="translate(0.66)"><path d="M86.847,58.379l-48.78-.01a1.152,1.152,0,0,0-.177.018c.456,1.594,1.032,3.171,1.352,4.8A19.441,19.441,0,1,1,14.95,47.972a1.147,1.147,0,0,0,.926-.888c1.765-5.713,3.569-11.414,5.326-17.129a2.063,2.063,0,0,0-.077-1.334c-2.053-4.59-4.159-9.156-6.218-13.743a3.893,3.893,0,0,1,.064-3.468Q17.71,5.938,20.434.459A2.162,2.162,0,0,0,20.548,0H80.789q2.923,5.867,5.849,11.733c.042.084.138.142.208.212v2.524a4.643,4.643,0,0,0-.376.583c-2.063,4.516-4.131,9.03-6.158,13.563a2.275,2.275,0,0,0-.107,1.413q2.448,9.05,4.969,18.081c.532,1.916,1.114,3.819,1.673,5.729ZM41.02,13.98H17.587c.137.339.231.6.344.847,2.058,4.534,4.13,9.062,6.161,13.608a2.058,2.058,0,0,1,.092,1.328c-1.685,5.481-3.41,10.949-5.122,16.422-.106.339-.181.687-.282,1.077.3,0,.524,0,.746,0A19.089,19.089,0,0,1,35.678,55.05a1.319,1.319,0,0,0,1.218.512q23.094-.009,46.189,0h1.038a14.356,14.356,0,0,0-.252-1.818c-2.2-7.983-4.422-15.959-6.608-23.945a2.28,2.28,0,0,1,.1-1.419c2.027-4.548,4.1-9.077,6.156-13.611.112-.246.212-.5.343-.806H60.422V24.994H41.02ZM20.126,83.349A16.672,16.672,0,1,0,3.481,66.644,16.708,16.708,0,0,0,20.126,83.349M60.5,2.835v8.209H83.165c-1.275-2.554-2.528-5.02-3.733-7.51a1.139,1.139,0,0,0-1.205-.753c-5.632.027-11.264.015-16.9.017-.272,0-.543.024-.832.037m-19.551.009c-.219-.021-.354-.045-.489-.045-5.825,0-11.651-.011-17.476.022a1.194,1.194,0,0,0-.86.56c-1.173,2.257-2.294,4.541-3.429,6.817-.132.264-.255.533-.405.847h22.66Zm16.683,0h-13.8v8.225h13.8ZM52.1,19.515h2.791V22.18h2.721V13.965H43.832V22.18h2.746V19.5h2.758v2.665H52.1Z" transform="translate(-0.66)" fill="#040403"/><path d="M121.8,80.594V91.609h19.4V80.573h23.445c-.131.308-.231.56-.343.806-2.058,4.534-4.128,9.063-6.156,13.611a2.28,2.28,0,0,0-.1,1.419c2.185,7.987,4.409,15.962,6.608,23.945a14.288,14.288,0,0,1,.252,1.818h-1.038q-23.094,0-46.189.005a1.318,1.318,0,0,1-1.217-.512,19.09,19.09,0,0,0-16.151-7.788c-.222,0-.445,0-.746,0,.1-.389.176-.738.282-1.077,1.712-5.473,3.437-10.941,5.122-16.422a2.056,2.056,0,0,0-.092-1.328c-2.031-4.546-4.1-9.075-6.161-13.609-.113-.25-.207-.508-.344-.847Zm37.439,24.954H137.086v13.83h22.158Z" transform="translate(-81.444 -66.615)" fill="#deb18a"/><path d="M33.591,321.994A16.672,16.672,0,1,1,50.3,305.33a16.67,16.67,0,0,1-16.706,16.664m5.553-5.038,6.108-6.148-5.6-5.519,5.529-5.5-6.2-6.2L33.519,299.2l-5.353-5.41-6.161,6.158,5.533,5.5-5.483,5.421,6.162,6.148,5.475-5.538,5.452,5.477" transform="translate(-14.125 -238.645)" fill="#e4e7ea"/><path d="M346.074,16.108c.289-.014.561-.037.832-.037,5.632,0,11.264.01,16.9-.017a1.139,1.139,0,0,1,1.205.753c1.2,2.49,2.458,4.956,3.733,7.51H346.074Z" transform="translate(-286.234 -13.273)" fill="#ce9d75"/><path d="M125.077,16.192v8.2h-22.66c.15-.315.273-.583.405-.847,1.135-2.276,2.256-4.56,3.429-6.817a1.193,1.193,0,0,1,.86-.56c5.825-.032,11.651-.024,17.476-.022.135,0,.27.024.489.045" transform="translate(-84.789 -13.348)" fill="#ce9d75"/><rect width="13.797" height="8.225" transform="translate(43.174 2.848)" fill="#fad56f"/><path d="M258.133,86.163V88.81h-2.764V86.146H252.61v2.682h-2.746V80.613h13.781v8.215h-2.721V86.163Z" transform="translate(-206.692 -66.648)" fill="#f7d36e"/><path d="M344,238.573H321.843v-13.83H344Zm-2.769-11.023H324.666v8.229h16.566Z" transform="translate(-266.201 -185.809)" fill="#050504"/><path d="M63.289,340.556l-5.452-5.477-5.475,5.538L46.2,334.469l5.483-5.421-5.533-5.5,6.161-6.158,5.353,5.41,5.464-5.605,6.2,6.2-5.529,5.5,5.6,5.519-6.108,6.148M52.3,321.31l-2.246,2.241,5.47,5.459-5.462,5.45,2.16,2.172,5.56-5.572,5.4,5.452,2.332-2.11-5.551-5.537,5.459-5.448-2.247-2.248-5.52,5.538-5.357-5.4" transform="translate(-38.27 -262.245)" fill="#030202"/><path d="M354.707,249.174H338.141v-8.229h16.566Zm-13.835-2.748H351.9v-2.713H340.871Z" transform="translate(-279.676 -199.204)" fill="#e4e7eb"/><path d="M70.921,340.274l5.357,5.4,5.52-5.538,2.247,2.248-5.459,5.448,5.551,5.537-2.332,2.11-5.4-5.452-5.56,5.572-2.16-2.172,5.462-5.45-5.47-5.459,2.246-2.241" transform="translate(-56.892 -281.208)" fill="#f97f6b"/><rect width="11.028" height="2.713" transform="translate(61.196 44.509)" fill="#080808"/></g></g></g></svg>