<svg xmlns="http://www.w3.org/2000/svg" width="156" height="156" viewBox="0 0 156 156"><g transform="translate(5627 -1062)"><g transform="translate(-6139 -5067)"><circle cx="78" cy="78" r="78" transform="translate(512 6129)" fill="#f1a99c"/></g><g transform="translate(-5639.839 1088.205)"><g transform="translate(53.839)"><path d="M63.083,102.4a3.792,3.792,0,0,1-2.021-3.844c.064-8.062.028-16.125.028-24.188,0-3.2.666-3.92,3.8-4.147,0-2.511.086-5.024-.055-7.524a3.9,3.9,0,0,0-1.169-2.02c-2.653-2.946-5.38-5.824-8.042-8.761a5.073,5.073,0,0,1,.062-7.113,4.312,4.312,0,0,1,4.968-.908c1.443.658,2.86,1.374,4.365,2.1V27.989c-.327-.018-.646-.05-.965-.051-2.3,0-4.6.022-6.9-.01a3.082,3.082,0,0,1-3.3-3.317c-.01-7.1.009-14.193-.013-21.29A3.309,3.309,0,0,1,56.283,0h6.8l.987,1.592a1.881,1.881,0,0,1-2.187,1.425C60.23,2.954,58.574,3,56.911,3V24.863H65c.341-3.492,1.954-5.411,4.565-5.512a4.4,4.4,0,0,1,3.055,1.007,5.541,5.541,0,0,1,1.913,4.589l1.737-.088h2.411V3.036h-2.4c-2.429-.012-4.858-.055-7.287-.021a1.778,1.778,0,0,1-2.044-1.456L68.083,0h11.4c1.769.8,2.309,2.183,2.287,4.084-.078,6.727-.029,13.455-.031,20.182,0,2.5-1.158,3.66-3.66,3.669-1.161,0-2.323,0-3.536,0v6.4a15.846,15.846,0,0,1,3.449.231,4.88,4.88,0,0,0,2.87.011,6.524,6.524,0,0,1,4.584.289,1.167,1.167,0,0,0,.88,0,7.244,7.244,0,0,1,4.6-.333A3.592,3.592,0,0,1,93.849,38.3c.016,2.931-.088,5.866.046,8.79a25,25,0,0,0,.879,3.84,32.757,32.757,0,0,1,.782,4.385c.1,1.382-.443,1.794-1.855,1.891a1.977,1.977,0,0,1-1.135-1.719,13.834,13.834,0,0,0-.635-3.5,16.486,16.486,0,0,1-1.1-6.618c.113-2.092.024-4.194.024-6.292,0-1.666-.091-1.751-1.769-1.653-1.592-.086-1.687,0-1.688,1.525q0,4.349,0,8.7a6.6,6.6,0,0,1-.047,1,1.473,1.473,0,0,1-2.923-.054,7,7,0,0,1-.034-.9q0-4.05,0-8.1c0-2.288-.028-2.3-2.354-2.213-.8.03-1.124.358-1.117,1.166.025,3,.01,6,.01,9,0,.3.012.6-.01.9a1.448,1.448,0,0,1-1.448,1.474A1.467,1.467,0,0,1,77.956,48.6a4.945,4.945,0,0,1-.032-.9c0-3.033.007-6.066-.014-9.1,0-.335-.133-.939-.274-.961a8.7,8.7,0,0,0-2.623-.107c-.242.038-.492.913-.5,1.407-.046,3.065-.018,6.132-.026,9.2,0,1.094-.566,1.765-1.457,1.789-.925.025-1.52-.675-1.542-1.816,0-.233,0-.466,0-.7q0-11.248-.007-22.5a4.646,4.646,0,0,0-.175-1.37,1.59,1.59,0,0,0-3.078.017,4.612,4.612,0,0,0-.157,1.373q-.014,11.5-.009,23c0,1.761-1.026,2.4-2.611,1.636-1.916-.923-3.859-1.8-5.727-2.812a1.618,1.618,0,0,0-2.457,1.616,3.458,3.458,0,0,0,.8,1.738c2.628,2.925,5.31,5.8,7.982,8.687a7.44,7.44,0,0,1,2.012,5.176c.015,1.8,0,3.6.006,5.4,0,.288.028.577.045.893,2.416,0,4.748.006,7.08,0q5.247-.018,10.493-.052h1.944c0-.787.033-1.516-.006-2.24a8.845,8.845,0,0,1,1.657-5.729c.382-.542.7-1.13,1.058-1.689.663-1.033,1.136-1.186,2.348-.779a1.657,1.657,0,0,1,.185,2.407c-.247.354-.423.763-.7,1.09-1.719,2.043-1.678,4.449-1.482,6.938.605.049,1.2.057,1.78.151a2.661,2.661,0,0,1,2.254,2.224,6.228,6.228,0,0,1,.089,1.091q.007,12.636,0,25.272c0,2-.527,2.763-2.33,3.453Zm25.991-3.035h2.784V75.644c0-2.69,0-2.69-2.8-2.339a5.738,5.738,0,0,0-.594-.061q-11.8,0-23.594,0c-.225,0-.449.039-.719.065V99.323a3.011,3.011,0,0,0,.431.069q12.246-.01,24.492-.026" transform="translate(-53.839)" fill="#040403"/><path d="M251.959,15.4a1.752,1.752,0,0,1,1.458,2.035c-.049,2.4,0,4.8-.019,7.2a3.054,3.054,0,0,1-3.224,3.29q-10.7.043-21.391,0a3.068,3.068,0,0,1-3.267-3.349c-.011-7.064.017-14.127-.02-21.19A3.537,3.537,0,0,1,227.767,0h23.2a3.466,3.466,0,0,1,2.456,3.8c-.09,2.286-.037,4.578-.014,6.867a1.573,1.573,0,0,1-1.439,1.8c-1.189-.252-1.562-.687-1.569-1.9-.011-1.859,0-3.717,0-5.576V3.031H228.572V24.939h1.121q7.191,0,14.381,0c1.229,0,2.459-.041,3.688-.062H250.4c0-2.513,0-4.966,0-7.419,0-1.3.285-1.659,1.56-2.051" transform="translate(-179.72)" fill="#040303"/><path d="M180.154,162.611c-1.212-.406-1.684-.253-2.348.779-.359.559-.676,1.147-1.058,1.689a8.845,8.845,0,0,0-1.657,5.729c.039.725.006,1.453.006,2.24h-1.944a28.062,28.062,0,0,1,.032-3.394,9.018,9.018,0,0,1,.818-2.916,33.711,33.711,0,0,1,2.365-3.8,8.6,8.6,0,0,0,1.255-7.74,24.467,24.467,0,0,1-1.088-8.441c.1-2.161.017-4.33.016-6.5,1.679-.1,1.769-.013,1.769,1.653,0,2.1.089,4.2-.024,6.292a16.487,16.487,0,0,0,1.1,6.618,13.836,13.836,0,0,1,.635,3.5,1.978,1.978,0,0,0,1.135,1.719l-1.015,2.572" transform="translate(-141.307 -102.837)" fill="#f9c6b9"/><path d="M309,11.365h2.631v1.964c0,1.859-.008,3.717,0,5.576.007,1.213.381,1.648,1.569,1.9q-.006,1.466-.011,2.933c-1.275.393-1.556.751-1.56,2.051-.006,2.453,0,4.906,0,7.419h-2.635l0-21.843" transform="translate(-240.953 -8.334)" fill="#d34953"/><path d="M98.466,98.914c0,2.166.081,4.334-.016,6.5a24.473,24.473,0,0,0,1.088,8.441,8.605,8.605,0,0,1-1.255,7.74,33.684,33.684,0,0,0-2.365,3.8,9.012,9.012,0,0,0-.818,2.916,28.013,28.013,0,0,0-.032,3.394q-5.247.027-10.493.052c-2.332.008-4.664,0-7.08,0-.017-.316-.044-.6-.045-.893,0-1.8.009-3.6-.006-5.4a7.441,7.441,0,0,0-2.012-5.177c-2.672-2.885-5.354-5.762-7.982-8.687a3.458,3.458,0,0,1-.8-1.737,1.618,1.618,0,0,1,2.457-1.616c1.868,1.013,3.811,1.889,5.727,2.812,1.584.763,2.609.124,2.61-1.636q.008-11.5.009-23a4.612,4.612,0,0,1,.157-1.373,1.59,1.59,0,0,1,3.078-.017,4.639,4.639,0,0,1,.175,1.37q.015,11.248.007,22.5c0,.233,0,.467,0,.7.021,1.141.617,1.841,1.542,1.816.89-.024,1.454-.7,1.457-1.789.009-3.066-.02-6.133.026-9.2.007-.494.257-1.369.5-1.407a8.7,8.7,0,0,1,2.623.107c.141.021.271.625.274.961.021,3.033.011,6.066.013,9.1a4.946,4.946,0,0,0,.032.9,1.467,1.467,0,0,0,1.511,1.321,1.448,1.448,0,0,0,1.448-1.474c.022-.3.01-.6.01-.9,0-3,.015-6-.009-9-.007-.808.32-1.137,1.117-1.166,2.325-.086,2.353-.075,2.353,2.213q0,4.05,0,8.1a6.99,6.99,0,0,0,.034.9,1.473,1.473,0,0,0,2.923.054,6.564,6.564,0,0,0,.047-1q0-4.35,0-8.7c0-1.525.1-1.611,1.688-1.525" transform="translate(-63.222 -61.491)" fill="#fddbcc"/><path d="M117.43,300.779q-12.246.015-24.492.026a2.967,2.967,0,0,1-.431-.069V274.723c.27-.025.494-.065.719-.065q11.8,0,23.594,0a5.744,5.744,0,0,1,.594.06q.008,13.03.016,26.061M99.069,283.7h.005c0-.364-.006-.728,0-1.092a1.389,1.389,0,0,0-1.264-1.526,1.314,1.314,0,0,0-1.613,1.125,12.89,12.89,0,0,0,.028,3.142,1.261,1.261,0,0,0,1.563,1.041,1.348,1.348,0,0,0,1.277-1.4c.017-.43,0-.861,0-1.291" transform="translate(-82.195 -201.413)" fill="#365d7c"/><path d="M72.519,5.881,75.4,5.848A1.778,1.778,0,0,0,77.44,7.3c2.428-.034,4.858.009,7.287.021q0,10.912-.008,21.823l-1.737.088a5.541,5.541,0,0,0-1.913-4.589,4.4,4.4,0,0,0-3.055-1.007c-2.61.1-4.224,2.019-4.565,5.512H65.36V7.29c1.663,0,3.319-.047,4.972.016a1.881,1.881,0,0,0,2.187-1.425m2.064,13.965c-1.005-1.031-1.918-2-2.865-2.93A1.5,1.5,0,1,0,69.578,19q1.919,1.965,3.887,3.883a1.489,1.489,0,0,0,2.294.028c.175-.154.334-.325.5-.49,2.213-2.214,4.435-4.419,6.634-6.646A1.485,1.485,0,0,0,83,13.485a1.527,1.527,0,0,0-2.22.163c-.245.226-.473.469-.708.7l-5.488,5.494" transform="translate(-62.288 -4.289)" fill="#b1e29d"/><path d="M185.925,300.508q-.008-13.031-.016-26.061c2.8-.35,2.8-.35,2.8,2.34v23.721Z" transform="translate(-150.69 -201.142)" fill="#294961"/><path d="M137.954,33.21q0-10.912.008-21.824h2.4V33.21Z" transform="translate(-115.523 -8.35)" fill="#95d4a2"/><path d="M256.225,11.365l0,21.843c-1.229.022-2.458.06-3.688.062q-7.191.011-14.381,0h-1.121V11.365ZM247.914,24.3c1.246,1.281,2.305,2.435,3.436,3.514a1.4,1.4,0,0,0,2.463-.659A2.453,2.453,0,0,0,253.2,25.5c-.987-1.11-2.1-2.107-3.25-3.232,1.132-1.094,2.141-2.062,3.139-3.041a2.776,2.776,0,0,0,.641-.756,1.409,1.409,0,0,0-.417-1.875,1.433,1.433,0,0,0-1.994.179c-1.125,1.119-2.219,2.269-3.373,3.454-1.144-1.156-2.167-2.2-3.207-3.235-.825-.818-1.715-.915-2.369-.289-.713.682-.626,1.525.275,2.427,1.029,1.031,2.073,2.047,3.217,3.173-1.143,1.113-2.2,2.122-3.232,3.153-.893.89-.97,1.757-.251,2.431.692.649,1.493.559,2.357-.311,1.031-1.038,2.037-2.1,3.177-3.278" transform="translate(-188.179 -8.334)" fill="#db626d"/><path d="M108.994,301.321c0,.43.014.861,0,1.291a1.348,1.348,0,0,1-1.277,1.4,1.261,1.261,0,0,1-1.563-1.041,12.891,12.891,0,0,1-.028-3.142,1.314,1.314,0,0,1,1.613-1.125A1.389,1.389,0,0,1,109,300.229c-.007.364,0,.728,0,1.092h-.005" transform="translate(-92.12 -219.033)" fill="#020304"/><path d="M84.6,39.731l5.488-5.494c.235-.235.464-.479.708-.7a1.527,1.527,0,0,1,2.22-.163,1.485,1.485,0,0,1-.108,2.289c-2.2,2.228-4.421,4.433-6.634,6.646-.165.165-.324.337-.5.49a1.489,1.489,0,0,1-2.294-.028q-1.971-1.913-3.887-3.883a1.5,1.5,0,1,1,2.14-2.083c.947.932,1.86,1.9,2.865,2.93" transform="translate(-72.307 -24.173)" fill="#030403"/><path d="M261.291,37.8c-1.139,1.178-2.146,2.24-3.177,3.278-.864.87-1.665.96-2.357.311-.719-.674-.642-1.542.251-2.431,1.034-1.031,2.09-2.04,3.232-3.153-1.143-1.127-2.188-2.142-3.217-3.173-.9-.9-.987-1.745-.275-2.427.654-.626,1.545-.529,2.369.289,1.04,1.031,2.063,2.079,3.207,3.235,1.154-1.185,2.248-2.334,3.373-3.454a1.433,1.433,0,0,1,1.994-.179,1.409,1.409,0,0,1,.417,1.875,2.777,2.777,0,0,1-.641.756c-1,.978-2.008,1.946-3.139,3.041,1.149,1.125,2.263,2.121,3.25,3.232a2.453,2.453,0,0,1,.611,1.657,1.4,1.4,0,0,1-2.463.659c-1.131-1.079-2.19-2.233-3.436-3.514" transform="translate(-201.556 -21.835)" fill="#030101"/></g></g></g></svg>