<svg xmlns="http://www.w3.org/2000/svg" width="156" height="156" viewBox="0 0 156 156"><g transform="translate(-356 -12611)"><circle cx="78" cy="78" r="78" transform="translate(356 12611)" fill="#f1a99c"/><g transform="translate(385.008 12633.981)"><g transform="translate(5.992 6.096)"><path d="M306.474,236.7l2.739,5.467,2.451-1.221" transform="translate(-237.816 -184.008)" fill="#fdfdfd"/><path d="M8.724,91.053H5.993V88.835q0-4.2,0-8.4a8.2,8.2,0,0,1,5.471-8.073,2.039,2.039,0,0,0,.27-.176,6.822,6.822,0,0,1-1.441-6,6.657,6.657,0,0,1,2.447-3.811,6.83,6.83,0,0,1,8.742.238,7.139,7.139,0,0,1,1.142,9.329,2.8,2.8,0,0,0,.836-.477c1.2-1.45,2.371-2.927,3.542-4.4a4.3,4.3,0,0,0,.929-2.78c-.012-2.827-.007-5.655,0-8.482,0-1.285.466-1.741,1.756-1.749.482,0,.964,0,1.511,0L26.061,35.2c-3.784,1.007-7.493,1.992-11.2,2.983-1.743.466-2.123.253-2.6-1.525Q9.4,26.012,6.542,15.367c-.37-1.378-.046-1.9,1.371-2.282q12.664-3.4,25.327-6.8c1.588-.427,2.048-.174,2.473,1.406q2.874,10.684,5.736,21.37c.4,1.507.117,1.973-1.432,2.387Q34.571,32.9,29.126,34.361c-.107.029-.21.075-.4.147l5.308,19.51c.271.015.547.02.82.048.713.072,1.274.476,1.267,1.166-.037,3.906-.057,7.816-.272,11.715a9.631,9.631,0,0,1-1.98,4.675c-1.857,2.772-3.715,5.543-5.54,8.335a2.453,2.453,0,0,0-.378,1.254c-.031,3.253-.017,6.506-.017,9.843H25.2c0-3.482-.031-6.965.01-10.446a3.277,3.277,0,0,1,.5-1.657c1.955-3.015,3.958-6,5.959-8.983a9.344,9.344,0,0,0,1.716-5.032c.059-2.624.018-5.251.015-7.877a.5.5,0,0,0-.074-.189H30.672c0,2.493-.017,4.919.006,7.344a7.153,7.153,0,0,1-1.605,4.672c-1.317,1.65-2.65,3.288-3.952,4.951a1.952,1.952,0,0,1-1.691.8c-2.968-.024-5.937-.014-8.905-.009a5.491,5.491,0,0,0-5.787,5.81q-.011,5.309-.013,10.617M33.266,9.129,9.43,15.518l5.326,19.859,23.831-6.389L33.266,9.129M21.072,67.8a4.111,4.111,0,1,0-4.106,4.074A4.136,4.136,0,0,0,21.072,67.8" transform="translate(-5.992 -6.096)" fill="#030303"/><path d="M17.949,262.484q.007-5.309.013-10.617a5.49,5.49,0,0,1,5.787-5.81c2.968-.005,5.937-.015,8.905.009a1.952,1.952,0,0,0,1.691-.8c1.3-1.663,2.634-3.3,3.952-4.951a7.155,7.155,0,0,0,1.605-4.672c-.022-2.425-.006-4.851-.006-7.344h2.653a.5.5,0,0,1,.074.189c0,2.626.044,5.252-.015,7.877a9.344,9.344,0,0,1-1.716,5.032c-2,2.985-4,5.968-5.959,8.983a3.275,3.275,0,0,0-.5,1.658c-.041,3.482-.014,6.964-.01,10.446H17.949" transform="translate(-15.217 -177.528)" fill="#7499cb"/><path d="M134.728,276.123H132v-10.1c0-3.843,1.621-5.767,5.393-6.4-2-3.779-1.512-7.2,1.347-9.431a6.852,6.852,0,0,1,9.751,9.448c1.13.09,2.042.17,2.887-.933,3.071-4.009,6.275-7.916,9.432-11.859.829-1.036,1.36-1.124,2.468-.4q1.715,1.125,3.416,2.273c1.143.776,1.249,1.463.4,2.545q-6.9,8.786-13.815,17.558a2.98,2.98,0,0,0-.73,2.08c.057,1.708.017,3.42.017,5.214h-2.731c0-2.111-.05-4.224.014-6.333a3.1,3.1,0,0,1,.581-1.7c3.277-4.244,6.6-8.449,9.916-12.666,1.3-1.653,2.6-3.307,3.929-5.006l-1.827-1.22c-3.338,4.172-6.623,8.263-9.885,12.373a2.115,2.115,0,0,1-1.825.879c-4.308-.025-8.617-.015-12.925-.011a2.783,2.783,0,0,0-3.069,3.072q-.01,5.307-.013,10.614m8.243-24.654a4.111,4.111,0,1,0,4.105,4.159,4.133,4.133,0,0,0-4.105-4.159" transform="translate(-103.206 -191.166)" fill="#020202"/><path d="M182.932,123.411c-1.6,0-3.086,0-4.571,0a4.115,4.115,0,0,1-4.37-4.327q-.011-9.382,0-18.764a4.108,4.108,0,0,1,4.369-4.326q10.71-.008,21.419,0a4.1,4.1,0,0,1,4.369,4.327q.012,9.382,0,18.763a4.114,4.114,0,0,1-4.372,4.326c-2.228.007-4.456-.026-6.682.023a2.821,2.821,0,0,0-1.473.461c-2.809,1.955-5.581,3.964-8.371,5.946-.968.688-2.018.478-2.3-.5a2.1,2.1,0,0,1,.112-1.229c.578-1.541,1.212-3.062,1.871-4.7m2.428,1.3.1.149c.22-.147.446-.287.661-.441,1.464-1.043,2.9-2.13,4.4-3.11a3.818,3.818,0,0,1,1.871-.614c2.4-.071,4.8-.026,7.194-.029,1.354,0,1.815-.45,1.816-1.779q0-9.208,0-18.416c0-1.275-.474-1.738-1.768-1.739q-10.578,0-21.157,0c-1.286,0-1.749.466-1.75,1.757q0,9.208,0,18.416c0,1.291.464,1.757,1.748,1.76,2.113.005,4.226-.015,6.338.009a1.36,1.36,0,0,1,1.357,1.973c-.249.7-.542,1.376-.815,2.063" transform="translate(-135.6 -75.45)" fill="#010101"/><path d="M143.948,286.989q.006-5.307.013-10.614a2.784,2.784,0,0,1,3.069-3.073c4.308,0,8.617-.014,12.925.011a2.115,2.115,0,0,0,1.825-.879c3.262-4.11,6.547-8.2,9.885-12.373l1.827,1.22c-1.334,1.7-2.631,3.353-3.929,5.006-3.312,4.217-6.638,8.422-9.915,12.666a3.1,3.1,0,0,0-.581,1.7c-.064,2.109-.018,4.222-.014,6.333h-15.1" transform="translate(-112.426 -202.032)" fill="#7499ca"/><path d="M274.083,288.893q-1.024-2.147-2.049-4.293c-.135-.282-.267-.567-.42-.84a1.4,1.4,0,0,1,.12-1.811,1.43,1.43,0,0,1,1.733-.245c1.711.7,3.429,1.379,5.239,2.1.22-.625.44-1.227.644-1.835.517-1.537,1.043-3.072,1.532-4.618.235-.744.593-1.322,1.456-1.307.813.013,1.163.56,1.394,1.275.647,2,1.332,3.988,2.027,6.056,1.27-.948,2.485-1.835,3.677-2.752a1.448,1.448,0,0,1,1.872-.227,1.464,1.464,0,0,1,.458,1.83c-.571,1.908-1.1,3.829-1.641,5.746-.051.181-.076.369-.138.677.911-.4,1.716-.738,2.51-1.1a1.406,1.406,0,0,1,1.843,2.07c-1.723,2.885-3.43,5.78-5.146,8.669a3.485,3.485,0,0,1-.243.324l-1.3-.672-1.006-.712,3.256-5.512a7.205,7.205,0,0,1-1.588.625,1.954,1.954,0,0,1-1.394-.256,2.371,2.371,0,0,1-.422-1.367,2.342,2.342,0,0,1,.225-.816c.43-1.525.858-3.051,1.349-4.8-.761.559-1.33.98-1.9,1.4-1.191.87-2.048.6-2.532-.808-.42-1.221-.829-2.446-1.256-3.7-.123.1-.186.123-.2.164q-.535,1.577-1.061,3.158c-.6,1.8-1.046,2.006-2.834,1.289-.849-.34-1.7-.675-2.715-1.077.837,1.682,1.558,3.169,2.316,4.637a1.5,1.5,0,0,1-.02,1.826,1.46,1.46,0,0,1-1.716.371c-.493-.157-1.01-.238-1.664-.387l3.454,5.2-.976.764-1.293.761-4.259-6.378c-.379-.568-.752-1.139-1.135-1.7a1.343,1.343,0,0,1-.041-1.666,1.394,1.394,0,0,1,1.591-.515c.753.174,1.519.293,2.279.436V289l.081-.016-.1-.094" transform="translate(-209.649 -214.365)" fill="#040303"/><path d="M292.23,318.021l.976-.764-3.454-5.2c.655.148,1.172.23,1.665.387a1.459,1.459,0,0,0,1.716-.371,1.5,1.5,0,0,0,.021-1.826c-.758-1.468-1.479-2.955-2.316-4.637,1.015.4,1.866.737,2.715,1.077,1.788.717,2.235.513,2.834-1.289q.525-1.581,1.061-3.158c.014-.041.077-.065.2-.164.426,1.259.836,2.483,1.256,3.7.484,1.406,1.341,1.678,2.532.807.571-.417,1.14-.837,1.9-1.4-.491,1.747-.919,3.273-1.349,4.8a2.34,2.34,0,0,0-.225.816,2.373,2.373,0,0,0,.422,1.367,1.953,1.953,0,0,0,1.394.256,7.212,7.212,0,0,0,1.588-.625l-3.255,5.512,1.006.712H292.23m6.663-4.029h-2.63v2.661h2.63Z" transform="translate(-224.914 -234.442)" fill="#fc7f86"/><path d="M40.455,180.126h2.839a21.4,21.4,0,0,1-1.09,2.453c-.654,1.085-.709,1.293-.011,2.3a4.082,4.082,0,0,1,.011,5.071c-.236.341-.425.715-.651,1.1H38.976a3.783,3.783,0,0,1,.8-2.439c.762-1.079.759-1.3.03-2.356a4.06,4.06,0,0,1-.007-5c.238-.345.425-.726.658-1.128" transform="translate(-31.412 -140.361)" fill="#030303"/><path d="M70.454,180.123h2.838a21.145,21.145,0,0,1-1.087,2.451c-.667,1.1-.717,1.291.03,2.369a4.043,4.043,0,0,1,.015,4.925c-.251.366-.458.761-.705,1.176H68.977a3.758,3.758,0,0,1,.794-2.437c.761-1.081.759-1.308.033-2.356a4.059,4.059,0,0,1-.01-5c.238-.345.425-.726.659-1.132" transform="translate(-54.556 -140.359)" fill="#030303"/><path d="M345.144,233.57l-2.583-.51c.141-2.489,2.343-6.919,4.393-8.834L348.94,226a16.608,16.608,0,0,0-3.8,7.571" transform="translate(-265.657 -174.385)" fill="#050505"/><path d="M311.664,236.786l-2.451,1.221-2.739-5.467,2.444-1.232,2.745,5.478" transform="translate(-237.816 -179.848)" fill="#030303"/><path d="M44.876,19.368,50.2,39.228,26.366,45.617,21.04,25.758l23.836-6.39M37.517,32.026l2.725-4.744-2.363-1.366L35.13,30.647l-4.756-2.723L29.024,30.3l4.727,2.742-2.727,4.748,2.365,1.364L36.14,34.42l4.746,2.721,1.357-2.365-4.726-2.75" transform="translate(-17.602 -16.335)" fill="#e4e8ef"/><path d="M44.23,262.155a4.111,4.111,0,1,1-4.03-4.147,4.14,4.14,0,0,1,4.03,4.147" transform="translate(-29.15 -200.447)" fill="#7498c9"/><path d="M166.124,270.008a4.111,4.111,0,1,1-4.117,4.061,4.132,4.132,0,0,1,4.117-4.061" transform="translate(-126.359 -209.706)" fill="#7498c9"/><path d="M194.626,133.977c.273-.687.566-1.367.815-2.063a1.361,1.361,0,0,0-1.358-1.973c-2.112-.023-4.226,0-6.338-.008-1.283,0-1.747-.469-1.748-1.76q0-9.208,0-18.416c0-1.291.464-1.756,1.749-1.757q10.578,0,21.157,0c1.294,0,1.768.464,1.768,1.739q.005,9.208,0,18.416c0,1.329-.462,1.777-1.816,1.779-2.4,0-4.8-.041-7.194.029a3.821,3.821,0,0,0-1.871.614c-1.5.979-2.939,2.067-4.4,3.11-.216.154-.441.294-.661.441l-.1-.149m3.748-6.786A8.226,8.226,0,1,0,190.11,119a8.243,8.243,0,0,0,8.264,8.188" transform="translate(-144.866 -84.713)" fill="#a0bbe4"/><path d="M287.985,332.215l.1.094-.081.016V332.2l-.022.015" transform="translate(-223.551 -257.687)" fill="#fdfdfd"/><rect width="2.63" height="2.661" transform="translate(71.348 79.55)"/><path d="M64.474,54.135l4.726,2.75-1.357,2.365L63.1,56.529,60.346,61.26,57.981,59.9l2.727-4.748-4.727-2.742,1.35-2.372,4.756,2.723,2.749-4.731L67.2,49.392l-2.725,4.744" transform="translate(-44.559 -38.445)" fill="#040404"/><path d="M212.265,136.452a8.226,8.226,0,1,1,8.187-8.265,8.247,8.247,0,0,1-8.187,8.265m-4.8-5.6,7.39-7.374a5.307,5.307,0,0,0-6.46.824,5.362,5.362,0,0,0-.93,6.549m2.2,2.112a5.46,5.46,0,0,0,6.5-.927,5.247,5.247,0,0,0,.808-6.4l-7.309,7.329" transform="translate(-158.757 -93.974)" fill="#030303"/><path d="M216.748,140.113a5.362,5.362,0,0,1,.93-6.549,5.307,5.307,0,0,1,6.46-.825l-7.39,7.374" transform="translate(-168.042 -103.232)" fill="#e2e7ee"/><path d="M228.784,152l7.309-7.329a5.247,5.247,0,0,1-.808,6.4,5.46,5.46,0,0,1-6.5.927" transform="translate(-177.877 -113.007)" fill="#e2e7ee"/></g></g></g></svg>