<svg xmlns="http://www.w3.org/2000/svg" width="156" height="156" viewBox="0 0 156 156"><g transform="translate(6275 -2128)"><g transform="translate(-6787 -4001)"><circle cx="78" cy="78" r="78" transform="translate(512 6129)" fill="#f1a99c"/></g><g transform="translate(-6241 2162)"><path d="M0,51.658c.1-.912.251-1.822.3-2.737A164.262,164.262,0,0,1,2.412,30.454c.173-1.029.574-1.322,1.826-1.322q15.226,0,30.452,0h1.06c0-.383-.013-.713,0-1.041.317-7.138.6-14.279.976-21.414a6.153,6.153,0,0,1,5.624-5.639C46.226.728,50.1.46,53.979.166A1.569,1.569,0,0,0,54.4,0h1.545L56.8.143,57.664,0H68.477a22.259,22.259,0,0,1,3.531,1.5A50.6,50.6,0,0,1,86.227,15.273a7.7,7.7,0,0,1,1.473,4.9,6.975,6.975,0,0,0,.17,1.281v6.007a1.973,1.973,0,0,0-.165.538q-.021,2.466,0,4.932a1.946,1.946,0,0,0,.167.536v6.178a1.425,1.425,0,0,0-.166.421q-.1,2.094-.173,4.19c-.041,1.127-.259,1.407-1.379,1.724A1.526,1.526,0,0,1,84.94,44.2c.138-3.8.277-7.6.326-11.406.055-4.228.013-8.459.013-12.7-.466-.061-.715-.105-.966-.124q-5.174-.383-10.349-.76a6.365,6.365,0,0,1-6.144-5.824c-.17-1.908-.267-3.822-.384-5.734-.1-1.648-.186-3.3-.282-5.034-.368,0-.649.005-.929,0a180.612,180.612,0,0,0-23.213.949c-2.384.257-3.612,1.372-3.757,3.755-.341,5.65-.661,11.3-.837,16.962a259.681,259.681,0,0,0,.853,29.4,3.654,3.654,0,0,0,3.518,3.454c5.077.334,10.152.749,15.235.934a165.5,165.5,0,0,0,22.953-.945,3.639,3.639,0,0,0,3.334-3.267c.161-1.246.213-2.506.3-3.761.073-1.067.323-1.376,1.382-1.641a1.394,1.394,0,0,1,1.2,1.671c-.119,1.308-.156,2.625-.314,3.928a6.23,6.23,0,0,1-5.9,5.65c-5.614.363-11.232.67-16.848,1-.162.01-.322.044-.487.068-.013.186-.028.327-.031.468A163.173,163.173,0,0,1,61.25,86.212a6.438,6.438,0,0,1-.839,1.658H3.261a8.545,8.545,0,0,1-.853-1.632c-.25-.9-.315-1.841-.5-2.757a1.669,1.669,0,0,1,.986-2.152c1.21.3,1.393.515,1.578,1.781.106.722.242,1.439.364,2.156h7.7c.171.009.342.027.513.027q22.557,0,45.114,0c.221,0,.443-.033.667-.051a161.079,161.079,0,0,0,2.193-24.464c-.234-.022-.427-.045-.621-.056-5.819-.329-11.639-.627-17.455-.994a6.222,6.222,0,0,1-6.25-6.041,1.57,1.57,0,0,0-.855-1.343c-1.159-.676-2.293-1.4-3.407-2.145a.955.955,0,0,0-1.221.007c-2.4,1.544-4.83,3.048-7.241,4.58-.57.362-1.129.727-1.819.363s-.7-1.033-.7-1.712q.011-10.378,0-20.756v-.928H4.848c-.07.318-.139.567-.179.82A161.673,161.673,0,0,0,3.638,77c.127,1.162-.026,1.445-1.067,1.935-1.167-.255-1.388-.487-1.5-1.807C.8,74.1.565,71.06.3,68.027c-.081-.939-.2-1.874-.3-2.811V60.754c.057-1.112.137-2.224.159-3.337A11.138,11.138,0,0,0,0,55.948V51.658M24.1,31.75v19.9c2.26-1.423,4.453-2.761,6.6-4.174a1.805,1.805,0,0,1,2.272.016c1.076.733,2.2,1.4,3.317,2.1-.211-6.008-.42-11.925-.628-17.841ZM84.357,17.433l.123-.225A48.748,48.748,0,0,0,69.86,3.272c.09,3.21.311,6.344.5,9.48A3.827,3.827,0,0,0,74.12,16.64c1,.082,1.991.2,2.988.278,2.416.181,4.832.344,7.249.514" fill="#030302"/><path d="M383.408,126.007a1.946,1.946,0,0,1-.167-.536q-.018-2.466,0-4.932a1.984,1.984,0,0,1,.165-.538Z" transform="translate(-295.539 -92.541)" fill="#1e1e1e"/><path d="M0,244.5a11.132,11.132,0,0,1,.158,1.469c-.021,1.113-.1,2.224-.158,3.337V244.5" transform="translate(0 -188.552)" fill="#1d1d1d"/><path d="M384,159.623v0Z" transform="translate(-296.13 -122.038)" fill="#858585"/><path d="M291.451,0h0Z" transform="translate(-223.833)" fill="#777"/><path d="M245.348.143,244.5,0h.858q0,.072-.01.143" transform="translate(-188.552)" fill="#7f7f7f"/><path d="M248.206.143c.005-.047.009-.095.01-.143h.858l-.868.143" transform="translate(-191.41)" fill="#5e5e5e"/><path d="M215.257,54.652l-.159,2.48c-1.059.264-1.309.573-1.382,1.64-.086,1.255-.137,2.515-.3,3.761a3.639,3.639,0,0,1-3.334,3.267,165.569,165.569,0,0,1-22.953.945c-5.083-.185-10.158-.6-15.235-.934a3.655,3.655,0,0,1-3.518-3.454,259.682,259.682,0,0,1-.853-29.4c.176-5.657.5-11.311.837-16.962.144-2.383,1.373-3.5,3.757-3.755a180.652,180.652,0,0,1,23.213-.95c.281.006.561,0,.93,0,.1,1.736.181,3.385.282,5.034.118,1.912.214,3.826.384,5.734a6.365,6.365,0,0,0,6.144,5.824q5.174.378,10.348.76c.251.019.5.063.966.124,0,4.24.042,8.47-.013,12.7-.049,3.8-.188,7.6-.326,11.406a1.526,1.526,0,0,0,1.211,1.78M195.34,35.1q5.785,0,11.569,0c1.077,0,1.662-.458,1.662-1.283s-.585-1.288-1.662-1.288q-11.484,0-22.967,0c-1.079,0-1.657.457-1.657,1.288s.574,1.282,1.657,1.283q5.7,0,11.4,0m-.164,12.561c3.856,0,7.711.005,11.567,0a1.3,1.3,0,0,0,1.448-1.242,1.347,1.347,0,0,0-1.39-1.327c-.17-.012-.343,0-.514,0q-11.053,0-22.106,0a3.98,3.98,0,0,0-.852.046,1.2,1.2,0,0,0-1.042,1.183c-.047.839.495,1.342,1.493,1.344q5.7.012,11.4,0m-4.515,10.015c-2.313,0-4.626-.012-6.938.006-.917.007-1.417.47-1.438,1.237a1.232,1.232,0,0,0,1.353,1.326c4.654.02,9.308.025,13.962-.025a1.664,1.664,0,0,0,1.157-.7c.558-.862-.154-1.824-1.329-1.835-2.256-.02-4.511-.006-6.767-.006m-.952-29.672c-1.943,0-3.886-.005-5.829,0-1.062,0-1.581.42-1.6,1.247s.524,1.323,1.541,1.327q5.871.021,11.743,0c1.013,0,1.565-.5,1.557-1.316s-.552-1.254-1.589-1.257c-1.943-.008-3.886,0-5.828,0M175.462,56.584c-.355-.608-.609-1.082-.9-1.532a1.276,1.276,0,1,0-2.225,1.247c.665,1.226,1.343,2.447,2.078,3.631a1.234,1.234,0,0,0,2.224-.033c1.327-2.484,2.6-5,3.858-7.518a1.249,1.249,0,0,0-.922-1.833,1.3,1.3,0,0,0-1.438.824c-.858,1.7-1.734,3.381-2.675,5.212m0-25.133c-.311-.537-.544-.951-.788-1.358-.508-.848-1.222-1.1-1.913-.678a1.309,1.309,0,0,0-.329,1.943c.584,1.044,1.2,2.072,1.777,3.118.308.554.708,1.113,1.366.928a2.246,2.246,0,0,0,1.233-1c1.223-2.25,2.365-4.544,3.529-6.826.486-.955.332-1.7-.4-2.069s-1.406-.046-1.9.913c-.834,1.619-1.659,3.242-2.57,5.026m14.233,11.7c1.943,0,3.886,0,5.828,0,1.008,0,1.586-.471,1.6-1.267.016-.817-.542-1.3-1.545-1.3q-5.871-.009-11.742,0c-1.021,0-1.564.466-1.555,1.291.008.808.573,1.276,1.584,1.28,1.943.008,3.886,0,5.828,0M189.659,55.7c1.971,0,3.942.005,5.913,0,1,0,1.565-.487,1.554-1.3-.011-.776-.571-1.268-1.507-1.27q-5.913-.012-11.826,0c-.943,0-1.494.484-1.507,1.265-.014.818.546,1.3,1.546,1.3,1.942.007,3.885,0,5.827,0m-14.2-11.68c-.348-.6-.609-1.1-.911-1.567a1.261,1.261,0,0,0-1.77-.484,1.227,1.227,0,0,0-.468,1.707c.673,1.253,1.365,2.5,2.119,3.705a1.222,1.222,0,0,0,2.181-.011c1.345-2.506,2.644-5.039,3.87-7.6a1.6,1.6,0,0,0-.3-1.436,1.7,1.7,0,0,0-1.388-.21c-.3.07-.572.526-.751.865-.859,1.623-1.681,3.265-2.586,5.035" transform="translate(-129.105 -8.673)" fill="#eaeaea"/><path d="M47.28,138.756H56.2v.928q0,10.378,0,20.756c0,.679.005,1.344.7,1.712s1.249,0,1.819-.363c2.41-1.532,4.838-3.036,7.241-4.58a.955.955,0,0,1,1.221-.007c1.113.749,2.248,1.47,3.407,2.145a1.57,1.57,0,0,1,.855,1.343,6.221,6.221,0,0,0,6.25,6.041c5.816.368,11.637.666,17.455.994.193.011.386.035.62.056a161.079,161.079,0,0,1-2.193,24.464c-.225.018-.446.051-.667.051q-22.557,0-45.114,0c-.171,0-.342-.018-.513-.027l-.517-3.906c3.741-.054,7.484-.071,11.223-.178a3.513,3.513,0,0,0,3.765-3.543q.193-6.549,0-13.107c-.066-2.186-1.554-3.432-3.766-3.569-1.8-.111-3.6-.212-5.4-.209-2.457,0-4.914.111-7.37.173-.055-.964-.164-1.929-.154-2.893.019-1.964.1-3.928.157-5.892.008-.286-.009-.573.012-.857.222-2.943.425-5.887.684-8.827.154-1.749.38-3.493.6-5.236.235-1.826.506-3.648.761-5.472" transform="translate(-34.75 -107.005)" fill="#e39442"/><path d="M20.682,188.365l.517,3.906H13.5c-.122-.717-.258-1.435-.364-2.156-.186-1.266-.368-1.483-1.578-1.781q-.16-1.2-.32-2.393c1.04-.49,1.194-.773,1.066-1.935a161.673,161.673,0,0,1,1.031-44.43c.041-.253.109-.5.179-.82H21.2c-.255,1.824-.527,3.645-.761,5.471-.224,1.743-.45,3.486-.6,5.236-.258,2.94-.462,5.884-.684,8.827-.021.284,0,.571-.012.857-.055,1.964-.138,3.928-.157,5.892-.009.964.1,1.928.154,2.892-.222.051-.444.105-.667.151a3.668,3.668,0,0,0-2.94,3.258,73.7,73.7,0,0,0,0,13.514,3.719,3.719,0,0,0,3.369,3.328c.6.054,1.192.121,1.787.182" transform="translate(-8.667 -107.005)" fill="#e08324"/><path d="M105.331,138.752h11.557c.208,5.916.417,11.833.628,17.841-1.118-.7-2.241-1.369-3.317-2.1a1.805,1.805,0,0,0-2.272-.016c-2.143,1.414-4.336,2.751-6.6,4.174Z" transform="translate(-81.228 -107.002)" fill="#d95a6e"/><path d="M319.793,28.46c-2.416-.17-4.833-.333-7.249-.514-1-.075-1.991-.2-2.988-.278a3.827,3.827,0,0,1-3.762-3.888c-.187-3.136-.408-6.27-.5-9.48a48.748,48.748,0,0,1,14.62,13.935l-.123.225" transform="translate(-235.436 -11.027)" fill="#d7d7d7"/><path d="M245.458,106.823q-5.7,0-11.4,0c-1.083,0-1.657-.451-1.657-1.283s.578-1.288,1.657-1.288q11.483,0,22.967,0c1.077,0,1.662.461,1.662,1.288s-.585,1.283-1.662,1.283q-5.785,0-11.569,0" transform="translate(-179.223 -80.394)"/><path d="M245.292,161.7q-5.7,0-11.4,0c-1,0-1.54-.505-1.493-1.344a1.2,1.2,0,0,1,1.042-1.183,3.98,3.98,0,0,1,.852-.046q11.053,0,22.106,0c.171,0,.343-.008.514,0a1.347,1.347,0,0,1,1.39,1.327,1.3,1.3,0,0,1-1.448,1.242c-3.856.009-7.711,0-11.567,0" transform="translate(-179.22 -122.707)" fill="#050505"/><path d="M240.774,214.139c2.256,0,4.512-.014,6.767.006,1.175.011,1.887.972,1.329,1.835a1.664,1.664,0,0,1-1.156.7c-4.654.05-9.308.045-13.962.025a1.232,1.232,0,0,1-1.353-1.326c.021-.766.521-1.229,1.438-1.237,2.313-.018,4.626-.006,6.938-.006" transform="translate(-179.218 -165.135)" fill="#070707"/><path d="M239.827,84.479c1.943,0,3.886-.005,5.829,0,1.037,0,1.58.445,1.589,1.257s-.544,1.313-1.557,1.316q-5.871.02-11.743,0c-1.017,0-1.555-.5-1.541-1.327s.533-1.243,1.595-1.246c1.943-.007,3.886,0,5.829,0" transform="translate(-179.223 -65.146)" fill="#060606"/><path d="M191.414,188.975c.941-1.831,1.817-3.517,2.675-5.212a1.3,1.3,0,0,1,1.438-.824,1.249,1.249,0,0,1,.922,1.833c-1.253,2.523-2.531,5.033-3.858,7.518a1.234,1.234,0,0,1-2.224.033c-.735-1.185-1.414-2.405-2.078-3.631a1.276,1.276,0,1,1,2.225-1.247c.29.45.544.923.9,1.532" transform="translate(-145.057 -141.065)" fill="#040404"/><path d="M191.45,79.036c.911-1.784,1.737-3.407,2.57-5.026.493-.959,1.169-1.277,1.9-.913s.891,1.114.4,2.069c-1.163,2.283-2.305,4.577-3.529,6.826a2.247,2.247,0,0,1-1.233,1c-.658.185-1.058-.374-1.366-.929-.581-1.045-1.193-2.074-1.777-3.118a1.309,1.309,0,0,1,.33-1.943c.691-.421,1.4-.171,1.913.678.244.407.477.821.788,1.358" transform="translate(-145.091 -56.257)" fill="#040404"/><path d="M239.811,141.972c-1.943,0-3.886.005-5.828,0-1.011,0-1.576-.472-1.584-1.28-.008-.825.534-1.29,1.555-1.292q5.871-.009,11.742,0c1,0,1.561.488,1.545,1.3-.016.8-.593,1.263-1.6,1.267-1.943.007-3.886,0-5.828,0" transform="translate(-179.219 -107.497)" fill="#040404"/><path d="M239.777,196.843c-1.942,0-3.885.005-5.827,0-1,0-1.56-.486-1.546-1.3.013-.781.564-1.264,1.508-1.265q5.913-.012,11.826,0c.936,0,1.5.494,1.507,1.27.011.813-.554,1.3-1.554,1.3-1.971.007-3.942,0-5.913,0" transform="translate(-179.223 -149.813)" fill="#020202"/><path d="M191.392,134.422c.9-1.77,1.727-3.412,2.586-5.035.179-.339.447-.794.751-.865a1.7,1.7,0,0,1,1.388.21,1.6,1.6,0,0,1,.3,1.436c-1.226,2.566-2.526,5.1-3.87,7.6a1.222,1.222,0,0,1-2.181.011c-.754-1.205-1.445-2.452-2.119-3.705a1.227,1.227,0,0,1,.468-1.707,1.261,1.261,0,0,1,1.77.484c.3.469.563.964.911,1.567" transform="translate(-145.036 -99.072)" fill="#040404"/><path d="M34.084,286.107c-.6-.061-1.191-.127-1.787-.182a3.719,3.719,0,0,1-3.369-3.328,73.7,73.7,0,0,1,0-13.514,3.667,3.667,0,0,1,2.94-3.258c.223-.046.445-.1.667-.151,2.457-.063,4.913-.169,7.37-.173,1.8,0,3.6.1,5.4.209,2.212.137,3.7,1.383,3.766,3.569q.2,6.549,0,13.107a3.513,3.513,0,0,1-3.765,3.543c-3.74.107-7.482.124-11.223.178M39.006,268c-2.015.091-4.043.17-6.07.279-1.053.056-1.376.375-1.467,1.394a69.528,69.528,0,0,0,0,12.337c.089,1,.388,1.283,1.381,1.367a72.335,72.335,0,0,0,12.166.01c1.166-.1,1.527-.361,1.538-1.5q.058-6.042,0-12.086c-.01-1.127-.416-1.466-1.535-1.525-2-.1-4-.184-6.016-.275" transform="translate(-22.069 -204.747)" fill="#040302"/><path d="M47.694,276.4c2.018.091,4.018.17,6.016.275,1.119.059,1.524.4,1.535,1.525q.055,6.043,0,12.086c-.011,1.14-.372,1.4-1.538,1.5a72.363,72.363,0,0,1-12.166-.01c-.993-.084-1.292-.365-1.381-1.367a69.509,69.509,0,0,1,0-12.337c.09-1.019.414-1.338,1.467-1.394,2.027-.108,4.055-.188,6.069-.279m-.033,9.117c-1.429,0-2.858-.011-4.287,0-1,.01-1.579.513-1.559,1.306.019.759.6,1.259,1.53,1.263q4.33.017,8.659,0c.978,0,1.58-.535,1.562-1.32-.018-.754-.589-1.239-1.533-1.249-1.457-.016-2.915,0-4.372,0m.1-5.112c-1.486,0-2.972-.009-4.458,0-.925.008-1.495.52-1.484,1.292s.6,1.273,1.518,1.276q4.372.015,8.744,0a1.324,1.324,0,0,0,1.487-1.308c-.009-.758-.589-1.252-1.52-1.259-1.429-.011-2.858,0-4.287,0" transform="translate(-30.757 -213.155)" fill="#e8e8e8"/><path d="M54.173,316.233c1.457,0,2.915-.011,4.372,0,.944.01,1.516.5,1.533,1.249.018.785-.584,1.316-1.562,1.32q-4.329.016-8.659,0c-.935,0-1.511-.5-1.53-1.263-.02-.793.56-1.3,1.559-1.306,1.429-.014,2.858,0,4.287,0" transform="translate(-37.268 -243.867)" fill="#070707"/><path d="M54.277,293.9c1.429,0,2.858-.008,4.287,0,.931.007,1.511.5,1.52,1.259a1.323,1.323,0,0,1-1.487,1.307q-4.372.019-8.744,0c-.921,0-1.507-.516-1.518-1.275s.559-1.284,1.484-1.292c1.486-.013,2.972,0,4.458,0" transform="translate(-37.274 -226.642)" fill="#040404"/><rect width="11.733" height="36.265" transform="translate(39.998 15.67)" fill="#eaeaea"/></g></g></svg>