<svg xmlns="http://www.w3.org/2000/svg" width="156" height="156" viewBox="0 0 156 156"><g transform="translate(6276 -1412)"><g transform="translate(-6788 -4717)"><circle cx="78" cy="78" r="78" transform="translate(512 6129)" fill="#f1a99c"/></g><g transform="translate(-6241 1428.103)"><g transform="translate(0 23.897)"><path d="M0,33.079a9.631,9.631,0,0,0,.319-.911,10.77,10.77,0,0,1,10.294-8.192q23.578-.039,47.155-.01c1.154,0,1.636.486,1.638,1.644q.009,5.1,0,10.208c0,1.158-.485,1.64-1.636,1.648-1.23.009-2.46,0-3.726,0v6.751c1.263,0,2.493-.006,3.723,0,1.155.007,1.637.486,1.639,1.643q.009,5.1,0,10.208c0,1.159-.484,1.641-1.635,1.649-1.346.009-2.692,0-3.91,0v8.1c1.217,0,2.564-.006,3.91,0,1.152.007,1.634.487,1.636,1.646q.009,5.1,0,10.208c0,1.157-.486,1.638-1.638,1.645-1.23.009-2.46,0-3.724,0v6.751c1.168,0,2.363,0,3.558,0,1.377,0,1.806.432,1.807,1.816q0,4.978,0,9.955c0,1.269-.46,1.731-1.723,1.731q-23.409,0-46.818,0A10.778,10.778,0,0,1,.283,91.212,6.26,6.26,0,0,0,0,90.466V78.82l1.339-.866c1.065.265,1.358.617,1.36,1.69.005,2.9,0,5.794,0,8.69a8.115,8.115,0,0,0,8.513,8.544q22.273,0,44.546,0h.884v-8.1c-1.271,0-2.479.006-3.687,0-1.164-.008-1.645-.48-1.648-1.636q-.011-4.43,0-8.859c0-1.168.477-1.646,1.629-1.654,1.23-.009,2.46,0,3.719,0v-8.1c-.888,0-1.733.063-2.563-.018-.77-.075-1.045.22-1.256.935A26.911,26.911,0,0,1,24.514,88.626c-9.256-.932-16.22-5.56-20.962-13.528-.8-1.338-1.387-2.8-2.072-4.2-.315-1.235-.642-2.468-.939-3.707-.2-.843-.362-1.7-.541-2.545V58.9c.045-.027.124-.045.131-.08q.679-3.084,1.348-6.171a5.726,5.726,0,0,0,.353-.644A26.856,26.856,0,0,1,29.641,34.932,27.145,27.145,0,0,1,52.972,54.413c.066.225.284.569.444.577,1.082.051,2.168.027,3.252.027v-8.1c-1.268,0-2.5.007-3.727,0-1.151-.008-1.628-.488-1.631-1.653q-.009-4.43,0-8.859c0-1.159.482-1.63,1.646-1.637,1.228-.008,2.456,0,3.7,0v-8.1h-.636q-22.569,0-45.138.007a8.07,8.07,0,0,0-8.172,8.2C2.687,37.88,2.7,40.89,2.7,43.9c0,1.073-.294,1.424-1.36,1.692L0,44.725V33.079m26.975,53A24.3,24.3,0,1,0,2.7,61.749,24.386,24.386,0,0,0,26.975,86.077" transform="translate(0 -23.946)" fill="#262626"/><path d="M351.443,36.574a2.067,2.067,0,0,1-1.938.861c-1.935-.051-3.872-.012-5.808-.018-1.225,0-1.7-.463-1.7-1.658q-.008-5.093,0-10.187c0-1.194.479-1.653,1.7-1.656,1.936-.005,3.873.033,5.808-.018a2.059,2.059,0,0,1,1.937.861Zm-2.76-9.89h-3.946v8h3.946Z" transform="translate(-265.03 -23.897)" fill="#252525"/><path d="M351.443,126.58a2.068,2.068,0,0,1-1.938.861c-1.935-.051-3.872-.013-5.808-.018-1.225,0-1.7-.463-1.7-1.658q-.008-5.093,0-10.186c0-1.194.479-1.653,1.7-1.656,1.936,0,3.873.034,5.808-.018a2.059,2.059,0,0,1,1.937.861Zm-6.691-1.925H348.7v-8h-3.946Z" transform="translate(-265.03 -93.649)" fill="#252525"/><path d="M351.443,216.585a2.067,2.067,0,0,1-1.938.861c-1.935-.051-3.872-.012-5.808-.018-1.225,0-1.7-.463-1.7-1.658q-.008-5.093,0-10.187c0-1.194.479-1.653,1.7-1.656,1.936,0,3.873.033,5.808-.018a2.059,2.059,0,0,1,1.937.861Zm-2.76-9.89h-3.946v8h3.946Z" transform="translate(-265.03 -163.4)" fill="#252525"/><path d="M351.443,306.591a2.068,2.068,0,0,1-1.938.861c-1.935-.051-3.872-.013-5.808-.018-1.225,0-1.7-.463-1.7-1.658q-.008-5.093,0-10.186c0-1.194.479-1.653,1.7-1.656,1.936-.005,3.873.033,5.808-.018a2.059,2.059,0,0,1,1.937.861Zm-6.693-1.924H348.7v-8H344.75Z" transform="translate(-265.03 -233.151)" fill="#252525"/><path d="M288.142,30.7c0,1.714.007,3.427,0,5.141-.006,1.147-.491,1.627-1.652,1.629q-4.424.009-8.849,0c-1.159,0-1.645-.483-1.647-1.632q-.01-5.141,0-10.282c0-1.093.5-1.582,1.607-1.585q4.466-.011,8.933,0c1.1,0,1.6.493,1.606,1.588.011,1.714,0,3.427,0,5.141m-2.76-3.963h-6.646v8h6.646Z" transform="translate(-213.88 -23.948)" fill="#252525"/><path d="M288.14,120.8c0,1.686.007,3.371,0,5.057-.007,1.1-.5,1.6-1.589,1.607q-4.509.013-9.017,0a1.369,1.369,0,0,1-1.541-1.567q-.013-5.183,0-10.366a1.367,1.367,0,0,1,1.544-1.562q4.551-.016,9.1,0a1.352,1.352,0,0,1,1.5,1.523c.014,1.77,0,3.54,0,5.309m-2.76-4.069h-6.647v8h6.647Z" transform="translate(-213.879 -93.695)" fill="#252525"/><path d="M288.14,210.721c0,1.714.007,3.427,0,5.141-.006,1.107-.493,1.608-1.584,1.611q-4.508.014-9.017,0a1.369,1.369,0,0,1-1.545-1.562q-.014-5.183,0-10.366a1.368,1.368,0,0,1,1.54-1.567q4.551-.016,9.1,0a1.353,1.353,0,0,1,1.5,1.518c.015,1.742,0,3.484,0,5.225m-2.738-3.987h-6.647v8H285.4Z" transform="translate(-213.879 -163.446)" fill="#252525"/><path d="M275.988,300.646c0-1.685-.007-3.371,0-5.056.006-1.106.492-1.6,1.587-1.605q4.509-.013,9.017,0a1.368,1.368,0,0,1,1.542,1.565q.014,5.183,0,10.366a1.369,1.369,0,0,1-1.545,1.564q-4.551.016-9.1,0a1.352,1.352,0,0,1-1.5-1.523c-.014-1.77,0-3.54,0-5.309m2.718,4.067h6.677v-7.967h-6.677Z" transform="translate(-213.878 -233.2)" fill="#252525"/><path d="M5.949,231.319c0-2.06,0-4.12.019-6.18a6.523,6.523,0,0,1,.122-.88c.685,1.4,1.276,2.866,2.072,4.2,4.742,7.968,11.706,12.6,20.961,13.528a26.912,26.912,0,0,0,28.325-19.185c.21-.715.485-1.01,1.255-.935.831.081,1.675.018,2.564.018v8.1c-1.26,0-2.49-.007-3.72,0-1.152.008-1.626.487-1.629,1.654q-.009,4.43,0,8.859c0,1.156.484,1.628,1.648,1.636,1.208.008,2.415,0,3.687,0v8.1h-.884q-22.273,0-44.546,0A8.115,8.115,0,0,1,7.312,241.7c0-2.9,0-5.794,0-8.69,0-1.073-.295-1.425-1.36-1.69m25.64,16.226c1.712,0,3.424.005,5.136,0,1.037,0,1.659-.542,1.635-1.388-.024-.816-.62-1.308-1.627-1.309q-5.094-.008-10.187,0c-1.063,0-1.675.5-1.677,1.345s.608,1.35,1.669,1.354c1.684.006,3.368,0,5.052,0" transform="translate(-4.61 -177.311)" fill="#b2b2b2"/><path d="M6.089,61.957a11.021,11.021,0,0,1-.122-1.131c-.016-1.977-.014-3.953-.019-5.93,1.066-.268,1.358-.619,1.36-1.692.005-3.009-.012-6.019.005-9.028a8.071,8.071,0,0,1,8.172-8.2q22.569-.026,45.138-.007h.636v8.1c-1.239,0-2.467-.006-3.7,0-1.164.008-1.643.479-1.646,1.637q-.01,4.43,0,8.86c0,1.165.48,1.644,1.631,1.653,1.23.009,2.459,0,3.727,0v8.1c-1.085,0-2.17.025-3.252-.027-.16-.007-.378-.352-.444-.577A27.146,27.146,0,0,0,34.251,44.236,26.856,26.856,0,0,0,6.442,61.312a5.73,5.73,0,0,1-.353.645M31.705,38.67c-1.768,0-3.536-.009-5.3,0a1.366,1.366,0,0,0-1.533,1.318c-.018.822.586,1.373,1.561,1.376q5.178.012,10.355,0c.984,0,1.584-.539,1.575-1.362s-.607-1.329-1.6-1.334c-1.684-.009-3.368,0-5.051,0m10.645,2.7a1.35,1.35,0,1,0-1.283-1.393,1.362,1.362,0,0,0,1.283,1.393" transform="translate(-4.61 -33.251)" fill="#b2b2b2"/><path d="M36.277,132.592a24.3,24.3,0,1,1,24.332-24.2,24.343,24.343,0,0,1-24.332,24.2m.022-4.05a20.254,20.254,0,1,0-20.245-20.3,20.294,20.294,0,0,0,20.245,20.3" transform="translate(-9.302 -70.461)" fill="#d54b4b"/><rect width="3.946" height="7.996" transform="translate(79.707 2.787)" fill="#b2b2b2"/><rect width="3.946" height="7.996" transform="translate(79.722 23.01)" fill="#b2b2b2"/><rect width="3.946" height="7.996" transform="translate(79.707 43.296)" fill="#b2b2b2"/><rect width="3.949" height="7.996" transform="translate(79.72 63.521)" fill="#b2b2b2"/><rect width="6.646" height="7.997" transform="translate(64.855 2.787)" fill="#b2b2b2"/><rect width="6.647" height="7.997" transform="translate(64.854 23.04)" fill="#b2b2b2"/><rect width="6.647" height="7.997" transform="translate(64.877 43.287)" fill="#b2b2b2"/><rect width="6.677" height="7.967" transform="translate(64.827 63.546)" fill="#b2b2b2"/><path d="M96.742,326.69c-1.684,0-3.368,0-5.052,0-1.061,0-1.672-.507-1.669-1.354s.614-1.343,1.677-1.345q5.094-.006,10.187,0c1.007,0,1.6.494,1.627,1.31.025.846-.6,1.383-1.635,1.388-1.712.007-3.424,0-5.136,0" transform="translate(-69.763 -256.457)" fill="#262626"/><path d="M96.856,47.968c1.684,0,3.368-.006,5.051,0,1,0,1.594.514,1.6,1.334s-.591,1.36-1.575,1.362q-5.178.012-10.356,0c-.975,0-1.578-.554-1.561-1.376a1.366,1.366,0,0,1,1.533-1.318c1.768-.012,3.536,0,5.3,0" transform="translate(-69.761 -42.549)" fill="#262626"/><path d="M163.288,50.679a1.35,1.35,0,1,1,1.412-1.263,1.358,1.358,0,0,1-1.412,1.263" transform="translate(-125.548 -42.56)" fill="#2b2b2b"/><path d="M50.246,142.491a20.254,20.254,0,1,1,20.26-20.207,20.292,20.292,0,0,1-20.26,20.207M32.7,122.206a17.552,17.552,0,1,0,17.559-17.523A17.587,17.587,0,0,0,32.7,122.206" transform="translate(-23.25 -84.41)" fill="#282727"/><path d="M42.006,131.51a17.551,17.551,0,1,1,17.5,17.583,17.583,17.583,0,0,1-17.5-17.583m21.6-4.021c0-1.794,0-3.479,0-5.163a4.055,4.055,0,1,0-8.1-.043q-.013,4.515,0,9.029A4.056,4.056,0,0,0,59.8,135.59q4.472.01,8.944,0a4.057,4.057,0,1,0,.008-8.1c-1.683-.005-3.366,0-5.145,0" transform="translate(-32.553 -93.714)" fill="#e4e4e4"/><path d="M110.087,141.44c1.779,0,3.462,0,5.145,0a4.058,4.058,0,1,1-.008,8.1q-4.472.008-8.944,0a4.056,4.056,0,0,1-4.292-4.277q-.011-4.515,0-9.029a4.055,4.055,0,1,1,8.1.043c.006,1.685,0,3.37,0,5.163m.695,5.4c1.461,0,2.922,0,4.383,0,1.058,0,1.673-.511,1.668-1.357s-.613-1.338-1.682-1.34c-2.023,0-4.045,0-6.068,0-1.221,0-1.69-.463-1.693-1.67-.007-2.051,0-4.1,0-6.153,0-1-.505-1.6-1.318-1.624-.844-.021-1.377.6-1.379,1.645q-.007,4.425,0,8.85c0,1.165.478,1.645,1.627,1.652,1.489.009,2.978,0,4.467,0" transform="translate(-79.032 -107.665)" fill="#262626"/><path d="M120.088,156.15c-1.489,0-2.978.007-4.467,0-1.149-.007-1.625-.488-1.627-1.652q-.009-4.425,0-8.85c0-1.042.534-1.665,1.379-1.645.813.02,1.315.626,1.318,1.624.007,2.051,0,4.1,0,6.153,0,1.207.472,1.667,1.693,1.67,2.023.005,4.045,0,6.068,0,1.07,0,1.677.493,1.682,1.34s-.609,1.353-1.668,1.357c-1.461.006-2.922,0-4.383,0" transform="translate(-88.338 -116.973)" fill="#4b99bf"/></g></g></g></svg>