<svg xmlns="http://www.w3.org/2000/svg" width="156" height="156" viewBox="0 0 156 156"><g transform="translate(6276 -1759)"><g transform="translate(-6788 -4370)"><circle cx="78" cy="78" r="78" transform="translate(512 6129)" fill="#f1a99c"/></g><g transform="translate(-6267.159 1768.748)"><g transform="translate(18.27 17.936)"><path d="M68.72,17.936c27.748.017,50.775,22.619,50.321,50.209-.506,30.729-22.715,50.442-50.389,50.423C40.646,118.55,18.7,98.5,18.274,68.028,17.89,40.452,40.941,17.919,68.72,17.936m-.16,97.444c25.824.088,47.347-20.87,46.977-46.71-.41-28.619-21.021-46.872-46.674-46.964-25.72-.093-46.5,18.026-47.1,46.769-.54,25.7,20.9,46.818,46.8,46.906" transform="translate(-18.27 -17.936)" fill="#050401"/><path d="M77.089,124.61C51.2,124.522,29.751,103.4,30.292,77.7c.6-28.743,21.381-46.862,47.1-46.769,25.653.093,46.264,18.345,46.674,46.964.37,25.841-21.154,46.8-46.977,46.711m-26.765-42.9c3.806,0,7.613.008,11.419,0,1.716-.005,2.36-.771,2.125-2.465a11.434,11.434,0,0,1,6.964-12.245c1.82-.77,2.114-1.593,1.149-3.271q-5.62-9.779-11.248-19.555c-.968-1.682-1.591-1.855-3.343-.941a36.936,36.936,0,0,0-8.641,6.153,38.6,38.6,0,0,0-12.2,29.469c.032,2.4.538,2.859,2.9,2.859H50.325m27.088,38.02a38.7,38.7,0,0,0,20.976-6.17c1.4-.9,1.61-1.659.795-3.072q-5.717-9.914-11.452-19.819c-.863-1.491-1.813-1.665-3.2-.628a11.365,11.365,0,0,1-14.256-.026c-1.371-1.027-2.352-.852-3.2.623Q61.34,100.6,55.626,110.57c-.749,1.307-.544,2.1.718,2.913a38.724,38.724,0,0,0,21.069,6.243m26.809-38.183c3.914,0,7.829.007,11.743,0,1.3,0,1.9-.573,1.914-1.795q.024-2.413,0-4.826a30.771,30.771,0,0,0-1.93-10.008,38.939,38.939,0,0,0-7.967-13.437,40.33,40.33,0,0,0-11.3-8.583c-1.175-.615-2-.312-2.681.876q-5.764,9.994-11.522,19.991a1.963,1.963,0,0,0,.9,2.847A11.27,11.27,0,0,1,88.5,70.323a11.146,11.146,0,0,1,2.288,8.719c-.236,1.586.411,2.5,2.014,2.5q5.708.009,11.417,0" transform="translate(-26.798 -27.166)" fill="#fdce01"/><path d="M65.66,110.459H54.784c-2.362,0-2.868-.459-2.9-2.859a38.6,38.6,0,0,1,12.2-29.469,36.928,36.928,0,0,1,8.641-6.153c1.752-.914,2.375-.741,3.343.941Q81.7,82.695,87.317,92.474c.965,1.679.671,2.5-1.149,3.271A11.434,11.434,0,0,0,79.2,107.99c.234,1.694-.41,2.46-2.125,2.465-3.806.012-7.613,0-11.42,0m9.747-3.617a2.4,2.4,0,0,0,.131-.452A14.847,14.847,0,0,1,82.886,93.4c.709-.449.47-.837.182-1.333q-3.516-6.057-7.028-12.116c-.828-1.425-1.664-2.846-2.5-4.278-.271.12-.409.166-.53.238A35.134,35.134,0,0,0,57.585,94.227a39.738,39.738,0,0,0-2.246,11.766c-.051.812.372.858.994.856,4.387-.015,8.774-.008,13.161-.008h5.911" transform="translate(-42.133 -55.918)" fill="#040301"/><path d="M138.406,262.792a38.723,38.723,0,0,1-21.069-6.243c-1.262-.812-1.467-1.606-.718-2.913q5.716-9.974,11.452-19.935c.85-1.475,1.83-1.651,3.2-.623a11.365,11.365,0,0,0,14.255.026c1.383-1.037,2.333-.863,3.2.628q5.735,9.9,11.452,19.819c.815,1.413.61,2.171-.795,3.072a38.7,38.7,0,0,1-20.976,6.17m-8.062-25.9-10.01,17.329c11.574,7.242,26.8,6.171,36.143-.05l-10-17.262a15.515,15.515,0,0,1-16.13-.017" transform="translate(-87.792 -170.231)" fill="#030201"/><path d="M231.335,110.063q-5.708,0-11.417,0c-1.6,0-2.25-.915-2.014-2.5a11.144,11.144,0,0,0-2.288-8.719,11.27,11.27,0,0,0-5.128-3.717,1.963,1.963,0,0,1-.9-2.847q5.764-9.994,11.522-19.991c.685-1.187,1.506-1.49,2.681-.875a40.329,40.329,0,0,1,11.3,8.582,38.94,38.94,0,0,1,7.967,13.437,30.77,30.77,0,0,1,1.93,10.008q.021,2.413,0,4.826c-.012,1.222-.615,1.792-1.914,1.8-3.915.01-7.829,0-11.743,0m-7.836-34.7a2.847,2.847,0,0,0-.255.328c-3.076,5.327-6.133,10.665-9.239,15.974-.429.733-.386,1.032.361,1.509a14.6,14.6,0,0,1,6.917,10.414c.149.952.214,1.917.322,2.921H241.57c.556-11.978-6.768-25.426-18.071-31.146" transform="translate(-153.912 -55.685)" fill="#010101"/><path d="M83.87,117.235H77.959c-4.387,0-8.774-.007-13.161.008-.622,0-1.045-.045-.994-.856a39.738,39.738,0,0,1,2.246-11.766A35.134,35.134,0,0,1,81.472,86.3c.122-.072.259-.117.53-.238.838,1.432,1.675,2.852,2.5,4.278q3.516,6.057,7.028,12.116c.288.5.527.884-.182,1.333A14.847,14.847,0,0,0,84,116.783a2.4,2.4,0,0,1-.131.452" transform="translate(-50.597 -66.311)" fill="#443547"/><path d="M140.5,247.813a15.515,15.515,0,0,0,16.13.017l10,17.262c-9.344,6.222-24.57,7.292-36.143.05l10.01-17.329" transform="translate(-97.952 -181.156)" fill="#433547"/><path d="M234.332,85.808c11.3,5.72,18.627,19.168,18.071,31.146H232.437c-.108-1-.173-1.969-.322-2.921a14.6,14.6,0,0,0-6.917-10.414c-.747-.477-.79-.776-.361-1.509,3.106-5.309,6.164-10.647,9.239-15.974a2.848,2.848,0,0,1,.255-.328" transform="translate(-164.744 -66.127)" fill="#433547"/></g></g></g></svg>