<svg xmlns="http://www.w3.org/2000/svg" width="156" height="156" viewBox="0 0 156 156"><g transform="translate(5943 -1063)"><g transform="translate(-6455 -5066)"><circle cx="78" cy="78" r="78" transform="translate(512 6129)" fill="#f1a99c"/></g><g transform="translate(-5921.87 1071.563)"><g transform="translate(6.042 17.931)"><path d="M107.7,227.539V230.8h-1.95c-3.005,0-6.011.044-9.015-.018a19.222,19.222,0,0,1-11.951-4.048c-.011.2-.022.353-.028.5-.054,1.349-.618,1.92-1.965,1.921q-25.92.007-51.839,0c-1.461,0-1.917-.556-1.987-2.329-.059-.012-.144-.054-.174-.029a18.937,18.937,0,0,1-12.294,4c-3.446.022-6.893,0-10.453,0v-3.259c3.757-.011,7.515.05,11.269-.052a15.212,15.212,0,0,0,10.72-4.362c2.378-2.351,4.875-4.584,7.337-6.85a1.319,1.319,0,0,0,.356-1.889,1.278,1.278,0,0,0-1.891-.326,29.3,29.3,0,0,0-2.8,1.7c-3.1,2.36-6.664,1.951-10.192,1.875V214.4a8.852,8.852,0,0,0,1.478-.022,1.03,1.03,0,0,0,.708-.5,12.274,12.274,0,0,1,5.338-6.518c.256-.159.581-.471.589-.721.052-1.688.027-3.379.027-5.089-2.494.345-4.856.7-7.226.989a4.976,4.976,0,0,0-3.123,1.552c-1.988,2.067-4.142,3.982-6.045,6.121a6.981,6.981,0,0,1-6.55,2.526V209.6c.1-.052.157-.117.207-.108,1.77.3,3.008-.494,4.175-1.769,1.82-1.987,3.848-3.784,5.683-5.758a8.691,8.691,0,0,1,5.75-2.751c2.367-.25,4.718-.652,7.131-1v-1.077q0-7.528,0-15.057c0-1.552.553-2.123,2.067-2.123q25.816,0,51.632,0c1.511,0,2.065.574,2.066,2.125q0,7.528,0,15.057V198.2c2.787.409,5.512.83,8.244,1.2a6.847,6.847,0,0,1,4.042,2c2.052,2.052,4.15,4.061,6.141,6.172,1.226,1.3,2.443,2.409,4.517,1.781,0,1.23,0,2.308,0,3.386a6.987,6.987,0,0,1-6.549-2.526C99.177,208,97,205.964,94.862,203.9a3.875,3.875,0,0,0-1.779-1.117c-2.736-.5-5.5-.848-8.329-1.264,0,1.576.036,3.042-.016,4.505a1.441,1.441,0,0,0,.793,1.469,10.386,10.386,0,0,1,4.662,5.269c.5,1.377,1.191,1.883,2.553,1.657.046-.008.106.065.144.09v3.17c-1.393,0-2.723-.038-4.05.009a9.269,9.269,0,0,1-5.427-1.514c-1.179-.75-2.387-1.455-3.594-2.159a1.246,1.246,0,0,0-1.8.371,1.281,1.281,0,0,0,.278,1.825c2.329,2.157,4.752,4.223,6.966,6.493a16.114,16.114,0,0,0,12.193,4.816c3.415-.008,6.83.011,10.245.019m-26.3-16.49V183.313H32.3v27.768c.364-.133.673-.263.993-.36a4.62,4.62,0,0,1,4.447,7.842c-1.435,1.314-2.8,2.717-4.312,3.932a2.965,2.965,0,0,0-1.063,3.327H81.389c.231-2.057.237-2.063-1.122-3.326-1.425-1.325-2.879-2.619-4.287-3.961a4.418,4.418,0,0,1-1.28-4.766c.845-2.772,3.484-3.846,6.7-2.72m-54.993,2.938c2.392-.156,2.846-.763,2.408-3.114l-2.408,3.114m58.627-2.965-.26.169c-.086,2.074.639,2.947,2.635,2.9l-2.376-3.07" transform="translate(-6.042 -135.684)" fill="#020101"/><path d="M120.017,37.607a19.681,19.681,0,1,1,19.757,19.676,19.716,19.716,0,0,1-19.757-19.676m6.957,10.2L149.9,24.9c-5.246-4.7-15.064-5.5-21.707,1.044a16.177,16.177,0,0,0-1.218,21.871m2.457,2.494c6.439,5.542,16.723,4.729,22.465-1.73,6.212-6.987,4.809-16.54.463-21.19l-22.929,22.92" transform="translate(-88.872 -17.931)" fill="#040404"/><path d="M298.4,284.87c-3.415-.007-6.83-.026-10.245-.019a16.115,16.115,0,0,1-12.193-4.816c-2.214-2.269-4.637-4.336-6.966-6.493a1.281,1.281,0,0,1-.278-1.825,1.246,1.246,0,0,1,1.8-.371c1.208.7,2.415,1.41,3.595,2.159a9.267,9.267,0,0,0,5.427,1.514c1.327-.047,2.657-.009,4.05-.009v-3.17c-.039-.025-.1-.1-.145-.091-1.362.226-2.054-.28-2.553-1.657a10.383,10.383,0,0,0-4.662-5.269,1.441,1.441,0,0,1-.792-1.469c.052-1.463.016-2.929.016-4.505,2.832.416,5.594.768,8.329,1.264a3.876,3.876,0,0,1,1.779,1.117c2.135,2.065,4.315,4.1,6.288,6.313a6.986,6.986,0,0,0,6.548,2.526v14.8" transform="translate(-196.742 -193.015)" fill="#e4cdb0"/><path d="M6.042,270.153a6.98,6.98,0,0,0,6.549-2.526c1.9-2.14,4.057-4.055,6.045-6.122a4.975,4.975,0,0,1,3.123-1.552c2.369-.293,4.732-.644,7.226-.988,0,1.709.025,3.4-.027,5.089-.008.25-.333.562-.589.721a12.273,12.273,0,0,0-5.338,6.518,1.03,1.03,0,0,1-.708.5,8.852,8.852,0,0,1-1.478.022v3.236c3.527.077,7.09.486,10.192-1.874a29.281,29.281,0,0,1,2.795-1.7,1.278,1.278,0,0,1,1.891.326,1.318,1.318,0,0,1-.356,1.889c-2.462,2.266-4.959,4.5-7.337,6.85a15.213,15.213,0,0,1-10.72,4.362c-3.754.1-7.513.042-11.269.052v-14.8" transform="translate(-6.042 -193.099)" fill="#e4cdb0"/><path d="M151.074,219.966c-3.218-1.125-5.858-.052-6.7,2.72a4.419,4.419,0,0,0,1.28,4.766c1.409,1.342,2.863,2.636,4.288,3.961,1.359,1.264,1.353,1.27,1.122,3.326H102.037a2.965,2.965,0,0,1,1.063-3.327c1.514-1.215,2.876-2.618,4.312-3.932a4.62,4.62,0,0,0-4.447-7.842c-.319.1-.629.227-.993.36V192.231h49.1Zm-24.517-24.529c-1.572,0-3.144-.017-4.715,0a1.661,1.661,0,0,0-1.768,2.225c1.584,6.877,3.188,13.749,4.761,20.628.22.963.612,1.712,1.692,1.72s1.493-.719,1.714-1.691c1.562-6.847,3.155-13.687,4.732-20.531.351-1.523-.316-2.344-1.906-2.354-1.5-.01-3.007,0-4.51,0m4.9,31.1a4.917,4.917,0,1,0-4.912,4.973,4.94,4.94,0,0,0,4.912-4.973" transform="translate(-75.714 -144.601)" fill="#d84529"/><path d="M80.574,296.2l2.408-3.114c.438,2.351-.016,2.959-2.408,3.114" transform="translate(-60.207 -217.893)" fill="#f0f0f0"/><path d="M294.409,293.626l2.376,3.07c-2,.047-2.721-.827-2.635-2.9l.26-.169" transform="translate(-215.415 -218.289)" fill="#f0f0f0"/><path d="M174.667,203.948c1.5,0,3.007-.008,4.51,0,1.59.01,2.257.831,1.906,2.354-1.577,6.844-3.17,13.684-4.732,20.532-.222.971-.638,1.7-1.714,1.691s-1.472-.757-1.692-1.72c-1.573-6.879-3.177-13.751-4.761-20.628a1.66,1.66,0,0,1,1.768-2.224c1.571-.022,3.143-.005,4.715-.005m-.147,15.1.258.02,2.722-11.8h-5.7l2.715,11.777" transform="translate(-123.825 -153.112)" fill="#020202"/><path d="M183.892,304.847a4.917,4.917,0,1,1-4.923-4.858,4.939,4.939,0,0,1,4.923,4.858m-4.908,1.7a1.639,1.639,0,1,0-1.65-1.6,1.648,1.648,0,0,0,1.65,1.6" transform="translate(-128.146 -222.913)" fill="#030101"/><path d="M184.341,227.888l-2.715-11.777h5.7l-2.722,11.8-.258-.02" transform="translate(-133.645 -161.956)" fill="#717fa2"/><path d="M187.7,315.26a1.639,1.639,0,1,1,1.626-1.625,1.647,1.647,0,0,1-1.626,1.625" transform="translate(-136.857 -231.629)" fill="#6e7c9e"/></g></g></g></svg>