<svg xmlns="http://www.w3.org/2000/svg" width="156" height="156" viewBox="0 0 156 156"><g transform="translate(-986 -12609)"><g transform="translate(474 6480)"><circle cx="78" cy="78" r="78" transform="translate(512 6129)" fill="#f1a99c"/></g><g transform="translate(1009.186 12626.765)"><g transform="translate(11.815 13.313)"><path d="M142.127,210.259q-.155,2.55-.31,5.1h-2.48v2.9h2.3q-.107,2.809-.214,5.617l-.706.077c0,.811-.03,1.593.024,2.368.011.161.33.3.506.451q-.273,4.773-.545,9.546l-.983-.858A18.477,18.477,0,1,1,141.054,211l1.073-.744m-14.173,24.9c.282-.09.532-.168.78-.25a7.05,7.05,0,0,0,4.33-9.451,6.979,6.979,0,0,0-6.687-4.4,4.253,4.253,0,0,1-4.1-4,4.3,4.3,0,0,1,3.7-4.476,4.256,4.256,0,0,1,4.69,3.291c.073.3.123.611.178.883H133.6c-.028-3.315-2-5.732-5.669-6.946v-2.894H125.1v2.916c-.32.1-.576.167-.828.251a7.041,7.041,0,0,0-4.362,9.231,6.963,6.963,0,0,0,6.715,4.6,4.07,4.07,0,0,1,3.8,2.592,4.244,4.244,0,0,1-5.138,5.713,4.277,4.277,0,0,1-3.062-4.015h-2.8A7.017,7.017,0,0,0,120.559,232a7.333,7.333,0,0,0,4.582,3.16v2.89h2.813Zm8.55-2.772h2.754v-2.764H136.5Z" transform="translate(-85.316 -158.922)" fill="#fde18e"/><path d="M23.217,199.992c3.614.42,4.588,3.018,4.211,6a1.291,1.291,0,0,1-1.388,1.132c-2.484.011-4.97.071-7.451-.026a4.176,4.176,0,0,1-3.888-4.285q-.027-5.278,0-10.557a3.374,3.374,0,0,0-1.052-2.618,5.847,5.847,0,0,1-1.8-4.46c.026-3.7.13-7.4-.026-11.088-.158-3.736,1.74-7.191,6.307-8.1a7.032,7.032,0,0,1,.628-6.825,6.794,6.794,0,0,1,4.269-2.946,7.086,7.086,0,0,1,8.455,5.056c1.1,4.038-1.027,7.239-6.03,8.969.767,1.637.6,3.39.6,5.123.006,3.223-.024,6.447.012,9.67a6.543,6.543,0,0,1-1.867,4.72,3.468,3.468,0,0,0-.936,2.006c-.106,2.714-.044,5.435-.044,8.225m1.4,4.29a2.367,2.367,0,0,0-.061-.406c-.412-1.144-1.386-1-2.3-1-1.4,0-1.873-.463-1.875-1.846,0-2.927.024-5.854-.011-8.781a5.975,5.975,0,0,1,1.88-4.611,3.111,3.111,0,0,0,.974-2.382c-.014-3.991,0-7.983-.009-11.974a4.262,4.262,0,1,0-8.511.032c-.007,3.962.009,7.923-.01,11.885a3.192,3.192,0,0,0,1,2.461,6,6,0,0,1,1.86,4.62c-.035,3.429-.014,6.859-.008,10.288,0,1.028.439,1.676,1.291,1.7,1.911.053,3.825.017,5.783.017M28.89,163.1a4.257,4.257,0,1,0-4.19,4.281,4.279,4.279,0,0,0,4.19-4.281" transform="translate(-11.815 -122.273)" fill="#020202"/><path d="M121.931,45.682l-10.073-8.061c-2.021,2.02-4,4.009-5.995,5.987a1.455,1.455,0,0,1-2.264.184Q85.979,29.7,68.279,15.528l1.771-2.215,34.5,27.6,5.647-5.659c1.266-1.268,1.632-1.29,3.059-.15,3.487,2.784,6.969,5.574,10.5,8.4l2.222-2.661c1.1-1.321,2.244-1.153,2.846.436,1.347,3.555,2.677,7.116,4.024,10.67a1.484,1.484,0,0,1-1.88,2.109c-3.57-.917-7.148-1.8-10.721-2.7-1.494-.378-1.825-1.427-.838-2.627.823-1,1.655-1.993,2.527-3.042m7.392,5-2.447-6.481-4.049,4.873,6.5,1.608" transform="translate(-54.921 -13.313)" fill="#030303"/><path d="M132.875,201.058l-1.073.744a18.483,18.483,0,1,0-1.331,24.461l.983.858.939,1.027c-6.6,7.309-19.914,9.377-29.329.976a21.277,21.277,0,1,1,30.9-29.032l-1.089.966" transform="translate(-76.064 -149.721)" fill="#040403"/><rect width="2.763" height="2.768" transform="translate(68.218 49.404)"/><rect width="2.732" height="2.763" transform="translate(76.75 52.233)"/><rect width="2.711" height="2.743" transform="translate(61.146 55.114)"/><path d="M242.459,254.767h-2.3v-2.9h2.479c.107.1.3.2.307.31a21.047,21.047,0,0,1-.007,2.192c-.01.144-.31.268-.476.4" transform="translate(-186.134 -195.426)"/><rect width="2.766" height="2.735" transform="translate(66.781 59.36)"/><rect width="2.751" height="2.72" transform="translate(82.434 59.368)"/><rect width="2.742" height="2.768" transform="translate(72.486 63.589)"/><path d="M246.507,290.776c-.177-.15-.5-.29-.506-.451-.054-.775-.024-1.556-.024-2.368l.706-.077h2.072v2.9Z" transform="translate(-190.572 -222.922)"/><rect width="2.768" height="2.742" transform="translate(79.584 66.454)"/><rect width="2.742" height="2.768" transform="translate(63.969 67.847)"/><rect width="2.716" height="2.747" transform="translate(75.339 73.565)"/><rect width="2.755" height="2.724" transform="translate(61.108 74.98)"/><rect width="2.739" height="2.768" transform="translate(68.229 77.782)"/><path d="M164.516,244.413V247.3H161.7v-2.89a7.332,7.332,0,0,1-4.582-3.16,7.017,7.017,0,0,1-1.131-3.788h2.8a4.277,4.277,0,0,0,3.062,4.016,4.244,4.244,0,0,0,5.138-5.713,4.07,4.07,0,0,0-3.8-2.592,6.963,6.963,0,0,1-6.715-4.6,7.041,7.041,0,0,1,4.362-9.231c.252-.084.508-.154.828-.251v-2.916H164.5v2.894c3.671,1.214,5.641,3.631,5.669,6.946H167.4c-.054-.272-.105-.581-.178-.883a4.256,4.256,0,0,0-4.69-3.29,4.3,4.3,0,0,0-3.7,4.476,4.253,4.253,0,0,0,4.1,4,6.979,6.979,0,0,1,6.687,4.395,7.049,7.049,0,0,1-4.33,9.451c-.248.082-.5.16-.78.25" transform="translate(-121.878 -168.181)" fill="#030302"/><rect width="2.754" height="2.764" transform="translate(51.188 70.696)"/><path d="M33.893,245.484c-1.957,0-3.871.036-5.783-.016-.852-.023-1.289-.67-1.291-1.7-.006-3.43-.027-6.859.008-10.289a6,6,0,0,0-1.86-4.62,3.192,3.192,0,0,1-1-2.461c.019-3.962,0-7.923.01-11.885a4.262,4.262,0,1,1,8.511-.032c.009,3.991-.006,7.983.009,11.974a3.111,3.111,0,0,1-.974,2.382,5.974,5.974,0,0,0-1.88,4.611c.035,2.927.007,5.854.01,8.781,0,1.382.473,1.844,1.875,1.846.916,0,1.889-.141,2.3,1a2.366,2.366,0,0,1,.061.405" transform="translate(-21.094 -163.475)" fill="#7499cb"/><path d="M56.52,172.239a4.257,4.257,0,1,1-4.236-4.232,4.287,4.287,0,0,1,4.236,4.232" transform="translate(-39.444 -131.409)" fill="#7498c9"/><path d="M305.342,150.373l-6.5-1.608,4.049-4.873,2.447,6.481" transform="translate(-230.939 -112.999)" fill="#3d4a57"/></g></g></g></svg>