<svg xmlns="http://www.w3.org/2000/svg" xmlns:xlink="http://www.w3.org/1999/xlink" width="610" height="262.96" viewBox="0 0 610 262.96"><defs><clipPath id="a"><rect width="523.801" height="262.684" fill="#bfb7d5"/></clipPath><clipPath id="b"><rect width="492.102" height="262.521" fill="none"/></clipPath><clipPath id="c"><rect width="195.582" height="262.521" fill="none"/></clipPath><clipPath id="d"><rect width="165.449" height="262.521" fill="none"/></clipPath><clipPath id="e"><rect width="195.58" height="262.521" fill="none"/></clipPath><clipPath id="f"><rect width="149.878" height="246.607" fill="none"/></clipPath><clipPath id="g"><rect width="12.258" height="164.459" fill="none"/></clipPath><clipPath id="h"><rect width="8.367" height="21.687" fill="#5b4794"/></clipPath><clipPath id="i"><rect width="25.297" height="5.695" fill="none"/></clipPath><clipPath id="j"><rect width="3.27" height="75.567" fill="none"/></clipPath><clipPath id="k"><rect width="2.878" height="75.565" fill="none"/></clipPath><clipPath id="l"><rect width="16.24" height="40.802" fill="#5b4794"/></clipPath><clipPath id="m"><rect width="46.952" height="11.775" fill="#636363"/></clipPath></defs><g transform="translate(-810 -2965.407)"><g transform="translate(810 2965.407)"><g transform="translate(0 0.001)"><path d="M548.481,98.442c-86.188-3-73.855-141.312-199.921-71.9-32.655,17.98-76.117-29.662-134.08,23.752C200.325,63.338,184.5,75.83,142.205,60.827,25.564,19.45,18.533,266.75,62.775,267.264s510.215.446,510.215.446,20.489,1.705,40.431-22.569c40.789-49.652,0-144.442-64.94-146.7" transform="translate(-28.127 -5.288)" fill="#bfb7d5"/><g transform="translate(86.199 -0.001)" opacity="0.25"><g clip-path="url(#a)"><path d="M864.617,33.195v196.3c0,18.255-13.062,33.192-29.026,33.192H369.843c-11.32,0-21.165-7.5-25.954-18.366a36.89,36.89,0,0,1-3.072-14.825V33.195C340.817,14.939,353.879,0,369.843,0H835.591c15.964,0,29.026,14.936,29.026,33.192" transform="translate(-340.817 -0.002)" fill="#bfb7d5"/></g></g><path d="M1388.106,247.7l-9.736,21.557-.269-.054-29.064-5.85s13.64-.674,15.111-1.754c1.386-1.018,16.161-13.276,20.347-14.3a1.7,1.7,0,0,1,.646-.057Z" transform="translate(-1007.84 -184.697)" fill="#ddd"/><path d="M1205.362,299.257c-.68.1-2.71.364-5.493.675-8,.891-22.215,2.174-28.4,1.157-5.552-.912-34.911-5.8-55.21-9.36a32.843,32.843,0,0,1,17.344-10.386c23.655,4.042,54.587,9.391,58.505,10.4,6.446,1.656,15.023,3.362,15.023,3.362s.048.207.086.53c.129,1.05.164,3.322-1.852,3.626" transform="translate(-833.934 -210.186)" fill="#e62940"/><path d="M1111.252,283.974c-.68.1-2.709.364-5.493.675-8,.891-22.215,2.174-28.4,1.157-5.552-.912-34.911-5.8-55.21-9.36-10.192-1.786-18.1-3.236-19.561-3.678-4.366-1.321-13.339-5.359-12.2-7.19s4.729-1.78,5.835-2.406l.047-.027c.259-.146.686-.389,1.3-.664,2.187-.979,6.737-2.347,14.431-1.09,0,0,12.233,2.062,27.495,4.669,23.655,4.042,54.587,9.391,58.505,10.4,6.446,1.656,15.023,3.362,15.023,3.362s.048.207.087.53c.129,1.05.164,3.322-1.852,3.626" transform="translate(-739.823 -194.903)" fill="#e8e8e8"/><path d="M1441.538,340.71c-.679.1-2.71.365-5.492.675a7.949,7.949,0,0,0-3.659-4.556l11,.255c.128,1.05.164,3.323-1.853,3.626" transform="translate(-1070.109 -251.639)" fill="#29d3ce"/><path d="M1154.265,293.331a.336.336,0,0,0-.388.273l-.061.35a.336.336,0,0,0,.661.115l.061-.35a.337.337,0,0,0-.273-.388" transform="translate(-861.99 -219.139)" fill="#22f1f7"/><path d="M1167.456,295.626a.336.336,0,0,0-.388.273l-.061.35a.336.336,0,1,0,.661.115l.061-.35a.337.337,0,0,0-.273-.388" transform="translate(-871.845 -220.854)" fill="#22f1f7"/><path d="M1147.519,292.159a.336.336,0,0,0-.388.273l-.061.35a.336.336,0,0,0,.661.115l.061-.35a.337.337,0,0,0-.273-.388" transform="translate(-856.95 -218.264)" fill="#22f1f7"/><path d="M1140.773,290.985a.336.336,0,0,0-.388.273l-.061.35a.336.336,0,0,0,.661.115l.061-.35a.336.336,0,0,0-.273-.388" transform="translate(-851.911 -217.387)" fill="#22f1f7"/><path d="M1134.028,289.811a.337.337,0,0,0-.388.273l-.061.35a.336.336,0,1,0,.661.115l.061-.35a.336.336,0,0,0-.273-.388" transform="translate(-846.872 -216.51)" fill="#22f1f7"/><path d="M1127.283,288.638h0a.337.337,0,0,0-.389.273l-.061.35a.336.336,0,1,0,.661.115l.061-.35a.337.337,0,0,0-.273-.388" transform="translate(-841.832 -215.633)" fill="#22f1f7"/><path d="M1120.537,287.464a.336.336,0,0,0-.388.273l-.061.35a.336.336,0,1,0,.661.115l.061-.35a.336.336,0,0,0-.273-.388" transform="translate(-836.793 -214.756)" fill="#22f1f7"/><path d="M1113.791,286.291a.337.337,0,0,0-.388.273l-.061.35a.336.336,0,1,0,.661.115l.061-.35a.337.337,0,0,0-.273-.388" transform="translate(-831.753 -213.88)" fill="#22f1f7"/><path d="M1107.045,285.118a.337.337,0,0,0-.388.273l-.061.35a.336.336,0,1,0,.662.115l.061-.35a.337.337,0,0,0-.273-.388" transform="translate(-826.713 -213.004)" fill="#22f1f7"/><path d="M1100.3,283.944a.337.337,0,0,0-.388.273l-.061.35a.336.336,0,0,0,.661.115l.061-.35a.336.336,0,0,0-.273-.388" transform="translate(-821.674 -212.127)" fill="#22f1f7"/><path d="M1093.689,282.794a.337.337,0,0,0-.389.273l-.061.35a.336.336,0,1,0,.661.115l.061-.35a.336.336,0,0,0-.273-.388" transform="translate(-816.735 -211.267)" fill="#22f1f7"/><path d="M1086.943,281.62a.337.337,0,0,0-.388.273l-.061.35a.336.336,0,1,0,.661.115l.061-.35a.337.337,0,0,0-.273-.388" transform="translate(-811.695 -210.39)" fill="#22f1f7"/><path d="M1080.2,280.447a.337.337,0,0,0-.388.273l-.061.35a.336.336,0,1,0,.661.115l.061-.35a.337.337,0,0,0-.273-.388" transform="translate(-806.656 -209.514)" fill="#22f1f7"/><path d="M1017.085,267.78l-1.855-.59c-.612.274-1.038.518-1.3.664l2.841.9a.5.5,0,0,0,.163.023.513.513,0,0,0,.149-1" transform="translate(-757.49 -199.613)" fill="#22f1f7"/><path d="M1198.18,301.08a.641.641,0,0,1-.113-.01l-.519-.09a.66.66,0,0,1-.536-.761l.376-2.162a.659.659,0,0,1,.761-.536l.519.09a.66.66,0,0,1,.535.761l-.376,2.162a.66.66,0,0,1-.648.546m-.1-.062a.607.607,0,0,0,.7-.493l.376-2.162a.608.608,0,0,0-.493-.7l-.519-.09a.606.606,0,0,0-.7.493l-.376,2.162a.608.608,0,0,0,.493.7Z" transform="translate(-894.258 -222.266)" fill="#22f1f7"/><path d="M1211.581,303.411a.664.664,0,0,1-.113-.01l-.519-.09a.659.659,0,0,1-.536-.761l.376-2.162a.658.658,0,0,1,.761-.536l.519.09a.659.659,0,0,1,.536.761l-.376,2.162a.66.66,0,0,1-.649.546m-.1-.062a.606.606,0,0,0,.7-.493l.376-2.162a.607.607,0,0,0-.493-.7l-.519-.09a.607.607,0,0,0-.7.493l-.376,2.162a.606.606,0,0,0,.493.7Z" transform="translate(-904.27 -224.007)" fill="#22f1f7"/><path d="M1367.788,330.476a.336.336,0,0,0-.388.273l-.061.35a.336.336,0,1,0,.661.115l.061-.35a.336.336,0,0,0-.273-.388" transform="translate(-1021.509 -246.89)" fill="#22f1f7"/><path d="M1361.042,329.3a.337.337,0,0,0-.388.273l-.061.35a.336.336,0,0,0,.661.115l.061-.35a.337.337,0,0,0-.273-.388" transform="translate(-1016.47 -246.013)" fill="#22f1f7"/><path d="M1354.3,328.129a.336.336,0,0,0-.388.273l-.061.35a.336.336,0,0,0,.661.115l.061-.35a.337.337,0,0,0-.273-.388" transform="translate(-1011.43 -245.136)" fill="#22f1f7"/><path d="M1347.551,326.955a.336.336,0,0,0-.388.273l-.061.35a.336.336,0,0,0,.661.115l.061-.351a.336.336,0,0,0-.273-.388" transform="translate(-1006.391 -244.259)" fill="#22f1f7"/><path d="M1340.8,325.782a.337.337,0,0,0-.388.273l-.061.35a.336.336,0,1,0,.661.115l.061-.35a.337.337,0,0,0-.273-.388" transform="translate(-1001.351 -243.383)" fill="#22f1f7"/><path d="M1334.059,324.609a.336.336,0,0,0-.388.273l-.061.35a.336.336,0,1,0,.662.115l.061-.35a.336.336,0,0,0-.273-.388" transform="translate(-996.311 -242.506)" fill="#22f1f7"/><path d="M1327.314,323.435a.337.337,0,0,0-.389.273l-.061.35a.336.336,0,1,0,.661.115l.061-.35a.337.337,0,0,0-.273-.388" transform="translate(-991.272 -241.629)" fill="#22f1f7"/><path d="M1320.568,322.261a.336.336,0,0,0-.388.273l-.061.35a.336.336,0,0,0,.661.115l.061-.35a.336.336,0,0,0-.273-.388" transform="translate(-986.232 -240.752)" fill="#22f1f7"/><path d="M1313.822,321.088a.336.336,0,0,0-.388.273l-.061.35a.336.336,0,1,0,.661.115l.061-.35a.337.337,0,0,0-.273-.388" transform="translate(-981.193 -239.876)" fill="#22f1f7"/><path d="M1234.335,307.261a.336.336,0,0,0-.388.273l-.061.35a.336.336,0,1,0,.661.115l.061-.35a.337.337,0,0,0-.273-.388" transform="translate(-921.809 -229.546)" fill="#22f1f7"/><path d="M1227.59,306.087a.337.337,0,0,0-.388.273l-.061.35a.336.336,0,0,0,.661.115l.061-.35a.336.336,0,0,0-.273-.388" transform="translate(-916.77 -228.669)" fill="#22f1f7"/><path d="M1220.845,304.913a.336.336,0,0,0-.388.273l-.061.35a.336.336,0,0,0,.661.115l.061-.35a.337.337,0,0,0-.273-.388" transform="translate(-911.731 -227.792)" fill="#22f1f7"/><path d="M1214.1,303.741a.336.336,0,0,0-.388.273l-.061.35a.336.336,0,1,0,.661.115l.061-.35a.336.336,0,0,0-.273-.388" transform="translate(-906.69 -226.916)" fill="#22f1f7"/><path d="M1207.352,302.567a.337.337,0,0,0-.388.273l-.061.35a.336.336,0,1,0,.661.115l.061-.35a.337.337,0,0,0-.273-.388" transform="translate(-901.65 -226.039)" fill="#22f1f7"/><path d="M1200.606,301.393a.337.337,0,0,0-.388.273l-.061.35a.336.336,0,0,0,.662.115l.061-.35a.337.337,0,0,0-.273-.388" transform="translate(-896.611 -225.162)" fill="#22f1f7"/><path d="M1193.861,300.22a.336.336,0,0,0-.388.273l-.061.35a.336.336,0,0,0,.662.115l.061-.351a.336.336,0,0,0-.273-.388" transform="translate(-891.572 -224.286)" fill="#22f1f7"/><path d="M1187.116,299.046a.337.337,0,0,0-.388.273l-.061.35a.336.336,0,1,0,.661.115l.061-.35a.337.337,0,0,0-.273-.388" transform="translate(-886.532 -223.409)" fill="#22f1f7"/><path d="M1180.37,297.872a.337.337,0,0,0-.388.273l-.061.35a.336.336,0,1,0,.661.115l.061-.35a.337.337,0,0,0-.273-.388" transform="translate(-881.493 -222.532)" fill="#22f1f7"/><path d="M1293.993,317.639a.337.337,0,0,0-.389.273l-.061.35a.336.336,0,0,0,.661.115l.061-.35a.336.336,0,0,0-.273-.388" transform="translate(-966.378 -237.299)" fill="#22f1f7"/><path d="M1287.248,316.465a.336.336,0,0,0-.388.273l-.061.35a.336.336,0,1,0,.661.115l.061-.35a.336.336,0,0,0-.273-.388" transform="translate(-961.339 -236.422)" fill="#22f1f7"/><path d="M1280.5,315.291a.337.337,0,0,0-.388.274l-.061.35a.336.336,0,1,0,.661.115l.061-.351a.337.337,0,0,0-.273-.388" transform="translate(-956.3 -235.545)" fill="#22f1f7"/><path d="M1273.756,314.119a.337.337,0,0,0-.389.273l-.061.35a.336.336,0,1,0,.661.115l.061-.35a.337.337,0,0,0-.273-.388" transform="translate(-951.26 -234.669)" fill="#22f1f7"/><path d="M1267.011,312.945a.336.336,0,0,0-.388.273l-.061.35a.336.336,0,1,0,.661.115l.061-.35a.337.337,0,0,0-.273-.388" transform="translate(-946.22 -233.793)" fill="#22f1f7"/><path d="M1260.264,311.771a.336.336,0,0,0-.388.273l-.061.35a.336.336,0,1,0,.661.115l.061-.35a.336.336,0,0,0-.273-.388" transform="translate(-941.18 -232.916)" fill="#22f1f7"/><path d="M1253.518,310.6a.336.336,0,0,0-.388.273l-.061.35a.336.336,0,1,0,.661.115l.061-.35a.336.336,0,0,0-.273-.388" transform="translate(-936.141 -232.039)" fill="#22f1f7"/><path d="M1246.773,309.424a.337.337,0,0,0-.389.273l-.061.35a.336.336,0,0,0,.662.115l.061-.35a.336.336,0,0,0-.273-.388" transform="translate(-931.101 -231.162)" fill="#22f1f7"/><path d="M1240.027,308.251a.336.336,0,0,0-.388.273l-.061.351a.336.336,0,0,0,.661.115l.061-.351a.337.337,0,0,0-.273-.388" transform="translate(-926.062 -230.286)" fill="#22f1f7"/><path d="M1199.856,329.706a1.2,1.2,0,0,0,.542-2.107,6.8,6.8,0,0,0-3.123-1.533c-2.573-.421-1.736,3.68-.884,3.855a13.074,13.074,0,0,0,3.465-.215" transform="translate(-893.172 -243.576)" fill="#29d3ce"/><path d="M1163.09,314.975l-.934,5.369a25.185,25.185,0,0,1-7.05-.184,20.117,20.117,0,0,1-5.281-1.44,6.811,6.811,0,0,1-.882-.46l.979-5.629a2.748,2.748,0,0,1,1-.242c3.419-.293,11.651,2.309,11.651,2.309Z" transform="translate(-858.353 -233.364)" fill="#29d3ce"/><path d="M1150.925,312.458l-1.1,6.331a6.785,6.785,0,0,1-.882-.46l.979-5.629a2.744,2.744,0,0,1,1-.242" transform="translate(-858.352 -233.432)" fill="#ddd"/><path d="M1232.1,290.326s-4.1,5.914-4.87,6.8a5.734,5.734,0,0,1-2.369,1.325h-.009l-10.147,2s-12.414-2.092-15.112-2.612h0c-.245-.047-.409-.082-.478-.1-.816-.222-1.186-.554-1.016-.765s19.409.116,21.538.166h.061c2.073.038,2.293-.474,2.293-.474l8.263-6.019a.989.989,0,0,1,.474-.245,4.682,4.682,0,0,1,1.373-.075" transform="translate(-895.043 -216.883)" fill="#29d3ce"/><path d="M1230.723,290.68c-2.229,1.729-8.395,6.495-8.973,6.8-.621.331-17.913.57-22.162.634h0c-.244-.047-.409-.082-.477-.1-.817-.222-1.187-.554-1.016-.765s19.409.116,21.538.166,2.354-.473,2.354-.473l8.263-6.019a.991.991,0,0,1,.474-.246" transform="translate(-895.043 -217.162)" fill="#29d3ce"/><path d="M1296.015,290.326s-4.1,5.914-4.871,6.8a5.733,5.733,0,0,1-2.368,1.325h-.009a22.046,22.046,0,0,1-5.154-1.31c2.073.038,2.293-.474,2.293-.474l8.263-6.019a.989.989,0,0,1,.474-.245,4.682,4.682,0,0,1,1.373-.075" transform="translate(-958.963 -216.883)" fill="#fe8d71"/><path d="M1378.1,269.4l-29.064-5.85s13.64-.674,15.111-1.754c1.386-1.018,16.16-13.276,20.346-14.3-3.849,3.617-12.79,12.342-12.581,15.182.2,2.705,4.189,5.493,6.187,6.726" transform="translate(-1007.84 -184.9)" fill="#35d3bc"/><path d="M1431.078,331.826c.109-.1,9.839-1.46,16.06.264l-6.2,2.236-9.684-1.684s-.725-.34-.179-.815" transform="translate(-1068.979 -247.452)" fill="#fe8d71"/><g transform="translate(85.236 -0.001)" opacity="0.8"><g clip-path="url(#b)"><g transform="translate(296.519)" opacity="0.7"><g clip-path="url(#c)"><path d="M1704.984,0l-156.276,262.52h-39.3L1671.788,0Z" transform="translate(-1509.403 -0.002)" fill="#fff"/></g></g><g transform="translate(236.719)" opacity="0.7"><g clip-path="url(#d)"><path d="M1438.409,0l-156.276,262.52h-9.174L1428.88,0Z" transform="translate(-1272.959 -0.002)" fill="#fff"/></g></g><g transform="translate(27.329)" opacity="0.7"><g clip-path="url(#e)"><path d="M640.647,0,484.371,262.523h-39.3L607.451,0Z" transform="translate(-445.067 -0.002)" fill="#fff"/></g></g><g opacity="0.7"><g clip-path="url(#f)"><path d="M486.888,0,340.076,246.61a37.593,37.593,0,0,1-3.066-14.964V109.417L411.973,0Z" transform="translate(-337.01 -0.002)" fill="#fff"/></g></g></g></g><rect width="10.295" height="261.201" transform="translate(162.483)" fill="#7dc5b7"/><rect width="10.295" height="261.201" transform="translate(465.253)" fill="#7dc5b7"/><path d="M0,0H43.3V86.732H0Z" transform="translate(222.798 176.227)" fill="#9487b9"/><rect width="43.301" height="17.785" transform="translate(222.798 194.056)" fill="#5b4794"/><rect width="43.301" height="17.785" transform="translate(222.798 227.441)" fill="#5b4794"/><path d="M572.365,323.119H503.09V504.028H611.816V362.57a39.451,39.451,0,0,0-39.451-39.451" transform="translate(-375.849 -241.397)" fill="#34a58f"/><path d="M271.86,323.1V504.019H176.889V362.552c0-21.789,15.425-39.448,34.456-39.448Z" transform="translate(-132.15 -241.386)" fill="#34a58f"/><path d="M575.612,551.6H503.08V387.171h63.374a9.158,9.158,0,0,1,9.158,9.158Z" transform="translate(-375.842 -289.249)" fill="#22f1f7"/><path d="M475.45,387.171a6.388,6.388,0,0,0-6.387,6.388V551.6h72.532V387.171Z" transform="translate(-350.428 -289.249)" fill="#bfb7d5"/><path d="M220.439,731.936v77.3H176.89V744.756c5.073-3.312,19.426-12.647,20.779-13.1Z" transform="translate(-132.151 -546.608)" fill="#5b4794"/><g transform="translate(187.512 97.908)" opacity="0.5"><g clip-path="url(#g)"><path d="M747.655,387.114h-6.263V551.573h12.259V393.111a6,6,0,0,0-6-6" transform="translate(-741.392 -387.114)" fill="#6e6f70"/></g></g><path d="M2106.687,671.64c-.217-.668-.38-1.153-.462-1.393l-.058-.17a2.2,2.2,0,0,0-.175.2c-.672.843-2.98,4.465-1.246,12.851.255,1.234.6,2.571,1.045,4.017,0,0-6.391-1.128-8.2-2.33-.075-.188-1.015-2.97-1.729-3.346a4.834,4.834,0,0,0-2.331-.639,3.3,3.3,0,0,0,0,3.346,10.95,10.95,0,0,0,3.082,2.143s7.144,5.715,12.106,5.564c4.147-.125-.423-15.268-2.037-20.242" transform="translate(-1563.697 -500.603)" fill="#fe8d71"/><path d="M2244,817.7a8.793,8.793,0,0,1-.353-1.692,14.877,14.877,0,0,1-7.557.9,10.455,10.455,0,0,0-.042,3.327c4.06,1.091,8.562-1.3,8.562-1.3A9.8,9.8,0,0,1,2244,817.7" transform="translate(-1670.423 -609.626)" fill="#37b5a1"/><path d="M2194.392,687.581c-.162.4-.87.746-1.888,1l-.291.069a17.187,17.187,0,0,1-8.648-.466c-3.01-1.115-5.194-17.025-6.122-25.181-.014-.125-.028-.247-.041-.369-.3-2.639-.455-4.377-.455-4.377s1.729-2.706,8.422-1.8,7.367,3.158,7.969,7.219,1.579,22.631,1.053,23.91" transform="translate(-1626.357 -490.286)" fill="#626365"/><path d="M2193.557,695.417a17.184,17.184,0,0,1-8.648-.466c-3.01-1.115-5.194-17.025-6.122-25.18-.014-.125-.028-.247-.041-.369.684-2.364,1.2-3.874,1.2-3.874s8.4-1.014,10.038,1.523c1.429,2.218,3.16,23.132,3.574,28.367" transform="translate(-1627.7 -497.054)" fill="#545456"/><path d="M2168.416,684.874a4.533,4.533,0,0,1-1.15-1.645c-1.528-3.8-3.29-11.178-3.872-12.537-.212-.494-.618-2.825-1.15-5.829-.956-5.389-2.315-12.943-3.676-15.937a2.3,2.3,0,0,0-1.245-.92,21.629,21.629,0,0,0-4.888-1.084c-.658-.528-1.567-2.793-1.554-6.243l-.295.058-4.958.982s.113,1.56.116,3.03c0,1.225-.071,2.385-.348,2.532-.357.032-.568.053-.568.053s-4.133,5.741-4.481,11.08,3.31,7.658-.028,18.327c-3.407,10.9,19.748,4.025,18.477,1.173-2.3-5.162-3.4-6.621-3.441-8.245-.028-1.141.47-2.363,1.444-5l.255.943c.552,2.048,1.024,3.877,1.217,4.79.591,2.806,7.091,13.591,7.091,13.591h0s.2.131.427.788,2.068,4.136,2.856,4.136.952-1.182,1.116-1.937-.722-1.707-1.346-2.1" transform="translate(-1598.736 -478.64)" fill="#ffb3a3"/><path d="M2167.868,584.189c-1.1-.673-2.856.131-2.856.131.607-.853,2.823-.574,2.823-.574-4.425-.942-5.339,1.9-5.411,2.147-3.2-2.889-8.328,3.27-8.328,3.27l7.356,9.75s.671-1.551,1.557-1.067c1.383.755,4.055-2.3,3.2-6.32a10.593,10.593,0,0,0-.327-1.2,2.385,2.385,0,0,0,.918.227c.8,0,2.019-2.052,2.183-2.741s-.016-2.955-1.116-3.628" transform="translate(-1609.285 -435.963)" fill="#454547"/><path d="M2162.319,641.89s.113,1.56.116,3.03c2.774-.078,4.241-2.609,4.842-4.012Z" transform="translate(-1615.428 -478.811)" fill="#fe8d71"/><path d="M2158.567,608.687a14.588,14.588,0,0,0,1.8-4.261c.249-1.4-.466-6.6-5.689-5.851a7.1,7.1,0,0,0-2.943,1.113c-1.134.766-2.771,2.419-.94,6.955l.475,1.532Z" transform="translate(-1606.206 -447.13)" fill="#454547"/><path d="M2152.2,617.579s6.563.108,6.568-3.98.855-6.828-3.336-7.07-5.007,1.317-5.34,2.681.4,8.235,2.107,8.369" transform="translate(-1606.234 -453.108)" fill="#ffb3a3"/><path d="M2152.093,841.465a64.852,64.852,0,0,1-4.137,11.6l-2.165-.15a61.2,61.2,0,0,0,1-11.872,49.715,49.715,0,0,0-2.517-15.789c-6.476-18.5-5.43-31.957-5.43-31.957l12.178,1.425.567.067c.051,5.593.2,13.187.322,19.125.112,5.34.21,9.341.21,9.341,2.342,5.043,1.491,12.161-.029,18.206" transform="translate(-1597.844 -592.662)" fill="#d65e2f"/><path d="M2170.114,724.051c-1.23,3.4-1.864,4.783-1.833,6.068-3.921-6.071-11-6.987-11-6.987l13.448-1.537a12.647,12.647,0,0,1-.613,2.456" transform="translate(-1611.662 -539.091)" fill="#35d3bc"/><path d="M2176.619,832.842a29.969,29.969,0,0,1-3.784,12.306l-1.034.752s-.978-5.265-1.671-11.53c-.66-5.954-1.564-12.254-2.588-14.177-4.061-7.627-5.284-36.418-5.284-36.418l12.348-.612c1.241,2.088,1.783,5.512,1.912,9.405.325,9.826-1.985,22.638-2.33,24.492a.006.006,0,0,1,0,0,.647.647,0,0,0,.082.414c2.457,4.863,2.812,10.427,2.35,15.364" transform="translate(-1615.383 -585.087)" fill="#d96a3f"/><path d="M2155.671,609.69c2.758.709,3.954-.03,3.954-.03a6.988,6.988,0,0,0-2.554-4.614c-3.407-2.627-5.754-1.16-5.9-.943-.429-.37-1.2-.64-2.211.59-1.521,1.844-.168,5.1-.168,5.1.625.073.772-2.07,1.1-3.112a5.143,5.143,0,0,1,1.432-1.907c.128.474,1.45,5.064,4.749,6.589a15.318,15.318,0,0,1-2.635-3.219,4.69,4.69,0,0,0,2.234,1.542" transform="translate(-1604.908 -450.864)" fill="#454547"/><path d="M2119.52,1039.452l-.013.014h-.677a1.163,1.163,0,0,1,.179-.014Z" transform="translate(-1582.938 -776.556)" fill="#414143"/><path d="M2153.681,700.585a2.928,2.928,0,0,1-.077.987c-.263.827-1.165,1.2-3.346.978-1.333-.139-1.927-2.373-2.193-4.279q-1.2,4.09-3.371,4.579c-2.115.47-12.782,1.767-13.48-3.3-.768-5.577,1.532-15.453,1.658-20.778a26.328,26.328,0,0,1-.387-4.935c.089-3.793,1.2-5.919,2.058-6.775a2.921,2.921,0,0,1,1.458-.469c.5-.085,1.187-.183,2.163-.311a3.654,3.654,0,0,1,.39-.03c-.18.323-2.6,3.981-2.408,4.922.2.985,8.766.1,9.357-.443s1.526-4.689,1.526-4.689a11.872,11.872,0,0,1,4.519,1.411l-.016.019a1.242,1.242,0,0,1,.39.41c1.584,3.015,3.165,10.623,4.277,16.051a7.9,7.9,0,0,1-5.782.847c.955,6.251,3.122,12.961,3.264,15.809" transform="translate(-1592.073 -497.584)" fill="#9487b9"/><path d="M2142.364,666.991l-.014.023c-.291.46-4.843,7.736-5.279,12.467a26.3,26.3,0,0,1-.387-4.934c.585-1.787,2.006-5.759,3.516-7.244a10.023,10.023,0,0,1,2.163-.311" transform="translate(-1596.272 -498.297)" fill="#626365"/><path d="M2100.712,712.713l-1.911-5.738a.19.19,0,0,0-.241-.12l-3.01,1a.19.19,0,0,0-.12.241l1.91,5.738a.191.191,0,0,0,.241.121l3.009-1a.191.191,0,0,0,.121-.241" transform="translate(-1565.449 -528.071)" fill="#9487b9"/><path d="M2098.242,713.534l-1.818-5.458a.338.338,0,0,0-.428-.214l-2.729.909a.337.337,0,0,0-.214.427l1.817,5.458a.337.337,0,0,0,.427.214l2.729-.909a.338.338,0,0,0,.214-.427" transform="translate(-1563.668 -528.818)" fill="#5b4794"/><path d="M2199.869,979.585a29.966,29.966,0,0,1-3.783,12.306l-1.053.959s-.959-5.472-1.652-11.736a11.076,11.076,0,0,0,6.488-1.528" transform="translate(-1638.633 -731.83)" fill="#ffb3a3"/><path d="M2172.8,982.5a64.839,64.839,0,0,1-4.136,11.6l-2.165-.15a61.2,61.2,0,0,0,1-11.872c.734.37,2.25.746,5.3.417" transform="translate(-1618.547 -733.696)" fill="#ffb3a3"/><path d="M2151.253,1021.994h-1.382c-.463-.073-.8-.207-1.279-.269a1.28,1.28,0,0,0-1.119.269l-.013.014h-5.87c-.148-.211-.006-.7.133-1.059a.836.836,0,0,1,.549-.5,6.33,6.33,0,0,0,2.973-1.358c.633-.571,3.053-2.1,3.053-2.1l.013,0c.053,0,.306.079,1.407,1.009.569.48,1.539-.678,1.539-.678a1.377,1.377,0,0,1,.318.432,1.454,1.454,0,0,1,.126.9,5.864,5.864,0,0,0,.42,2.177c.137.4.252.688.252.688s.066.332-1.123.48" transform="translate(-1599.895 -759.771)" fill="#454547"/><path d="M2171.58,1017.748a4.384,4.384,0,0,1-1.488.75c-.624.082-1.79-1.51-1.79-1.51l.013,0c.053,0,.306.079,1.407,1.009.57.479,1.54-.678,1.54-.678a1.379,1.379,0,0,1,.318.432" transform="translate(-1619.897 -759.771)" fill="#626365"/><path d="M2151.253,1033.338h-1.382c-.463-.073-.8-.207-1.279-.269a1.28,1.28,0,0,0-1.119.269l-.013.014h-5.87c-.148-.211-.006-.7.133-1.059.178-.159.229.689.327.823a26.189,26.189,0,0,0,5.059-.147,2.83,2.83,0,0,1,2.216-.271,5.336,5.336,0,0,0,2.8-.529c.137.4.252.688.252.688s.066.332-1.123.48" transform="translate(-1599.895 -771.115)" fill="#626365"/><path d="M2180.408,1021.994h-1.381c-.463-.073-.8-.207-1.279-.269a1.281,1.281,0,0,0-1.119.269l-.013.014h-5.87c-.147-.211-.006-.7.133-1.059a.835.835,0,0,1,.55-.5,6.334,6.334,0,0,0,2.973-1.358c.632-.571,3.053-2.1,3.053-2.1l.013,0c.053,0,.306.079,1.407,1.009.569.48,1.539-.678,1.539-.678a1.386,1.386,0,0,1,.318.432,1.458,1.458,0,0,1,.126.9,5.855,5.855,0,0,0,.421,2.177c.137.4.252.688.252.688s.066.332-1.123.48" transform="translate(-1621.677 -759.771)" fill="#454547"/><path d="M2200.735,1017.748a4.387,4.387,0,0,1-1.488.75c-.624.082-1.79-1.51-1.79-1.51l.013,0c.053,0,.306.079,1.407,1.009.569.479,1.54-.678,1.54-.678a1.39,1.39,0,0,1,.318.432" transform="translate(-1641.679 -759.771)" fill="#626365"/><path d="M2180.408,1033.338h-1.381c-.463-.073-.8-.207-1.279-.269a1.281,1.281,0,0,0-1.119.269l-.013.014h-5.87c-.147-.211-.006-.7.133-1.059.178-.159.228.689.327.823a26.185,26.185,0,0,0,5.059-.147,2.832,2.832,0,0,1,2.216-.271,5.337,5.337,0,0,0,2.8-.529c.137.4.252.688.252.688s.066.332-1.123.48" transform="translate(-1621.677 -771.115)" fill="#626365"/><g transform="translate(553.242 181.313)" opacity="0.4"><g clip-path="url(#h)"><path d="M2195.793,738.574c-1.465-.49-3.346-1.791-5.6-4.709-5.978-7.726-.508-16.8.226-16.974s2.114,5.874,2.114,5.874c.955,6.251,3.122,12.961,3.264,15.809" transform="translate(-2187.427 -716.887)" fill="#5b4794"/></g></g><path d="M2188.115,663.834a17,17,0,0,0-6.466,12.782,9.86,9.86,0,0,0,7.368,10.451l-.507-2.744a7.665,7.665,0,0,1-4.681-9.211,20.263,20.263,0,0,1,6.617-10.677Z" transform="translate(-1629.855 -495.939)" fill="#626365"/><path d="M2094.227,713.981s.563-1.165,1.6-.7.583,2.237-.019,2.857a6.069,6.069,0,0,0-.771.9Z" transform="translate(-1564.557 -532.799)" fill="#fe8d71"/><path d="M1945.284,762.049s-1,1.135-.414,1.842a1.924,1.924,0,0,0,2.594.639c.977-.677,1.24-3.2.677-3.2a20.749,20.749,0,0,0-2.858.714" transform="translate(-1452.84 -568.78)" fill="#fe8d71"/><path d="M1947.716,721.795s-2.857,9.324-2.256,10.677,2.548,1.105,3.643-.5-1.387-10.177-1.387-10.177" transform="translate(-1453.354 -539.24)" fill="#d65e2f"/><path d="M1954.929,639.524s-4.405.8-6.039,2.431-5.488,6.453-3.063,22.521a5.746,5.746,0,0,0,5.64,5.31c5.446.467,3.462-30.261,3.462-30.261" transform="translate(-1453.108 -477.777)" fill="#d96a3f"/><path d="M1973.4,625.238a11.281,11.281,0,0,0,.013-2.057h0c-.029-.345-.065-.549-.065-.549l.065-.02L1978.7,621l.131-.039c.078,1.722.178,3,.284,3.946a14.275,14.275,0,0,0,.356,2.118h-6.434a8.693,8.693,0,0,0,.36-1.784" transform="translate(-1474.019 -463.907)" fill="#ffb3a3"/><path d="M1966.329,576.2s.608-8.666,11.861-5.384c2.553.744,2.221,8.454-3.963,11.389Z" transform="translate(-1469.007 -425.889)" fill="#545456"/><path d="M1973.854,764.963c-.758,5.273-5.839,18.978-5.691,23.714.117,3.733.055,12.356-.437,18.085a35.285,35.285,0,0,1-.5,3.868c-.437,2.112-1,4.545-1.3,6.079-.671,3.443-.32,5.451-.868,7.3-.6,2.02-7.534,1.651-5.445.425a6.129,6.129,0,0,0,2.365-2.569c1.946-4.361-.782-23.166-1.6-30.416-.1-.905-.178-1.626-.209-2.119-.271-4.478-3.345-34.31-3.345-34.31,7.465-4.152,17.777,4.67,17.025,9.943" transform="translate(-1461.909 -563.257)" fill="#ffb3a3"/><path d="M1973.626,764.933c-.758,5.273-5.839,18.977-5.692,23.714.117,3.733.055,12.356-.437,18.085l-7.343-15.313c-.1-.905-.178-1.626-.209-2.119-.271-4.478-3.422-34.322-3.422-34.322,7.465-4.152,17.854,4.682,17.1,9.954" transform="translate(-1461.681 -563.227)" fill="#fe8d71"/><path d="M1960.108,755.58s6.411,29.472,7.14,33.9,6.567,25.26,5.295,30.481c-.751,3.08-2.06,3.991-2.06,3.991-.308.565,4.763,1.686,5.173-.475.52-2.744.629-6.6,1.391-13.124,1.312-11.242-1.29-17.639-1.921-22.338s2.117-19.632.593-24.736c-2.669-8.931-8.614-12.593-15.611-7.7" transform="translate(-1464.359 -562.848)" fill="#ffb3a3"/><path d="M1972.12,783s-1.669.259-4.127.431l-1.337-5.359-.468,5.457c-3.948.16-9.1-.037-12.9-1.608l.819-26.985a21.491,21.491,0,0,0,12.126-1.092s8.611,6.724,5.891,29.155" transform="translate(-1459.262 -563.181)" fill="#d96a3f"/><path d="M2005.647,1005.263a45.236,45.236,0,0,0-.377,5.633h-.544l-.049-4.1c-.039.049-.076.092-.109.13-.485.541-1.124,3.177-1.6,3.973h-6.014a.561.561,0,0,1,.083-.5v0a2.8,2.8,0,0,1,.958-.766,10.937,10.937,0,0,0,3.839-.183c.8-.2,2.161-7.334,2.161-7.334s1.893,1.152,2.1,1.678a2.557,2.557,0,0,1-.453,1.473" transform="translate(-1491.867 -748.66)" fill="#d65e2f"/><path d="M1973.4,1005.6a46.078,46.078,0,0,0-.316,4.8v0c0,.21-.007.38-.009.5h-.543l-.048-3.95c-.483.584-1.113,3.165-1.579,3.95h-6.014c-.229-.649,1.041-1.267,1.041-1.267a10.933,10.933,0,0,0,3.839-.183c.8-.2,2.161-7.334,2.161-7.334s1.893,1.151,2.1,1.677c.12.3-.222,1.08-.635,1.807" transform="translate(-1467.912 -748.66)" fill="#d65e2f"/><path d="M1963.062,670s-5.056,3.49-12.692.937c0,0-2.609-8.925-1.787-17.518.552-5.766,3.822-10.305,6.253-12.091.383.34,1.056.926,6.042-.283,0,0,2.287.959,2.695,1.843.868,1.888-2.046,23.363-.511,27.112" transform="translate(-1455.63 -478.915)" fill="#e5fcfd"/><path d="M1978.847,672.823c-2.254.462-3.991-1.128-6.658-1.892a9.273,9.273,0,0,1-2.261-.93c-2.384-1.466-3.542-12.319-3.129-16.428s7.747-12.527,7.747-12.527c1.693,1.257,2.01,4.181,3.027,8.018,2.445,9.233,1.275,23.758,1.275,23.758" transform="translate(-1469.297 -478.914)" fill="#d96a3f"/><path d="M1988,696.507a8.381,8.381,0,0,1-6.658-1.892,13.512,13.512,0,0,1-2.18-5.168c-1.213-5.987,3.573-12.486,7.564-16.7,2.445,9.233,1.275,23.758,1.275,23.758" transform="translate(-1478.453 -502.599)" fill="#d65e2f"/><path d="M1979.61,621.115c-.6,1.01-2.507,3.8-5.3,4.24a11.3,11.3,0,0,0,.013-2.057h0c-.03-.345-.065-.549-.065-.549l.065-.02Z" transform="translate(-1474.928 -464.024)" fill="#fe8d71"/><path d="M1965.226,597.016s6.568,1.319,7.326-2.784,2.117-6.7-2.044-7.711-5.268.4-5.854,1.707-1.117,8.339.572,8.788" transform="translate(-1467.332 -437.92)" fill="#ffb3a3"/><path d="M1974.389,583.339a5.589,5.589,0,0,0-6.393-1.934,9.424,9.424,0,0,0-1.251-.094c-4.287-.1-3.1,4.852-3.1,4.852a3.436,3.436,0,0,1,2.861-3.456l.094-.028c-.239.87-.155,2.265,1.945,3.583,3.387,2.127,3.128,6.381,2.228,7.578,0,0,6.744-6.581,3.619-10.5" transform="translate(-1466.888 -434.12)" fill="#545456"/><path d="M1944.661,775.314c-.534-2.261-1.138-3.44-1.846-3.6a.72.72,0,0,0-.592.132c-.549.393-1.014,1.6-1.422,3.682-.292,1.5-.441,2.91-.442,2.924l.449.046c0-.014.148-1.406.436-2.884.5-2.543.991-3.222,1.241-3.4a.264.264,0,0,1,.228-.059c.956.221,1.785,4.058,2.083,6.425l.448-.056c0-.016-.2-1.6-.583-3.206" transform="translate(-1449.605 -576.518)" fill="#454547"/><path d="M1943.092,804.739l-.982-6.513a2.827,2.827,0,0,0-2.8-2.406h-6.957a1.138,1.138,0,0,0-1.137,1.137v7.952a1.137,1.137,0,0,0,1.137,1.137h9.609a1.137,1.137,0,0,0,1.125-1.307" transform="translate(-1442.778 -594.543)" fill="#454547"/><path d="M1933.236,795.82h-6.124a1.221,1.221,0,0,0-1.2.987l-1.517,7.784a1.221,1.221,0,0,0,1.2,1.455h6.553a1.221,1.221,0,0,0,1.209-1.052l1.088-7.783a1.222,1.222,0,0,0-1.21-1.39" transform="translate(-1437.663 -594.543)" fill="#545456"/><path d="M1950.66,768.974s-2.84.744-3.007,1.331a1.977,1.977,0,0,0,2.413,1.868,6.078,6.078,0,0,0,2.889-2.3Z" transform="translate(-1455.041 -574.487)" fill="#ffb3a3"/><path d="M1967.061,641.047a8.612,8.612,0,0,1,6.187,4.7c2,4.157-1.723,19.006-2.262,20.007s-6.793,9.007-12.106,9.7c0,0-2.258-.8-2.181-2.105,0,0,8.708-8.618,9.323-9.85s-.244-14.748-.167-16.519a42.132,42.132,0,0,1,1.2-5.933" transform="translate(-1461.813 -478.915)" fill="#d96a3f"/><path d="M612.028,506.806s-5.438-4.438-6.857,2.3c-1.067,5.069,4.892,4.879,4.892,4.879Z" transform="translate(-452.016 -377.555)" fill="#d35422"/><path d="M621.437,508.095a7.167,7.167,0,0,0-8.01-.4c-4.322,2.593-.827,12.8,1.834,13.375s9.461-9.571,9.461-9.571-.193-.894-3.285-3.4" transform="translate(-456.758 -378.498)" fill="#d96a3f"/><path d="M734.432,722.807a7.341,7.341,0,0,1,2.633-.413,12.268,12.268,0,0,1,3.578,1.685.973.973,0,0,1,0,.458h-6.21s-1.388-.27-1.625-1.088,1.625-.642,1.625-.642" transform="translate(-547.451 -539.663)" fill="#fe8d71"/><path d="M646.322,998.23a1.19,1.19,0,0,0,.777,1.032l.007,0a7.924,7.924,0,0,0,3.713.078c.192-.025.364-.046.519-.06l.121-.01.093-.007c1.492-.1,1.375.361,4.228.348,3.251-.017,4.35-1.112,4.5-1.579.125-.4-1.3-.7-2.89-1.057l-.232-.052c-.212-.047-.425-.1-.637-.144-1.9-.445-3.776-1.007-4.4-2.83-.659-1.933-.5-7.669-.5-7.669h-5.757s1.511,6.337,1.353,8.163c-.086.975-.552,1.252-.732,2.1q-.02.089-.035.178a5.658,5.658,0,0,0-.126,1.51" transform="translate(-482.512 -736.833)" fill="#fe8d71"/><path d="M619.235,727.2c.486,2.728,1.179,5.547,1.781,8.478a43.886,43.886,0,0,1,.95,15.114,18.773,18.773,0,0,0-.159,2.284c-.145,9.531,4.114,26.8,4.114,26.8a7.52,7.52,0,0,0,3.095.4,9.83,9.83,0,0,0,2.529-.693s.4-10.709.427-25.111c.017-10.439,2.067-24.185,2.481-32.261a103.45,103.45,0,0,0-.294-11.4s-8.489-6.826-11.538-3.334c-3.012,3.451-5.206,9.511-3.388,19.716" transform="translate(-462.125 -527.809)" fill="#58595b"/><path d="M629.183,801.871a18.8,18.8,0,0,0-.159,2.283c6.357-9.211,7.763-29.3,7.763-29.3l-6.983,3.389s-.766,3.767-1.572,8.51a43.887,43.887,0,0,1,.95,15.115" transform="translate(-469.341 -578.883)" fill="#5e5e5f"/><path d="M575.02,997.173a1.19,1.19,0,0,0,.777,1.032l.007,0a7.924,7.924,0,0,0,3.713.078c.192-.025.365-.046.519-.06l.121-.01.093-.007c1.492-.1,1.376.361,4.228.348,3.251-.017,4.35-1.112,4.5-1.579.125-.4-1.3-.7-2.89-1.057l-.232-.052c-.212-.047-.425-.1-.637-.144-1.9-.445-3.776-1.007-4.4-2.83-.659-1.933.282-7.581.282-7.581l-5.334-.446s.331,6.436.173,8.262a15.839,15.839,0,0,1-.761,2.356c-.013.06-.025.119-.036.178a5.681,5.681,0,0,0-.126,1.51" transform="translate(-429.577 -735.776)" fill="#fe8d71"/><path d="M576.965,801.194a12.959,12.959,0,0,0,2.358.846,11.332,11.332,0,0,0,3.038-.188,139.044,139.044,0,0,1,2.9-17.95,167.945,167.945,0,0,1,8.677-27.5c.843-1.991,4.318-11.416,4.907-13.794,1.784-7.186-.007-6.412-.007-6.412l-15.587-1.829s-1.92.987-2.8,11.135c-.265,3.039-.3,16.161-.7,18.649a27.838,27.838,0,0,1-1.339,5.587c-2.9,7.107-1.448,31.457-1.448,31.457" transform="translate(-430.769 -548.632)" fill="#58595b"/><path d="M575.02,1028.538a1.19,1.19,0,0,0,.777,1.032l.007,0a9.176,9.176,0,0,0,3.709.069c.192-.023.365-.04.522-.051l.121-.01.093-.007c1.492-.1,1.376.361,4.228.348,3.251-.017,4.35-1.112,4.5-1.579.125-.4-1.3-.7-2.89-1.057a9.6,9.6,0,0,1-4.911.871c-2.189-.21-4.424-1.087-5.994-1.306q-.02.089-.036.178a5.68,5.68,0,0,0-.126,1.51" transform="translate(-429.577 -767.141)" fill="#d96a3f"/><path d="M647.639,1028.538a1.19,1.19,0,0,0,.777,1.032l.007,0a9.175,9.175,0,0,0,3.709.069c.192-.023.365-.04.523-.051l.121-.01.093-.007c1.492-.1,1.375.361,4.228.348,3.251-.017,4.35-1.112,4.5-1.579.125-.4-1.3-.7-2.89-1.057a9.6,9.6,0,0,1-4.911.871c-2.189-.21-4.424-1.087-5.994-1.306q-.02.089-.035.178a5.657,5.657,0,0,0-.126,1.51" transform="translate(-483.828 -767.141)" fill="#d96a3f"/><path d="M616.9,571.227c-.113,0-.84-.133-2.126-.211a9.646,9.646,0,0,1-.468-1.977,12.957,12.957,0,0,1-.046-2.882c.032-.329.064-.52.064-.52l-6.386-1.944c-.077,1.688-.171,3.008-.272,4.041-.3,3.031-.654,3.589-.763,3.69a52.109,52.109,0,0,0-5.316,1.077s5.154,23.615,3.4,28.066a47.045,47.045,0,0,0-2.417,8.4l19,.235s-.265-15.277.61-20.684-5.279-17.292-5.279-17.292" transform="translate(-449.435 -421.125)" fill="#fe8d71"/><path d="M633.064,569.039c-4.827-.1-6.368-5.346-6.368-5.346l6.386,1.944s-.033.191-.065.52a12.946,12.946,0,0,0,.047,2.882" transform="translate(-468.193 -421.125)" fill="#f36523"/><path d="M597.438,619.824c-.278,3.126-3.2,10.269-2.566,11.791a4.388,4.388,0,0,0,3.594,2.869,37.225,37.225,0,0,0,5.991.608c5.723.285,11.855-.435,12.69-3.155.4-1.306.246-6.358.034-8.69-.438-4.826.48-11.752.615-16.234.111-3.738-2.144-12.245-2.144-12.245a14.265,14.265,0,0,0-4.209-1.285s-.336,4.418-2.642,4.8c-3.987.658-7.2-2.994-8.138-4.464,0,0-4.579,1.156-5.923,2.688-1.273,1.451.469,12.2.855,13.228.335.885.65,1.748.925,2.615a18.243,18.243,0,0,1,.917,7.476" transform="translate(-443.976 -443.381)" fill="#e9fdfd"/><path d="M523.876,722.877a7.4,7.4,0,0,0-2.633-.409,12.318,12.318,0,0,0-3.578,1.671.955.955,0,0,0,0,.454h6.21s1.388-.267,1.625-1.078-1.625-.637-1.625-.637" transform="translate(-386.718 -539.719)" fill="#fe8d71"/><path d="M630.49,535.825s-7.644,1.535-8.526-3.24-2.464-7.792,2.379-8.974,6.131.464,6.813,1.986,1.3,9.705-.666,10.228" transform="translate(-463.934 -390.879)" fill="#fe8d71"/><path d="M649.12,562.032s.2.567,1.643.309c0,0,1.208-.216,1.1-.852a3.943,3.943,0,0,0-2.74.543" transform="translate(-484.945 -419.436)" fill="#fff"/><path d="M570.3,621.1a46.615,46.615,0,0,0-3.86-11.8l-3.973-8.271c.164-1.333-1.358-5-1.428-6.342,0,0-4.518.156-6.613,1.861-2.369,1.928-3.955,8.3-6.847,19.458,0,0-4.782,7.97-6.3,11.132a2.71,2.71,0,0,0,.856.758,4.516,4.516,0,0,0,1.25.441s8.626-8.42,9.193-9.751c.245-.574,1.963-3.036,3.79-6.541l0,.025c.338,2.76.674,5.144.929,6.191.8,3.281-4.967,18.421-4.7,19.336.095.327,2.1.485,4.709.487,4.693,0,11.36-.491,12.5-1.4.947-.758,1.656-8.518.5-15.584" transform="translate(-404.379 -444.28)" fill="#58595b"/><path d="M612.209,594.54l5.1,14.645-5.1-4.821.386-1.5a3.574,3.574,0,0,1-1.647-.2c-.476-.307-1.583-7.795-1.583-7.795a6.8,6.8,0,0,1,1.418-.3,12.911,12.911,0,0,1,1.427-.032" transform="translate(-455.245 -444.165)" fill="#545456"/><path d="M666.284,614.99c-3.946-9.144-4.478-17.685-6.846-19.631-2.1-1.72-6.614-1.878-6.614-1.878v0l-.009,0,.008.038c.531,3.051,1.055,4.67.916,7.943a46.632,46.632,0,0,1-.943,6.937s-3.62,27.773-3.08,27.819c4.1.355,9.843-3.781,9.843-3.781-1.242-3.342-.795-19.114-.795-19.116l.055.1c1.27,2.226,2.287,3.737,2.471,4.173.566,1.343,9.193,9.837,9.193,9.837a4.481,4.481,0,0,0,1.249-.445c.057-.033.109-.066.16-.1a2.656,2.656,0,0,0,.7-.665c-1.523-3.19-6.3-11.229-6.3-11.229" transform="translate(-485.35 -443.379)" fill="#58595b"/><path d="M662.085,593.482s1.074,11.577-.028,14.918c0,0,3.156-5,2.564-6.032l-1.144-.754s2.208-.286,1.794-1.555l-2.12-6.494a2.24,2.24,0,0,0-.486-.084Z" transform="translate(-494.61 -443.38)" fill="#545456"/><path d="M594.872,672.99c0,3.531-2.164,12.544-4.152,16.437-2.612,0-4.614-.16-4.709-.487-.266-.915,5.5-16.055,4.7-19.336-.255-1.047-.591-3.431-.93-6.191,1.767,2.022,5.089,6.265,5.089,9.577" transform="translate(-437.791 -495.624)" fill="#545456"/><path d="M697.954,664.686c-.051.034-.1.067-.16.1a4.486,4.486,0,0,1-1.25.445s-8.627-8.494-9.193-9.837c-.184-.437-1.2-1.947-2.471-4.173-.209-1.65-.71-5.987.153-7.034,1.052-1.279,3.609,9.474,4.436,10.676.67.976,6.7,6.981,8.485,9.824" transform="translate(-511.41 -481.181)" fill="#545456"/><path d="M629.2,512.1c-3.771-3.716-5.945-3.59-7.571-2.444-1.039.732-2.559,3.259-3.107,4.026-1.081,1.512,1.383,8.816,1.383,8.816a8.368,8.368,0,0,1-.079-1.951c.23,1.08.468,1.822.468,1.822a26.036,26.036,0,0,1,4.045-6.238,12.5,12.5,0,0,0,1.65-2.2c2.4.889,3.719,4.747,3.719,4.747.87-1.826,1.115-4.973-.509-6.574" transform="translate(-461.882 -380.226)" fill="#d96a3f"/><path d="M912.746,794.924a40.349,40.349,0,0,1-27.618-10.958l3.487-3.352-1.743,1.676,1.739-1.68a32.247,32.247,0,0,0,7.122,5.1,35.276,35.276,0,0,0,19.129,4.315c16.153-.943,23.371-9.522,23.441-9.608l3.739,3.068c-.345.42-8.655,10.3-26.9,11.369q-1.219.071-2.4.07" transform="translate(-661.262 -583.036)" fill="#d96a3f"/><path d="M1786.623,662.191c-.085-2.171-3.017-3.242-3.017-3.242-1.428-.865-1.345-10.992-1.869-16.956a29.463,29.463,0,0,0-.44-3.391c-.838-3.769-1.092-17.1-3.6-19.2s-8.35-2.978-8.35-2.978,1.879,10.061,3.93,20.571c2.227,11.424,7.651,22.343,8.121,22.77l0,0a9.32,9.32,0,0,0,2.462,2.929c.846.564.395,1.692,1.41,1.8,1.346.149,1.4-1.18,1.353-2.312" transform="translate(-1321.842 -460.519)" fill="#ffb3a3"/><path d="M1744.684,597.537l0,.825s.225,2.581-2.953,2.958-5.585-1.006-5.5-3a23.346,23.346,0,0,0,.622-3.877,8.986,8.986,0,0,0-.113-1.545l6.158-.123,1.814.3Z" transform="translate(-1297.101 -442.853)" fill="#ffb3a3"/><path d="M1746.218,593.073l-.023,4.464a5.205,5.205,0,0,1-2.22.49c-2.831,0-4.66-2.075-5.616-3.582a8.99,8.99,0,0,0-.113-1.546l6.158-.123Z" transform="translate(-1298.611 -442.853)" fill="#fe8d71"/><path d="M1742.211,564.072s-7.887,1.593-8.8-3.333-2.552-8.039,2.444-9.265,6.328.472,7.034,2.042,1.353,10.015-.675,10.556" transform="translate(-1294.245 -411.683)" fill="#ffb3a3"/><path d="M1769.342,616.424s1.083,5.8,2.5,13.19c.45,2.346.933,4.85,1.428,7.382,2.009,3.937,3.732,6.614,4.265,6.111,1.086-1.026,2.993-1.152,4.2-1.114a29.45,29.45,0,0,0-.44-3.391c-.066-.3-.128-.655-.189-1.062-.7-4.743-1.1-16.208-3.416-18.137-2.513-2.094-8.35-2.978-8.35-2.978" transform="translate(-1321.842 -460.519)" fill="#fff"/><path d="M1794.5,662.534c1.086-1.026,2.993-1.152,4.2-1.114a29.425,29.425,0,0,0-.44-3.391c-.066-.3-.128-.655-.189-1.062l-6.022-14.538s1.919,20.608,2.451,20.1" transform="translate(-1338.807 -479.948)" fill="#ddd"/><path d="M1727.379,1023.576a15.109,15.109,0,0,0-1.009-3.723c-.683-1.365-5.026-.5-5.026-.5s-.869.745-1.055,4.219Z" transform="translate(-1285.195 -761.339)" fill="#454547"/><path d="M1804.895,1015.774c-1.021-.623-.429-5.143-.429-5.143s4.755-3.8,5.41-.891,4.518,4.22,6.718,4.577c1.518.246,1.617.96,1.763,1.458Z" transform="translate(-1347.955 -753.538)" fill="#454547"/><path d="M1747.11,798.927a21.931,21.931,0,0,1,.349,2.569c.442,8.624,7.259,28.341,8.478,28.8,1.887.712,4.857-.8,6.412-1.3a1.333,1.333,0,0,0,.935-1.514c-3.376-15.519-4.617-37.867-5.068-51.1a60.01,60.01,0,0,0-1.372-11.268s-16.626-4.436-16.724,1.176c-.088,4.965,5.507,24.44,6.99,32.631" transform="translate(-1300.01 -570.364)" fill="#545456"/><path d="M1747.11,798.927l11.107-22.539a60.01,60.01,0,0,0-1.372-11.268s-16.626-4.436-16.724,1.176c-.088,4.965,5.507,24.44,6.99,32.631" transform="translate(-1300.01 -570.364)" fill="#454547"/><path d="M1727.3,768.776l-8.789,63.7a17.2,17.2,0,0,1-6.862.186s-2.573-33.88-2.359-42.07-1.847-21.917.47-23.431,17.539,1.613,17.539,1.613" transform="translate(-1276.497 -572.824)" fill="#545456"/><path d="M1707.946,654.852a1.314,1.314,0,0,0,1.293,1.365l13.851.211,10.173.156c.477.008-1.03-3.8-1.06-28.654-.007-5.546-8.593-11.513-8.751-11.513l0,0c0,.8-1.258,2.273-3.2,2.4-2.3.151-5.124-.994-5.124-2.319a6.192,6.192,0,0,0-.7.9c-1.148,1.674-3.462,5.754-4.94,12.858-1.166,5.61-.717,13.11-1.557,22.787-.061.7.029,1.32.011,1.809" transform="translate(-1275.95 -460.513)" fill="#bfb7d5"/><path d="M1708.419,656.293a28.177,28.177,0,0,0,5.285,1.538,52.054,52.054,0,0,0,10.239,1.029c6.732.043,9.281-2.277,9.281-2.277.477.008-1.029-3.8-1.06-28.654-.007-5.546-8.593-11.513-8.751-11.513l0,0s.221,7.384-2.013,9.556c0,0-3.133-2.42-7.2-9.307-1.148,1.674-3.27,6.486-4.747,13.589a38.515,38.515,0,0,0-.629,4.716c-.391,4.9-.3,10.886-.928,18.071-.062.7.029,1.32.011,1.809-.029.738-.227,1.43.511,1.442" transform="translate(-1275.912 -460.513)" fill="#fff"/><path d="M1708.419,697.357a28.177,28.177,0,0,0,5.285,1.538,18.1,18.1,0,0,0,2.637-9.333c.321-7.947-7.229-18.181-7.229-18.181l-.288,4.654c-.391,4.9-.3,10.886-.928,18.071-.062.7.029,1.319.011,1.809-.029.738-.227,1.43.511,1.442" transform="translate(-1275.912 -501.577)" fill="#ddd"/><path d="M1727.3,662.064l-9.914-5.724a1.706,1.706,0,0,0-2.33.625l-8.485,14.7a1.706,1.706,0,0,0,.625,2.33l9.913,5.723a1.706,1.706,0,0,0,2.33-.624l8.485-14.7a1.706,1.706,0,0,0-.624-2.33" transform="translate(-1274.774 -490.169)" fill="#d96a3f"/><path d="M1708.607,640.55c-.226-.621-2.44-1.427-3.208-1.427s-2.709,1.817-2.754,1.859c-.558-.026-6.041-.289-10.115-.886a25.646,25.646,0,0,1-2.8-.54c-.935-.25,3.7-12.005,6.043-18.918.559-1.649.986-3.023,1.176-3.9,0,0-.409.066-1.051.193-1.821.36-5.523,1.2-7.1,2.4-2.132,1.611-7.452,19.783-4.188,26.806a39.714,39.714,0,0,0,7.14-.206,68.627,68.627,0,0,0,12.286-2.466,1.807,1.807,0,0,0,.327,0,28.427,28.427,0,0,0,3.931-.93c.632-.248.542-1.365.316-1.986" transform="translate(-1257.766 -460.755)" fill="#ffb3a3"/><path d="M1684.607,646.632a39.705,39.705,0,0,0,7.14-.206,8.531,8.531,0,0,1,.783-5.832,25.741,25.741,0,0,1-2.8-.54c-.934-.25,3.7-12.005,6.044-18.918.187-2.235.286-3.73.286-3.73l-.161.024c-1.821.36-5.523,1.2-7.1,2.4-2.132,1.611-7.452,19.782-4.188,26.806" transform="translate(-1257.766 -461.253)" fill="#fff"/><path d="M1734.624,623.78s-6.267-2.761-6.36-2.978a4.96,4.96,0,0,1,.745-2.389s-3.01.279-3.2-.093a25.327,25.327,0,0,1-.248-3.475,4.8,4.8,0,0,1,2.73-1.365s1.358,3.368,1.861,4.375a31.069,31.069,0,0,0,4.468,5.926" transform="translate(-1289.137 -458.32)" fill="#ddd"/><path d="M1762.872,618.357a20.9,20.9,0,0,1-1.489,5.46s3.273-2.28,3.552-3.025-.791-2.187-.791-2.187,1.955-.047,2-.7a20.987,20.987,0,0,0-.605-3.212s-1.6-1.212-2.063-1.165Z" transform="translate(-1315.896 -458.357)" fill="#ddd"/><path d="M1737.99,541.385a16.531,16.531,0,0,1-4.793-1.3c-2.106-.915-4.762.093-5.624.547a1.282,1.282,0,0,1,.21-.519,1.157,1.157,0,0,0-.444.658c-.04.029-.058.05-.048.056a1.481,1.481,0,0,0-.72.047s.2-.028.268.1a.119.119,0,0,0,.031.035c-3.284,1.587-3.587,6.777-2.531,7.978a26.356,26.356,0,0,1,2.8,4.7,2.79,2.79,0,0,0,.325-2.04c-.231-1.272.867-1.272,2.254-1.85s.231-2.2,1.445-3.179,5.665-.4,5.606-1.156c1.652-.6,1.224-3.91,1.224-4.079" transform="translate(-1287.815 -403.213)" fill="#454547"/><path d="M1746.929,698.9a.827.827,0,1,0,.827.827.827.827,0,0,0-.827-.827" transform="translate(-1304.48 -522.135)" fill="#f36523"/><path d="M1883.715,1021.077a2.159,2.159,0,1,0,2.835-1.136,2.16,2.16,0,0,0-2.835,1.136" transform="translate(-1407.158 -761.849)" fill="#7eaa37"/><path d="M1882.937,1021.077a2.159,2.159,0,1,0,2.834-1.136,2.16,2.16,0,0,0-2.834,1.136" transform="translate(-1406.576 -761.849)" fill="#fe8d71"/><path d="M1815.187,1021.077a2.159,2.159,0,1,0,2.834-1.136,2.159,2.159,0,0,0-2.834,1.136" transform="translate(-1355.961 -761.849)" fill="#7eaa37"/><path d="M1814.408,1021.077a2.159,2.159,0,1,0,2.834-1.136,2.16,2.16,0,0,0-2.834,1.136" transform="translate(-1355.38 -761.849)" fill="#fe8d71"/><path d="M1832.875,1017.747l-3.071,1.1a2.773,2.773,0,0,1-.968.164l-17.422-.178-1.9-3.153Z" transform="translate(-1351.852 -758.798)" fill="#d35422"/><path d="M1799.008,796.075a5.406,5.406,0,0,0-5.643-4.734l-3.64-.384a3.933,3.933,0,0,0-2.956.6,3.671,3.671,0,0,0-1.3,2.891c-.087,1.691,2.04,12.637,3.013,17.529l-6.515,1.3s-2.742,1.115-2.2,5.919c.479,4.227,2.577,27.948,2.577,27.948s.438,4.936,10.981,3.5l-1.957-39.251-1.975.4c-1.271-6.383-3.068-15.866-2.995-17.3a2.8,2.8,0,0,1,.931-2.193,3.047,3.047,0,0,1,2.224-.424l3.732.4.037,0c4.4.111,4.748,3.752,4.76,3.905l0,.025,3.107,17.041.916-.167Z" transform="translate(-1329.577 -590.858)" fill="#f36523"/><path d="M1805.151,878.354l2.529,26.564a6,6,0,0,0,5.939,5.434l8.72.054.216,0,5.461.034a6.02,6.02,0,0,0,1.583-.2q.177-.046.348-.1a6,6,0,0,0,4.038-6.623l-3.96-25.417a6,6,0,0,0-5.36-5.051l-1.54-.147-.367-.035h0l-.309-.029-5.149-.493-.632-.06-4.968-.475a6,6,0,0,0-2.236.206c-.046.013-.092.027-.138.042l-.287.1a6,6,0,0,0-3.886,6.2" transform="translate(-1348.573 -651.293)" fill="#fe8d71"/><g transform="translate(460.176 253.455)" opacity="0.4"><g clip-path="url(#i)"><path d="M1819.461,1005.183a6,6,0,0,0,4.869,2.543l8.72.054.216,0,5.461.034a6.026,6.026,0,0,0,1.583-.2q.176-.046.348-.1a6.36,6.36,0,0,0,4.1-5.344s-18.446-.241-22.3.354a3.712,3.712,0,0,0-3,2.66" transform="translate(-1819.461 -1002.121)" fill="#f36523"/></g></g><path d="M1882.793,908.985c-.151-1.071-3.692-26.216-4.241-28.457-.482-1.963-3.333-3.921-4.257-4.511l-.367-.035h0l-.308-.029c.038.023,4.083,2.488,4.615,4.653.546,2.226,4.2,28.163,4.234,28.424a6.013,6.013,0,0,1-1.976,4.395l.277-.066q.176-.046.348-.1a5.4,5.4,0,0,0,1.677-4.27" transform="translate(-1399.745 -654.408)" fill="#f36523"/><path d="M1854.364,878.917a8.187,8.187,0,0,0-2.97-5.088l-.632-.06a7.871,7.871,0,0,1,3.277,5.2c.555,3.655,2.726,30.2,2.748,30.467l0,.019.006.018a2.954,2.954,0,0,1-.58,2.419l.219,0,.216,0a2.841,2.841,0,0,0,.464-2.5c-.068-.821-2.2-26.846-2.75-30.472" transform="translate(-1382.669 -652.777)" fill="#f36523"/><path d="M1824.286,877.973a7.505,7.505,0,0,0-3.263-5.269c-.046.013-.092.027-.138.042l-.287.1a6.837,6.837,0,0,1,1.581,1.306,7.5,7.5,0,0,1,1.781,3.871c.556,3.653,2.277,30.109,2.294,30.376v.021l.006.019a4.019,4.019,0,0,1-.813,2.605l.55,0a4.278,4.278,0,0,0,.583-2.689c-.055-.845-1.744-26.76-2.3-30.385" transform="translate(-1360.134 -651.981)" fill="#f36523"/><path d="M1329.952,997.788c-.42,1.415-2.361,2.36-2.622,4.091a3.155,3.155,0,0,1-1.614,2.533h-5.206c-.123-.329-.281-1.152,1.046-1.443,1.679-.369,2.311-2.4,2.207-4.291a24.667,24.667,0,0,1,.016-2.475c.053-1.081.141-1.93.141-1.93l3.568-.84.374.481.36.463s2.151,1.993,1.731,3.41" transform="translate(-986.469 -742.177)" fill="#454547"/><path d="M1209.478,1018.07h-12.247a2.094,2.094,0,0,1,1.867-1.348c1.88-.3,5.139-1.4,5.866-3.8.023-.078.044-.156.062-.236.577-2.57,4.772.787,4.772.787s.012.1.03.275c.094.9.325,3.726-.349,4.324" transform="translate(-894.429 -755.834)" fill="#454547"/><path d="M1206.583,762.052s.638,7.951,1.387,17.509c1.018,12.984,2.242,28.932,2.363,31.953.209,5.247,1.049,13.638,1.049,13.638s1.993,1.994,5.98,1.154a137.29,137.29,0,0,0,4.568-24.655c.015-.208.032-.417.047-.626.944-12.9,2.412-40.074,2.412-40.074Z" transform="translate(-901.415 -568.492)" fill="#545456"/><path d="M1206.583,762.052s.638,7.951,1.387,17.509l13.961,22.09c.015-.208.032-.417.047-.626.944-12.9,2.412-40.074,2.412-40.074Z" transform="translate(-901.415 -568.492)" fill="#454547"/><path d="M1218.091,753.7s11.487,28.8,19.04,42.329,9.914,17.31,9.914,17.31,4.327-1.731,4.72-2.911c0,0-2.888-26.126-7.946-32.494-2.858-3.6-6.216-14.4-6.373-18.175s-1.023-11.251-1.023-11.251Z" transform="translate(-910.013 -559.196)" fill="#545456"/><path d="M1162.6,737.606l-.657,1.309a2.94,2.94,0,0,0-2.42,3.947s.5,1.432,1.416.979.467-.415,1.787-1.025,2.083-1.781,1.788-2.856l.211-1.139Z" transform="translate(-866.138 -551.052)" fill="#ffbbad"/><path d="M1232.429,565.227a33.727,33.727,0,0,1-.526-4.8l5.828-4.7a11.687,11.687,0,0,0,3.922,9.565s-7.767,3.823-12.256,2.407a10.748,10.748,0,0,1,3.032-2.471" transform="translate(-918.459 -415.174)" fill="#ffb3a3"/><path d="M1229.6,537.645s7.414,1.232,8.11-3.4,2.122-7.588-2.583-8.57-5.892.646-6.5,2.134-.938,9.394.973,9.833" transform="translate(-917.531 -392.501)" fill="#ffbbad"/><path d="M1237.613,525.208a7.674,7.674,0,0,0-6.906-7.2c-4.627-.682-1.825-4.548-1.3-5.161,0,0,3.537.675,7.158,1.469,7.6,1.668,1.847,9.965,1.044,10.887" transform="translate(-917.481 -383.142)" fill="#454547"/><path d="M1170.134,641.388a12.685,12.685,0,0,1-1.727-2.341s8.424-10.467,9.109-11.552,5.8-18.495,5.8-18.495l12.938-2.621s-10.8,22.28-12.589,25c-2.957,4.488-11.8,11.169-11.8,11.169a5.322,5.322,0,0,1-1.732-1.156" transform="translate(-872.895 -453.015)" fill="#ddd"/><path d="M1204.185,632a.726.726,0,0,0,.472.18c1.686-.023,6.6.914,10.761.486a30.984,30.984,0,0,0,9.943-2.869c.442-.2,1.461-.742,1.438-1.237-.015-.541-.068-1.327-.136-2.317a124,124,0,0,1-.246-16.183c.073-1.271.11-2.532.115-3.774.034-9.252-1.783-17.517-5.469-20.271-.315-.226-2.265.847-4.042,1.723a7.351,7.351,0,0,1-4.833.585l-1.551,1.371a15.494,15.494,0,0,0-4.855,7.755c-.765,3.079-1.214,8.632-1.461,14.387-.112,2.608-.2,5.238-.226,7.733v.089c-.021.247-.021.518-.021.765-.091,6.406,0,11.486.112,11.576" transform="translate(-899.512 -437.781)" fill="#fff"/><path d="M1272.277,667.232a123.893,123.893,0,0,1-.246-16.183c.073-1.271.11-2.532.115-3.774-1.535-3.725-2.791-6.426-2.791-6.426h-3.87s-2.838,19.383,6.793,26.383" transform="translate(-945.128 -478.767)" fill="#ddd"/><path d="M1305.467,775.464l-3.005-9.669a5.545,5.545,0,0,0-6.921-3.639l-22.312,6.935a5.545,5.545,0,0,0-3.639,6.921l3.005,9.669a5.545,5.545,0,0,0,6.921,3.638l22.312-6.934a5.545,5.545,0,0,0,3.639-6.921" transform="translate(-948.301 -569.207)" fill="#5b4794"/><path d="M1317.12,769.7l-3.04-9.782a5.566,5.566,0,0,0-6.946-3.652l-7.669,2.384-.647-2.085a1.836,1.836,0,0,0-2.293-1.207l-.438.136-3.99,1.24-2.235.7a1.835,1.835,0,0,0-1.205,2.293l.647,2.085-4.442,1.381a5.073,5.073,0,0,0-.5.182l-.005,0,0,0-.023.011a5.565,5.565,0,0,0-3.123,6.75l3.04,9.782a5.57,5.57,0,0,0,5.762,3.881h0a5.479,5.479,0,0,0,1.18-.229l.01,0,22.262-6.919a5.564,5.564,0,0,0,3.652-6.946m-26.72-8.234-.648-2.085a.684.684,0,0,1,.45-.856l2.172-.676,3.711-1.154.78-.242a.676.676,0,0,1,.2-.032.684.684,0,0,1,.653.482l.649,2.085Z" transform="translate(-956.981 -564.255)" fill="#9487b9"/><path d="M1323.27,746.642l.734,1.266a2.939,2.939,0,0,0,1.976,4.187s1.469.371,1.595-.647-.091-.618.122-2.056-.348-2.719-1.409-3.061l-.837-.8Z" transform="translate(-988.59 -556.972)" fill="#ffbbad"/><path d="M1272.29,630.084a12.7,12.7,0,0,1-2.905.162s-4.138-12.783-4.67-13.951-12.291-14.988-12.291-14.988l4.9-12.259s12.717,21.244,14.009,24.229c2.134,4.933,2.874,15.992,2.874,15.992a5.325,5.325,0,0,1-1.916.815" transform="translate(-935.661 -440.067)" fill="#fff"/><path d="M882.518,741.656v72.86a1.426,1.426,0,0,1-1.481,1.354h-2.715a1.425,1.425,0,0,1-1.481-1.354v-72.86a1.426,1.426,0,0,1,1.481-1.354h2.715a1.426,1.426,0,0,1,1.481,1.354" transform="translate(-655.072 -553.066)" fill="#58595b"/><g transform="translate(221.77 187.236)" opacity="0.5"><g clip-path="url(#j)"><path d="M880.111,741.656v72.86a1.425,1.425,0,0,1-1.481,1.354h-.308a1.426,1.426,0,0,1-1.481-1.354v-72.86a1.426,1.426,0,0,1,1.481-1.354h.308a1.426,1.426,0,0,1,1.481,1.354" transform="translate(-876.841 -740.302)" fill="#6e6f70"/></g></g><path d="M1099.126,741.656v72.86a1.426,1.426,0,0,1-1.481,1.354h-2.755a1.42,1.42,0,0,1-1.44-1.352v-72.86a1.421,1.421,0,0,1,1.44-1.352h2.755a1.426,1.426,0,0,1,1.481,1.354" transform="translate(-816.896 -553.066)" fill="#58595b"/><g transform="translate(276.554 187.237)" opacity="0.5"><g clip-path="url(#k)"><path d="M1096.33,741.659v72.86a1.442,1.442,0,0,1-2.879,0v-72.86a1.442,1.442,0,0,1,2.879,0" transform="translate(-1093.451 -740.307)" fill="#6e6f70"/></g></g><path d="M374.81,794.172a2.12,2.12,0,0,0-2.053-1.618H312.516c-.048,0-.1-.006-.143-.006H246.064a2.307,2.307,0,0,0-2.231,1.635,1.667,1.667,0,0,0-.07.473v50.375c0,5.4,4.811,9.851,10.668,9.851h60.033a.163.163,0,0,0,.043-.01h50.509a9.881,9.881,0,0,0,9.852-9.852V794.665a2.1,2.1,0,0,0-.059-.493" transform="translate(-182.111 -592.098)" fill="#f36523"/><path d="M374.862,794.657v6.991l-65.5,10.991-65.6,11.035V794.657a1.794,1.794,0,0,1,.064-.473,2.163,2.163,0,0,1,2.065-1.635H348.083l26.672,1.635a1.26,1.26,0,0,1,.108.473" transform="translate(-182.111 -592.099)" fill="#e62940"/><path d="M358.32,731.623H204.407a4.131,4.131,0,0,0-4.119,4.119v10.684a4.234,4.234,0,0,0,4.222,4.222h153.7a4.4,4.4,0,0,0,4.391-4.391V735.907a4.3,4.3,0,0,0-4.284-4.284" transform="translate(-149.631 -546.582)" fill="#d35422"/><path d="M1536.923,1017.742a2.408,2.408,0,0,1-.411,1.365h-11.585c.067-.349.381-1.236,1.838-1.441,1.828-.257,5.051-1.274,5.642-3.675s4.465.831,4.465.831a18.055,18.055,0,0,1,.051,2.919" transform="translate(-1139.244 -756.872)" fill="#454547"/><path d="M1577.3,1019.108h-12.02a2.757,2.757,0,0,1,1.791-1.365,3.421,3.421,0,0,1,.381-.076c1.83-.258,5.051-1.274,5.644-3.675s4.465.831,4.465.831.349,3.357-.261,4.285" transform="translate(-1169.39 -756.872)" fill="#454547"/><path d="M1542.907,780.213s-.009.434-.026,1.214c-.109,5.03-.539,24.476-.946,35.318-.017.395-.031.776-.046,1.147-.008.2-.016.393-.024.588a117.556,117.556,0,0,1-1.674,14.478c-.916,5.235-1.847,8.8-1.847,8.8a8.655,8.655,0,0,1-5.755-.621s-.942-8.124-1.3-13.041c-.118-1.6-.692-7.039-1.414-13.661-.559-5.121-1.206-10.947-1.8-16.246-.031-.282-.062-.564-.094-.843-.958-8.567-1.751-15.545-1.751-15.545l6.174-.588Z" transform="translate(-1140.219 -582.883)" fill="#545456"/><path d="M1540.192,835.91l-10.315-18.524c-.559-5.121-1.206-10.947-1.8-16.246-.031-.282-.062-.564-.094-.843-.958-8.567-1.751-15.545-1.751-15.545l6.174-.588,10.475.214Z" transform="translate(-1140.22 -585.836)" fill="#454547"/><path d="M1530.743,781.6s5.771,28.53,10.474,42.3,4.761,17.595,4.761,17.595,4.315.936,6.216-.151c0,0,1.087-26.1-1.759-33.035-1.882-4.585-3.322-14.344-2.832-17.859s.946-10.564.946-10.564Z" transform="translate(-1143.589 -582.641)" fill="#545456"/><path d="M1553.311,598.318l6.418-1.81a25.65,25.65,0,0,1-1.468-5.446,8.138,8.138,0,0,1,.336-4.3c.032-.074.068-.146.105-.216.245-.457.1-.666-.231-.717a3.681,3.681,0,0,0-2.214.72,47.391,47.391,0,0,1-4.469,2.51l-.007,0s-.005.027-.013.077v0c-.02.124-.059.387-.1.752-.18,1.712-.333,5.692,1.641,8.42" transform="translate(-1159.15 -437.655)" fill="#ffb3a3"/><path d="M1534.375,668.088c-1.364.966-3.514,1.315-5.881,1.278a32.218,32.218,0,0,1-8.272-1.347,19.437,19.437,0,0,1-3.273-1.26c-3.655-1.906-3.136-4.443-3.049-13.938.089-9.692,6.054-22.22,7.128-24.317,1.911-3.733,10.488-2.356,10.488-2.356,1.882.9,2.551,3.908,2.734,7.836.2,4.363-.192,9.864-.192,14.88a56.663,56.663,0,0,0,1.352,10.855c.739,3.949,1.119,6.842-1.035,8.368" transform="translate(-1130.951 -467.599)" fill="#9487b9"/><g transform="translate(388.22 160.966)" opacity="0.4"><g clip-path="url(#l)"><path d="M1551.2,667.591a46.533,46.533,0,0,1-6.916,9.646,32.224,32.224,0,0,1-8.271-1.347c-1.03-2.465-1.48-6.578-.529-13.369.725-5.177,6.011-26,6.011-26,4.267-.557,6.922,1.768,8.545,5.338.2,4.363-.192,9.864-.192,14.88a56.672,56.672,0,0,0,1.352,10.855" transform="translate(-1534.96 -636.436)" fill="#5b4794"/></g></g><path d="M1532.35,810.794h-3.875v-1.2a3.629,3.629,0,0,0-3.625-3.625h-3.207a3.629,3.629,0,0,0-3.625,3.625v1.2h-3.875a2.12,2.12,0,0,0-2.114,2.114v9.867a2.121,2.121,0,0,0,2.114,2.114h18.207a2.121,2.121,0,0,0,2.115-2.114v-9.867a2.12,2.12,0,0,0-2.115-2.114m-12.895-1.2a2.19,2.19,0,0,1,2.188-2.188h3.207a2.19,2.19,0,0,1,2.188,2.188v1.2h-7.583Z" transform="translate(-1129.608 -602.121)" fill="#f46b2c"/><path d="M1547.774,793.307s-2.232,4.3-1.116,5.979,5.1-.478,5.421-1.435,0-5.58,0-5.58Z" transform="translate(-1155.245 -591.891)" fill="#ffb3a3"/><path d="M1552.34,642.863s-.831,11.846-.82,16.747-3.889,17.935-3.889,17.935a27.064,27.064,0,0,1-3.594.076,4.14,4.14,0,0,1-1.862-.686s.856-15.4-.778-21.3-1.72-17.758-1.72-17.758.907-2.559,6.342-1.751a6.856,6.856,0,0,1,6.321,6.741" transform="translate(-1150.264 -475.118)" fill="#9487b9"/><path d="M1549.656,605.334s1.463,4.623,1.174,5.45c0,0-7.933,1.068-11.152,4.206,0,0,1.046-4.506,2.334-5.633s7.645-4.023,7.645-4.023" transform="translate(-1150.264 -452.234)" fill="#9487b9"/><path d="M1551.574,589.9h.1c.719-.006,5.2.01,6.462,1.074a.77.77,0,0,0,.129.089,8.139,8.139,0,0,1,.336-4.3c-.046-.36-.089-.682-.125-.933a3.682,3.682,0,0,0-2.214.719,47.361,47.361,0,0,1-4.469,2.51l-.021.08v0Z" transform="translate(-1159.151 -437.655)" fill="#fe8d71"/><path d="M1536.621,564.642s7.416,1.42,8.229-3.213,2.318-7.568-2.383-8.671-5.934.5-6.581,1.983-1.173,9.411.734,9.9" transform="translate(-1146.989 -412.683)" fill="#ffb3a3"/><path d="M1542.245,550.136s-.386-.294,1.116-2.57,2.214-1.651,2.232-4.076.921-3.881-1.893-5.46-2.366-3.041-4.055-3.391-4.144,1.042-5.593.748-5.988,5.615-3.081,7.013a4.62,4.62,0,0,0,2.3-.518c.948-.585,4.429-1.176,4.836-.118s2.611,7.553,4.138,8.371" transform="translate(-1143.048 -399.377)" fill="#454547"/><path d="M1404.224,789.286s5.269-2.4,9.255-.3,1.549,19.415-4.151,21.094c0,0-12.238,14.874-5.1-20.793" transform="translate(-1047.401 -588.794)" fill="#454547"/><path d="M1362.419,783.813a29.148,29.148,0,0,1,.245-5.7s-1.79-.092-2.792,2.267c-2.077,4.889-1.175,15.442-1.049,16.953a20.812,20.812,0,0,0,.347,8.189,8.868,8.868,0,0,1-.494,1.038.666.666,0,0,0-.051.067.612.612,0,0,0-.009.664l.686,1.088a.612.612,0,0,0,.259.227.629.629,0,0,0,.107.037l.85.2.084-2.9s-.006,0-.01,0c.291-2.838,2.066-20.277,1.828-22.137m-2.2,22.347-.018-.023.035.021c-.008,0-.015.005-.018,0" transform="translate(-1014.925 -581.315)" fill="#ffb4a4"/><path d="M1414.583,1026.894l-.677,2.444h-5.721s-1.7-3.125,6.4-2.444" transform="translate(-1051.917 -767.101)" fill="#454547"/><path d="M1366.078,1026.894l-.677,2.444h-5.721s-1.7-3.125,6.4-2.444" transform="translate(-1015.68 -767.101)" fill="#454547"/><path d="M1385.105,709.778c-.713-1.1-1.715-1.153-2.679-2.089a6.2,6.2,0,0,0-3.942-1.46c-4.3,0-8.032,2.636-7.182,7.1.27,1.42.042,2.539,1.193,4.2,1.437,2.072,3.183,3.735,5.99,3.735a5.369,5.369,0,0,0,3.942-1.429c.625-.591,1.522-.664,2.073-1.307,1.112-1.3,1.029-3.012,1.437-4.782a4.823,4.823,0,0,0-.831-3.97" transform="translate(-1024.383 -527.611)" fill="#545456"/><path d="M1385.4,750.271s.944,3.651-.965,5.2l5.365,2.742.707-3.549a17.492,17.492,0,0,1-.735-6.635Z" transform="translate(-1034.287 -558.841)" fill="#ffb4a4"/><path d="M1381.219,735.951s5.492.669,5.609-3.2-2.172-6.375-3.7-6.346c-3.047.057-3.549,1.288-3.9,2.57s-.535,6.7,1.993,6.976" transform="translate(-1030.242 -542.684)" fill="#ffbcae"/><path d="M1363.787,879.765l10.853.9s1.275,19.035-5.856,36.68a10.471,10.471,0,0,1-3.252.339,8.639,8.639,0,0,1-2.829-.455Z" transform="translate(-1018.05 -657.257)" fill="#454547"/><path d="M1397.6,884.089s3.339,12.972.631,36.647a12.309,12.309,0,0,1-3.555.442,15.751,15.751,0,0,1-3.811-.44L1387.331,890c-.135-.91-1.913-5.69-1.913-5.69Z" transform="translate(-1035.02 -660.487)" fill="#545456"/><path d="M1375.731,782.776l.71-5.829c-.107-.151-.194-.279-.3-.409-1.247-1.527-6.044-2.194-7.011-2.3-.043.043-2.259,1.871-3.85,1.656-1.355-.172-1.588-.891-1.545-1.665a14.75,14.75,0,0,0-4.442,1.376c-2.892,1.084-3.474,10.694-3.474,10.694a15.677,15.677,0,0,1,3.195.388l-.359,14.245c6.9,3.012,16.842,1.075,16.842,1.075l-.022-.086-.667-11.4.624-5.205Z" transform="translate(-1012.905 -578.412)" fill="#f36523"/><path d="M1386.734,754.368s-.12.483-1.323.394c0,0-1.01-.074-.973-.606a3.252,3.252,0,0,1,2.3.212" transform="translate(-1034.287 -563.331)" fill="#fff"/><path d="M1416.506,825.584c.47.588,2.784.794,4.173.369L1420,814.569l.932-7.743-.9-.418s-3.951,3.17-3.49,5.7-.642,12.725-.038,13.48" transform="translate(-1058.106 -602.453)" fill="#d35422"/><path d="M1419.114,783.384a18.884,18.884,0,0,0-4.516,2.048,2.308,2.308,0,0,1-.287.212l-4.275-8.2-.8-1.57-.731-1.484-.065-.129a.969.969,0,0,1,.172.022,24.427,24.427,0,0,1,2.581.43,16.549,16.549,0,0,1,2.237.645h.021a5.036,5.036,0,0,1,2,1.2c.108.129.194.258.3.408a52.656,52.656,0,0,1,3.355,6.41" transform="translate(-1052.223 -578.439)" fill="#f36523"/><path d="M1407.622,800.141s-14.863-15.9-5.378-22.929a10.007,10.007,0,0,1,1.957-1.162,16.5,16.5,0,0,1,2.237.645,7.171,7.171,0,0,0-3.4,2.086c-2.3,2.56-3.377,8,4.452,19.337Z" transform="translate(-1045.226 -579.773)" fill="#545456"/><path d="M1389.882,724.942s4.694,0,3.615,3.219c-.68,2.031,1.581,2.346,1.581,2.346a22.659,22.659,0,0,0,1.088-3.255,3.611,3.611,0,0,0-.682-2.536c-1.129-.83-5.6.225-5.6.225" transform="translate(-1038.354 -541.185)" fill="#545456"/><path d="M1411.251,810.442a15.373,15.373,0,0,0-4.435,2.018c.738,1.7,1.224,2.878,1.224,2.878a32.1,32.1,0,0,0-4.908-.586h0c-.168-.012-1.528-.458-1.528-.458a2.609,2.609,0,0,0-2.666-2.5s-1.106.007-.879.762.25.427.547,1.5a2.422,2.422,0,0,0,1.888,1.937c3.942,3.314,9.369,3.341,11,3.265a.652.652,0,0,0,.607-.5,13.953,13.953,0,0,0-.854-8.309" transform="translate(-1044.44 -605.467)" fill="#ffb4a4"/><path d="M0,0H51.354V65.672H0Z" transform="translate(58.35 107.646)" fill="#bfb7d5"/><rect width="51.354" height="15.402" transform="translate(58.35 107.085)" fill="#f36523"/><path d="M264.933,508.264H249.146a1.791,1.791,0,0,0-1.786,1.786v.9a1.791,1.791,0,0,0,1.786,1.786h15.787a1.791,1.791,0,0,0,1.786-1.786v-.9a1.791,1.791,0,0,0-1.786-1.786" transform="translate(-184.798 -379.715)" fill="#9487b9"/><path d="M264.933,550.005H249.146a1.791,1.791,0,0,0-1.786,1.786v.9a1.791,1.791,0,0,0,1.786,1.786h15.787a1.791,1.791,0,0,0,1.786-1.786v-.9a1.791,1.791,0,0,0-1.786-1.786" transform="translate(-184.798 -410.899)" fill="#9487b9"/><path d="M264.933,591.744H249.146a1.791,1.791,0,0,0-1.786,1.786v.9a1.791,1.791,0,0,0,1.786,1.786h15.787a1.791,1.791,0,0,0,1.786-1.786v-.9a1.791,1.791,0,0,0-1.786-1.786" transform="translate(-184.798 -442.082)" fill="#9487b9"/><path d="M264.933,633.483H249.146a1.791,1.791,0,0,0-1.786,1.786v.9a1.791,1.791,0,0,0,1.786,1.786h15.787a1.791,1.791,0,0,0,1.786-1.786v-.9a1.791,1.791,0,0,0-1.786-1.786" transform="translate(-184.798 -473.264)" fill="#9487b9"/><path d="M354.583,508.264H338.8a1.791,1.791,0,0,0-1.786,1.786v.9a1.792,1.792,0,0,0,1.786,1.786h15.787a1.791,1.791,0,0,0,1.786-1.786v-.9a1.791,1.791,0,0,0-1.786-1.786" transform="translate(-251.774 -379.715)" fill="#9487b9"/><path d="M354.583,550.005H338.8a1.791,1.791,0,0,0-1.786,1.786v.9a1.791,1.791,0,0,0,1.786,1.786h15.787a1.791,1.791,0,0,0,1.786-1.786v-.9a1.791,1.791,0,0,0-1.786-1.786" transform="translate(-251.774 -410.899)" fill="#9487b9"/><path d="M354.583,591.744H338.8a1.791,1.791,0,0,0-1.786,1.786v.9a1.791,1.791,0,0,0,1.786,1.786h15.787a1.791,1.791,0,0,0,1.786-1.786v-.9a1.791,1.791,0,0,0-1.786-1.786" transform="translate(-251.774 -442.082)" fill="#9487b9"/><path d="M354.583,633.483H338.8a1.791,1.791,0,0,0-1.786,1.786v.9a1.791,1.791,0,0,0,1.786,1.786h15.787a1.791,1.791,0,0,0,1.786-1.786v-.9a1.791,1.791,0,0,0-1.786-1.786" transform="translate(-251.774 -473.264)" fill="#9487b9"/><path d="M264.084,443.927H248.931a2.109,2.109,0,0,0-2.1,2.1v1.056a2.109,2.109,0,0,0,2.1,2.1h15.153a2.109,2.109,0,0,0,2.1-2.1V446.03a2.109,2.109,0,0,0-2.1-2.1" transform="translate(-184.401 -331.65)" fill="#d35422"/><path d="M354.8,443.927H339.645a2.109,2.109,0,0,0-2.1,2.1v1.056a2.109,2.109,0,0,0,2.1,2.1H354.8a2.109,2.109,0,0,0,2.1-2.1V446.03a2.109,2.109,0,0,0-2.1-2.1" transform="translate(-252.171 -331.65)" fill="#d35422"/><g transform="translate(538.383 76.378)" opacity="0.1"><g clip-path="url(#m)"><path d="M2130.128,312.283a10.755,10.755,0,0,1,2.59-.541l-4.033-7.177,1.052-.26c1.053-.26,7.443,4.159,8.007,4.5.457.277,3.788.2,5.028.168.884-.24,1.841-.5,2.846-.766-.52-.611-1.056-1.256-1.056-1.256a1.7,1.7,0,0,1,.5-.016.356.356,0,0,1,.178.073l1.5.9c3.573-.954,7.625-2.023,11.206-2.964,5.408-1.421,9.743-2.55,9.743-2.55a9.015,9.015,0,0,1,5.226-.065,5.244,5.244,0,0,1,.488.2l.018.008c.418.19,1.708.057,2.175.681s-2.633,2.359-4.161,2.973c-.511.205-3.31.977-6.92,1.943-.966.258-1.99.53-3.043.809l.176.659a2.444,2.444,0,0,1-.3.193,7.261,7.261,0,0,1-1.854.685,9.11,9.11,0,0,1-2.531.29l-.055-.209a5.945,5.945,0,0,1-1.008-.006.428.428,0,0,1-.224-.088c-4.972,1.3-9.492,2.467-10.722,2.782-2.194.562-7.348.551-10.254.483h-.02c-.817-.019-1.454-.042-1.794-.059l-.183-.01a.774.774,0,0,1-.328-.09,1.011,1.011,0,0,1-.441-.818Z" transform="translate(-2128.684 -301.99)" fill="#636363"/></g></g><path d="M591.109,1037.254H.356a.4.4,0,0,1,0-.8H591.109a.382.382,0,0,1,.356.4h0a.382.382,0,0,1-.356.4" transform="translate(0 -774.314)" fill="#060632"/></g></g></g></svg>