<svg xmlns="http://www.w3.org/2000/svg" width="94.809" height="81.311" viewBox="0 0 94.809 81.311"><g transform="translate(0 -27.569)"><g transform="translate(0 27.569)"><path d="M94.809,67.611c-.87,1.621-2.515,2.26-3.987,3.1a1.139,1.139,0,0,0-.664,1.153c.022,5.677.015,11.354.013,17.032,0,2.414-1.217,3.631-3.646,3.632q-16.245,0-32.49.022a3.826,3.826,0,0,0-1.814.485q-13.094,7.511-26.154,15.081c-2.333,1.347-3.834.932-5.2-1.43-2.572-4.45-5.159-8.892-7.7-13.361a1.347,1.347,0,0,0-1.449-.81c-.859.061-1.727.022-2.591.013a3.128,3.128,0,0,1-3.448-3.438c-.013-2.653.006-5.307-.014-7.96a2.429,2.429,0,0,0-.243-1.142C3.636,76.84,1.813,73.71,0,70.574V68.722c1.1-1.962,3.216-2.554,4.95-3.65A1.321,1.321,0,0,0,5.7,63.778c-.027-5.153-.017-10.306-.014-15.458,0-2.5,1.175-3.657,3.693-3.657q14.949,0,29.9-.02a3.817,3.817,0,0,0,1.811-.474c9.291-5.329,18.555-10.7,27.855-16.017a5.008,5.008,0,0,1,2.516-.581,2.887,2.887,0,0,1,2.318,1.765c2.8,4.885,5.639,9.752,8.435,14.642a1.165,1.165,0,0,0,1.223.7c1.17-.055,2.345-.031,3.517-.012a3.128,3.128,0,0,1,3.218,3.219c.023,3.055-.007,6.11.022,9.164a2.847,2.847,0,0,0,.35,1.291c.92,1.671,1.9,3.311,2.84,4.971.493.869.956,1.756,1.433,2.634Zm-7.63-19.93H8.7V89.5h78.48Zm-16.237-17.3L46.52,44.475a11.455,11.455,0,0,0,1.967.2,4.928,4.928,0,0,0,3.122-.84c3.976-2.35,7.988-4.64,11.988-6.949,1.2-.691,1.774-.563,2.573.551A4.212,4.212,0,0,0,71.486,38.9c1.37-.6,1.851-.444,2.621.883.835,1.438,1.655,2.885,2.509,4.312a1.114,1.114,0,0,0,.637.538,15.682,15.682,0,0,0,1.94.026L70.942,30.377M46.755,92.751l-.042-.209c-.552,0-1.109.045-1.656-.009a5.478,5.478,0,0,0-3.478.912C38.115,95.518,34.6,97.5,31.1,99.512a1.541,1.541,0,0,1-2.382-.492,4.2,4.2,0,0,0-5.6-1.488,1.5,1.5,0,0,1-2.248-.705c-.6-1-1.182-2.021-1.766-3.036-.8-1.39-1.154-1.532-2.889-1.075l7.653,13.246L46.755,92.751M64.3,39.9l-8.13,4.7H73.421c-.172-.323-.319-.551-.42-.8-.511-1.25-1.13-1.927-2.771-1.622-2.278.424-4.263-.6-5.927-2.278M21.854,92.587a13.275,13.275,0,0,1,.671,1.2c.208.489.506.581,1.014.47a6.9,6.9,0,0,1,6.484,1.75.772.772,0,0,0,1.111.081c1.506-.895,3.03-1.757,4.546-2.635.4-.234.8-.481,1.2-.723l-.07-.144ZM5.653,68.059,2.9,69.66,5.51,74.171l.143-.08Zm84.582-4.264v3.861l1.659-1-1.659-2.857" transform="translate(0 -27.569)" fill="#030302"/><path d="M113.711,150.846H35.231V109.029h78.48Zm-39.2-39.88q-14.859,0-29.717,0c-1.331,0-1.847.42-1.953,1.559a4.219,4.219,0,0,1-3.968,4.132c-1.379.184-1.749.59-1.749,1.974q-.005,11.294,0,22.589c0,1.434.407,1.879,1.806,2.012a4.277,4.277,0,0,1,3.893,3.721c.2,1.691.53,2,2.21,2h58.694c1.859,0,2.106-.212,2.382-2.036a4.217,4.217,0,0,1,3.819-3.678c1.511-.159,1.818-.5,1.819-2.066q0-11.2,0-22.4c0-1.616-.251-1.9-1.866-2.133a4.192,4.192,0,0,1-3.8-3.8c-.231-1.613-.518-1.867-2.131-1.868H74.507" transform="translate(-26.533 -88.917)" fill="#a6d03f"/><path d="M212.84,38.943l8.251,14.284a15.731,15.731,0,0,1-1.939-.025,1.117,1.117,0,0,1-.637-.538c-.854-1.427-1.674-2.873-2.509-4.312-.771-1.327-1.251-1.488-2.622-.883A4.212,4.212,0,0,1,208.069,46c-.8-1.113-1.376-1.241-2.573-.551-4,2.309-8.012,4.6-11.989,6.949a4.927,4.927,0,0,1-3.122.84,11.45,11.45,0,0,1-1.967-.2l24.422-14.1" transform="translate(-141.898 -36.135)" fill="#9bc23c"/><path d="M96.228,290.752,73.346,303.963l-7.653-13.246c1.734-.457,2.09-.315,2.889,1.075.583,1.015,1.161,2.034,1.766,3.036a1.5,1.5,0,0,0,2.248.705,4.2,4.2,0,0,1,5.6,1.488,1.541,1.541,0,0,0,2.382.492c3.5-2.009,7.016-3.994,10.478-6.067a5.481,5.481,0,0,1,3.479-.912c.547.055,1.1.009,1.656.009l.042.209" transform="translate(-49.473 -225.57)" fill="#9bc23c"/><path d="M235.646,77.527c1.663,1.673,3.649,2.7,5.927,2.278,1.641-.305,2.26.371,2.771,1.621.1.247.248.475.42.8H227.516l8.13-4.7" transform="translate(-171.343 -65.192)" fill="#bfea55"/><path d="M88.515,290.906h14.954l.07.144c-.4.241-.8.489-1.2.723-1.515.878-3.04,1.741-4.546,2.635a.772.772,0,0,1-1.11-.081,6.9,6.9,0,0,0-6.484-1.75c-.507.111-.805.019-1.014-.47a13.27,13.27,0,0,0-.67-1.2" transform="translate(-66.661 -225.889)" fill="#bfe955"/><path d="M14.485,191.562v6.032l-.143.08-2.615-4.512,2.758-1.6" transform="translate(-8.832 -151.072)" fill="#93b839"/><path d="M365.477,174.291l1.659,2.857-1.659,1Z" transform="translate(-275.241 -138.066)" fill="#98be3b"/><path d="M80.258,116.875H109.7c1.613,0,1.9.255,2.131,1.868a4.192,4.192,0,0,0,3.8,3.8c1.614.234,1.865.517,1.865,2.133q0,11.2,0,22.4c0,1.562-.308,1.906-1.818,2.066a4.218,4.218,0,0,0-3.819,3.678c-.275,1.824-.523,2.036-2.381,2.036H50.779c-1.681,0-2.015-.3-2.21-2a4.278,4.278,0,0,0-3.893-3.721c-1.4-.132-1.805-.577-1.806-2.012q0-11.294,0-22.589c0-1.383.371-1.79,1.75-1.974a4.218,4.218,0,0,0,3.968-4.132c.106-1.139.622-1.559,1.953-1.559q14.859,0,29.718,0M51.44,151.9h56.672a1.19,1.19,0,0,0,.458-.012c.194-.089.461-.219.511-.387a7.342,7.342,0,0,1,5.4-5.193,1.757,1.757,0,0,0,.053-.293q.006-10,.016-20c0-.494-.171-.666-.636-.817a6.849,6.849,0,0,1-4.646-4.528c-.233-.71-.554-.849-1.236-.848q-27.821.029-55.642.015h-.955a7.21,7.21,0,0,1-4.831,5.316.938.938,0,0,0-.781,1.091c.023,6.419.014,12.838.016,19.257,0,.268.026.536.04.806A7.406,7.406,0,0,1,51.44,151.9" transform="translate(-32.284 -94.826)" fill="#020301"/><path d="M60.436,160.884a7.406,7.406,0,0,0-5.566-5.591c-.014-.27-.04-.538-.04-.806,0-6.419.007-12.838-.016-19.257a.938.938,0,0,1,.781-1.091,7.209,7.209,0,0,0,4.831-5.316h.956q27.821,0,55.642-.015c.681,0,1,.139,1.235.848a6.849,6.849,0,0,0,4.646,4.528c.465.151.637.323.636.817q-.024,10-.016,20a1.758,1.758,0,0,1-.053.293,7.342,7.342,0,0,0-5.4,5.193c-.05.168-.318.3-.511.387a1.19,1.19,0,0,1-.458.012H60.436Zm42.55-16a13.806,13.806,0,1,0-13.863,13.768,13.755,13.755,0,0,0,13.863-13.768m-37.233,4.393a4.408,4.408,0,0,0,4.433-4.478,4.452,4.452,0,1,0-4.433,4.478m46.872,0a4.44,4.44,0,0,0,4.481-4.444,4.464,4.464,0,1,0-4.481,4.444" transform="translate(-41.28 -103.813)" fill="#c0eb55"/><path d="M165.7,151.729a13.806,13.806,0,1,1-13.676-13.837A13.8,13.8,0,0,1,165.7,151.729m-2.968-.032a10.839,10.839,0,0,0-21.678-.077,10.839,10.839,0,1,0,21.678.077" transform="translate(-103.994 -110.654)" fill="#030301"/><path d="M85.48,184.544a4.436,4.436,0,0,1-4.471-4.453,4.452,4.452,0,0,1,8.9-.025,4.408,4.408,0,0,1-4.433,4.479m1.467-4.435a1.5,1.5,0,0,0-1.516-1.507,1.541,1.541,0,0,0-1.456,1.49,1.47,1.47,0,0,0,1.53,1.48,1.438,1.438,0,0,0,1.442-1.463" transform="translate(-61.008 -139.076)" fill="#030301"/><path d="M275.4,184.548a4.471,4.471,0,0,1-4.447-4.489,4.464,4.464,0,0,1,8.928.044,4.44,4.44,0,0,1-4.481,4.445m.056-5.946a1.552,1.552,0,0,0-1.535,1.514,1.479,1.479,0,0,0,1.466,1.46,1.429,1.429,0,0,0,1.507-1.393,1.5,1.5,0,0,0-1.437-1.582" transform="translate(-204.053 -139.08)" fill="#030401"/><path d="M171.777,160.739A10.839,10.839,0,1,1,160.99,149.9a10.854,10.854,0,0,1,10.786,10.841m-5.381-3.711-.143-.212a6.813,6.813,0,0,0-.284-.863,4.844,4.844,0,0,0-2.591-2.515c-.577-.232-.949-.46-1.017-1.182a1.3,1.3,0,0,0-1.451-1.153,1.255,1.255,0,0,0-1.355,1.145c-.028.748-.423.941-.984,1.2a4.277,4.277,0,0,0-2.78,4.1,4.084,4.084,0,0,0,2.783,3.97,22.963,22.963,0,0,0,2.209.645,11.151,11.151,0,0,1,2.153.768,1.182,1.182,0,0,1,.289,1.949,3.335,3.335,0,0,1-4.963-.994c-.409-.974-1.121-1.372-1.924-1.075a1.522,1.522,0,0,0-.832,2.14,5.106,5.106,0,0,0,3.327,3.227c.428.147.662.289.682.8a1.309,1.309,0,0,0,1.358,1.348,1.3,1.3,0,0,0,1.5-1.184c.07-.671.415-.824.946-1a4.235,4.235,0,0,0,3.231-3.836,4.379,4.379,0,0,0-2.92-4.381,13.555,13.555,0,0,0-1.754-.558c-.622-.171-1.268-.264-1.88-.463-.661-.215-1.277-.53-1.246-1.39s.6-1.238,1.313-1.473a2.6,2.6,0,0,1,3.326,1.385,1.375,1.375,0,0,0,1.77.766c.487-.2.827-.758,1.233-1.156" transform="translate(-113.039 -119.695)" fill="#a8d240"/><path d="M95.995,189.165a1.438,1.438,0,0,1-1.442,1.463,1.47,1.47,0,0,1-1.53-1.48,1.541,1.541,0,0,1,1.456-1.49,1.5,1.5,0,0,1,1.516,1.507" transform="translate(-70.056 -148.131)" fill="#a5cf3f"/><path d="M284.507,187.644a1.5,1.5,0,0,1,1.437,1.582,1.429,1.429,0,0,1-1.507,1.393,1.479,1.479,0,0,1-1.466-1.46,1.552,1.552,0,0,1,1.535-1.514" transform="translate(-213.107 -148.121)" fill="#a5ce3f"/><path d="M182.457,160.7c-.406.4-.746.951-1.233,1.156a1.375,1.375,0,0,1-1.77-.766,2.6,2.6,0,0,0-3.326-1.385c-.711.234-1.282.62-1.313,1.473s.585,1.175,1.246,1.39c.612.2,1.258.292,1.88.463a13.56,13.56,0,0,1,1.754.558,4.379,4.379,0,0,1,2.92,4.381,4.235,4.235,0,0,1-3.231,3.836c-.532.177-.876.33-.946,1a1.3,1.3,0,0,1-1.5,1.184,1.309,1.309,0,0,1-1.358-1.348c-.02-.512-.254-.654-.682-.8a5.106,5.106,0,0,1-3.327-3.227,1.522,1.522,0,0,1,.832-2.14c.8-.3,1.516.1,1.924,1.074a3.335,3.335,0,0,0,4.963.995A1.182,1.182,0,0,0,179,166.6a11.151,11.151,0,0,0-2.153-.768,22.963,22.963,0,0,1-2.209-.645,4.084,4.084,0,0,1-2.783-3.97,4.277,4.277,0,0,1,2.78-4.1c.562-.255.956-.447.984-1.2a1.255,1.255,0,0,1,1.355-1.145,1.3,1.3,0,0,1,1.451,1.153c.068.722.439.95,1.017,1.182a4.844,4.844,0,0,1,2.591,2.515,6.809,6.809,0,0,1,.284.863l.143.212" transform="translate(-129.1 -123.368)" fill="#030301"/></g></g></svg>