<svg xmlns="http://www.w3.org/2000/svg" width="73.882" height="83.288" viewBox="0 0 73.882 83.288"><g transform="translate(-21.651 -0.001)"><g transform="translate(21.651 0.001)"><path d="M85.771,83.289H29.807a2.384,2.384,0,0,1-1.162-2.364c.08-1.53.02-3.066.02-4.63H24.022c-1.852,0-2.351-.5-2.351-2.372q0-35.779-.02-71.558A2.477,2.477,0,0,1,22.812,0H78.776a2.291,2.291,0,0,1,1.176,2.353c-.069,1.531-.018,3.068-.018,4.642,1.666,0,3.235,0,4.8,0,1.64,0,2.19.55,2.19,2.2q0,10.734,0,21.467v.953h1.594c2,0,2.381.279,3.014,2.336.607-.66,1.135-1.265,1.7-1.837.673-.685,1.375-.758,1.916-.24.574.549.5,1.257-.208,1.976-1.011,1.02-2.06,2.006-3.027,3.066a2.165,2.165,0,0,0-.508,1.257c-.066,1.271-.038,2.547-.019,3.821a1.34,1.34,0,0,1-1.207,1.546c-.981-.267-1.238-.581-1.26-1.584-.013-.62,0-1.241,0-2.1-1.99,2-3.775,3.8-5.57,5.59-.822.819-1.369.808-2.207-.013q-1.676-1.643-3.346-3.292c-.466-.486-.912-.994-1.4-1.452a1.319,1.319,0,0,1-.421-1.725c.364-.669.983-.668,1.63-.488l4.524,4.708c.378-.358.594-.553.8-.758,1.646-1.643,3.242-3.339,4.955-4.909a3,3,0,0,0,1.061-2.7c-.046-.553-.179-.749-.748-.738-1.7.031-3.407.01-5.11.011q-2.714,0-5.427.007H73.468V49.564H88.845c.289-2.535.289-2.535,1.335-2.816a1.327,1.327,0,0,1,1.205,1.545c-.016.487.008.976-.005,1.463a2.094,2.094,0,0,1-2.349,2.279c-.691.006-1.382,0-2.049,0v2.438c1.806.186,4.074-.691,4.492,2.378.671-.711,1.2-1.292,1.75-1.847.676-.678,1.387-.76,1.924-.252.572.54.5,1.265-.2,1.98-1.01,1.021-2.059,2.006-3.026,3.066a2.069,2.069,0,0,0-.514,1.256c-.039,3.821-.015,7.642-.026,11.463,0,1.64-.753,2.378-2.387,2.4-.668.01-1.336,0-2.063,0,0,2.068-.047,4.042.019,6.014a2.326,2.326,0,0,1-1.176,2.353M77.642,56.97H73.474V72.434h4.18c.869.066,1.75.115,1.877,1.274a1.348,1.348,0,0,1-1.543,1.217c-1.41-.013-2.819,0-4.229,0-2.02,0-2.588-.494-2.86-2.526H42.613a5.567,5.567,0,0,1-.812-.015,1.211,1.211,0,0,1-.02-2.409,4.2,4.2,0,0,1,.731-.016h28.41V65.227H42.578a3.786,3.786,0,0,1-.891-.036,1.21,1.21,0,0,1,.128-2.393,6.273,6.273,0,0,1,.731-.01h28.39V58.055c-2.033,0-4.031.006-6.03,0-.945,0-1.493-.473-1.49-1.235s.526-1.2,1.5-1.2c1.9-.006,3.8.009,5.693-.014a1.126,1.126,0,0,0,.755-.285,2.437,2.437,0,0,1,1.948-.82c3.443.011,6.886,0,10.329,0h.809V52.036H83.63c-3.443,0-6.887.031-10.329-.029a3,3,0,0,1-1.741-.662,1.674,1.674,0,0,0-1.181-.474q-13.908.013-27.816,0a4.021,4.021,0,0,1-.888-.056,1.2,1.2,0,0,1,.161-2.37c.27-.021.542-.013.813-.013H70.931V43.689H42.681a6.207,6.207,0,0,1-.892-.029,1.2,1.2,0,0,1,.014-2.385,7.518,7.518,0,0,1,.893-.025H70.936V36.494h-.9q-5.815,0-11.631,0a5.712,5.712,0,0,1-.811-.029,1.192,1.192,0,0,1-.152-2.319,3.851,3.851,0,0,1,.965-.089q5.856-.008,11.712,0h.78c.26-1.894.885-2.438,2.728-2.44q3.172,0,6.344,0h4.465V9.436H48.532c-1.181,0-1.433-.179-1.772-1.238.362-1.04.59-1.2,1.72-1.2H77.457V2.442H31.922c-.27,0-.541.017-.811.026H24.163V73.8h4.5V72.77q0-31.628,0-63.255c0-.3-.014-.6.008-.894A1.7,1.7,0,0,1,30.3,7c.27-.021.541-.023.811-.033L41.89,7c1.119,0,1.35.166,1.712,1.2-.336,1.04-.6,1.231-1.687,1.237L36.8,9.463H31.156V80.822H36.8c.135.009.27.025.4.025q23.362,0,46.724,0a4.945,4.945,0,0,0,.525-.053v-5.84c-.886,0-1.579-.261-1.72-1.245.289-1.03.508-1.2,1.6-1.206,1.273-.006,2.548-.033,3.82.012.625.022.775-.2.768-.792-.028-2.709-.011-5.418-.015-8.127,0-.2-.042-.392-.077-.707-.306.292-.521.489-.727.694-1.572,1.569-3.139,3.145-4.716,4.71-.864.857-1.422.852-2.276.011l-3.3-3.247c-.468-.484-.915-.992-1.41-1.445a1.366,1.366,0,0,1-.471-1.726c.353-.7,1-.738,1.683-.52l4.613,4.625c1.812-1.816,3.479-3.64,5.315-5.273a3.627,3.627,0,0,0,1.34-3.621l-.187-.133-11.058.007" transform="translate(-21.651 -0.001)" fill="#020202"/><path d="M101.47,37.794c.339,1.059.591,1.237,1.772,1.237h35.906V61.209h-4.465q-3.172,0-6.344,0c-1.843,0-2.468.546-2.728,2.44h-.78q-5.856,0-11.712,0a3.851,3.851,0,0,0-.965.088,1.192,1.192,0,0,0,.152,2.319,5.648,5.648,0,0,0,.811.029q5.816,0,11.631,0h.9v4.755H97.405a7.516,7.516,0,0,0-.893.025,1.2,1.2,0,0,0-.014,2.385,6.235,6.235,0,0,0,.892.029h28.25v4.747H97.358c-.271,0-.543-.009-.813.013a1.2,1.2,0,0,0-.161,2.37,4.047,4.047,0,0,0,.888.056q13.908,0,27.816,0a1.674,1.674,0,0,1,1.182.474,3,3,0,0,0,1.741.662c3.442.06,6.886.029,10.329.029h.823V84.1h-.809c-3.443,0-6.886.007-10.329,0a2.438,2.438,0,0,0-1.948.82,1.128,1.128,0,0,1-.755.285c-1.9.023-3.8.009-5.693.014-.975,0-1.5.43-1.5,1.2s.545,1.231,1.49,1.235c2,.009,4,0,6.03,0v4.732H97.257a6.271,6.271,0,0,0-.731.01,1.21,1.21,0,0,0-.128,2.393,3.773,3.773,0,0,0,.89.036q13.705,0,27.41,0h.935v4.729H97.222a4.2,4.2,0,0,0-.731.016,1.212,1.212,0,0,0,.02,2.409,5.6,5.6,0,0,0,.812.015h28.285c.272,2.032.84,2.525,2.86,2.526,1.41,0,2.82-.009,4.229,0a1.348,1.348,0,0,0,1.543-1.217h3.207c.141.983.834,1.241,1.72,1.245v5.84a4.938,4.938,0,0,1-.525.053q-23.362,0-46.724,0c-.135,0-.27-.017-.4-.026V39.058l5.111-.027c1.091-.006,1.351-.2,1.687-1.237h3.158m11.116,21.115h15.2a7.075,7.075,0,0,0,.731-.013,1.195,1.195,0,0,0,.241-2.332,3.475,3.475,0,0,0-.962-.094q-15.279-.007-30.559,0a3.532,3.532,0,0,0-.962.091,1.194,1.194,0,0,0,.222,2.334,7.191,7.191,0,0,0,.731.014h15.361m-.154-9.272q4.832,0,9.665,0c.847,0,1.361-.439,1.4-1.142.042-.792-.565-1.295-1.605-1.3q-9.381-.006-18.762,0c-1.019,0-1.581.443-1.592,1.217-.011.794.524,1.222,1.555,1.223q4.67,0,9.34,0m-6.775,38.015h4.711c1.381,0,2.762.008,4.142,0,.933-.008,1.483-.49,1.47-1.252s-.519-1.169-1.432-1.187c-.054,0-.108,0-.162,0H97c-.189,0-.44-.065-.557.029-.369.3-.841.606-.99,1.013a.993.993,0,0,0,.718,1.273,2.619,2.619,0,0,0,.872.122c2.87.008,5.74,0,8.61.005m-3.443-21.558v0c1.894,0,3.788.008,5.682,0a1.137,1.137,0,0,0,1.246-1.119,1.189,1.189,0,0,0-1.156-1.3,3,3,0,0,0-.4-.017c-3.545,0-7.089-.006-10.634,0-1.012,0-1.557.472-1.536,1.266.02.764.535,1.171,1.527,1.175,1.759.007,3.517,0,5.276,0" transform="translate(-76.361 -29.597)" fill="#fdf1dc"/><path d="M71.121,43.625v71.359H65.473V43.625Z" transform="translate(-55.968 -34.163)" fill="#fee4c1"/><path d="M40.181,15.877c-.27.01-.542.012-.811.033a1.7,1.7,0,0,0-1.626,1.619c-.022.3-.008.6-.008.894q0,31.628,0,63.255V82.7h-4.5V11.377h6.948v4.5" transform="translate(-30.721 -8.91)" fill="#e7b700"/><path d="M65.266,15.78v-4.5c.27-.009.541-.026.811-.026h45.535v4.554H82.634c-1.13,0-1.358.162-1.719,1.2H77.757c-.362-1.037-.593-1.2-1.712-1.2L65.266,15.78" transform="translate(-55.806 -8.812)" fill="#f9c500"/><path d="M292.326,187.419q0,1.606,0,3.211c-1.045.28-1.045.28-1.335,2.816h-11.2c0-2.248-.011-4.5,0-6.743a3.256,3.256,0,0,1,.15-.683q1.673,1.646,3.346,3.292c.837.821,1.385.832,2.207.013,1.8-1.79,3.58-3.591,5.57-5.59,0,.861-.011,1.482,0,2.1.022,1,.279,1.317,1.26,1.583" transform="translate(-223.798 -143.883)" fill="#73e8dc"/><path d="M284.893,300.764h-3.207c-.127-1.16-1.008-1.209-1.877-1.274-.006-2.236-.016-4.473-.009-6.709a2.761,2.761,0,0,1,.173-.668l3.3,3.247c.854.841,1.413.846,2.277-.011,1.577-1.565,3.143-3.14,4.716-4.71.206-.206.421-.4.727-.694.036.315.077.511.077.707,0,2.709-.013,5.419.015,8.128.006.594-.144.814-.768.792-1.272-.045-2.546-.018-3.82-.012-1.1.005-1.315.175-1.6,1.206" transform="translate(-223.807 -227.057)" fill="#73e8dc"/><path d="M290.961,262.76a3.627,3.627,0,0,1-1.34,3.621c-1.836,1.633-3.5,3.456-5.315,5.273l-4.613-4.625q.012-2.2.023-4.4l11.058-.007.187.133" transform="translate(-223.724 -205.665)" fill="#73e8dc"/><path d="M279.647,157.131l5.427-.007c1.7,0,3.407.02,5.11-.011.569-.011.7.186.748.738a3,3,0,0,1-1.061,2.7c-1.713,1.57-3.309,3.266-4.955,4.909-.206.205-.422.4-.8.758l-4.524-4.708q.027-2.188.054-4.375" transform="translate(-223.647 -123.036)" fill="#73e8dc"/><path d="M264.736,157.2q-.027,2.188-.054,4.375c-.647-.18-1.267-.181-1.63.488a1.319,1.319,0,0,0,.422,1.725c.493.458.938.966,1.4,1.452a3.246,3.246,0,0,0-.15.683c-.008,2.248,0,4.5,0,6.743h-4.178V157.2Z" transform="translate(-208.735 -123.102)" fill="#d5f8f5"/><path d="M264.749,262.657q-.012,2.2-.023,4.4c-.683-.218-1.33-.177-1.683.52a1.366,1.366,0,0,0,.471,1.726c.5.454.942.961,1.41,1.445a2.761,2.761,0,0,0-.173.669c-.008,2.236,0,4.473.009,6.709h-4.18V262.657Z" transform="translate(-208.757 -205.688)" fill="#d5f8f5"/><path d="M330.971,262.76l-.187-.133.187.133" transform="translate(-263.734 -205.665)" fill="#46a61f"/><path d="M126.664,126.323H111.3a7.194,7.194,0,0,1-.731-.014,1.194,1.194,0,0,1-.221-2.334,3.531,3.531,0,0,1,.962-.091q15.279-.007,30.559,0a3.474,3.474,0,0,1,.961.094,1.195,1.195,0,0,1-.241,2.332,7.074,7.074,0,0,1-.731.013h-15.2" transform="translate(-90.439 -97.011)" fill="#050404"/><path d="M148.622,83.569q-4.67,0-9.34,0c-1.031,0-1.566-.429-1.555-1.223.011-.774.573-1.216,1.592-1.217q9.381-.006,18.762,0c1.04,0,1.647.5,1.605,1.3-.037.7-.552,1.14-1.4,1.142q-4.833.011-9.665,0" transform="translate(-112.551 -63.529)" fill="#050504"/><path d="M119.681,258.766c-2.87,0-5.74,0-8.61-.005a2.625,2.625,0,0,1-.872-.121.993.993,0,0,1-.718-1.273c.149-.407.621-.713.99-1.013.117-.095.367-.029.557-.029h17.545c.913.018,1.42.437,1.432,1.187s-.537,1.244-1.47,1.252c-1.381.012-2.762,0-4.142,0h-4.711" transform="translate(-90.385 -200.712)" fill="#040403"/><path d="M116.283,159.427c-1.759,0-3.518.005-5.276,0-.991,0-1.507-.411-1.527-1.175-.021-.795.524-1.264,1.536-1.266,3.545-.009,7.089,0,10.634,0a3,3,0,0,1,.4.017,1.189,1.189,0,0,1,1.156,1.3,1.137,1.137,0,0,1-1.246,1.119c-1.894.012-3.788,0-5.682,0Z" transform="translate(-90.43 -122.931)" fill="#070706"/></g></g></svg>