<svg xmlns="http://www.w3.org/2000/svg" width="112.915" height="70.488" viewBox="0 0 112.915 70.488"><g transform="translate(-15.2 -82.17)"><g transform="translate(15.2 82.171)"><path d="M120.231,142.775c-1.646,6.184-5.735,9.728-11.346,9.875-5.841.153-9.885-3.163-12.067-9.971-1.989,0-4.012,0-6.035,0-.715,0-1.429-.011-2.144-.011q-19.137,0-38.273-.009c-.653,0-1.063.054-1.265.851a11.748,11.748,0,0,1-22.976-.293c-.034-.148-.078-.293-.146-.549-2.684,0-5.346,0-8.008,0-2.367,0-2.771-.409-2.771-2.8q0-27.45,0-54.9c0-2.4.394-2.8,2.761-2.8H89.125c2.347,0,2.764.422,2.764,2.794,0,2.95,0,5.9,0,9.011h1.292c5.7,0,11.4.045,17.1-.03a3.16,3.16,0,0,1,3.158,1.783c4.729,8.2,9.537,16.363,14.294,24.551a3.045,3.045,0,0,1,.372,1.46c.018,6.14,0,12.281-.006,18.421,0,2.048-.464,2.5-2.55,2.5q-2.511.007-5.023.017a1.37,1.37,0,0,0-.3.092M18.8,85.715V132.7c3.045,0,6.026-.033,9.005.019a3.305,3.305,0,0,0,2.365-.832,11.734,11.734,0,0,1,15.163.062,3.393,3.393,0,0,0,2,.721q19.8.062,39.6.031h1.342V85.715Zm78.018,53.409c2.422-6.9,6.167-10.023,11.92-9.969,5.588.052,9.411,3.334,11.549,9.917h4.235V123.19h-1.407q-12.078,0-24.156,0c-1.742,0-2.287-.542-2.289-2.276q-.01-8.432,0-16.864c0-1.571.6-2.17,2.156-2.179,2.192-.012,4.385,0,6.577,0h7.483c-.734-1.265-1.412-2.328-1.977-3.447a1.524,1.524,0,0,0-1.606-.907c-5.421.033-10.842.016-16.263.02-.346,0-.693.042-1.052.065v41.527ZM123.11,119.59a4.274,4.274,0,0,0-.225-.582c-2.517-4.333-5.023-8.672-7.589-12.976a1.666,1.666,0,0,0-1.24-.584c-4.183-.043-8.366-.026-12.549-.026h-1.3V119.59Zm-14.659,29.5a8.188,8.188,0,1,0,.279-16.374,8.234,8.234,0,0,0-8.413,8.118,8.151,8.151,0,0,0,8.134,8.256m-62.642-8.216a8.007,8.007,0,0,0-8.154-8.16,8.2,8.2,0,1,0,.067,16.395c4.593.074,8.443-4.159,8.087-8.235m2.725-4.615a6.988,6.988,0,0,1,.454,1.551c.053,1.233.711,1.392,1.793,1.388,12.029-.038,24.059-.024,36.088-.024h1.424v-2.916Zm-29.727-.013v2.862h7.175l.8-2.862Z" transform="translate(-15.2 -82.171)" fill="#232323"/><path d="M26.477,93.281H95.951v46.988H94.609q-19.8,0-39.6-.031a3.393,3.393,0,0,1-2-.721,11.735,11.735,0,0,0-15.163-.062,3.307,3.307,0,0,1-2.365.833c-2.979-.053-5.96-.019-9.005-.019Z" transform="translate(-22.88 -89.737)" fill="#ffba5b"/><path d="M260.744,171.876h-4.83V130.349c.36-.023.706-.064,1.052-.065,5.421,0,10.842.012,16.263-.02a1.524,1.524,0,0,1,1.606.907c.565,1.119,1.243,2.182,1.977,3.448H269.33c-2.192,0-4.385-.009-6.577,0-1.554.009-2.153.608-2.156,2.179q-.013,8.431,0,16.864c0,1.734.547,2.275,2.289,2.276q12.078.008,24.156,0h1.407v15.882h-4.235c-2.138-6.583-5.961-9.865-11.549-9.917-5.753-.054-9.5,3.068-11.92,9.969" transform="translate(-179.128 -114.922)" fill="#fb5e51"/><path d="M304.589,169.221h-22.9V155.053h1.3c4.183,0,8.367-.017,12.549.026a1.663,1.663,0,0,1,1.24.584c2.566,4.3,5.072,8.643,7.589,12.976a4.266,4.266,0,0,1,.225.582" transform="translate(-196.679 -131.802)" fill="#e2e2f3"/><path d="M290.166,256.993a8.151,8.151,0,0,1-8.134-8.256,8.244,8.244,0,0,1,16.486.219,8.146,8.146,0,0,1-8.352,8.037m.166-13.267a5.082,5.082,0,0,0-5.192,5.093,5.136,5.136,0,1,0,10.272-.007,5.075,5.075,0,0,0-5.08-5.086" transform="translate(-196.915 -190.075)" fill="#6189a2"/><path d="M76.275,248.776c.356,4.076-3.494,8.309-8.087,8.235a8.2,8.2,0,1,1-.067-16.395,8.007,8.007,0,0,1,8.154,8.16m-13.244.057a5.124,5.124,0,0,0,5.047,5.147,5.329,5.329,0,0,0,5.218-5.172,5.125,5.125,0,0,0-5.229-5.082,5.029,5.029,0,0,0-5.036,5.107" transform="translate(-45.666 -190.073)" fill="#618aa2"/><path d="M119.7,251.726h39.759v2.916h-1.424c-12.03,0-24.059-.014-36.088.024-1.082,0-1.74-.156-1.793-1.388a6.971,6.971,0,0,0-.454-1.551" transform="translate(-86.364 -197.639)" fill="#eca037"/><path d="M26.509,251.685h7.974l-.8,2.862H26.509Z" transform="translate(-22.902 -197.611)" fill="#eca037"/><path d="M296.966,250.361a5.075,5.075,0,0,1,5.08,5.087,5.136,5.136,0,1,1-10.272.006,5.083,5.083,0,0,1,5.192-5.093m-.018,6.7a1.609,1.609,0,1,0-1.616-1.574,1.611,1.611,0,0,0,1.616,1.574" transform="translate(-203.549 -196.709)" fill="#232323"/><path d="M69.638,255.471a5.029,5.029,0,0,1,5.036-5.107,5.125,5.125,0,0,1,5.228,5.082,5.328,5.328,0,0,1-5.218,5.171,5.123,5.123,0,0,1-5.047-5.147m6.705-.016a1.636,1.636,0,0,0-1.6-1.607,1.6,1.6,0,0,0-1.591,1.6,1.616,1.616,0,0,0,1.586,1.613,1.665,1.665,0,0,0,1.607-1.61" transform="translate(-52.273 -196.712)" fill="#232323"/><path d="M304.541,264.5a1.614,1.614,0,0,1-1.616-1.574,1.579,1.579,0,1,1,1.616,1.574" transform="translate(-211.142 -204.149)" fill="#dddded"/><path d="M83.842,262.892a1.665,1.665,0,0,1-1.607,1.61,1.616,1.616,0,0,1-1.586-1.613,1.6,1.6,0,0,1,1.591-1.6,1.636,1.636,0,0,1,1.6,1.607" transform="translate(-59.772 -204.149)" fill="#dcdcec"/></g></g></svg>