<svg xmlns="http://www.w3.org/2000/svg" width="115.385" height="109.469" viewBox="0 0 115.385 109.469"><g transform="translate(-5.908 -6.618)"><g transform="translate(5.908 6.618)"><path d="M245.492,26.054q0-8.549,0-17.1c0-1.748.574-2.335,2.289-2.336q17.151,0,34.3,0c1.655,0,2.254.6,2.255,2.262q0,17.153,0,34.307c0,1.668-.6,2.282-2.236,2.282q-17.206.005-34.413,0c-1.579,0-2.2-.623-2.2-2.208q-.008-8.6,0-17.208M271.1,10.2c0,3.407,0,6.712,0,10.018,0,1.717-.589,2.292-2.335,2.295q-3.917.006-7.834,0c-1.579-.005-2.185-.621-2.189-2.217-.007-2.98,0-5.959,0-8.939V10.212H249.1V41.854h31.652V10.2Zm-3.6.034h-5.171v8.7h5.171Z" transform="translate(-174.854 -6.618)"/><path d="M25.336,274.478v3.514H29.7v3.5H17.469v-3.438h4.267v-3.578H20.675c-3.752,0-7.5.006-11.257,0-2.284,0-3.5-1.2-3.5-3.439q-.01-10.706,0-21.413a3.088,3.088,0,0,1,3.428-3.4q14.237-.01,28.473,0a3.086,3.086,0,0,1,3.411,3.419q.012,10.706,0,21.413a3.092,3.092,0,0,1-3.413,3.419c-4.115.012-8.23,0-12.477,0M9.526,270.854H37.633V249.8H9.526Z" transform="translate(-5.908 -175.576)"/><path d="M4.357.627,1.1,0C-4.947,25.265,14.39,56.735,48.534,56.865l-3.562,2.547,2.023,2.894c3.035-2.142,6.027-4.2,8.955-6.351a1.615,1.615,0,0,0-.09-2.666c-2.912-2.11-5.874-4.152-8.872-6.26L44.964,49.92l4.423,3.122c-14.149.369-26.008-4.577-35.177-15.3C5.054,27.032,2.055,14.529,4.357.627" transform="matrix(0.017, 1, -1, 0.017, 65.969, 3.886)"/><path d="M167.309,335.729H149.631c0-4.333,0-8.665.014-13a4.4,4.4,0,0,1,4.639-4.629c2.717-.013,5.434-.007,8.15,0,3.065.005,4.858,1.793,4.864,4.851q.011,6.389.011,12.778" transform="translate(-107.257 -226.261)" fill="#9487b9"/><path d="M158.883,297.641q-.005-6.389-.011-12.778c-.005-3.058-1.8-4.846-4.864-4.851-2.717,0-5.434-.011-8.15,0a4.4,4.4,0,0,0-4.639,4.629c-.016,4.333-.01,8.665-.014,13h-3.523v-2.418q0-5.073,0-10.147c0-4.7,2.453-7.661,7.063-8.544l.424-.083c-2.969-4.441-2.827-8.163.389-10.775a7.081,7.081,0,0,1,9.441.44c2.819,2.811,2.793,6.654-.149,10.291.445.1.844.194,1.246.275a7.766,7.766,0,0,1,6.261,7.183c.121,4.552.029,9.109.029,13.778Zm-5.309-26.473a3.53,3.53,0,1,0-3.489,3.544,3.543,3.543,0,0,0,3.489-3.544" transform="translate(-98.83 -188.172)"/><path d="M7.774,3.879l4.868-.371L12.41,0c-1.447.1-2.825.2-4.2.292C6.043.439,3.876.55,1.715.739A1.658,1.658,0,0,0,.148,3.065c1.4,3.308,2.873,6.581,4.361,9.967l3.234-1.409L5.838,7.237c4.47.629,14.752,11.647,18.4,19.706a44.188,44.188,0,0,1,3.215,26.884c.625.13,1.187.254,1.752.362.532.1,1.067.188,1.593.28C34.138,40.931,29.872,16.7,7.774,3.879" transform="translate(99.481 45.869) rotate(60)"/><path d="M149.779,145.322v-3.494H160.3V120.665h3.519c.017.309.05.626.05.944q0,10.639,0,21.279c0,1.882-.547,2.432-2.415,2.434-3.855,0-7.71,0-11.677,0" transform="translate(-107.361 -87.04)"/><path d="M279.724,18.767h9.652V50.421H257.724V18.779h9.638v1.143c0,2.98-.005,5.959,0,8.939,0,1.6.61,2.212,2.189,2.217q3.917.014,7.834,0c1.745,0,2.332-.577,2.335-2.295.005-3.306,0-6.611,0-10.018" transform="translate(-183.48 -15.185)" fill="#ffba5b"/><rect width="5.171" height="8.698" transform="translate(87.468 3.616)" fill="#f8e0ba"/><path d="M18.18,258.377H46.286v21.051H18.18Zm5.959,12.831c1.287,1.274,2.472,2.48,3.695,3.645a1.723,1.723,0,0,0,2.557-.009q4.889-4.86,9.733-9.766c.044-.043.037-.137.058-.224L37.754,262.4l-8.8,8.847-2.192-2.566-2.627,2.525" transform="translate(-14.562 -184.15)" fill="#73e8dc"/><path d="M174.7,279.707a3.53,3.53,0,1,1-3.516-3.515,3.559,3.559,0,0,1,3.516,3.515" transform="translate(-119.955 -196.712)" fill="#facf97"/><path d="M38.391,280.834l2.627-2.525,2.192,2.566,8.8-8.847,2.428,2.452c-.021.087-.015.18-.058.224q-4.859,4.891-9.733,9.766a1.723,1.723,0,0,1-2.557.009c-1.223-1.165-2.408-2.371-3.695-3.645" transform="translate(-28.814 -193.776)"/></g></g></svg>