<svg xmlns="http://www.w3.org/2000/svg" width="117.715" height="80.934" viewBox="0 0 117.715 80.934"><g transform="translate(0 -59.974)"><g transform="translate(0 59.974)"><path d="M117.715,125.737a5.258,5.258,0,0,0-.4.642,5.457,5.457,0,0,1-5.3,3.495c-.571.009-1.142,0-1.782,0a12.956,12.956,0,0,1-5.519,8.781,12.6,12.6,0,0,1-8.14,2.219,12.915,12.915,0,0,1-11.81-10.934H80.8a12.931,12.931,0,0,1-5.864,8.947,12.446,12.446,0,0,1-7.751,1.985c-4.773-.335-10.414-3.455-11.909-10.952H36.647a12.87,12.87,0,0,1-5.148,8.488,12.662,12.662,0,0,1-8.177,2.483c-6.021-.217-10.911-4.611-12.159-11.016-1.613,0-3.253-.039-4.891.009-2.938.085-5-1.117-6.046-3.929-.033-.089-.149-.146-.227-.218V101.366C.532,99.478,1.106,97.6,1.588,95.7c1.707-6.743,3.377-13.494,5.07-20.24a5.468,5.468,0,0,1,5.628-4.439q7.529-.017,15.058,0a5.5,5.5,0,0,1,5.76,5.788q.016,14.828,0,29.656v1.288h3.628V69.179c-2.857,0-5.681,0-8.5,0-1.89,0-2.476-.583-2.481-2.454,0-1.533-.013-3.066,0-4.6.015-1.441.68-2.136,2.1-2.139,5.1-.013,10.192-.023,15.288,0A5.451,5.451,0,0,1,48.5,64.326c.7,2.74,1.381,5.485,2.063,8.229.448,1.806.855,2.14,2.673,2.14q20,0,40,0c1.588,0,2.039.347,2.436,1.836-.393,1.482-.855,1.841-2.429,1.841q-20.2,0-40.392,0a5.492,5.492,0,0,1-5.734-4.443c-.7-2.774-1.363-5.56-2.1-8.325a6.9,6.9,0,0,0-.863-1.526,7,7,0,0,0-1.6-.4c-3.37-.037-6.741-.019-10.112-.019H29.5V65.5c2.825,0,5.577,0,8.33,0,2.107,0,2.633.53,2.633,2.65q0,19.19,0,38.38v1.205H114v-3.611q.013-12.72.021-25.44c0-.1-.087-.195-.121-.266h-9.711q-1.307-.021-2.614-.041c-1.433-.02-1.91-.4-2.285-1.843.381-1.447.849-1.832,2.3-1.834,4.5-.006,9,.029,13.5-.025a2.829,2.829,0,0,1,2.625,1.173v34.487c-.858,1.4-2.292,1.14-3.6,1.166v3.685c1.395-.082,2.741-.214,3.6,1.126ZM114,122.513v-3.588h-7.235l2.408,3.61,1.129,3.583c3.224.348,3.817-.184,3.731-3.378a1.859,1.859,0,0,0-.033-.227m-34.255.021,1.141,3.619h3.764l1.143-3.62,2.413-3.616H77.329l2.416,3.617m-23.383,0,2.441-3.658H32.968a13.53,13.53,0,0,1,3.678,7.279H55.218l1.144-3.621m-38.015-1.7a3.071,3.071,0,0,0-.489.286,9.238,9.238,0,0,0,.268,14.074c4.049,3.236,10.383,2.459,12.986-1.593a8.891,8.891,0,0,0,.755-10.163c-2.747-4.832-9.639-6.16-13.521-2.6m44.143,0a3.1,3.1,0,0,0-.489.287,9.238,9.238,0,0,0,.268,14.074c4.049,3.236,10.383,2.459,12.986-1.593a8.891,8.891,0,0,0,.755-10.163c-2.747-4.832-9.639-6.16-13.521-2.6m29.429,0a3.1,3.1,0,0,0-.489.287,9.238,9.238,0,0,0,.268,14.074c4.049,3.236,10.382,2.459,12.986-1.593a8.891,8.891,0,0,0,.755-10.163c-2.747-4.832-9.639-6.16-13.521-2.6M15.874,82.1l-4.832-.005H8.788c-.459,1.818-.907,3.553-1.332,5.294q-1.329,5.44-2.638,10.884a45.345,45.345,0,0,0-1.088,6.15c-.174,3.973-.051,7.958-.051,11.938,0,2.564-.009,5.128,0,7.692.006,1.246.581,2.073,1.636,2.113,1.941.075,3.886.021,5.859.021a13.344,13.344,0,0,1,4.942-8.47,13,13,0,0,1,10.213-2.3c1.027.208,2.023.572,3.1.883v-4.082q0-17.564,0-35.128c0-1.608-.6-2.372-1.972-2.375-4.859-.013-9.718.014-14.577.026-1.82-.3-2.815.4-2.96,3.6h2.041c2.756.013,5.512.007,8.267.043a5.493,5.493,0,0,1,5.517,5.448q.05,2.583,0,5.168a9.056,9.056,0,0,1-7.178,8.688c-2.919.6-5.868,1.057-8.8,1.589a2.129,2.129,0,0,1-2.346-1.035l-.088-.346.288-1.5a8.28,8.28,0,0,1,1.732-.766c2.661-.514,5.341-.931,8.008-1.42a5.481,5.481,0,0,0,4.7-5.169c.056-1.488-.01-2.98-.022-4.47.107-1.921-.458-2.52-2.4-2.514-1.252,0-2.5.026-3.755.04m94.447,31.236v-1.774H33.145v3.537h77.176Z" transform="translate(0 -59.974)" fill="#010101"/><path d="M199.157,85.819c.375,1.439.852,1.823,2.285,1.843q1.307.018,2.614.041c-1.625,1.2-1.624,2.4,0,3.6q-1.317.021-2.635.041c-1.573.023-2.23.661-2.232,2.234-.008,5.849-.034,11.7.038,17.548a6.221,6.221,0,0,0,.887,2.091,5.178,5.178,0,0,1-.969.19q-3.637.024-7.275,0a5.144,5.144,0,0,1-.968-.191c.309-.66.879-1.316.887-1.979.07-5.928.048-11.857.035-17.785a1.866,1.866,0,0,0-2.13-2.1c-2.218-.017-4.437-.013-6.655,0-1.581.007-2.24.654-2.242,2.222-.008,5.852-.034,11.7.038,17.556a6.224,6.224,0,0,0,.887,2.093,5.18,5.18,0,0,1-.969.19q-3.638.024-7.275,0a5.17,5.17,0,0,1-.969-.19,6.234,6.234,0,0,0,.887-2.093c.072-5.85.046-11.7.037-17.552,0-1.568-.664-2.217-2.242-2.225q-3.269-.016-6.539,0c-1.585.007-2.24.651-2.249,2.215q-.018,3.27,0,6.539c.006,1.459.388,1.927,1.84,2.314v3.609c-1.443.377-1.827.849-1.84,2.282a16.379,16.379,0,0,0,.036,2.836,9.225,9.225,0,0,0,.891,2.076c-2.15.027-4.3.109-6.449.05a8.532,8.532,0,0,1-2.118-.62,7.977,7.977,0,0,0,.269-1.448q.028-8.845.008-17.69c0-1.493-.683-2.153-2.192-2.162-2.183-.013-4.369-.078-6.545.039a6.8,6.8,0,0,0-2.1.885,5.217,5.217,0,0,1-.189-.981q-.011-8.961,0-17.922a6.908,6.908,0,0,1,.863,1.526c.739,2.764,1.4,5.55,2.1,8.325a5.493,5.493,0,0,0,5.734,4.443q20.2.008,40.392,0c1.574,0,2.036-.359,2.429-1.842h3.611" transform="translate(-99.869 -69.26)" fill="#f7c360"/><path d="M24.028,131.56a2.129,2.129,0,0,0,2.345,1.035c2.934-.532,5.883-.985,8.8-1.589a9.056,9.056,0,0,0,7.178-8.688q.057-2.583,0-5.168a5.493,5.493,0,0,0-5.517-5.448c-2.755-.036-5.511-.03-8.267-.043l.919-3.6c4.859-.012,9.718-.039,14.577-.026,1.375,0,1.972.768,1.972,2.375q0,17.564,0,35.129v4.082c-1.073-.311-2.068-.675-3.1-.883a13,13,0,0,0-10.213,2.3,3.629,3.629,0,0,1-1-.445,22.207,22.207,0,0,1-7.707-19.029m14.746,2.217c-.687,0-1.377-.044-2.059.01a1.8,1.8,0,0,0-1.7,1.817,1.782,1.782,0,0,0,1.7,1.819c1.294.063,2.595.06,3.889.005a1.8,1.8,0,0,0,1.76-1.876,1.819,1.819,0,0,0-1.755-1.77c-.607-.044-1.22-.008-1.83-.006" transform="translate(-16.615 -93.295)" fill="#f6c35f"/><path d="M157.773,112.256a5.148,5.148,0,0,0,.968.191q3.638.024,7.275,0a5.176,5.176,0,0,0,.969-.19c1.929.066,3.858.169,5.788.185,1.13.009,2.262-.119,3.392-.186l4.568.2v3.611H107.2v-1.205q0-19.19,0-38.38c0-2.12-.526-2.649-2.633-2.65-2.753,0-5.506,0-8.331,0V71.992h2.944c3.371,0,6.741-.018,10.112.019a7,7,0,0,1,1.6.4q-.006,8.961,0,17.922a5.191,5.191,0,0,0,.189.981,9.607,9.607,0,0,0-.189,1.349q-.019,8.787,0,17.574c0,1.566.666,2.211,2.253,2.219,2.144.011,4.291.064,6.431-.033a7.492,7.492,0,0,0,2.068-.733,8.525,8.525,0,0,0,2.118.62c2.147.059,4.3-.023,6.448-.05,1.929.066,3.859.169,5.788.185,1.13.009,2.261-.12,3.392-.186a5.154,5.154,0,0,0,.969.19q3.638.024,7.275,0a5.176,5.176,0,0,0,.969-.19c1.929.066,3.858.169,5.788.185,1.13.009,2.261-.119,3.392-.186" transform="translate(-66.735 -68.305)" fill="#f9ae42"/><path d="M15.639,184.011a22.207,22.207,0,0,0,7.707,19.029,3.619,3.619,0,0,0,1,.445,13.346,13.346,0,0,0-4.942,8.471c-1.973,0-3.919.053-5.859-.021-1.055-.04-1.63-.868-1.636-2.113-.013-2.564,0-5.128,0-7.692,0-3.98-.124-7.965.051-11.938a45.389,45.389,0,0,1,1.088-6.151l2.508-.376.088.346" transform="translate(-8.226 -145.747)" fill="#f8ae42"/><path d="M185.3,234.033V235.8H108.122v-1.763H185.3" transform="translate(-74.977 -180.675)" fill="#7a828a"/><path d="M185.3,230.019H108.122v-1.774H185.3Z" transform="translate(-74.977 -176.661)" fill="#5d6972"/><path d="M39.226,134.6c.011,1.49.078,2.982.022,4.47a5.481,5.481,0,0,1-4.7,5.169c-2.667.489-5.347.906-8.008,1.42a8.272,8.272,0,0,0-1.732.766,3.617,3.617,0,0,1,.022-.8q1.691-6.756,3.406-13.505l4.832,0a1.937,1.937,0,0,0-1.06,2.386c.365,1.094,1.264,1.3,2.3,1.26a25.245,25.245,0,0,1,2.629,0,2.254,2.254,0,0,0,2.286-1.176" transform="translate(-17.196 -110.004)" fill="#a6cedf"/><path d="M360.845,145.842l-4.568-.2a2.45,2.45,0,0,0,.94-2.2c-.023-5.725-.032-11.451.006-17.175a2.506,2.506,0,0,0-1.254-2.479c1.673-1.291,1.688-2.448.047-3.652h4.729c.034.071.121.169.121.266q0,12.72-.021,25.44" transform="translate(-246.846 -101.693)" fill="#f7c360"/><path d="M299.85,253.94c3.882-3.555,10.774-2.228,13.521,2.6a8.89,8.89,0,0,1-.755,10.163l-4.784-.536c.248-.175.5-.343.743-.525a5.5,5.5,0,0,0-1.824-9.834c-2.424-.654-4.535.32-6.363,2.913q-.269-2.392-.538-4.785" transform="translate(-207.931 -193.083)" fill="#788188"/><path d="M203.85,253.94c3.882-3.555,10.774-2.228,13.521,2.6a8.891,8.891,0,0,1-.755,10.163l-4.784-.536c.248-.175.5-.343.743-.525a5.5,5.5,0,0,0-1.824-9.834c-2.424-.654-4.535.32-6.363,2.913q-.269-2.392-.538-4.785" transform="translate(-141.36 -193.083)" fill="#788188"/><path d="M59.85,253.94c3.882-3.555,10.774-2.228,13.521,2.6a8.891,8.891,0,0,1-.755,10.163l-4.784-.536c.248-.175.5-.343.742-.525a5.5,5.5,0,0,0-1.823-9.834c-2.424-.654-4.535.32-6.363,2.913q-.269-2.392-.538-4.785" transform="translate(-41.503 -193.083)" fill="#788188"/><path d="M130.94,255.772l-1.144,3.621H111.224a13.529,13.529,0,0,0-3.678-7.278h4.282a5.284,5.284,0,0,0,4.985,3.642q7.063.018,14.127.016" transform="translate(-74.578 -193.213)" fill="#cdcdcd"/><path d="M195.684,258.5q.269,2.393.538,4.785a5.531,5.531,0,0,0,1.032,6.169c1.824,1.919,4.015,2.154,6.412,1.278l4.784.536c-2.6,4.053-8.937,4.83-12.986,1.594a9.238,9.238,0,0,1-.268-14.074,3.093,3.093,0,0,1,.488-.287" transform="translate(-133.193 -197.639)" fill="#5b6770"/><path d="M291.684,258.5l.538,4.785a5.531,5.531,0,0,0,1.032,6.169c1.824,1.919,4.015,2.154,6.412,1.278l4.784.536c-2.6,4.053-8.937,4.83-12.986,1.594a9.238,9.238,0,0,1-.268-14.074,3.094,3.094,0,0,1,.488-.287" transform="translate(-199.765 -197.639)" fill="#5b6770"/><path d="M51.684,258.5q.269,2.393.538,4.784a5.532,5.532,0,0,0,1.032,6.169c1.824,1.919,4.015,2.154,6.412,1.278l4.784.536c-2.6,4.053-8.937,4.83-12.986,1.593a9.238,9.238,0,0,1-.268-14.074,3.094,3.094,0,0,1,.488-.287" transform="translate(-33.337 -197.639)" fill="#5b6770"/><path d="M140.627,255.772q-7.063-.007-14.127-.016a5.284,5.284,0,0,1-4.985-3.642h21.552l-2.441,3.658" transform="translate(-84.264 -193.213)" fill="#e5e5e5"/><path d="M21.94,132.121q-1.707,6.752-3.406,13.505a3.636,3.636,0,0,0-.022.8l-.288,1.5-2.508.377q1.318-5.443,2.638-10.884c.425-1.741.874-3.475,1.332-5.294Z" transform="translate(-10.898 -110.004)" fill="#7fb8cb"/><path d="M254.671,255.87l-2.416-3.617H263.13l-2.413,3.616h-6.047" transform="translate(-174.926 -193.31)" fill="#e4e4e4"/><path d="M342.1,120.135c1.641,1.2,1.626,2.361-.046,3.652l-4.931-.056c-1.628-1.192-1.63-2.4,0-3.6H342.1" transform="translate(-232.928 -101.693)" fill="#fefdfb"/><path d="M55.283,134.52A2.254,2.254,0,0,1,53,135.7a25.241,25.241,0,0,0-2.629,0c-1.036.043-1.935-.166-2.3-1.26a1.937,1.937,0,0,1,1.06-2.386c1.252-.014,2.5-.037,3.755-.04,1.942-.006,2.507.593,2.4,2.514" transform="translate(-33.253 -109.924)" fill="#fcfdfd"/><path d="M350.687,255.887l-2.408-3.61h7.235v3.588l-4.826.022" transform="translate(-241.514 -193.326)" fill="#e4e4e4"/><path d="M260.136,264.051h6.047l-1.143,3.62h-3.764l-1.141-3.619" transform="translate(-180.391 -201.49)" fill="#cbcbcb"/><path d="M356.135,264l4.827-.022a1.856,1.856,0,0,1,.033.227c.086,3.194-.507,3.726-3.731,3.378L356.135,264" transform="translate(-246.962 -201.443)" fill="#cacaca"/><path d="M35.315,107.978l-.919,3.6H32.355c.145-3.2,1.139-3.905,2.96-3.6" transform="translate(-22.437 -93.218)" fill="#f5ac41"/><path d="M274.089,153.857c-1.131.067-2.262.2-3.392.186-1.93-.016-3.859-.119-5.788-.185a6.225,6.225,0,0,1-.887-2.092c-.072-5.851-.046-11.7-.038-17.556,0-1.569.662-2.215,2.242-2.223,2.219-.011,4.437-.015,6.655,0a1.866,1.866,0,0,1,2.13,2.1c.013,5.928.035,11.857-.035,17.785-.008.663-.578,1.319-.887,1.979m-4.6-3.517h1.778V135.733h-3.579V150.34Z" transform="translate(-183.052 -109.905)" fill="#010100"/><path d="M154.749,153.244a7.5,7.5,0,0,1-2.068.733c-2.14.1-4.286.043-6.431.032-1.587-.008-2.25-.653-2.253-2.218q-.013-8.787.005-17.575a9.664,9.664,0,0,1,.189-1.349,6.811,6.811,0,0,1,2.1-.885c2.177-.117,4.363-.052,6.545-.039,1.509.009,2.19.67,2.192,2.162q.017,8.845-.008,17.691a7.977,7.977,0,0,1-.269,1.448m-5.241-2.949h1.778V135.688h-3.579V150.3Z" transform="translate(-99.851 -109.86)" fill="#010100"/><path d="M328.851,131.866l4.931.056a2.507,2.507,0,0,1,1.253,2.478c-.039,5.725-.029,11.45-.006,17.175a2.451,2.451,0,0,1-.94,2.2c-1.131.067-2.262.2-3.392.186-1.93-.016-3.859-.119-5.788-.185a6.222,6.222,0,0,1-.887-2.091c-.072-5.849-.046-11.7-.038-17.548,0-1.573.658-2.211,2.232-2.234l2.635-.041m.643,18.4h1.778V135.655h-3.579v14.607Z" transform="translate(-224.659 -109.827)" fill="#010100"/><path d="M214.006,153.859c-1.131.067-2.262.2-3.392.186-1.93-.016-3.859-.119-5.788-.185a9.228,9.228,0,0,1-.891-2.076,16.411,16.411,0,0,1-.036-2.836c.013-1.433.4-1.9,1.841-2.282,2.314.34,1.727,2.24,1.866,3.675h3.583V135.735H207.61V138.2c-.011.827-.025,1.654-.033,2.481-.014,1.524-.369,1.985-1.838,2.377-1.452-.386-1.834-.855-1.84-2.314q-.012-3.27,0-6.539c.009-1.565.664-2.208,2.249-2.215q3.27-.015,6.54,0c1.577.008,2.239.656,2.242,2.224.008,5.851.034,11.7-.038,17.553a6.236,6.236,0,0,1-.887,2.093" transform="translate(-141.362 -109.907)" fill="#010101"/><path d="M213.678,164.407h-1.806c-.139-1.435.448-3.335-1.866-3.675q0-1.8,0-3.609c1.469-.392,1.824-.853,1.838-2.377.008-.827.022-1.654.033-2.481a2.914,2.914,0,0,1,1.792,3.005c.04,3.045.01,6.091.008,9.137" transform="translate(-145.629 -123.972)" fill="#e5e5e5"/><path d="M63.778,191.987c.61,0,1.223-.038,1.83.007a1.819,1.819,0,0,1,1.755,1.77,1.8,1.8,0,0,1-1.76,1.876c-1.295.055-2.6.058-3.889-.006a1.782,1.782,0,0,1-1.7-1.819,1.8,1.8,0,0,1,1.7-1.817c.682-.055,1.372-.011,2.059-.012" transform="translate(-41.619 -151.507)" fill="#050402"/><path d="M307.94,274.515c-2.4.876-4.588.642-6.412-1.277a5.531,5.531,0,0,1-1.032-6.169c1.828-2.593,3.94-3.566,6.363-2.913a5.5,5.5,0,0,1,1.824,9.833c-.242.183-.495.351-.742.525m-.581-5.014a1.839,1.839,0,1,0-1.826,1.825,1.851,1.851,0,0,0,1.826-1.825" transform="translate(-208.039 -201.427)" fill="#010102"/><path d="M211.94,274.516c-2.4.876-4.588.642-6.412-1.278a5.531,5.531,0,0,1-1.032-6.169c1.829-2.593,3.94-3.567,6.363-2.913a5.5,5.5,0,0,1,1.824,9.834c-.242.183-.495.351-.742.525m-2.371-6.867a1.841,1.841,0,1,0,1.79,1.859,1.856,1.856,0,0,0-1.79-1.859" transform="translate(-141.468 -201.428)" fill="#010102"/><path d="M67.94,274.515c-2.4.876-4.588.642-6.412-1.278a5.531,5.531,0,0,1-1.032-6.169c1.828-2.593,3.94-3.567,6.363-2.913a5.5,5.5,0,0,1,1.823,9.834c-.242.183-.494.351-.742.525m-2.329-6.867a1.842,1.842,0,1,0,1.748,1.9,1.859,1.859,0,0,0-1.748-1.9" transform="translate(-41.611 -201.427)" fill="#010102"/><path d="M276.109,146.69v-2.464h3.579v14.607H277.91c0-3.046.031-6.092-.009-9.137a2.914,2.914,0,0,0-1.792-3.006" transform="translate(-191.468 -118.398)" fill="#cdcdcd"/><path d="M276.109,152.264a2.914,2.914,0,0,1,1.792,3.006c.04,3.045.01,6.091.009,9.137h-1.8Z" transform="translate(-191.468 -123.972)" fill="#e5e5e5"/><path d="M156.109,146.69v-2.464h3.579v14.607H157.91c0-3.046.031-6.092-.009-9.137a2.914,2.914,0,0,0-1.792-3.006" transform="translate(-108.254 -118.398)" fill="#cdcdcd"/><path d="M156.109,152.264a2.914,2.914,0,0,1,1.792,3.006c.04,3.045.01,6.091.009,9.137h-1.8Z" transform="translate(-108.254 -123.972)" fill="#e5e5e5"/><path d="M336.109,146.69v-2.464h3.579v14.607H337.91c0-3.046.031-6.092-.009-9.137a2.914,2.914,0,0,0-1.792-3.006" transform="translate(-233.075 -118.398)" fill="#cdcdcd"/><path d="M336.109,152.264a2.914,2.914,0,0,1,1.792,3.006c.04,3.045.01,6.091.009,9.137h-1.8Z" transform="translate(-233.075 -123.972)" fill="#e5e5e5"/><path d="M217.911,158.834c0-3.046.032-6.092-.008-9.137a2.914,2.914,0,0,0-1.792-3.005v-2.464h3.578v14.607Z" transform="translate(-149.861 -118.399)" fill="#cdcdcd"/><path d="M315.673,277.845a1.839,1.839,0,1,1-1.8-1.854,1.854,1.854,0,0,1,1.8,1.854" transform="translate(-216.352 -209.77)" fill="#dbdbdb"/><path d="M217.882,275.991A1.841,1.841,0,1,1,216,277.754a1.852,1.852,0,0,1,1.887-1.763" transform="translate(-149.781 -209.771)" fill="#dbdbdb"/><path d="M73.924,275.988A1.842,1.842,0,1,1,72,277.708a1.856,1.856,0,0,1,1.927-1.72" transform="translate(-49.924 -209.767)" fill="#dbdbdb"/></g></g></svg>