<svg xmlns="http://www.w3.org/2000/svg" width="96.088" height="77.456" viewBox="0 0 96.088 77.456"><g transform="translate(-5.706 -41.868)"><g transform="translate(5.706 41.868)"><path d="M20.51,72.648c-1.112.738-2.18,1.451-3.253,2.156a5.88,5.88,0,0,1-7.9-.8c-.62-.612-1.263-1.2-1.84-1.856A5.957,5.957,0,0,1,6.37,65.17a40.825,40.825,0,0,0,3.481-11.1,2.476,2.476,0,0,0-.782-2.622,10.724,10.724,0,0,1-3.3-7.7c-.041-1.3.571-1.886,1.886-1.862a16.126,16.126,0,0,1,7.149,1.8.865.865,0,0,0,1.1-.012,8.836,8.836,0,0,1,11.15.37,1.225,1.225,0,0,0,1.578.19c3.185-1.528,6.149-.695,8.972,1.03a1.415,1.415,0,0,1,.551,1.87l-.983,2.5c3.389-.132,6.369,1.157,9.316,2.4a29.338,29.338,0,0,0,16.2,1.774c3.089-.47,6.205-.843,9.323-1.026a20.064,20.064,0,0,1,16.36,6.408,2.8,2.8,0,0,0,1.312.668c1.246.307,2.524.484,3.769.793a10.9,10.9,0,0,1,8.335,10.63c.012,5.646,0,11.293,0,17.006h-3.1v-.969c0-5.034-.09-10.071.025-15.1.118-5.157-3.31-8.4-7.2-8.77.575,1.847,1.276,3.7,1.716,5.606a19.644,19.644,0,0,1-.1,8.732,33.613,33.613,0,0,0,.14,13.158,56.874,56.874,0,0,1,.744,8.368c.115,5,.037,10,.031,15.006a4.641,4.641,0,0,1-5,5.011c-1.38-.011-2.759-.195-4.139-.194-1.41,0-2.82.184-4.231.195-3.608.028-5.694-2.392-5.128-5.952a14.948,14.948,0,0,1,.749-2.99c1.376-3.592.623-6.895-1.235-10.07a1.239,1.239,0,0,0-.569-.47,12.476,12.476,0,0,1-6.918-6.919,2.824,2.824,0,0,0-.18-.3c-4.39,1.948-9.052,2.059-13.819,1.887-.192,2.142-.315,4.224-.577,6.288-.621,4.892-1.27,9.781-1.984,14.661a4.514,4.514,0,0,1-4.542,3.848c-1.3-.014-2.6-.269-3.906-.4a4.181,4.181,0,0,0-.64.075,25.041,25.041,0,0,1-4.488.22,4.432,4.432,0,0,1-3.795-4.557c-.02-2.356-.015-4.712,0-7.067a13.3,13.3,0,0,0-1.324-5.983,16.827,16.827,0,0,1-1.779-7.742,3.6,3.6,0,0,0-1.487-3.178,15.544,15.544,0,0,1-5.873-10.832,14.948,14.948,0,0,0-2.669-7.2M18.131,47.5v-1.54c-3,1.712-6.153,8.514-5.7,12.071a3.73,3.73,0,0,0,2.838-.845,3.9,3.9,0,0,0,1.362-2.737c.209-1.34.613-2.649.908-3.977.219-.986.4-1.981.6-2.972m29.447,68.15a4.456,4.456,0,0,0,.4-.936c.187-1.047.324-2.1.476-3.155a163.321,163.321,0,0,0,2.07-19.127c.048-1.859.007-3.72.007-5.585H53.77v4.506c6.671.574,12.79-.644,18.131-4.892a5.634,5.634,0,0,1,6.293-.584,5.849,5.849,0,0,1,3.446,5.413,13.135,13.135,0,0,0,1.407,5.669c.522,1.034,1.016,2.084,1.559,3.107a13.582,13.582,0,0,1,.805,11.4,12.846,12.846,0,0,0-.631,3.1,1.473,1.473,0,0,0,1.591,1.658c.9.03,1.807.015,2.71.006,1.309-.014,1.86-.57,1.863-1.906.007-3.808-.027-7.617.01-11.424a62.635,62.635,0,0,0-.942-13,1.487,1.487,0,0,0-.822-1.155A11.13,11.13,0,0,1,83.221,79a4.068,4.068,0,0,0-1.739-3.373,6.731,6.731,0,0,1-2.921-5.986,19.671,19.671,0,0,1,3.875-11.257c-5.05-3.288-10.5-2.73-16.1-1.826.255.471.483.919.736,1.353A16.53,16.53,0,0,1,69.2,64.377a7.316,7.316,0,0,1-3.7,7.674,6.864,6.864,0,0,1-8.064-1.111,26.588,26.588,0,0,0-10.729-6.273,8.8,8.8,0,0,1-6.129-6.653c-.358-1.436-.663-2.89-.893-4.351-.1-.617-.356-.825-.913-.841-1.03-.029-2.062-.119-3.09-.079a2.255,2.255,0,0,0-1.265.481,10.87,10.87,0,0,1-6.918,2.59V52.736c3.642-.248,6.648-2.578,7.135-5.5-1.981-1.153-3.867-.737-5.762.283-1.59.856-1.844.8-3.1-.473A6.5,6.5,0,0,0,21.42,45a36.01,36.01,0,0,1-.6,5.373,52.482,52.482,0,0,0-1.285,5.209c-.5,3.252-2.71,4.971-5.851,5.59-.383.031-.769.047-1.15.1-1.394.182-1.536.337-1.728,1.85l1.733.995a13.37,13.37,0,0,1,4.852,6.566c1.339-.493,2.653-.893,3.892-1.457a21.639,21.639,0,0,0,3.526-1.947,12.552,12.552,0,0,0,4.308-5.836l2.85,1.153a16.683,16.683,0,0,1-5.491,7.392L23.6,71.723a17.839,17.839,0,0,1,2.669,7.847,12.877,12.877,0,0,0,6.09,9.724,33.223,33.223,0,0,0,3.8,1.829,12.135,12.135,0,0,0-4.25-7.158,4.121,4.121,0,0,1-.6-.849l1.729-2.169c.16.112.266.18.365.256a16.667,16.667,0,0,1,6.08,9.467,29.544,29.544,0,0,1,.33,3.066,14.912,14.912,0,0,0,1.514,6.524,16.2,16.2,0,0,1,1.613,7.29c-.014,2.29-.036,4.581.024,6.87a2.312,2.312,0,0,0,.584,1.44c.692.7,3.258.5,4.033-.209M42.919,54c.27,1.285.452,2.42.752,3.523A5.7,5.7,0,0,0,47.618,61.7a28.73,28.73,0,0,1,11.97,6.993,3.545,3.545,0,0,0,3.384.968c2.285-.506,3.466-2.461,3.154-5A17.663,17.663,0,0,0,63.709,58.2c-.752-1.347-.7-1.407-2.151-1.179A28.846,28.846,0,0,1,46.128,55.2c-1-.4-2.029-.756-3.209-1.194M84.911,60.22c-.125.217-.2.363-.289.494a17.25,17.25,0,0,0-2.786,6.932c-.48,2.565-.034,4.6,2.291,6.237.963.679,1.493,2.131,1.94,3.336a18.976,18.976,0,0,1,.43,3.137,7.36,7.36,0,0,0,2.659,4.56c.349-2.807.579-5.624,1.073-8.394a17.7,17.7,0,0,0-1.79-11.789,15.353,15.353,0,0,0-3.528-4.512M33.658,93.532a13.2,13.2,0,0,0,1.375,6.521,16.982,16.982,0,0,1,1.711,7.759c-.026,2.226-.017,4.453,0,6.68a1.564,1.564,0,0,0,1.735,1.74c.511.014,1.022,0,1.357,0v-3.351a55.461,55.461,0,0,0-.043-5.611,19.887,19.887,0,0,0-1.142-5.237A22.543,22.543,0,0,1,36.728,94.8a.8.8,0,0,0-.449-.58c-.823-.26-1.67-.444-2.621-.685m46.218,3.989a20.225,20.225,0,0,1-1.385-6.559,2.965,2.965,0,0,0-4.614-2.111c-1.083.691-2.136,1.431-3.173,2.189a.794.794,0,0,0-.228.686c.988,3.513,5.713,6.439,9.4,5.795m-1.109,3.246a12.261,12.261,0,0,1,1.276,6.856,44.213,44.213,0,0,1-1.233,5.045c-.748,2.9-.019,3.791,2.919,3.528a.273.273,0,0,0,.084-.037,24.146,24.146,0,0,1,.032-3.245,19.08,19.08,0,0,1,.847-3.16,10.118,10.118,0,0,0-.518-7.612c-.712-1.524-.716-1.522-2.42-1.425-.289.017-.578.029-.986.049m-64.11-28.2A9.343,9.343,0,0,0,9.475,65.99a3.057,3.057,0,0,0,.236,3.938A29.485,29.485,0,0,0,11.9,72.109a2.421,2.421,0,0,0,2.761.459M13.289,46.255l-4.3-1.3a8.286,8.286,0,0,0,2.352,4.421l1.943-3.126" transform="translate(-5.706 -41.868)" fill="#030303"/><path d="M59.128,99.673a16.666,16.666,0,0,0-6.08-9.466c-.1-.076-.205-.144-.365-.256L50.954,92.12c-.241-.163-.628-.279-.7-.5a31.871,31.871,0,0,1-1.2-4.223A17.775,17.775,0,0,0,47.6,81.889c-.51-.956-.982-1.934-1.471-2.9A16.687,16.687,0,0,0,51.616,71.6l-2.85-1.153a12.552,12.552,0,0,1-4.308,5.836,21.639,21.639,0,0,1-3.526,1.947c-1.239.564-2.553.964-3.892,1.457a13.369,13.369,0,0,0-4.852-6.566l1.145-2.942c3.141-.619,5.353-2.338,5.851-5.59a52.411,52.411,0,0,1,1.285-5.209,36.009,36.009,0,0,0,.6-5.373,6.5,6.5,0,0,1,4.358,2.045c1.257,1.27,1.512,1.329,3.1.473,1.895-1.02,3.781-1.437,5.762-.283-.487,2.924-3.493,5.253-7.135,5.5v3.077a10.869,10.869,0,0,0,6.918-2.59,2.255,2.255,0,0,1,1.265-.481c1.027-.041,2.059.05,3.09.079.557.015.816.224.913.841.23,1.461.535,2.915.894,4.351a8.8,8.8,0,0,0,6.129,6.653,26.588,26.588,0,0,1,10.729,6.273,6.864,6.864,0,0,0,8.064,1.111,7.315,7.315,0,0,0,3.7-7.673,16.53,16.53,0,0,0-2.131-6.465c-.253-.434-.481-.882-.736-1.353,5.6-.9,11.049-1.462,16.1,1.826a19.671,19.671,0,0,0-3.875,11.257,6.731,6.731,0,0,0,2.921,5.986A4.068,4.068,0,0,1,102.868,88a11.13,11.13,0,0,0,5.969,9.741,1.486,1.486,0,0,1,.822,1.155,62.635,62.635,0,0,1,.942,13c-.037,3.808,0,7.616-.01,11.424,0,1.336-.553,1.892-1.863,1.906-.9.009-1.808.024-2.71-.006a1.473,1.473,0,0,1-1.591-1.658,12.846,12.846,0,0,1,.631-3.1,13.582,13.582,0,0,0-.805-11.4c-.543-1.023-1.037-2.072-1.559-3.107a13.135,13.135,0,0,1-1.407-5.669,5.849,5.849,0,0,0-3.446-5.413,5.634,5.634,0,0,0-6.293.584c-5.341,4.247-11.46,5.465-18.131,4.892V95.852H70.176c0,1.865.041,3.726-.007,5.585a163.321,163.321,0,0,1-2.07,19.127c-.152,1.053-.288,2.108-.476,3.155a4.455,4.455,0,0,1-.4.936,2.429,2.429,0,0,1-1.536-2.523c-.034-2.545.113-5.1-.054-7.633a17.172,17.172,0,0,0-1.027-5.041c-1.065-2.736-2.194-5.407-2.062-8.429.011-.246-.416-.653-.712-.744-.882-.268-1.8-.416-2.705-.611M67.409,92.7c.29,0,.58,0,.871,0a4.832,4.832,0,0,0,4.756-2.985,4.771,4.771,0,0,0-1.236-5.48c-1.091-1.1-2.166-2.214-3.3-3.273a18.95,18.95,0,0,0-13.3-5.3,5.016,5.016,0,0,0-1.306,9.865,8.956,8.956,0,0,1,4.8,3.061A9.99,9.99,0,0,0,67.409,92.7" transform="translate(-25.353 -50.871)" fill="#f0f0f0"/><path d="M149.892,88.88c1.18.438,2.2.793,3.209,1.194a28.844,28.844,0,0,0,15.43,1.822c1.451-.227,1.4-.168,2.151,1.179a17.664,17.664,0,0,1,2.417,6.461c.312,2.539-.869,4.494-3.154,5a3.545,3.545,0,0,1-3.384-.968,28.736,28.736,0,0,0-11.97-6.993,5.7,5.7,0,0,1-3.948-4.172c-.3-1.1-.482-2.238-.752-3.523" transform="translate(-112.68 -76.747)" fill="#676767"/><path d="M303.264,112.975a15.36,15.36,0,0,1,3.528,4.512,17.7,17.7,0,0,1,1.79,11.79c-.494,2.77-.724,5.587-1.073,8.394a7.36,7.36,0,0,1-2.659-4.559,18.979,18.979,0,0,0-.43-3.137c-.447-1.2-.977-2.657-1.94-3.336-2.325-1.637-2.771-3.672-2.291-6.237a17.256,17.256,0,0,1,2.786-6.932c.093-.131.163-.278.289-.495" transform="translate(-224.059 -94.623)" fill="#676767"/><path d="M136.571,230.962c.9.2,1.823.343,2.705.611.3.09.723.5.712.744-.132,3.022,1,5.693,2.062,8.429a17.182,17.182,0,0,1,1.027,5.041c.168,2.534.02,5.088.054,7.633a2.428,2.428,0,0,0,1.537,2.523c-.776.71-3.341.913-4.034.209a2.315,2.315,0,0,1-.584-1.44c-.06-2.288-.038-4.579-.024-6.869a16.2,16.2,0,0,0-1.613-7.29,14.917,14.917,0,0,1-1.514-6.525,29.545,29.545,0,0,0-.33-3.066" transform="translate(-102.796 -182.16)" fill="#e4e4e4"/><path d="M77.93,150.811c.489.968.961,1.945,1.471,2.9a17.767,17.767,0,0,1,1.462,5.511,31.923,31.923,0,0,0,1.2,4.223c.07.218.457.334.7.5a4.118,4.118,0,0,0,.6.849,12.136,12.136,0,0,1,4.25,7.157,33.136,33.136,0,0,1-3.8-1.829,12.878,12.878,0,0,1-6.09-9.724,17.831,17.831,0,0,0-2.669-7.847l2.875-1.738" transform="translate(-57.157 -122.694)" fill="#e8e8e8"/><path d="M113.969,242.048c.951.24,1.8.424,2.621.685a.8.8,0,0,1,.449.58,22.543,22.543,0,0,0,1.922,7.238,19.879,19.879,0,0,1,1.142,5.237,55.379,55.379,0,0,1,.043,5.61v3.352c-.335,0-.847.012-1.357,0a1.564,1.564,0,0,1-1.735-1.74c-.017-2.227-.026-4.453,0-6.68a16.987,16.987,0,0,0-1.71-7.76,13.192,13.192,0,0,1-1.375-6.52" transform="translate(-86.017 -190.384)" fill="#b0b0b0"/><path d="M266.026,231.163c-3.688.644-8.413-2.281-9.4-5.795a.794.794,0,0,1,.229-.686c1.037-.759,2.09-1.5,3.173-2.189a2.965,2.965,0,0,1,4.614,2.111,20.225,20.225,0,0,0,1.385,6.559" transform="translate(-191.856 -175.51)" fill="#e37aa9"/><path d="M288.133,269.841c.409-.02.7-.032.986-.049,1.7-.1,1.709-.1,2.42,1.425a10.117,10.117,0,0,1,.518,7.611,19.089,19.089,0,0,0-.847,3.16,24.152,24.152,0,0,0-.032,3.245.281.281,0,0,1-.084.037c-2.938.263-3.667-.624-2.919-3.528a44.1,44.1,0,0,0,1.233-5.046,12.257,12.257,0,0,0-1.276-6.856" transform="translate(-215.072 -210.942)" fill="#afafaf"/><path d="M34.467,68.958a3.731,3.731,0,0,1-2.838.845c-.45-3.557,2.7-10.359,5.7-12.071v1.54a5.652,5.652,0,0,0-.51.668A18.607,18.607,0,0,0,34.836,66.4c-.125.852-.246,1.706-.369,2.558" transform="translate(-24.906 -53.638)" fill="#4b4b4b"/><path d="M23.762,141.91A2.421,2.421,0,0,1,21,141.452a29.492,29.492,0,0,1-2.186-2.181,3.057,3.057,0,0,1-.236-3.938,9.343,9.343,0,0,1,5.183,6.577" transform="translate(-14.811 -111.211)" fill="#4a4a4a"/><path d="M22.74,55.141,20.8,58.267a8.286,8.286,0,0,1-2.352-4.421l4.3,1.3" transform="translate(-15.157 -50.755)" fill="#acacac"/><path d="M42.749,73.384c.123-.853.243-1.706.369-2.558A18.607,18.607,0,0,1,45.1,64.366a5.651,5.651,0,0,1,.51-.668c-.2.991-.376,1.986-.6,2.972-.295,1.328-.7,2.637-.908,3.977a3.9,3.9,0,0,1-1.361,2.737" transform="translate(-33.189 -58.064)" fill="#646464"/><path d="M28.352,116.665l-1.145,2.942-1.733-.995c.191-1.513.333-1.669,1.728-1.85.381-.05.767-.066,1.15-.1" transform="translate(-20.372 -97.361)" fill="#dedede"/><path d="M119.055,154.989a9.991,9.991,0,0,1-8.713-4.11,8.956,8.956,0,0,0-4.8-3.061,5.016,5.016,0,0,1,1.306-9.865,18.952,18.952,0,0,1,13.3,5.3c1.129,1.058,2.2,2.174,3.295,3.273a4.77,4.77,0,0,1,1.236,5.48,4.831,4.831,0,0,1-4.756,2.985c-.29,0-.58,0-.871,0m-.178-3.1c.349,0,.608-.014.865,0a1.875,1.875,0,0,0,2.075-1.071c.413-.93-.043-1.6-.685-2.22-1.087-1.057-2.119-2.171-3.23-3.2a15.887,15.887,0,0,0-10.866-4.344,2.013,2.013,0,0,0-2.081,1.648,1.984,1.984,0,0,0,1.524,2.175,12.125,12.125,0,0,1,6.488,4.3,6.773,6.773,0,0,0,5.911,2.712" transform="translate(-77 -113.155)" fill="#030303"/><path d="M127.878,160.806a6.773,6.773,0,0,1-5.911-2.712,12.125,12.125,0,0,0-6.488-4.3,1.984,1.984,0,0,1-1.524-2.175,2.013,2.013,0,0,1,2.081-1.648,15.887,15.887,0,0,1,10.866,4.344c1.111,1.03,2.144,2.143,3.23,3.2.642.625,1.1,1.29.685,2.22a1.875,1.875,0,0,1-2.074,1.071c-.257-.017-.516,0-.865,0" transform="translate(-86.001 -122.072)" fill="#676767"/></g></g></svg>