<svg xmlns="http://www.w3.org/2000/svg" width="96.511" height="96.511" viewBox="0 0 96.511 96.511"><path d="M96.511,13.006v3.958a7.7,7.7,0,0,0-.325.924,14.844,14.844,0,0,1-24.108,8.288c-.161-.134-.337-.249-.49-.362-3.619,3.354-7.794,4.522-12.478,3.157a12.393,12.393,0,0,1-8.793-9.282l-3.6.179v5.961h5.548v2.825H49.53C49.072,40.847,50.811,52.838,51.424,65L71.439,59.29v5.554L90.877,59.3V93.684h5.635v2.827H0V93.684H5.754c.5-6.677,1-13.256,1.49-19.828H8.657l1.407.157c-.487,6.56-.97,13.057-1.459,19.644H25.331C24.269,79.5,23.213,65.407,22.156,51.307H11.776L10.287,71.1H8.855l-1.319-.145c.647-14.119,2.7-28.1,2.346-42.29H7.109V25.816H12.72c0-.732-.047-1.391.013-2.04.064-.7-.149-1-.864-1.251a6.7,6.7,0,0,1-4.684-5.508,6.712,6.712,0,0,1,2.8-6.845,19.837,19.837,0,0,1,2.782-1.451A9.927,9.927,0,0,1,19.555.489C20.071.318,20.593.163,21.112,0H49.387c.063.056.121.155.189.163a8.708,8.708,0,0,1,5.292,2.583A32.623,32.623,0,0,1,57.158,5.58a12.68,12.68,0,0,1,12.316.75c.2-.253.372-.474.548-.692A14.85,14.85,0,0,1,77.985.464L79.735,0h3.581a3.819,3.819,0,0,0,.566.178A14.547,14.547,0,0,1,90.959,3.3l-.694.986L89.2,5.468a11.88,11.88,0,0,0-10.685-2.21c-3.931,1.051-6.533,3.693-8.217,7.375-4.821-4.463-9.743-4.605-14.865-.57-.155-.573-.288-1.051-.413-1.531a7.109,7.109,0,0,0-7.387-5.7q-12.345,0-24.691,0a7.042,7.042,0,0,0-7.365,7.689c.014.361,0,.723,0,1.075-3.76.241-5.352,1.307-5.629,3.706a4.036,4.036,0,0,0,2.789,4.457V17.338h2.879v8.427h2.684V13.728h2.939v2.588c4.044-.96,5.709-3.59,5.682-7.459H39.539v2.718c-2.516.4-3.993,1.809-4.16,3.922A4.017,4.017,0,0,0,38.2,19.755V17.34H41.07v8.426h2.684v-11.2h2.9c0,.573.031,1.1-.009,1.626-.042.562.172.87.734.782,1.219-.193,2.441-.392,3.643-.671a10.745,10.745,0,0,0,1.695-.707,23.907,23.907,0,0,0,.382,3.181,23.682,23.682,0,0,0,1.15,2.931,3.115,3.115,0,0,0,.208.507,9.754,9.754,0,0,0,15.478,1.168c.528-.609,1.011-1.257,1.541-1.919.5.558.923,1.059,1.374,1.538a11.926,11.926,0,0,0,17.124.48,10.057,10.057,0,0,0,3.292-5.961c1.081-3.8-.029-7.151-2.2-10.233l1.16-1.034,1.13-.775c.693,1.277,1.458,2.465,2,3.748a36.448,36.448,0,0,1,1.157,3.786M40.922,37.1H46.6v-8.41H38.25V37.1Zm-25.448-8.41H12.8V37.1h8.351v-8.41Zm0,11.3H12.629L12,48.427h9.945c-.221-2.9-.432-5.662-.644-8.441Zm24.876,8.441h7.043c-.221-2.9-.432-5.662-.644-8.441H38.076l-.631,8.441ZM54.477,67.117l-2.792.747c.65,8.666,1.293,17.226,1.936,25.785h14.9V63.037L54.477,67.117m19.8,26.537h13.72V63.163a.686.686,0,0,0-.219-.025Q81,65.084,74.232,67.037c-.6.156-1.2.356-1.817.456-.777.126-1.029.479-1.025,1.3.037,7.959.022,15.918.022,23.877v.982Zm-37.327,0H50.777C49.716,79.5,48.659,65.407,47.6,51.307H37.22c-1.059,14.132-2.113,28.2-3.174,42.349ZM33.288,65.365c1.259-10.706,2.472-33.676,1.924-36.751H32.585V25.8h5.583c0-.769-.036-1.486.011-2.2.039-.6-.156-.846-.76-1.037A6.988,6.988,0,0,1,32.527,16a7.544,7.544,0,0,1,1.339-4.359c-1.419,0-2.692-.016-3.964.02a.691.691,0,0,0-.471.427,9.349,9.349,0,0,1-7.68,7c-.206.043-.514.324-.517.5-.036,2.059-.023,4.118-.023,6.265H26.8V28.7H24.078C23.634,41.026,25.393,53.144,26,65.365ZM26.27,68.278q.957,12.758,1.9,25.341h3.038c.634-8.473,1.263-16.884,1.9-25.341Z" fill="#030303"/><path d="M119.825,12.67l1.962,1.961-1.16,1.034c2.174,3.083,3.285,6.428,2.2,10.233a2.1,2.1,0,0,0-.5.362c-3.861,5.112-11.528,6.124-16.623,3.818a12,12,0,0,1-4.594-3.629,11.123,11.123,0,0,1-3.57,4.4,11,11,0,0,1-12.832-.392,3.994,3.994,0,0,0-.895-.367,23.666,23.666,0,0,1-1.15-2.931,23.947,23.947,0,0,1-.382-3.181,10.729,10.729,0,0,1-1.695.707c-1.2.28-2.423.479-3.643.671-.562.089-.776-.219-.734-.782.039-.524.008-1.053.008-1.626h-2.9V31.4H70.63V25.725H67.756V28.14a4.017,4.017,0,0,1-2.816-4.259c.166-2.113,1.644-3.522,4.159-3.922V17.241H56.488c.027,3.87-1.638,6.5-5.682,7.46V22.113H47.867V31.4H45.183V25.724H42.3v2.419a4.036,4.036,0,0,1-2.788-4.457c.276-2.4,1.868-3.465,5.628-3.705,0-.353.012-.715,0-1.075a7.042,7.042,0,0,1,7.365-7.689q12.346-.01,24.691,0a7.109,7.109,0,0,1,7.387,5.7c.125.48.258.959.413,1.531,5.122-4.036,10.045-3.894,14.865.569,1.684-3.682,4.286-6.324,8.218-7.375a11.879,11.879,0,0,1,10.685,2.21l1.06-1.183m-4.354,4.946c-1.554.017-1.466-.195-1.458,1.253.009,1.692-.22,1.579,1.225,1.573,1.753-.007,1.6.224,1.6-1.294,0-1.69.207-1.518-1.365-1.532" transform="translate(-29.56 -8.385)" fill="#dbdbdc"/><path d="M150.018,204.14h7.625c1.057,14.1,2.114,28.19,3.175,42.349H146.986c.005-.628-.024-1.258.021-1.883.235-3.24.491-6.478.736-9.717.136-1.807.256-3.616.4-5.422.236-2.989.5-5.975.723-8.964.154-2.026.259-4.055.4-6.081q.364-5.141.749-10.282" transform="translate(-110.041 -152.833)" fill="#df8da1"/><path d="M48.768,204.14h7.626c1.057,14.1,2.113,28.19,3.175,42.349H45.736c.005-.628-.024-1.258.021-1.883.235-3.24.491-6.478.736-9.717.136-1.807.256-3.616.4-5.422.236-2.989.5-5.975.723-8.964.154-2.026.259-4.055.4-6.081q.364-5.141.749-10.282" transform="translate(-34.238 -152.833)" fill="#df8da1"/><path d="M295.356,255.1q6.77-1.951,13.541-3.9a.691.691,0,0,1,.219.025v30.492H295.4q0-5.032-.01-10.064-.014-8.277-.031-16.553m8.2,23.763h2.718V260.467h-2.718Zm-5.656,0h2.719V260.466H297.9Z" transform="translate(-221.124 -188.061)" fill="#e4ebf4"/><path d="M216.754,254.892l14.049-4.081v30.613H218.647c-.013-.6,0-1.194-.042-1.787-.232-3.018-.488-6.034-.72-9.052-.148-1.93-.262-3.864-.4-5.795q-.358-4.95-.729-9.9m2.85,23.676h2.714V260.187H219.6Zm8.372-18.353h-2.721V278.6h2.721Z" transform="translate(-162.277 -187.774)" fill="#e1e8f1"/><path d="M104.523,271.666h6.835c-.633,8.457-1.262,16.869-1.9,25.341h-3.038q-.945-12.6-1.9-25.341" transform="translate(-78.253 -203.388)" fill="#aec2dd"/><path d="M40.161,204.14q-.376,5.141-.749,10.282c-.144,2.026-.249,4.056-.4,6.081-.227,2.989-.487,5.976-.723,8.964-.143,1.807-.262,3.615-.4,5.422-.245,3.239-.5,6.477-.736,9.717-.045.625-.016,1.255-.021,1.883H34.236c.489-6.586.972-13.083,1.459-19.644l-1.407-.157q.1-1.38.2-2.76h1.433l1.489-19.789Z" transform="translate(-25.631 -152.833)" fill="#cf5572"/><path d="M141.395,204.14q-.376,5.141-.749,10.282c-.144,2.026-.249,4.056-.4,6.081-.227,2.989-.487,5.976-.723,8.964-.143,1.807-.262,3.615-.4,5.422-.245,3.239-.5,6.477-.736,9.717-.045.625-.016,1.255-.021,1.883h-2.9c1.061-14.153,2.115-28.217,3.174-42.349Z" transform="translate(-101.418 -152.833)" fill="#cf5472"/><path d="M215.864,73.872a3.993,3.993,0,0,1,.895.367,11,11,0,0,0,12.832.392,11.123,11.123,0,0,0,3.57-4.4,12.008,12.008,0,0,0,4.594,3.629c5.1,2.305,12.762,1.294,16.623-3.818a2.109,2.109,0,0,1,.5-.362,10.057,10.057,0,0,1-3.292,5.961,11.925,11.925,0,0,1-17.124-.48c-.451-.478-.877-.98-1.374-1.537-.53.662-1.013,1.309-1.541,1.919a9.753,9.753,0,0,1-15.478-1.168,3.081,3.081,0,0,1-.208-.507" transform="translate(-161.611 -52.17)" fill="#99989b"/><path d="M286.889,266.728q.015,8.277.031,16.553.008,5.032.01,10.064h-2.861v-.982c0-7.959.015-15.918-.022-23.877,0-.824.248-1.176,1.025-1.3.614-.1,1.212-.3,1.817-.456" transform="translate(-212.657 -199.691)" fill="#b0c5df"/><path d="M208.437,267.048q.365,4.949.729,9.9c.14,1.931.254,3.864.4,5.8.231,3.018.488,6.034.72,9.052.046.593.03,1.191.042,1.787h-2.749c-.643-8.559-1.285-17.12-1.936-25.785l2.792-.747" transform="translate(-153.96 -199.931)" fill="#aec3dd"/><path d="M161.109,159.1h5.828c.212,2.779.423,5.546.644,8.441h-7.043q.286-4.22.571-8.441" transform="translate(-120.19 -119.11)" fill="#e3eaf3"/><path d="M59.859,159.1h5.828c.212,2.779.423,5.546.644,8.441H59.288q.286-4.22.571-8.441" transform="translate(-44.387 -119.11)" fill="#e3eaf3"/><path d="M61.572,114.145h5.68v8.41h-5.68q.021-1.426.043-2.853h2.853V117H61.615q-.022-1.426-.043-2.852" transform="translate(-46.097 -85.457)" fill="#db8b9e"/><path d="M162.822,114.145h5.68v8.41h-5.68q.021-1.426.043-2.853h2.853V117h-2.852q-.022-1.426-.043-2.852" transform="translate(-121.9 -85.457)" fill="#db8b9e"/><path d="M152.463,159.1q-.286,4.22-.571,8.441h-2.9l.631-8.441Z" transform="translate(-111.543 -119.11)" fill="#717f97"/><path d="M51.215,159.1q-.285,4.22-.571,8.441h-2.9l.63-8.441Z" transform="translate(-35.743 -119.11)" fill="#717f97"/><path d="M154.905,119.7q-.022,1.426-.043,2.853H152.19v-8.41h2.672q.022,1.426.043,2.852v2.7" transform="translate(-113.94 -85.457)" fill="#d05573"/><path d="M53.612,114.145q.022,1.426.043,2.852,0,1.352,0,2.7-.021,1.427-.043,2.853H50.94v-8.41Z" transform="translate(-38.137 -85.457)" fill="#d05573"/><path d="M163.409,91.553h2.684v2.755h-2.684Z" transform="translate(-122.339 -68.543)" fill="#99989c"/><path d="M62.159,91.553h2.684v2.755H62.159Z" transform="translate(-46.537 -68.543)" fill="#99989c"/><path d="M260.3,151.727a29.024,29.024,0,0,1-4.347-.9,8.793,8.793,0,0,1-5.436-10.277,8.907,8.907,0,0,1,17.566,1.25c.042.469.157.7.657.835a7.028,7.028,0,0,1,5.334,7.258,7.075,7.075,0,0,1-13.757,1.869c-.032-.083-.081-.16-.017-.036m-1.441-15.211a6.04,6.04,0,0,0-.189,12.05l4.014-.458c.024.411.059.936.085,1.462a4.244,4.244,0,1,0,4.092-4.326c-.617.005-1.233,0-1.8,0a27.741,27.741,0,0,0,.166-3.415,5.922,5.922,0,0,0-6.37-5.314" transform="translate(-187.381 -100.027)" fill="#040404"/><path d="M337.456,36.724c1.572.014,1.362-.158,1.365,1.532,0,1.518.156,1.287-1.6,1.294-1.445.006-1.216.118-1.225-1.573-.008-1.447-.1-1.235,1.458-1.253" transform="translate(-251.545 -27.493)" fill="#fdfdfd"/><rect width="2.718" height="18.394" transform="translate(82.429 72.406)"/><rect width="2.719" height="18.395" transform="translate(76.773 72.406)"/><rect width="2.714" height="18.381" transform="translate(57.327 72.412)" fill="#040404"/><rect width="2.721" height="18.388" transform="translate(62.979 72.44)" fill="#040404"/><path d="M61.744,128.2v-2.7H64.6v2.7Z" transform="translate(-46.226 -93.953)" fill="#fdfafb"/><path d="M162.994,128.2v-2.7h2.852v2.7Z" transform="translate(-122.029 -93.953)" fill="#fdfafb"/><path d="M275.7,145.065a5.922,5.922,0,0,1,6.37,5.314,27.74,27.74,0,0,1-.166,3.415c.565,0,1.181,0,1.8,0a4.242,4.242,0,0,1,4.394,4.1,4.244,4.244,0,1,1-8.485.231c-.026-.526-.061-1.051-.085-1.462l-4.014.458a7.307,7.307,0,0,1-.615-.791,14.692,14.692,0,0,1-1.824-3.307c-.844-3.15.212-5.809,2.627-7.952" transform="translate(-204.225 -108.576)" fill="#dbdbdc"/><path d="M267.331,145.185c-2.415,2.143-3.471,4.8-2.627,7.952a14.692,14.692,0,0,0,1.824,3.307,7.311,7.311,0,0,0,.615.791,6.04,6.04,0,0,1,.189-12.05" transform="translate(-195.857 -108.696)" fill="#98979b"/></svg>