<svg xmlns="http://www.w3.org/2000/svg" xmlns:xlink="http://www.w3.org/1999/xlink" width="525" height="300.882" viewBox="0 0 525 300.882"><defs><clipPath id="a"><rect width="190" height="133.007" fill="none"/></clipPath><clipPath id="c"><rect width="178.954" height="128.453" fill="none"/></clipPath><clipPath id="d"><rect width="5.184" height="2.993" fill="none"/></clipPath><clipPath id="e"><rect width="3.112" height="1.797" fill="none"/></clipPath><clipPath id="f"><rect width="3.446" height="1.99" fill="none"/></clipPath><clipPath id="g"><rect width="4.219" height="2.436" fill="none"/></clipPath><clipPath id="h"><rect width="5.695" height="3.288" fill="none"/></clipPath><clipPath id="i"><rect width="164.794" height="256.677" fill="none"/></clipPath><clipPath id="k"><rect width="66.732" height="38.528" fill="none"/></clipPath><clipPath id="l"><rect width="66.732" height="38.527" fill="none"/></clipPath></defs><g transform="translate(-810 -378)"><path d="M435.5-.033,0-.079V155.792l524.5.012s.5-34.885.5-77.918S508.678-.033,435.5-.033Z" transform="translate(810 523.078)" fill="#ff6d4b"/><g transform="translate(1000 534.437)"><g clip-path="url(#a)"><g transform="translate(0 0)"><g clip-path="url(#a)"><g transform="translate(0 2.579)" style="mix-blend-mode:multiply;isolation:isolate"><g clip-path="url(#c)"><path d="M175.391,69.539a8.384,8.384,0,0,1-1.875-.8,13.3,13.3,0,0,1-2.733-2.243,12.378,12.378,0,0,0-2.516-2.125,5.882,5.882,0,0,0-1.853-.69c1.836.047,1.35-4.751-1.974-6.671a6.271,6.271,0,0,0-4.083-.7c-1.75.034-2.856.067-3.482.09a31.948,31.948,0,0,0,3.6-.418c1.927-.357,3.389-.969.744-2.417-.937-2.841,3.111-1.687,3.289-4.158.668-2.873,5.448-6,2.386-9.139-1.789-3.622-8.39-4.482-8.567-8.35-.391-.227,2.755-1.086,2.03-2.114.12-1.611-.485-2.754-2.606-3.976,4.305-.533,1.727-1.867.753-3.263-.252-.144-.264-.567,1.142-1.792-.786-.452-1.69-.932-2.288-1.227a13.192,13.192,0,0,1-4.648-1.171,4.145,4.145,0,0,1-1.367-1.393,6.324,6.324,0,0,0-2.1-1.811,16.107,16.107,0,0,0-1.931-.926c-1.154-.747,2.87-1.272-1.208-3.6,1.3-.609,1.336-1.117.924-1.354a1.536,1.536,0,0,0-2.16.985,5.351,5.351,0,0,0-1.637-.5c-.57-.107-1.093-.186-1.222-.878a2.518,2.518,0,0,1-1.76.155c-.525-.3.424-1.2,1.861-.663,2.845.568,3.077-.825,1.927-1.489a3.163,3.163,0,0,0-2.5-.146c-2.288.172-6.222-2.049-8.25-2.1a2.675,2.675,0,0,0-1.747-.255c-1.9-.4-3.426,1.006-4.478,1.446-1.727-.534-5.427-.766-6.015.491.944-2.609.41-3.814-1.092-4.683l-2.35.121c1.51,1.747-2.774,6.066-4.487,7.008-1.047-.6-2.653,2.386-5.729,1.865-.309.278-.443.657.275,1.359-3.339.627-8.516-.646-9.412,1.239-3.142-1.42-5.187-.508-7.93.5-.89.224-4.871.258-4.238,1.791-2.063.067-1.972,1.2-1.106,1.7a1.836,1.836,0,0,0,1.339.182c-3.8.964-7.961.138-9.6,2.522C75.568,26.4,67.9,36.417,66.607,44.369c5.441,8.458,4.116,13.372-7.991,18.717C55.249,66.751,47.21,69.023,43.756,73c-5.6,3.063-8.631,8.14-16.567,10.266-.994.379-.864,1.059-2.122.3-1.331,1.135-1.84,3.157-2.5,4.664-4.6,1.859-4.7,3.7-6.955,5.043-1.171.7-1.972,2.007-1.326,2.379.317.183.983.141,2.125-.306.261-1.385,2.353-2.348,2.921-2.019.283.163.188.645-.694,1.555-1.562.919-3.92,3.765-4.715,3.305-.247-.141-.343-.6-.222-1.524-2.583.377-3.19,3.39-7.037,3.6-.64.318-.394.722.244,1.09a9.317,9.317,0,0,0,4,1.019c-.5.589-1.387,2.132-2.564,1.145-6.334-1.1-4.544,2.693-6.256,5.017-1.229.645-.677.912-.05,1.6-1.558.3-.913,1.446-.826,2.448.028.017-.214.138.252,1.1,0,.25.623,1.272-1.466.783.048.455.357,1.061,1.361,1.489a1.233,1.233,0,0,0,.545,1.876c.89,1.008-.075,2.143,2.651,3.88.1,1.395.693,1.516,1.438,2.1-.113,1.05,1.272,1.524,2.406,2.418a1.245,1.245,0,0,0,1.5.921,1.446,1.446,0,0,0,1.229,1.808c.134-.454-.5-1.41.323-.862.8.1,1.092.056,1.547.4,7.526,1.653,9.326,2.867,9.693-.643,1.666-2.039-11.94-13.262-6.049-11.662,18.662-4.835.9-3.734,8.986-8.329,5.573,2.685,4.593-2.375,8.935-1.514.784-.491-1.99-2.539.9-.989-.48.635-.429,1-.13,1.174a2.434,2.434,0,0,0,1.963-.238c.6-.334.9-.859-.276-1.514a3.15,3.15,0,0,1-1.373-.321c-.825-.477-.492-1.379.408-2.156.553-1,.876-1.246,1.138-1.093s.454.671.75,1.256a3.7,3.7,0,0,0,1.354,1.6c1.215.7,3.31.509,7.286-2.6a6.859,6.859,0,0,0,1.527,1.151c4.965,2.867,15.915,3.554,13.981-1.581,3.594-.121-.809-3.623,1.241-3.76a4.585,4.585,0,0,0,1.912,1.859,2.778,2.778,0,0,0,1.581,2.491c3.985,2.3,14.171.621,14.826-1.545,2.09-.631,5.02-.674,5.467-.415.28.162-.405.44-3.406,1.387.418.241,2.678-.171,3.394-.413,13.82-2.056,12.675-7.52,23.2-6.11,5.616,1.836,5.865-.047,12.65,3.872,8.847-1.291,18.592-4.035,26.021-9.182,7.147-5.119,29.07-.645,29.97-10.746-3.723-2.15-1.468-5.979-3.563-8.934" transform="translate(0 -1.661)" fill="#a79891"/></g></g><path d="M113.759,13.443c.18.1.155.326-.2.728a3.019,3.019,0,0,1-3.061.384,1.463,1.463,0,0,1-.685-.864c.669.267,3.37-.581,3.95-.248" transform="translate(60.737 7.392)" fill="#c3cd56"/><path d="M83.158.991a1.341,1.341,0,0,0-.317-.913l-.017,5.708a1.349,1.349,0,0,1,.318.915Z" transform="translate(45.811 0.043)" fill="#95825f"/><path d="M85.527,1.6a6.671,6.671,0,0,1-.471,2.2l-.016,5.709a6.711,6.711,0,0,0,.471-2.2Z" transform="translate(47.037 0.883)" fill="#95825f"/><path d="M99.318,10.266c1.823.363,2.574-.076,2.575-.615l.016-5.709c0,.539-.752.98-2.575.615-1.162-.433-2.005.07-2.007.44l-.016,5.709c0-.37.843-.873,2.007-.44" transform="translate(53.824 2.18)" fill="#95825f"/><path d="M102.179,11.172l-.012,3.99c0-.37.882-.752.884-1.415l.016-5.709c0,.489-.477.825-.728,1.115l.009-4.016c0,.264-.311.618-1.154,1.014l-.019,5.709a2.771,2.771,0,0,0,1-.688" transform="translate(55.961 2.841)" fill="#95825f"/><path d="M96.239,11.039A2.262,2.262,0,0,1,97.715,11a.323.323,0,0,1,.176.3l.016-5.708a.324.324,0,0,0-.174-.3,2.289,2.289,0,0,0-1.477.043,1.908,1.908,0,0,0-2,1.489l-.016,5.708a1.907,1.907,0,0,1,2-1.488" transform="translate(52.126 2.87)" fill="#95825f"/><path d="M76.627,6.981A1.366,1.366,0,0,1,76.1,6.1l-.016,5.709a1.369,1.369,0,0,0,.525.885Z" transform="translate(42.085 3.372)" fill="#95825f"/><path d="M62.023,16.462a1.854,1.854,0,0,0,1.34.182l.016-5.709a1.77,1.77,0,0,1-.239.009l.006-1.893a.826.826,0,0,1-.068-.315l-.006,2.212a1.85,1.85,0,0,1-1.033-.194,1.024,1.024,0,0,1-.578-.818l-.017,5.709a1.026,1.026,0,0,0,.579.818" transform="translate(33.985 4.831)" fill="#95825f"/><path d="M109.231,23.406l-.016,5.709c0-.25,2.17-.926,2.173-1.752l.016-5.708a.59.59,0,0,1-.1.306l0-.983c0,.118,0,.238-.014.36l0,.638a1.526,1.526,0,0,1-.3.321.494.494,0,0,0,.092-.276l0-1.193.02.017a3.019,3.019,0,0,0,3.061-.382,1.006,1.006,0,0,0,.314-.548l.016-5.709a.993.993,0,0,1-.312.55,3.024,3.024,0,0,1-3.063.381,1.475,1.475,0,0,1-.547-.6l.006-2.23c-.978.854-1.27,1.317-1.27,1.569l-.009,3.4c-.188.031-.391.062-.615.089l-.016,5.709a7.291,7.291,0,0,0,1.73-.377c-.57.328-1.171.579-1.171.711" transform="translate(60.108 6.808)" fill="#95825f"/><path d="M53.062,35.52c.006-2.331-1.078-4.942-3.058-8.022l-.016,5.709c1.98,3.08,3.064,5.689,3.058,8.022Z" transform="translate(27.649 15.209)" fill="#95825f"/><path d="M113.888,44.41l.011-3.651c.857-.345,1.76-.714,1.842-1.851.506-2.185,3.394-4.516,3.4-6.888l.017-5.709c-.008,2.373-2.893,4.7-3.4,6.888-.16,2.213-3.425,1.517-3.429,3.39l-.009,3.053c-.193.047-.385.092-.595.13a31.948,31.948,0,0,1-3.6.418l-.016,5.708a31.939,31.939,0,0,0,3.6-.416c1.176-.217,2.179-.531,2.181-1.072" transform="translate(59.796 14.552)" fill="#95825f"/><path d="M114.251,46.218c.693.017,1.055-.657,1.058-1.606l.016-5.709c0,.949-.363,1.623-1.058,1.606Z" transform="translate(63.194 21.518)" fill="#95825f"/><path d="M18.508,66.772c.259-1.385,2.351-2.348,2.92-2.019a.278.278,0,0,1,.143.258l.016-5.708a.281.281,0,0,0-.141-.259c-.57-.328-2.66.635-2.921,2.019-1.142.449-1.808.491-2.125.306a.448.448,0,0,1-.23-.421l-.017,5.708a.456.456,0,0,0,.23.422c.317.183.983.141,2.126-.306" transform="translate(8.934 32.622)" fill="#95825f"/><path d="M15.966,69.52a.4.4,0,0,1,.228.016.055.055,0,0,1,.033.053l.017-5.709a.06.06,0,0,0-.031-.051l.008-2.659a5.211,5.211,0,0,0-.053.683l-.006,1.971a.389.389,0,0,0-.18-.012c-.4-.008-.354.224-.488.457a.256.256,0,0,0-.057.123L15.419,70.1a.264.264,0,0,1,.059-.123c.132-.233.087-.466.488-.457" transform="translate(8.528 33.833)" fill="#95825f"/><path d="M14.456,70.527l.326.034,0-.938c.269-.308.612-.612.7-.562l0,0,.017-5.709,0,0c-.141-.081-1.027.811-1.027,1.07l0,.4a1.5,1.5,0,0,0-.071.273L14.383,70.8A1.4,1.4,0,0,1,14.456,70.527Z" transform="translate(7.955 35.038)" fill="#95825f"/><path d="M11.77,70.139a9.3,9.3,0,0,0,4,1.019l.017-5.709a9.3,9.3,0,0,1-4-1.019c-.377-.217-.618-.449-.617-.666l-.017,5.708c0,.219.239.449.618.668" transform="translate(6.168 35.268)" fill="#95825f"/><path d="M150.173,60.2c-7.429,5.145-17.174,7.891-26.021,9.182-6.786-3.919-7.034-2.036-12.65-3.872-10.507-1.409-9.389,4.033-23.134,6.1l0-.891c0-.026-.02-.05-.057-.071a12.624,12.624,0,0,0-5.467.415c-.655,2.167-10.841,3.847-14.826,1.545a2.776,2.776,0,0,1-1.581-2.491,4.585,4.585,0,0,1-1.912-1.859c-.422.03-.572.2-.572.455l-.009,3.224a3.355,3.355,0,0,1-.66.081l-.006,2.019c-1.43,2.828-9.8,1.971-13.976-.436a6.968,6.968,0,0,1-1.525-1.151c-3.976,3.106-6.071,3.3-7.286,2.6a3.722,3.722,0,0,1-1.354-1.6c-.3-.584-.494-1.109-.75-1.255s-.586.1-1.138,1.092A2.142,2.142,0,0,0,36.37,74.7l0,1.483c-.783-.405-1.056-.483-1.056-.362l0,1.444c-3.811-.418-3.119,4.156-8.48,1.572-1.69.96-2.25,1.671-2.252,2.24l-.012,4.057a61.729,61.729,0,0,1-6.723,2.035l-.016,5.709c7.067-1.833,8.91-2.813,8.915-3.572l.011-4.72c.023-.014.036-.025.059-.039,5.573,2.685,4.593-2.375,8.937-1.514a.294.294,0,0,0,.144-.266l0-1.1c.109.051.248.121.4.2l0,.972a.422.422,0,0,0,.227.387,2.44,2.44,0,0,0,1.963-.238c.3-.168.53-.385.53-.641l.009-3.409c.036.073.07.144.109.221a3.7,3.7,0,0,0,1.356,1.6c1.215.7,3.308.508,7.284-2.6a6.847,6.847,0,0,0,1.527,1.151c4.568,2.637,14.2,3.429,14.208-.455l0-1.154c.918-.082,1.238-.418,1.238-.871l.008-2.477a5.125,5.125,0,0,0,1.679,1.475A2.775,2.775,0,0,0,68,78.317c3.985,2.3,14.172.621,14.826-1.545a13.182,13.182,0,0,1,2.066-.416l0,1.388c.416.241,2.678-.171,3.394-.412,13.82-2.058,12.675-7.522,23.2-6.111,5.616,1.837,5.863-.047,12.65,3.873,8.847-1.291,18.591-4.037,26.021-9.182,7.146-5.121,29.07-.646,29.969-10.748l.017-5.708c-.9,10.1-22.825,5.625-29.97,10.746" transform="translate(9.857 27.355)" fill="#95825f"/><path d="M16.942,76.79l0,.86a4.162,4.162,0,0,1-.57,2.564v0c-.008.071-.011.141-.012.213l-.014,5.4c-.2-.028-.433-.048-.759-.087-.339-.225-.43-.2-.432-.053l0,.867c-.823-.273-1.067-.721-1.12-1.128l0-.632a1.246,1.246,0,0,1-1.507-.921l-.016,5.709a1.243,1.243,0,0,0,1.48.919l0,.408c0,.471.158,1.087,1.255,1.4a.51.51,0,0,0,.019-.149l0-.856a.809.809,0,0,1,.3.144c.8.095,1.093.054,1.548.4l.016-5.709a1.49,1.49,0,0,0-.732-.3,4.563,4.563,0,0,0,.528-2.614l0-.86c.014-2.01.276-3.785,3.828-2.82l.017-5.709c-3.631-.986-3.827.89-3.833,2.952" transform="translate(6.92 40.691)" fill="#95825f"/><path d="M13.113,83.995l0-.152c-.747-.586-1.342-.707-1.438-2.1C9.1,80.1,9.8,79,9.14,78.032l.016,0,.016-5.709-.017,0,.006-2.156c-.354-.388-.685-.643-.683-.907l-.012,4.151a2.788,2.788,0,0,1-.13-.381l0-.413,0,0c-.04-.474-.207-.98-.205-1.413l-.012,4.58a1.779,1.779,0,0,1-1-1.286L7.1,80.205a1.838,1.838,0,0,0,1.124,1.357l0,.865a1.3,1.3,0,0,0,.783,1.143c.89,1.01-.075,2.143,2.651,3.881.1,1.39.69,1.514,1.432,2.1v.12c0,.971,1.32,1.441,2.412,2.3l.016-5.708c-1.076-.851-2.373-1.322-2.406-2.266M8.663,77.61l.006-2.232c.092.1.207.222.329.348L8.992,77.84a1.89,1.89,0,0,1-.329-.23" transform="translate(3.928 38.31)" fill="#95825f"/><path d="M18.561,87.466l.016-5.709c0,.382-.791.41-3.086-.093l-.016,5.709c2.294.5,3.084.475,3.086.093" transform="translate(8.559 45.169)" fill="#95825f"/><path d="M29.68,56.636c-4.6,1.859-4.7,3.7-6.953,5.043-1.173.7-1.972,2.008-1.328,2.379.317.185.983.143,2.126-.306.259-1.384,2.351-2.348,2.92-2.019.283.163.189.646-.694,1.555-1.561.921-3.919,3.766-4.715,3.305-.245-.141-.343-.6-.222-1.524-2.583.379-3.19,3.39-7.036,3.6-.641.318-.394.722.242,1.09a9.3,9.3,0,0,0,4,1.019c-.5.589-1.388,2.132-2.564,1.145-6.335-1.1-4.546,2.693-6.256,5.017-1.23.646-.679.912-.051,1.6-1.558.3-.912,1.446-.826,2.446.03.017-.214.138.253,1.1,0,.252.623,1.272-1.466.784.047.454.357,1.059,1.359,1.488a1.233,1.233,0,0,0,.547,1.876c.888,1.01-.076,2.143,2.651,3.881.1,1.393.691,1.514,1.438,2.1-.113,1.05,1.27,1.522,2.4,2.418a1.249,1.249,0,0,0,1.507.921,1.443,1.443,0,0,0,1.229,1.806c.134-.454-.5-1.41.321-.86.8.095,1.093.054,1.547.4,7.526,1.651-1.128-2.418-.761-5.93,1.668-2.039-1.486-7.977,4.406-6.376,18.662-4.836.9-3.735,8.985-8.331,5.573,2.685,4.593-2.375,8.937-1.514.784-.491-1.991-2.538.9-.989-.48.635-.429,1-.13,1.176a2.441,2.441,0,0,0,1.963-.238c.6-.335.9-.859-.275-1.514a3.132,3.132,0,0,1-1.375-.323c-.823-.475-.492-1.378.408-2.156.553-1,.876-1.244,1.14-1.093s.452.673.749,1.256a3.7,3.7,0,0,0,1.356,1.6c1.215.7,3.308.508,7.284-2.6a6.847,6.847,0,0,0,1.527,1.151A19.727,19.727,0,0,0,63.8,73.227L30.7,54.118c-.387.85-.686,1.75-1.023,2.518" transform="translate(3.934 29.933)" fill="#fed369"/><path d="M57.326,43.017c-3.367,3.665-11.406,5.938-14.86,9.914-5.6,3.063-8.631,8.14-16.565,10.266-.994.379-.865,1.061-2.123.3A6.015,6.015,0,0,0,22.3,65.644L55.4,84.754c3.611.1,6.475-.954,5.408-3.788,3.594-.12-.808-3.622,1.241-3.76a4.6,4.6,0,0,0,1.912,1.859,2.779,2.779,0,0,0,1.581,2.491c3.985,2.3,14.172.621,14.826-1.545,2.09-.631,5.02-.674,5.467-.415.28.162-.405.441-3.4,1.388.416.241,2.676-.172,3.394-.415,13.82-2.056,12.673-7.52,23.2-6.11,5.614,1.837,5.863-.047,12.649,3.873a75.19,75.19,0,0,0,17-4.417L68.285,33.279c-.506,3.628-3.875,6.612-10.959,9.738" transform="translate(12.336 18.407)" fill="#a6de00"/><path d="M138.248,38.612c-1.788-3.623-8.39-4.484-8.567-8.351-.391-.225,2.755-1.086,2.031-2.112.118-1.612-.485-2.755-2.608-3.976,4.305-.534,1.727-1.868.753-3.263-.252-.146-.264-.567,1.142-1.792-.784-.454-1.69-.932-2.288-1.227a13.17,13.17,0,0,1-4.647-1.171,4.179,4.179,0,0,1-1.368-1.393,6.308,6.308,0,0,0-2.1-1.811,15.873,15.873,0,0,0-1.931-.926c-1.154-.747,2.87-1.272-1.208-3.6,1.3-.609,1.337-1.117.924-1.356a1.536,1.536,0,0,0-2.159.986,5.378,5.378,0,0,0-1.637-.5c-.572-.107-1.095-.188-1.224-.879a2.509,2.509,0,0,1-1.76.155c-.525-.3.424-1.2,1.861-.663,2.847.568,3.078-.825,1.927-1.488a3.164,3.164,0,0,0-2.5-.146c-2.288.171-6.222-2.049-8.25-2.1a2.676,2.676,0,0,0-1.747-.253c-1.9-.4-3.426,1.006-4.478,1.444-1.727-.533-5.427-.766-6.014.491C93.347,2.073,92.813.867,91.311,0l-2.35.121c1.511,1.746-2.774,6.066-4.485,7.008-1.048-.606-2.654,2.384-5.731,1.864-.309.278-.443.657.275,1.361-2.209.415-5.214,0-7.261.217l64.148,37.037c.787-2.834,5.354-5.906,2.341-9" transform="translate(39.691 0)" fill="#a6de00"/><path d="M158.783,64.114a8.313,8.313,0,0,1-1.875-.8,13.3,13.3,0,0,1-2.733-2.243,12.378,12.378,0,0,0-2.516-2.125,5.843,5.843,0,0,0-1.853-.688c1.836.045,1.35-4.753-1.974-6.672a6.271,6.271,0,0,0-4.083-.7c-1.75.034-2.856.067-3.482.09a32.305,32.305,0,0,0,3.6-.416c1.927-.357,3.389-.971.744-2.418-.937-2.841,3.111-1.687,3.289-4.156.011-.048.033-.1.045-.144L83.8,6.807c-1.047.11-1.847.382-2.151,1.02-3.142-1.42-5.187-.508-7.93.5-.89.224-4.871.259-4.238,1.791-2.063.067-1.972,1.2-1.106,1.7A1.836,1.836,0,0,0,69.709,12c-3.8.964-7.961.138-9.6,2.522C58.959,20.976,51.29,30.992,50,38.944c2.258,3.51,3.328,6.405,2.968,8.979l70.385,40.636a45.917,45.917,0,0,0,9.024-4.763c7.147-5.121,29.07-.646,29.97-10.748-3.723-2.15-1.468-5.979-3.563-8.933" transform="translate(27.655 3.765)" fill="#fed369"/><path d="M14.453,64.465c.637-.25.441-.878,1.019-1.11l0,0c-.151-.087-1.148.935-1.014,1.114" transform="translate(7.988 35.038)" fill="#c3cd56"/><path d="M15.975,62.872c-.4-.009-.356.224-.488.457-.064.09-.071.138-.042.154.065.037.312-.081.517-.224.185-.144.345-.312.242-.371a.411.411,0,0,0-.23-.016" transform="translate(8.534 34.772)" fill="#c3cd56"/><path d="M14.4,64.6c.033.019.152-.1.39-.266l-.326-.036c-.062.2-.087.287-.064.3" transform="translate(7.961 35.562)" fill="#c3cd56"/><path d="M31.973,34.382c-3.5-2.019-6.329-.822-6.329,2.674s6.329,24.9,6.329,24.9S38.3,47.862,38.3,44.366s-2.834-7.966-6.33-9.983m0,9.878a6.872,6.872,0,0,1-3.314-5.228c0-1.831,1.483-2.459,3.314-1.4a6.87,6.87,0,0,1,3.314,5.228c0,1.831-1.483,2.457-3.314,1.4" transform="translate(14.184 18.475)" fill="#f66f0d"/><path d="M33.892,42.764l.025-.039A1.656,1.656,0,0,0,34,42.57l0-.008a1.933,1.933,0,0,0,.14-.394,3.91,3.91,0,0,1-1.132-.452A6.877,6.877,0,0,1,29.7,36.488a2.724,2.724,0,0,1,.073-.631,2.5,2.5,0,0,0-.454-.053l0-.008c-1.034-.037-1.736.652-1.736,1.912A6.87,6.87,0,0,0,30.9,42.936c1.163.672,2.184.66,2.774.095l0,0a1.218,1.218,0,0,0,.084-.095.532.532,0,0,0,.04-.043c.033-.04.061-.084.09-.127" transform="translate(15.258 19.799)" fill="#cf5b18"/><path d="M39.868,43.579c0-3.5-2.834-7.966-6.33-9.983-1.91-1.1-3.622-1.244-4.784-.575l0,0-.586.337-1.53.884,0,0c1.16-.669,2.873-.53,4.784.575,3.5,2.017,6.329,6.487,6.329,9.983s-6.329,17.589-6.329,17.589l1.53-.884.584-.337s6.33-14.093,6.33-17.589" transform="translate(14.733 18.04)" fill="#cf5b18"/><g transform="translate(43.564 83.854)" style="mix-blend-mode:multiply;isolation:isolate"><g clip-path="url(#d)"><path d="M32.475,54.429a1.117,1.117,0,0,1,0,2.117,4.053,4.053,0,0,1-3.665,0,1.117,1.117,0,0,1,0-2.117,4.053,4.053,0,0,1,3.665,0" transform="translate(-28.05 -53.991)" fill="#a79891"/></g></g><path d="M13.412,62.744c-2.1-1.211-3.8-.494-3.8,1.6s3.8,14.944,3.8,14.944,3.8-8.458,3.8-10.557a7.875,7.875,0,0,0-3.8-5.992m0,5.928a4.127,4.127,0,0,1-1.99-3.137c0-1.1.891-1.475,1.99-.842a4.129,4.129,0,0,1,1.99,3.139c0,1.1-.891,1.474-1.99.84" transform="translate(5.317 34.378)" fill="#f66f0d"/><path d="M14.563,67.774l.016-.023a.885.885,0,0,0,.05-.093l0,0a1.141,1.141,0,0,0,.084-.236,2.329,2.329,0,0,1-.679-.272,4.125,4.125,0,0,1-1.99-3.137,1.587,1.587,0,0,1,.043-.379,1.56,1.56,0,0,0-.272-.033l0,0c-.621-.022-1.044.393-1.044,1.148a4.129,4.129,0,0,0,1.99,3.139c.7.4,1.311.4,1.666.056h0c.019-.017.034-.039.051-.057l.023-.026a.673.673,0,0,0,.054-.076" transform="translate(5.961 35.173)" fill="#cf5b18"/><path d="M18.15,68.263a7.878,7.878,0,0,0-3.8-5.992,2.912,2.912,0,0,0-2.872-.345l0,0-.351.2-.918.53h0A2.917,2.917,0,0,1,13.082,63,7.875,7.875,0,0,1,16.881,69c0,2.1-3.8,10.557-3.8,10.557l.918-.53.351-.2s3.8-8.458,3.8-10.557" transform="translate(5.647 34.118)" fill="#cf5b18"/><g transform="translate(17.172 115.725)" style="mix-blend-mode:multiply;isolation:isolate"><g clip-path="url(#e)"><path d="M13.713,74.775a.671.671,0,0,1,0,1.27,2.431,2.431,0,0,1-2.2,0,.671.671,0,0,1,0-1.27,2.431,2.431,0,0,1,2.2,0" transform="translate(-11.057 -74.512)" fill="#a79891"/></g></g><path d="M64.857,37.735c-2.323-1.342-4.207-.545-4.207,1.778s4.207,16.55,4.207,16.55,4.207-9.368,4.207-11.692-1.884-5.295-4.207-6.636m0,6.567a4.567,4.567,0,0,1-2.2-3.476c0-1.216.986-1.634,2.2-.93a4.571,4.571,0,0,1,2.2,3.474c0,1.218-.988,1.634-2.2.932" transform="translate(33.546 20.511)" fill="#f66f0d"/><path d="M66.133,43.307l.017-.026a1.078,1.078,0,0,0,.056-.1l0,0h0a1.218,1.218,0,0,0,.093-.262,2.577,2.577,0,0,1-.752-.3,4.569,4.569,0,0,1-2.2-3.474,1.843,1.843,0,0,1,.047-.419,1.729,1.729,0,0,0-.3-.036l0,0c-.688-.025-1.156.433-1.156,1.27a4.571,4.571,0,0,0,2.2,3.476c.773.446,1.452.438,1.845.062h0c.02-.02.037-.042.056-.064a.239.239,0,0,0,.026-.03.823.823,0,0,0,.061-.084" transform="translate(34.26 21.391)" fill="#cf5b18"/><path d="M70.105,43.849c0-2.323-1.884-5.295-4.207-6.636a3.232,3.232,0,0,0-3.181-.382l0,0-.388.225-1.017.587h0a3.232,3.232,0,0,1,3.181.382c2.323,1.342,4.207,4.313,4.207,6.638s-4.207,11.692-4.207,11.692l1.017-.587.388-.225s4.207-9.368,4.207-11.692" transform="translate(33.911 20.223)" fill="#cf5b18"/><g transform="translate(96.68 78.852)" style="mix-blend-mode:multiply;isolation:isolate"><g clip-path="url(#f)"><path d="M65.192,51.062a.743.743,0,0,1,0,1.407,2.7,2.7,0,0,1-2.437,0,.742.742,0,0,1,0-1.407,2.7,2.7,0,0,1,2.437,0" transform="translate(-62.25 -50.77)" fill="#a79891"/></g></g><path d="M60.57,12.132c-2.845-1.642-5.15-.668-5.15,2.177s5.15,20.26,5.15,20.26S65.72,23.1,65.72,20.256s-2.3-6.481-5.15-8.124m0,8.039a5.6,5.6,0,0,1-2.7-4.254c0-1.489,1.208-2,2.7-1.14a5.6,5.6,0,0,1,2.7,4.254c0,1.489-1.208,2-2.7,1.14" transform="translate(30.653 6.269)" fill="#f66f0d"/><path d="M62.132,18.953l.02-.033a1.082,1.082,0,0,0,.068-.126l0,0a1.671,1.671,0,0,0,.115-.321,3.219,3.219,0,0,1-.921-.368,5.6,5.6,0,0,1-2.7-4.254,2.171,2.171,0,0,1,.059-.513,2.1,2.1,0,0,0-.368-.045l0-.006c-.842-.03-1.413.531-1.413,1.556a5.593,5.593,0,0,0,2.7,4.254c.946.548,1.777.537,2.258.078l0,0c.025-.023.045-.051.068-.076s.022-.023.033-.037c.025-.031.05-.067.073-.1" transform="translate(31.527 7.346)" fill="#cf5b18"/><path d="M66.994,19.616c0-2.845-2.306-6.483-5.15-8.124-1.556-.9-2.949-1.013-3.894-.467l0,0-.477.275-1.244.719,0,0c.944-.545,2.337-.43,3.894.467,2.844,1.642,5.15,5.279,5.15,8.124s-5.15,14.312-5.15,14.312l1.244-.718.477-.275s5.15-11.468,5.15-14.313" transform="translate(31.1 5.915)" fill="#cf5b18"/><g transform="translate(89.114 43.625)" style="mix-blend-mode:multiply;isolation:isolate"><g clip-path="url(#g)"><path d="M60.978,28.446a.909.909,0,0,1,0,1.722,3.3,3.3,0,0,1-2.984,0,.909.909,0,0,1,0-1.722,3.3,3.3,0,0,1,2.984,0" transform="translate(-57.378 -28.088)" fill="#a79891"/></g></g><path d="M92.584,30.122c-3.841-2.216-6.953-.9-6.953,2.938s6.953,27.35,6.953,27.35S99.538,44.93,99.538,41.09s-3.114-8.75-6.953-10.968m0,10.852a7.551,7.551,0,0,1-3.641-5.743c0-2.011,1.629-2.7,3.641-1.539a7.551,7.551,0,0,1,3.641,5.743c0,2.011-1.629,2.7-3.641,1.539" transform="translate(47.364 16.065)" fill="#f66f0d"/><path d="M94.692,39.33l.028-.043c.033-.053.064-.11.093-.171l0-.006a2.205,2.205,0,0,0,.154-.435,4.289,4.289,0,0,1-1.242-.5,7.553,7.553,0,0,1-3.642-5.743,2.988,2.988,0,0,1,.079-.693,2.845,2.845,0,0,0-.5-.059l0-.008c-1.135-.04-1.907.718-1.907,2.1A7.548,7.548,0,0,0,91.4,39.52c1.278.738,2.4.725,3.049.1l0,0c.033-.033.061-.07.092-.1.014-.016.03-.031.043-.048.036-.045.068-.092.1-.14" transform="translate(48.543 17.52)" fill="#cf5b18"/><path d="M101.257,40.226c0-3.841-3.112-8.75-6.953-10.967-2.1-1.213-3.981-1.367-5.254-.632l0,0L88.4,29l-1.68.971,0,0c1.275-.736,3.156-.581,5.254.631,3.841,2.218,6.953,7.127,6.953,10.968S91.98,60.888,91.98,60.888l1.68-.969.643-.371s6.953-15.481,6.953-19.322" transform="translate(47.968 15.588)" fill="#cf5b18"/><g transform="translate(137.1 80.238)" style="mix-blend-mode:multiply;isolation:isolate"><g clip-path="url(#h)"><path d="M93.137,52.144a1.228,1.228,0,0,1,0,2.325,4.455,4.455,0,0,1-4.027,0,1.227,1.227,0,0,1,0-2.325,4.455,4.455,0,0,1,4.027,0" transform="translate(-88.275 -51.663)" fill="#a79891"/></g></g></g></g></g></g><g transform="translate(1020 378)"><g clip-path="url(#i)"><g clip-path="url(#i)"><g transform="translate(0 218.149)" style="mix-blend-mode:multiply;isolation:isolate"><g clip-path="url(#k)"><path d="M56.959,107.16c13.031,7.523,13.031,19.72,0,27.244s-34.157,7.521-47.185,0-13.031-19.72,0-27.244,34.155-7.523,47.185,0" transform="translate(0 -101.517)" fill="#a79891"/></g></g><g transform="translate(98.062 184.258)" style="mix-blend-mode:multiply;isolation:isolate"><g clip-path="url(#l)"><path d="M102.593,91.388c13.031,7.523,13.031,19.72,0,27.244s-34.157,7.521-47.185,0-13.031-19.72,0-27.244,34.155-7.523,47.185,0" transform="translate(-45.634 -85.746)" fill="#a79891"/></g></g><path d="M43.931,56.845a41.043,41.043,0,0,0-3.069,6.947l.576,1.092A3.575,3.575,0,0,0,46.009,66.5l2.585-1.111c.548-2.4.329-3.988,1.044-5.935a14.921,14.921,0,0,1,1.532-2.974l-3.939-4.7Z" transform="translate(46.946 59.485)" fill="#ffc1a5"/><path d="M79.233,36.2s-1.758-8.705-4.283-6.616C70.163,33.549,58.9,58.272,58.9,58.272S50.963,67.19,47.958,71.827L42.511,80.59s4.706.2,5.952,3.32l10.349-9.425a31.859,31.859,0,0,0,7.809-9.9l5.836-12.072Z" transform="translate(48.841 33.619)" fill="#10242b"/><path d="M45.8,53.189c-1.072.894-3.357,1.749-3.838,2.579a11.725,11.725,0,0,0-1.186,4.01c.06.765.857,1.268,1.4.941.249-.15,1.038-2.632,1.762-3.915Z" transform="translate(46.847 61.109)" fill="#ffc1a5"/><path d="M62.86,86.191a8.073,8.073,0,0,1-.271-1.521c-.064-1.9-5.976-2.338-6.578.735a3.766,3.766,0,0,1-.5,1.885c1.8,1.07,4.405,1.539,7.354-1.1" transform="translate(63.771 95.552)" fill="#020202"/><path d="M62.383,85.673a4.514,4.514,0,0,1-1.231,1.42c-6.479,4.975-7.742,4.994-9.266,5.824-3.683,2.009-2.669,6.853.335,6.586s6.552-.9,8.546-2.372a33.314,33.314,0,0,1,7.2-3.225c1.2-.333,3.206-1.47,3.238-3.339.026-1.455-.978-4.018-1.466-5.991-2.948,2.637-5.551,2.166-7.354,1.1" transform="translate(56.894 97.168)" fill="#020202"/><path d="M57.035,51.891,56.3,58.38S51.858,71.469,55.331,90.7l1.887,33.781s4.459,2.258,7.6,0c0,0,5.415-15.178,5.411-18.334s-.634-10.1-.634-10.1l2.37-42.239S63.08,42.93,57.035,51.891" transform="translate(62.046 55.55)" fill="#1c3b47"/><path d="M71.464,52.285s-8.26-5.074-12.7-1.072C55.745,53.927,56.8,65.544,54.438,67.5c1.577,1.163,3.612,2.731,5.407,4.13a13.468,13.468,0,0,1,5.033,8.632l2.291,15.375s.63,6.947.634,10.1c.006,2.895-4.545,15.887-5.293,18.008a5.11,5.11,0,0,0,1.809-.786s5.415-15.178,5.409-18.332-.634-10.1-.634-10.1Z" transform="translate(62.543 57.072)" fill="#10242b"/><path d="M77.969,95.857a7.237,7.237,0,0,1-.948-2.291c-.213-1.9-6.032-2.761-6.7,0,0,0-.245,1.315-.739,2.983,1.418,1.322,4.328,2.88,8.391-.692" transform="translate(79.938 105.471)" fill="#020202"/><path d="M82.888,93.689c-4.064,3.571-6.973,2.013-8.391.692a19.947,19.947,0,0,1-1.986,4.732c-1.852,2.955-5.172,5.89-6.9,8.963-1.674,2.974,3.565,7.218,10.489,2.044,2.011-1.5,8.207-8.888,8.765-10.856.434-1.528-.963-3.722-1.977-5.574" transform="translate(75.019 107.639)" fill="#020202"/><path d="M81.073,57.31s1.973,12.139,2.271,16.753.533,29.794.533,29.794,6.511,11.877,7.012,15.723-1.668,24.661-1.668,24.661-4.274,2.525-8.215-.282L76.8,115.85s-7.246-5.983-13.824-35.968A170.238,170.238,0,0,1,59.5,53.971S71.59,40.48,81.073,57.31" transform="translate(68.361 56.128)" fill="#1c3b47"/><path d="M88.139,119.576c-.5-3.847-7.012-15.721-7.012-15.721s-.236-25.179-.535-29.794-2.269-16.755-2.269-16.755c-3.973-7.051-8.4-8.772-12.21-8.4,3.329.342-.978,18.064-4.218,23.253,0,0,14.965,3.516,15.261,8.131S79.2,103.855,79.2,103.855s6.511,11.875,7.014,15.721-1.67,24.663-1.67,24.663a8.873,8.873,0,0,1-3.084.976,8.733,8.733,0,0,0,5.009-.976s2.168-20.818,1.668-24.663" transform="translate(71.111 56.133)" fill="#10242b"/><path d="M79.88,32.368,89.5,39.829s2.4,14.978.836,18.786-6.279,13.832-4.175,22.239c0,0-21.938,7.9-30.353-4.887V54.606a17.125,17.125,0,0,1-.6-6.911c.5-3.606,3.105-12.923,4.807-15.328s6.812-4.006,6.812-4.006Z" transform="translate(63.275 32.585)" fill="#fffffd"/><path d="M68.9,28.362a9.807,9.807,0,0,0-7.513,4.006C59.715,34.791,57.082,44.09,56.582,47.7S54.4,69.9,54.4,69.9l-1.13,19.972s1.7,3.365,8.892,3.367L67.1,46.95Z" transform="translate(61.197 32.585)" fill="#1c3b47"/><path d="M64.748,28.552l-2.869.127L58.613,39.124l1.051,4.306-1.625,3.176,2.723,7.5,2.282-16.327Z" transform="translate(66.68 32.803)" fill="#10242b"/><path d="M61.449,33.921s-1.857,5.785-.7,9.141,5.284,2.92,7.164.4S73.8,34.3,73.8,34.3l-2.1-7.611Z" transform="translate(69.356 30.657)" fill="#f9b194"/><path d="M74.774,37.377A21.88,21.88,0,0,1,76.9,34.1a10.743,10.743,0,0,0,1.839-6.206c-.047-2.1-.441-4.48-1.835-5.471-2.755-1.953-13.6-7.96-18.747,6.013,0,0,.213,12.771,1.315,15.274s3.574,2.054,5.342,1.6A22.021,22.021,0,0,0,70.807,42.6Z" transform="translate(66.819 22.349)" fill="#f9b194"/><path d="M57.843,27.957a2.739,2.739,0,0,0,1.18,2.284,14.367,14.367,0,0,0,7.061,2.652c3.909.344,6.5,2.882,5.944,6.679A3.8,3.8,0,0,0,74.6,37.1c.713-2.065,2.826.08,3.561-1.67s2.39-9.094.881-11.353-3.776-5.392-7.063-5.467-8.563.524-10.566,2.862c-1.648,1.921-3.49,4.175-3.567,6.483" transform="translate(66.454 21.375)" fill="#020202"/><path d="M64.919,30.229s.842-1.255,2.495-3.5c0,0,1.96-1.73,2.759,0s-1.932,4.36-3.277,4.315Z" transform="translate(74.585 29.82)" fill="#f9b194"/><path d="M72.044,30.226l13.942,8.666.5,3.782c.288,2.869-1.38,14.29-2.968,25.684-1.345,9.651-2.63,19.284-2.62,23.677,0,0-7.88,3.47-19,1.53L62.161,54,65.8,42.346Z" transform="translate(71.111 34.726)" fill="#1c3b47"/><path d="M65.451,35.1l2.508-4.869,2.08,1.444Z" transform="translate(75.197 34.727)" fill="#10242b"/><path d="M65.451,35.1l2.508-4.869,2.08,1.444Z" transform="translate(75.197 34.727)" fill="#1c3b47"/><path d="M74.456,34.035l-4.575,9.189-2.832,2.11.434,3.746L62.02,55.832l1.732-11.29,7.205-15.906Z" transform="translate(71.255 32.899)" fill="#10242b"/><path d="M67.23,55.914l-2.809-.808s-2.916-1.4-3.481-3.516c-.378-1.412-.38-4.165-.774-4.24-.9-.174-1.416.759-1.358,1.923a17.73,17.73,0,0,1-.885,3.978l-.967.337c-1.085.41-2.652.082-3.554.477-.417.181-1.738.733-1.476,3.889.071.834,1.794,4.586,3.481,5.422a3.725,3.725,0,0,0,3.363-.215l7.824-2.422L67.735,58.6Z" transform="translate(59.617 54.376)" fill="#f9b194"/><path d="M92.59,36.773a3.666,3.666,0,0,0-.718-1.012c-3.316-3.5-9.257-1.764-10.607,2.86l-2.471,10.2c-.423,3.056-2.149,15.734-2.149,15.734L58.038,69.836A7.822,7.822,0,0,1,58,77.252L81.265,73.49a5.4,5.4,0,0,0,4.6-4.373c1.171-6.376,6.4-21.975,6.849-24.62.612-3.608,1.021-5.091-.122-7.723" transform="translate(66.632 38.958)" fill="#244c5c"/><path d="M80.15,70.962a5.4,5.4,0,0,0,4.6-4.373c1.171-6.378,6.4-21.975,6.849-24.622.58-3.4.958-4.925.041-7.3.077.073.161.135.234.215A3.591,3.591,0,0,1,92.59,35.9c1.143,2.632.737,4.115.122,7.723-.451,2.645-5.677,18.244-6.849,24.62a5.4,5.4,0,0,1-4.6,4.373L58,76.377a6.9,6.9,0,0,0,.739-1.953Z" transform="translate(66.632 39.833)" fill="#10242b"/><path d="M6.666,69l-.221,3.043L5.329,80.232s.191,5.233.232,6.311,1.019,1.708,1.412-.052c0,0,.423,2.518,1.418,2.441s1.689-1.6,1.842-3.1a3.746,3.746,0,0,0,1.122-2.243c.2-1.463.963-5.523,1.949-6.973l1.122-.041a34,34,0,0,0,1.414,3.649c.307.445,1.691,1.7,2.276.643.421-.763-1.734-5.359-1.891-6.228s-2.463-4.857-4.41-5.826S6.666,69,6.666,69" transform="translate(6.122 78.616)" fill="#f9b194"/><path d="M16.987,49.526A4.367,4.367,0,0,0,10.1,48.2c-2.6,2.037-7.73,19.082-8.673,22.811A18.2,18.2,0,0,0,.87,75.143l9.7,19.353s5.331,2.57,7.994-1.352l-7.27-21.9,8.024-13.312a18.638,18.638,0,0,0-2.336-8.409" transform="translate(1 54.061)" fill="#10242b"/><path d="M5.962,107.275s-.832,7.852-.333,9.472,2.785,2.325,5.4,1.745c1.281-.286,3.571-2.056,7.145-2.785a28.943,28.943,0,0,0,8.361-3.335c2.553-1.683,1.951-6.23-.2-6.932-2.082-.679-3.593.838-10.115.34l-3.739-.589Z" transform="translate(6.284 120.853)" fill="#020202"/><path d="M25.254,77.979,20.108,116.3l-2.88,28.144a9,9,0,0,1-4.053,2.2,9.105,9.105,0,0,1-6.8-.817s-2.192-13.658-2.037-18.3,2.577-12.01,2.577-12.01l-1.5-37.679s6.084-11.877,19.843.133" transform="translate(4.976 83.418)" fill="#1c3b47"/><path d="M4.834,77.847l.15,1.878a15.1,15.1,0,0,0,1.18,1.362l3.993,4.324c4.175,4.5,8.338,9.294,7.581,14.924l-2.1,15.616-3.069,30.706a9.026,9.026,0,0,0,4.079-2.209l3.576-28.961,4.45-37.509C10.918,65.97,4.834,77.847,4.834,77.847" transform="translate(5.554 83.417)" fill="#10242b"/><path d="M17.661,110s-.832,7.852-.333,9.472,2.785,2.325,5.4,1.745c1.283-.286,3.574-2.056,7.145-2.785a28.888,28.888,0,0,0,8.361-3.335c2.555-1.683,1.951-6.23-.2-6.932-2.082-.681-3.593.838-10.115.34l-3.739-.589Z" transform="translate(19.725 123.982)" fill="#020202"/><path d="M35.278,78.874l-1.663,38.633L33.29,145.8a9.024,9.024,0,0,1-3.838,2.559c-1.554.567-4.964.554-6.148-.578,0,0-4.113-13.027-4.382-17.662S20.4,117.924,20.4,117.924l-8.8-34.3s8.89-15.461,23.679-4.745" transform="translate(13.326 86.273)" fill="#1c3b47"/><path d="M10.831,79.72l2.738,8.617c.324.346,4.74-1.337,9.752,3.526a16.444,16.444,0,0,1,4.635,9.313l2.637,16.8-.282,30.856a9,9,0,0,0,3.862-2.566l.324-28.29L36.16,79.348c-14.789-10.719-25.329.372-25.329.372" transform="translate(12.444 85.798)" fill="#10242b"/><path d="M29.212,53.51S37.749,58.5,40.3,61.736s3.926,4.983,3.677,12.212-1.184,16.824-1.184,16.824,1.433,11.466,2.929,22.308a22.965,22.965,0,0,1-21.1,6.481c-13.424-2.493-18.489-10.3-18.489-10.3S7.792,93.639,9.085,89.526,3.84,69.3,3.352,64.1c-.735-7.822,3.241-17.571,8.226-17.7s17.634,7.1,17.634,7.1" transform="translate(3.75 53.314)" fill="#1c3b47"/><path d="M26.106,81.779s.935-9.6,1.184-16.824-.391-6.558-2.944-9.8c-.436-.552-2.4-.305-3.109-.924a73.976,73.976,0,0,1,.2,10.723c-.249,7.227-3.64,21.708-3.64,21.708a125.977,125.977,0,0,1,4.753,22.08,21.425,21.425,0,0,0,6.49-4.657c-1.5-10.843-2.929-22.308-2.929-22.308" transform="translate(20.441 62.307)" fill="#10242b"/><path d="M12.1,50.191l-1.753,2.168a3.254,3.254,0,0,0,.383,4.19c1.953,2.117,5.94,2.907,7.727,2.864a17.108,17.108,0,0,0,5.157-.991l.2-3.911,2.035-3.7,1.674-7.708-6.015,1.6Z" transform="translate(11.203 49.527)" fill="#f9b194"/><path d="M11.733,58.773l-.208-6.52s-2.035-4.362-1.287-7.811,3.7-7.061,5.441-7.725S24.86,34.1,28.224,38s4.281,5.151,4.405,6.438-.542,3.907-.5,4.571a13.665,13.665,0,0,1-.623,4.113c-.589,1.6-1,3.975-2.493,4.833a18.811,18.811,0,0,1-3.531,1.44s-11.757.245-13.751-.625" transform="translate(11.572 40.944)" fill="#f9b194"/><path d="M33.336,45.756c-.731,1.446-2.839,3.73-3.176,5.851A15.893,15.893,0,0,1,28.3,56.251s-.585-2.016-1.2-1.689a7.819,7.819,0,0,0-1.218.954s-.956,5.357-2.658,6.522a8.27,8.27,0,0,1-6.69.913,11.5,11.5,0,0,1-3.988-2.329,39.457,39.457,0,0,0-.748-3.943c-.29-.832-1.5-2.512-1.786-3.956s-1.689-6.881.875-11.166c1.764-2.948,3.329-2.991,3.329-2.991s-.307-.793,1.322-2.327,3.324-1.648,5.164-2.046c1.91-.417,6.361-.039,7.934,1.163,1.661,1.266,4.261,2.119,4.76,5.172.391,2.383.634,3.866-.054,5.228" transform="translate(10.761 39.096)" fill="#020202"/><path d="M18.809,43.584a2.73,2.73,0,0,0-1.994,1.339c-.591,1.184.032,3.241.718,3.365a1.5,1.5,0,0,0,1.65-1.339s-.653-2.772-.374-3.365" transform="translate(19.048 50.073)" fill="#f9b194"/><path d="M26.381,80.027s-.165,3.655-7.354,5.4L22.7,89.166,26.161,89Z" transform="translate(21.86 91.943)" fill="#10242b"/><path d="M41.622,64.207l1.848-.247s.35.606,2.312.213,8.969-2.531,9.805-2.794.716-1.167-.075-1.188-4.775.284-4.775.284,5.882-1.3,6.447-1.734.374-1.317-.965-1.257-3.55.382-3.55.382,3.825-1,4.137-1.612.2-1.13-.909-1.132a10.162,10.162,0,0,0-2.312.329s.58-.421.451-.855-.514-.673-1.528-.479-7.809,2.4-7.809,2.4.273-.707-.466-.776S40.7,57.336,40.047,59.06L37.724,60.3Z" transform="translate(43.341 62.095)" fill="#ffc1a5"/><path d="M27.447,54.5a6.652,6.652,0,0,0-9.709,1.854c-2.267,4.049-.924,9.82,5.976,13.035s17.075,8.239,21.575,8.98,6.234-1.6,10.035-4.343,11.6-8.647,11.6-8.647.312-4.947-4.24-5.065L46.413,68.981Z" transform="translate(19.214 61.033)" fill="#244c5c"/><path d="M17.047,55.389c.131,3.23,2.248,6.638,6.982,8.845,6.9,3.213,17.077,8.239,21.577,8.98s6.232-1.6,10.033-4.343c3.176-2.291,9.124-6.778,11-8.2a6.6,6.6,0,0,1,.279,2.1s-7.794,5.907-11.6,8.647S49.788,76.5,45.288,75.763,30.613,70,23.713,66.782c-6.013-2.8-7.8-7.543-6.666-11.393" transform="translate(19.215 63.636)" fill="#10242b"/><path d="M51.667,3.685,45.324,0,33.73,11.61,40.074,15.3Z" transform="translate(38.753)" fill="#ffedc3"/><path d="M36.428,52.947l6.344,3.685C32.544,50.69,26.661,38,26.614,21.1L20.27,17.417c.047,16.895,5.933,29.588,16.158,35.53" transform="translate(23.288 20.01)" fill="#c79425"/><path d="M35.484,12.188,29.141,8.5,20.27,27.658l6.341,3.685Z" transform="translate(23.288 9.769)" fill="#ebc361"/><path d="M50.8,9.089,44.452,5.4,24.4,12.063l6.344,3.688Z" transform="translate(28.031 6.208)" fill="#ffedc3"/><path d="M32.094,13.78,52.147,7.118l-4.04,64.665L45.666,71.1C31.6,67.195,23.279,53.04,23.221,32.935Z" transform="translate(26.678 8.178)" fill="#edb02c"/><path d="M38.842,13.325,50.435,1.715l8.952,8.864C59.443,30.684,51.23,54.387,37.232,74.5L34.8,77.99Z" transform="translate(39.984 1.97)" fill="#edb02c"/><path d="M32.724,14.68,49.505,9.106l-3.38,54.111-2.044-.567C32.312,59.379,25.347,47.533,25.3,30.709Z" transform="translate(29.067 10.462)" fill="#fed369"/><path d="M38.371,14.3l9.7-9.717L55.565,12c.047,16.822-6.827,36.658-18.541,53.486l-2.033,2.922Z" transform="translate(40.201 5.267)" fill="#ffedc3"/><path d="M34.891,28.377l-1.21-.7-.047-.03,1.21.7.047.028" transform="translate(38.642 31.76)" fill="#79a100"/><path d="M45.27,7.917l1.21.7a.77.77,0,0,0-.1-.052,1.842,1.842,0,0,0-1.644.228l-1.21-.7a1.836,1.836,0,0,1,1.644-.23,1.158,1.158,0,0,1,.1.054" transform="translate(50.003 8.909)" fill="#4b6300"/><path d="M35.582,42.759l-1.21-.7L52.236,8.826l1.21.7Z" transform="translate(39.49 10.14)" fill="#4b6300"/><path d="M43.895,10.579l-1.21-.7a5.011,5.011,0,0,1,1.8-1.964l1.21.7a5.011,5.011,0,0,0-1.8,1.964" transform="translate(49.041 9.09)" fill="#4b6300"/><path d="M39.729,31.626l-1.21-.7L29.382,24.79l1.212.7Z" transform="translate(33.757 28.482)" fill="#79a100"/><path d="M33.244,22.134l1.21.7a1.729,1.729,0,0,0-1.732.174,4.911,4.911,0,0,0-1.655,1.7c-.982,1.612-1.04,3.419-.129,4.025l-1.21-.7c-.911-.606-.853-2.413.129-4.027a4.93,4.93,0,0,1,1.655-1.7,1.733,1.733,0,0,1,1.732-.172" transform="translate(33.411 25.243)" fill="#4b6300"/><path d="M60.681,8.42a1.836,1.836,0,0,1,1.644-.23c1,.456,1.081,2.181.187,3.859L42.673,48.933A4.47,4.47,0,0,1,41.057,50.7a1.549,1.549,0,0,1-1.629.125l-9.135-6.133c-.913-.606-.855-2.413.127-4.027a4.93,4.93,0,0,1,1.655-1.7,1.7,1.7,0,0,1,1.792-.135l7.147,4.783,17.864-33.23a5.011,5.011,0,0,1,1.8-1.964" transform="translate(34.058 9.285)" fill="#79a100"/></g></g></g></g></svg>