<svg xmlns="http://www.w3.org/2000/svg" width="677.022" height="61" viewBox="0 0 677.022 61"><g transform="translate(-1591.989 8456)"><rect width="676" height="30" transform="translate(1593.011 -8456)" fill="#dee4f0"/><path d="M-.522.163,675.988,0" transform="translate(1592.511 -8455.5)" fill="none" stroke="#707070" stroke-width="1"/><line x2="675.507" transform="translate(1592.511 -8425.5)" fill="none" stroke="#707070" stroke-width="1"/><path d="M0,0H676.5" transform="translate(1592.011 -8395.5)" fill="none" stroke="#707070" stroke-width="1"/><line y2="60" transform="translate(1592.511 -8455.5)" fill="none" stroke="#707070" stroke-width="1"/><line y2="60" transform="translate(1904.511 -8455.5)" fill="none" stroke="#707070" stroke-width="1"/><line y2="60" transform="translate(1878.511 -8455.5)" fill="none" stroke="#707070" stroke-width="1"/><line y2="60" transform="translate(1644.511 -8455.5)" fill="none" stroke="#707070" stroke-width="1"/><line y2="60" transform="translate(1618.511 -8455.5)" fill="none" stroke="#707070" stroke-width="1"/><line y2="60" transform="translate(1696.511 -8455.5)" fill="none" stroke="#707070" stroke-width="1"/><line y2="60" transform="translate(1670.511 -8455.5)" fill="none" stroke="#707070" stroke-width="1"/><line y2="60" transform="translate(1748.511 -8455.5)" fill="none" stroke="#707070" stroke-width="1"/><line y2="60" transform="translate(1722.511 -8455.5)" fill="none" stroke="#707070" stroke-width="1"/><line y2="60" transform="translate(1800.511 -8455.5)" fill="none" stroke="#707070" stroke-width="1"/><line y2="60" transform="translate(1774.511 -8455.5)" fill="none" stroke="#707070" stroke-width="1"/><line y2="60" transform="translate(1852.511 -8455.5)" fill="none" stroke="#707070" stroke-width="1"/><line y2="60" transform="translate(1826.511 -8455.5)" fill="none" stroke="#707070" stroke-width="1"/><line y2="60" transform="translate(1956.511 -8455.5)" fill="none" stroke="#707070" stroke-width="1"/><line y2="60" transform="translate(1930.511 -8455.5)" fill="none" stroke="#707070" stroke-width="1"/><line y2="60" transform="translate(2008.511 -8455.5)" fill="none" stroke="#707070" stroke-width="1"/><line y2="60" transform="translate(1982.511 -8455.5)" fill="none" stroke="#707070" stroke-width="1"/><line y2="60" transform="translate(2060.511 -8455.5)" fill="none" stroke="#707070" stroke-width="1"/><line y2="60" transform="translate(2034.511 -8455.5)" fill="none" stroke="#707070" stroke-width="1"/><line y2="60" transform="translate(2112.511 -8455.5)" fill="none" stroke="#707070" stroke-width="1"/><line y2="60" transform="translate(2086.511 -8455.5)" fill="none" stroke="#707070" stroke-width="1"/><line y2="60" transform="translate(2164.511 -8455.5)" fill="none" stroke="#707070" stroke-width="1"/><line y2="60" transform="translate(2138.511 -8455.5)" fill="none" stroke="#707070" stroke-width="1"/><line y2="60" transform="translate(2190.511 -8455.5)" fill="none" stroke="#707070" stroke-width="1"/><line y2="60" transform="translate(2216.511 -8455.5)" fill="none" stroke="#707070" stroke-width="1"/><path d="M6.258,17H4V8.3l-2.7.836V7.3L6.016,5.609h.242Zm11.352-4.7a5.763,5.763,0,0,1-.977,3.609,3.409,3.409,0,0,1-2.859,1.25A3.433,3.433,0,0,1,10.93,15.93a5.594,5.594,0,0,1-1.008-3.516V10.32A5.687,5.687,0,0,1,10.91,6.7a3.434,3.434,0,0,1,2.848-1.234A3.437,3.437,0,0,1,16.6,6.691,5.576,5.576,0,0,1,17.609,10.2Zm-2.258-2.3a4.165,4.165,0,0,0-.387-2.061,1.307,1.307,0,0,0-1.207-.645,1.284,1.284,0,0,0-1.176.614,3.9,3.9,0,0,0-.4,1.92v2.768a4.372,4.372,0,0,0,.379,2.068,1.29,1.29,0,0,0,1.215.676,1.268,1.268,0,0,0,1.2-.649,4.268,4.268,0,0,0,.383-1.986Z" transform="translate(1597.011 -8449)" fill="#12263f"/><path d="M12.055,14.656H7.945L7.164,17H4.672L8.906,5.625h2.172L15.336,17H12.844Zm-3.477-1.9h2.844L9.992,8.5Z" transform="translate(1597.011 -8419)" fill="#12263f"/><path d="M7.078,17H4.82V8.3l-2.7.836V7.3L6.836,5.609h.242Zm9.18,0H14V8.3l-2.7.836V7.3l4.711-1.687h.242Z" transform="translate(1621.011 -8449)" fill="#12263f"/><path d="M5.91,17V5.625H9.895a5.232,5.232,0,0,1,3.141.793,2.712,2.712,0,0,1,1.07,2.324,2.57,2.57,0,0,1-.43,1.473,2.482,2.482,0,0,1-1.2.934,2.4,2.4,0,0,1,1.379.883,2.61,2.61,0,0,1,.5,1.625,3,3,0,0,1-1.047,2.484A4.713,4.713,0,0,1,10.332,17Zm2.344-4.953v3.07h2.008a1.938,1.938,0,0,0,1.293-.395,1.353,1.353,0,0,0,.465-1.09A1.428,1.428,0,0,0,10.4,12.047Zm0-1.656H9.988q1.773-.031,1.773-1.414a1.307,1.307,0,0,0-.449-1.113,2.363,2.363,0,0,0-1.418-.34H8.254Z" transform="translate(1621.011 -8419)" fill="#12263f"/><line y2="60" transform="translate(2242.511 -8455.5)" fill="none" stroke="#707070" stroke-width="1"/><line y2="60" transform="translate(2268.511 -8455.5)" fill="none" stroke="#707070" stroke-width="1"/><path d="M7.078,17H4.82V8.3l-2.7.836V7.3L6.836,5.609h.242ZM18.57,17h-7.8V15.453l3.68-3.922a9.078,9.078,0,0,0,1.121-1.445,2.322,2.322,0,0,0,.363-1.172,1.738,1.738,0,0,0-.383-1.191,1.382,1.382,0,0,0-1.094-.434,1.49,1.49,0,0,0-1.207.527A2.089,2.089,0,0,0,12.813,9.2H10.547a3.729,3.729,0,0,1,.5-1.9,3.5,3.5,0,0,1,1.4-1.348A4.262,4.262,0,0,1,14.5,5.469a4.036,4.036,0,0,1,2.73.844A2.985,2.985,0,0,1,18.2,8.7a3.825,3.825,0,0,1-.437,1.719,9.551,9.551,0,0,1-1.5,2.039L13.68,15.18H18.57Z" transform="translate(1648.011 -8449)" fill="#12263f"/><path d="M14.711,13.211A4.025,4.025,0,0,1,13.355,16.1a4.76,4.76,0,0,1-3.223,1.055,4.28,4.28,0,0,1-3.441-1.473,6.038,6.038,0,0,1-1.254-4.043v-.7a6.819,6.819,0,0,1,.578-2.891A4.332,4.332,0,0,1,7.668,6.137a4.629,4.629,0,0,1,2.5-.668,4.637,4.637,0,0,1,3.172,1.055,4.326,4.326,0,0,1,1.391,2.961H12.383a2.376,2.376,0,0,0-.613-1.6,2.271,2.271,0,0,0-1.605-.5,1.991,1.991,0,0,0-1.754.84,4.707,4.707,0,0,0-.6,2.605V11.7a5.038,5.038,0,0,0,.559,2.7,1.954,1.954,0,0,0,1.762.852,2.314,2.314,0,0,0,1.621-.5,2.241,2.241,0,0,0,.613-1.535Z" transform="translate(1648.011 -8419)" fill="#12263f"/><path d="M7.078,17H4.82V8.3l-2.7.836V7.3L6.836,5.609h.242Zm5.992-6.687h1.2a1.7,1.7,0,0,0,1.273-.43,1.574,1.574,0,0,0,.414-1.141,1.392,1.392,0,0,0-.41-1.07,1.59,1.59,0,0,0-1.129-.383,1.666,1.666,0,0,0-1.086.355,1.137,1.137,0,0,0-.437.926H10.641a2.777,2.777,0,0,1,.48-1.6,3.2,3.2,0,0,1,1.344-1.105,4.485,4.485,0,0,1,1.9-.4,4.253,4.253,0,0,1,2.828.863,2.945,2.945,0,0,1,1.023,2.379,2.394,2.394,0,0,1-.477,1.438,3.1,3.1,0,0,1-1.25,1.008,2.826,2.826,0,0,1,1.434,1.031,2.8,2.8,0,0,1,.473,1.625,2.994,2.994,0,0,1-1.105,2.43,4.445,4.445,0,0,1-2.926.914,4.214,4.214,0,0,1-2.785-.9A2.934,2.934,0,0,1,10.5,13.883h2.258a1.308,1.308,0,0,0,.48,1.047,1.771,1.771,0,0,0,1.184.406,1.779,1.779,0,0,0,1.262-.426,1.47,1.47,0,0,0,.457-1.129q0-1.7-1.875-1.7h-1.2Z" transform="translate(1674.011 -8449)" fill="#12263f"/><path d="M5.816,17V5.625h3.5A5.315,5.315,0,0,1,12,6.3a4.712,4.712,0,0,1,1.848,1.922,5.928,5.928,0,0,1,.664,2.832v.523a5.945,5.945,0,0,1-.652,2.82,4.672,4.672,0,0,1-1.84,1.914A5.355,5.355,0,0,1,9.34,17ZM8.16,7.523v7.594H9.293a2.545,2.545,0,0,0,2.1-.9,4.06,4.06,0,0,0,.742-2.57v-.6a4.124,4.124,0,0,0-.719-2.629,2.537,2.537,0,0,0-2.1-.895Z" transform="translate(1674.011 -8419)" fill="#12263f"/><path d="M7.078,17H4.82V8.3l-2.7.836V7.3L6.836,5.609h.242Zm10.375-4.281h1.289v1.82H17.453V17H15.2V14.539H10.531l-.1-1.422,4.742-7.492h2.281Zm-4.773,0H15.2V8.7l-.148.258Z" transform="translate(1700.011 -8449)" fill="#12263f"/><path d="M13.359,12.07h-4.5v3.047h5.281V17H6.516V5.625h7.609v1.9H8.859v2.711h4.5Z" transform="translate(1700.011 -8419)" fill="#12263f"/><path d="M6.258,17H4V8.3l-2.7.836V7.3L6.016,5.609h.242Zm4.031-5.594.656-5.781H17.32V7.508H12.8l-.281,2.445a3.58,3.58,0,0,1,1.711-.43,3.279,3.279,0,0,1,2.547,1.008,4.026,4.026,0,0,1,.922,2.82,4.124,4.124,0,0,1-.465,1.973A3.281,3.281,0,0,1,15.9,16.676a4.158,4.158,0,0,1-2.047.48,4.416,4.416,0,0,1-1.914-.418,3.4,3.4,0,0,1-1.395-1.176A3.2,3.2,0,0,1,10,13.836h2.234a1.669,1.669,0,0,0,.5,1.105,1.573,1.573,0,0,0,1.113.395,1.388,1.388,0,0,0,1.18-.551,2.551,2.551,0,0,0,.414-1.559,2.11,2.11,0,0,0-.477-1.484,1.749,1.749,0,0,0-1.352-.516,1.954,1.954,0,0,0-1.3.422l-.219.2Z" transform="translate(1727.011 -8449)" fill="#12263f"/><path d="M13.477,12.352h-4.5V17H6.633V5.625h7.406v1.9H8.977v2.938h4.5Z" transform="translate(1727.011 -8419)" fill="#12263f"/><path d="M7.078,17H4.82V8.3l-2.7.836V7.3L6.836,5.609h.242ZM16.9,5.508V7.367H16.68a3.836,3.836,0,0,0-2.465.8,3.238,3.238,0,0,0-1.121,2.148,3.075,3.075,0,0,1,2.289-.922,2.9,2.9,0,0,1,2.359,1.063,4.259,4.259,0,0,1,.875,2.8,4.19,4.19,0,0,1-.48,2.008,3.446,3.446,0,0,1-1.359,1.4,3.949,3.949,0,0,1-1.988.5,3.689,3.689,0,0,1-2.9-1.25,4.852,4.852,0,0,1-1.105-3.336v-.812a7.3,7.3,0,0,1,.7-3.27,5.127,5.127,0,0,1,2.008-2.2,5.884,5.884,0,0,1,3.035-.785Zm-2.2,5.7a1.8,1.8,0,0,0-.992.285,1.715,1.715,0,0,0-.656.753v.686a3.04,3.04,0,0,0,.445,1.766,1.439,1.439,0,0,0,1.25.635,1.423,1.423,0,0,0,1.176-.573,2.337,2.337,0,0,0,.449-1.485,2.333,2.333,0,0,0-.453-1.5A1.477,1.477,0,0,0,14.7,11.211Z" transform="translate(1751.011 -8449)" fill="#12263f"/><path d="M14.566,15.563a4.068,4.068,0,0,1-1.789,1.176,7.492,7.492,0,0,1-2.562.418,5.076,5.076,0,0,1-2.59-.645,4.3,4.3,0,0,1-1.719-1.871,6.585,6.585,0,0,1-.621-2.883v-.773a6.994,6.994,0,0,1,.574-2.949A4.248,4.248,0,0,1,7.516,6.129a4.771,4.771,0,0,1,2.535-.66,4.751,4.751,0,0,1,3.164.965,4.123,4.123,0,0,1,1.352,2.809H12.285a2.268,2.268,0,0,0-.691-1.43,2.208,2.208,0,0,0-1.473-.453,2.078,2.078,0,0,0-1.82.9,4.724,4.724,0,0,0-.633,2.672v.727a4.5,4.5,0,0,0,.68,2.7,2.327,2.327,0,0,0,1.992.914,2.6,2.6,0,0,0,1.883-.562V12.75H10.09V11.023h4.477Z" transform="translate(1751.011 -8419)" fill="#12263f"/><path d="M7.078,17H4.82V8.3l-2.7.836V7.3L6.836,5.609h.242ZM18.508,6.885,14.109,17H11.727l4.406-9.555H10.477V5.625h8.031Z" transform="translate(1778.011 -8449)" fill="#12263f"/><path d="M14.621,17H12.277V12.125H7.707V17H5.363V5.625H7.707v4.609h4.57V5.625h2.344Z" transform="translate(1778.011 -8419)" fill="#12263f"/><path d="M7.078,17H4.82V8.3l-2.7.836V7.3L6.836,5.609h.242ZM18.188,8.648a2.646,2.646,0,0,1-.414,1.469,2.98,2.98,0,0,1-1.141,1.023,3.3,3.3,0,0,1,1.313,1.1,2.816,2.816,0,0,1,.484,1.645A2.981,2.981,0,0,1,17.4,16.277a4.183,4.183,0,0,1-2.8.879,4.2,4.2,0,0,1-2.812-.883,2.974,2.974,0,0,1-1.039-2.391,2.834,2.834,0,0,1,.484-1.648,3.239,3.239,0,0,1,1.3-1.094,2.95,2.95,0,0,1-1.137-1.023,2.664,2.664,0,0,1-.41-1.469,2.948,2.948,0,0,1,.969-2.316,3.814,3.814,0,0,1,2.633-.863,3.839,3.839,0,0,1,2.629.855A2.937,2.937,0,0,1,18.188,8.648Zm-2.023,5.07a1.638,1.638,0,0,0-.43-1.187,1.532,1.532,0,0,0-1.156-.445,1.529,1.529,0,0,0-1.148.441A1.635,1.635,0,0,0,13,13.719a1.634,1.634,0,0,0,.422,1.172,1.537,1.537,0,0,0,1.172.445,1.533,1.533,0,0,0,1.152-.43A1.631,1.631,0,0,0,16.164,13.719ZM15.93,8.758a1.563,1.563,0,0,0-.352-1.066A1.43,1.43,0,0,0,13.6,7.68a1.553,1.553,0,0,0-.352,1.078A1.633,1.633,0,0,0,13.6,9.852a1.391,1.391,0,0,0,1.98,0A1.645,1.645,0,0,0,15.93,8.758Z" transform="translate(1804.011 -8449)" fill="#12263f"/><path d="M11.176,17H8.832V5.625h2.344Z" transform="translate(1804.011 -8419)" fill="#12263f"/><path d="M7.078,17H4.82V8.3l-2.7.836V7.3L6.836,5.609h.242Zm8.977-4.547a2.851,2.851,0,0,1-2.062.867,3.049,3.049,0,0,1-2.414-1.035,4.091,4.091,0,0,1-.906-2.793,4.357,4.357,0,0,1,.488-2.051,3.582,3.582,0,0,1,1.363-1.453,3.782,3.782,0,0,1,1.969-.52,3.617,3.617,0,0,1,2,.563,3.7,3.7,0,0,1,1.359,1.617,5.806,5.806,0,0,1,.492,2.414V10.9a6.579,6.579,0,0,1-1.414,4.469A5.346,5.346,0,0,1,12.922,17.1l-.555.008V15.227l.5-.008Q15.813,15.086,16.055,12.453Zm-1.508-.859a1.579,1.579,0,0,0,.941-.281,1.879,1.879,0,0,0,.6-.68V9.7a3.1,3.1,0,0,0-.437-1.781,1.358,1.358,0,0,0-1.172-.633,1.318,1.318,0,0,0-1.117.621,2.641,2.641,0,0,0-.437,1.559A2.57,2.57,0,0,0,13.348,11,1.387,1.387,0,0,0,14.547,11.594Z" transform="translate(1830.011 -8449)" fill="#12263f"/><path d="M11.133,5.625h2.344V13.5A3.766,3.766,0,0,1,13,15.418,3.261,3.261,0,0,1,11.641,16.7a4.234,4.234,0,0,1-1.977.453,4.025,4.025,0,0,1-2.812-.918,3.335,3.335,0,0,1-1.008-2.6H8.2a1.829,1.829,0,0,0,.352,1.234,1.407,1.407,0,0,0,1.109.4,1.343,1.343,0,0,0,1.07-.461,1.948,1.948,0,0,0,.4-1.312Z" transform="translate(1830.011 -8419)" fill="#12263f"/><path d="M9.391,17h-7.8V15.453l3.68-3.922a9.078,9.078,0,0,0,1.121-1.445,2.322,2.322,0,0,0,.363-1.172,1.738,1.738,0,0,0-.383-1.191,1.382,1.382,0,0,0-1.094-.434,1.49,1.49,0,0,0-1.207.527A2.089,2.089,0,0,0,3.633,9.2H1.367a3.729,3.729,0,0,1,.5-1.9,3.5,3.5,0,0,1,1.4-1.348A4.262,4.262,0,0,1,5.32,5.469a4.036,4.036,0,0,1,2.73.844A2.985,2.985,0,0,1,9.023,8.7a3.825,3.825,0,0,1-.437,1.719,9.551,9.551,0,0,1-1.5,2.039L4.5,15.18H9.391Zm9.039-4.7a5.763,5.763,0,0,1-.977,3.609,3.409,3.409,0,0,1-2.859,1.25A3.433,3.433,0,0,1,11.75,15.93a5.594,5.594,0,0,1-1.008-3.516V10.32A5.687,5.687,0,0,1,11.73,6.7a3.434,3.434,0,0,1,2.848-1.234,3.437,3.437,0,0,1,2.844,1.223A5.576,5.576,0,0,1,18.43,10.2Zm-2.258-2.3a4.165,4.165,0,0,0-.387-2.061,1.307,1.307,0,0,0-1.207-.645A1.284,1.284,0,0,0,13.4,7.9a3.9,3.9,0,0,0-.4,1.92v2.768a4.372,4.372,0,0,0,.379,2.068,1.29,1.29,0,0,0,1.215.676,1.268,1.268,0,0,0,1.2-.649,4.268,4.268,0,0,0,.383-1.986Z" transform="translate(1855.011 -8449)" fill="#12263f"/><path d="M9.5,12.438,8.281,13.75V17H5.938V5.625H8.281v5.156L9.313,9.367l2.9-3.742h2.883L11.055,10.68,15.211,17H12.422Z" transform="translate(1855.011 -8419)" fill="#12263f"/><path d="M9.391,17h-7.8V15.453l3.68-3.922a9.078,9.078,0,0,0,1.121-1.445,2.322,2.322,0,0,0,.363-1.172,1.738,1.738,0,0,0-.383-1.191,1.382,1.382,0,0,0-1.094-.434,1.49,1.49,0,0,0-1.207.527A2.089,2.089,0,0,0,3.633,9.2H1.367a3.729,3.729,0,0,1,.5-1.9,3.5,3.5,0,0,1,1.4-1.348A4.262,4.262,0,0,1,5.32,5.469a4.036,4.036,0,0,1,2.73.844A2.985,2.985,0,0,1,9.023,8.7a3.825,3.825,0,0,1-.437,1.719,9.551,9.551,0,0,1-1.5,2.039L4.5,15.18H9.391Zm6.867,0H14V8.3l-2.7.836V7.3l4.711-1.687h.242Z" transform="translate(1881.011 -8449)" fill="#12263f"/><path d="M9.027,15.117H14V17H6.684V5.625H9.027Z" transform="translate(1881.011 -8419)" fill="#12263f"/><path d="M9.391,17h-7.8V15.453l3.68-3.922a9.078,9.078,0,0,0,1.121-1.445,2.322,2.322,0,0,0,.363-1.172,1.738,1.738,0,0,0-.383-1.191,1.382,1.382,0,0,0-1.094-.434,1.49,1.49,0,0,0-1.207.527A2.089,2.089,0,0,0,3.633,9.2H1.367a3.729,3.729,0,0,1,.5-1.9,3.5,3.5,0,0,1,1.4-1.348A4.262,4.262,0,0,1,5.32,5.469a4.036,4.036,0,0,1,2.73.844A2.985,2.985,0,0,1,9.023,8.7a3.825,3.825,0,0,1-.437,1.719,9.551,9.551,0,0,1-1.5,2.039L4.5,15.18H9.391Zm9.18,0h-7.8V15.453l3.68-3.922a9.078,9.078,0,0,0,1.121-1.445,2.322,2.322,0,0,0,.363-1.172,1.738,1.738,0,0,0-.383-1.191,1.382,1.382,0,0,0-1.094-.434,1.49,1.49,0,0,0-1.207.527A2.089,2.089,0,0,0,12.813,9.2H10.547a3.729,3.729,0,0,1,.5-1.9,3.5,3.5,0,0,1,1.4-1.348A4.262,4.262,0,0,1,14.5,5.469a4.036,4.036,0,0,1,2.73.844A2.985,2.985,0,0,1,18.2,8.7a3.825,3.825,0,0,1-.437,1.719,9.551,9.551,0,0,1-1.5,2.039L13.68,15.18H18.57Z" transform="translate(1907.011 -8449)" fill="#12263f"/><path d="M7.07,5.625l2.922,8.25L12.9,5.625h3.078V17H13.625V13.891l.234-5.367L10.789,17H9.18L6.117,8.531l.234,5.359V17H4.008V5.625Z" transform="translate(1907.011 -8419)" fill="#12263f"/><path d="M8.57,17H.773V15.453l3.68-3.922a9.078,9.078,0,0,0,1.121-1.445,2.322,2.322,0,0,0,.363-1.172,1.738,1.738,0,0,0-.383-1.191,1.382,1.382,0,0,0-1.094-.434,1.49,1.49,0,0,0-1.207.527A2.089,2.089,0,0,0,2.813,9.2H.547a3.729,3.729,0,0,1,.5-1.9,3.5,3.5,0,0,1,1.4-1.348A4.262,4.262,0,0,1,4.5,5.469a4.036,4.036,0,0,1,2.73.844A2.985,2.985,0,0,1,8.2,8.7a3.825,3.825,0,0,1-.437,1.719,9.551,9.551,0,0,1-1.5,2.039L3.68,15.18H8.57Zm3.68-6.687h1.2a1.7,1.7,0,0,0,1.273-.43,1.574,1.574,0,0,0,.414-1.141,1.392,1.392,0,0,0-.41-1.07A1.59,1.59,0,0,0,13.6,7.289a1.666,1.666,0,0,0-1.086.355,1.137,1.137,0,0,0-.437.926H9.82a2.777,2.777,0,0,1,.48-1.6,3.2,3.2,0,0,1,1.344-1.105,4.485,4.485,0,0,1,1.9-.4,4.253,4.253,0,0,1,2.828.863A2.945,2.945,0,0,1,17.4,8.711a2.394,2.394,0,0,1-.477,1.438,3.1,3.1,0,0,1-1.25,1.008,2.826,2.826,0,0,1,1.434,1.031,2.8,2.8,0,0,1,.473,1.625,2.994,2.994,0,0,1-1.105,2.43,4.445,4.445,0,0,1-2.926.914,4.214,4.214,0,0,1-2.785-.9A2.934,2.934,0,0,1,9.68,13.883h2.258a1.308,1.308,0,0,0,.48,1.047,1.771,1.771,0,0,0,1.184.406,1.779,1.779,0,0,0,1.262-.426,1.47,1.47,0,0,0,.457-1.129q0-1.7-1.875-1.7h-1.2Z" transform="translate(1934.011 -8449)" fill="#12263f"/><path d="M14.617,17H12.273L7.711,9.516V17H5.367V5.625H7.711l4.57,7.5v-7.5h2.336Z" transform="translate(1934.011 -8419)" fill="#12263f"/><path d="M9.391,17h-7.8V15.453l3.68-3.922a9.078,9.078,0,0,0,1.121-1.445,2.322,2.322,0,0,0,.363-1.172,1.738,1.738,0,0,0-.383-1.191,1.382,1.382,0,0,0-1.094-.434,1.49,1.49,0,0,0-1.207.527A2.089,2.089,0,0,0,3.633,9.2H1.367a3.729,3.729,0,0,1,.5-1.9,3.5,3.5,0,0,1,1.4-1.348A4.262,4.262,0,0,1,5.32,5.469a4.036,4.036,0,0,1,2.73.844A2.985,2.985,0,0,1,9.023,8.7a3.825,3.825,0,0,1-.437,1.719,9.551,9.551,0,0,1-1.5,2.039L4.5,15.18H9.391Zm8.063-4.281h1.289v1.82H17.453V17H15.2V14.539H10.531l-.1-1.422,4.742-7.492h2.281Zm-4.773,0H15.2V8.7l-.148.258Z" transform="translate(1959.011 -8449)" fill="#12263f"/><path d="M14.836,11.57a6.867,6.867,0,0,1-.594,2.945,4.472,4.472,0,0,1-1.7,1.953,4.7,4.7,0,0,1-2.535.688,4.732,4.732,0,0,1-2.523-.68,4.515,4.515,0,0,1-1.719-1.941,6.67,6.67,0,0,1-.617-2.9V11.07a6.831,6.831,0,0,1,.605-2.957A4.508,4.508,0,0,1,7.465,6.152a4.706,4.706,0,0,1,2.527-.684,4.706,4.706,0,0,1,2.527.684A4.508,4.508,0,0,1,14.23,8.113a6.811,6.811,0,0,1,.605,2.949Zm-2.375-.516a4.787,4.787,0,0,0-.641-2.719,2.088,2.088,0,0,0-1.828-.93,2.088,2.088,0,0,0-1.82.918,4.732,4.732,0,0,0-.648,2.691v.555a4.847,4.847,0,0,0,.641,2.7,2.082,2.082,0,0,0,1.844.961,2.064,2.064,0,0,0,1.813-.926,4.819,4.819,0,0,0,.641-2.7Z" transform="translate(1959.011 -8419)" fill="#12263f"/><path d="M9.391,17h-7.8V15.453l3.68-3.922a9.078,9.078,0,0,0,1.121-1.445,2.322,2.322,0,0,0,.363-1.172,1.738,1.738,0,0,0-.383-1.191,1.382,1.382,0,0,0-1.094-.434,1.49,1.49,0,0,0-1.207.527A2.089,2.089,0,0,0,3.633,9.2H1.367a3.729,3.729,0,0,1,.5-1.9,3.5,3.5,0,0,1,1.4-1.348A4.262,4.262,0,0,1,5.32,5.469a4.036,4.036,0,0,1,2.73.844A2.985,2.985,0,0,1,9.023,8.7a3.825,3.825,0,0,1-.437,1.719,9.551,9.551,0,0,1-1.5,2.039L4.5,15.18H9.391Zm1.719-5.594.656-5.781h6.375V7.508H13.617l-.281,2.445a3.58,3.58,0,0,1,1.711-.43,3.279,3.279,0,0,1,2.547,1.008,4.026,4.026,0,0,1,.922,2.82,4.124,4.124,0,0,1-.465,1.973,3.281,3.281,0,0,1-1.332,1.352,4.158,4.158,0,0,1-2.047.48,4.416,4.416,0,0,1-1.914-.418,3.4,3.4,0,0,1-1.395-1.176,3.2,3.2,0,0,1-.543-1.727h2.234a1.669,1.669,0,0,0,.5,1.105,1.573,1.573,0,0,0,1.113.395,1.388,1.388,0,0,0,1.18-.551,2.551,2.551,0,0,0,.414-1.559,2.11,2.11,0,0,0-.477-1.484,1.749,1.749,0,0,0-1.352-.516,1.954,1.954,0,0,0-1.3.422l-.219.2Z" transform="translate(1985.011 -8449)" fill="#12263f"/><path d="M8.2,12.992V17H5.855V5.625h4.438a5.134,5.134,0,0,1,2.254.469,3.454,3.454,0,0,1,1.5,1.332,3.714,3.714,0,0,1,.523,1.965,3.266,3.266,0,0,1-1.145,2.637,4.767,4.767,0,0,1-3.168.965Zm0-1.9h2.094a2.059,2.059,0,0,0,1.418-.437,1.591,1.591,0,0,0,.488-1.25,1.876,1.876,0,0,0-.492-1.352,1.839,1.839,0,0,0-1.359-.531H8.2Z" transform="translate(1985.011 -8419)" fill="#12263f"/><path d="M9.391,17h-7.8V15.453l3.68-3.922a9.078,9.078,0,0,0,1.121-1.445,2.322,2.322,0,0,0,.363-1.172,1.738,1.738,0,0,0-.383-1.191,1.382,1.382,0,0,0-1.094-.434,1.49,1.49,0,0,0-1.207.527A2.089,2.089,0,0,0,3.633,9.2H1.367a3.729,3.729,0,0,1,.5-1.9,3.5,3.5,0,0,1,1.4-1.348A4.262,4.262,0,0,1,5.32,5.469a4.036,4.036,0,0,1,2.73.844A2.985,2.985,0,0,1,9.023,8.7a3.825,3.825,0,0,1-.437,1.719,9.551,9.551,0,0,1-1.5,2.039L4.5,15.18H9.391ZM16.9,5.508V7.367H16.68a3.836,3.836,0,0,0-2.465.8,3.238,3.238,0,0,0-1.121,2.148,3.075,3.075,0,0,1,2.289-.922,2.9,2.9,0,0,1,2.359,1.063,4.259,4.259,0,0,1,.875,2.8,4.19,4.19,0,0,1-.48,2.008,3.446,3.446,0,0,1-1.359,1.4,3.949,3.949,0,0,1-1.988.5,3.689,3.689,0,0,1-2.9-1.25,4.852,4.852,0,0,1-1.105-3.336v-.812a7.3,7.3,0,0,1,.7-3.27,5.127,5.127,0,0,1,2.008-2.2,5.884,5.884,0,0,1,3.035-.785Zm-2.2,5.7a1.8,1.8,0,0,0-.992.285,1.715,1.715,0,0,0-.656.753v.686a3.04,3.04,0,0,0,.445,1.766,1.439,1.439,0,0,0,1.25.635,1.423,1.423,0,0,0,1.176-.573,2.337,2.337,0,0,0,.449-1.485,2.333,2.333,0,0,0-.453-1.5A1.477,1.477,0,0,0,14.7,11.211Z" transform="translate(2011.011 -8449)" fill="#12263f"/><path d="M14.82,11.57a6.853,6.853,0,0,1-.516,2.77,4.754,4.754,0,0,1-1.43,1.887l1.891,1.484-1.492,1.32-2.422-1.945a5.126,5.126,0,0,1-.859.07,4.732,4.732,0,0,1-2.523-.68A4.515,4.515,0,0,1,5.75,14.535a6.67,6.67,0,0,1-.617-2.9V11.07a6.831,6.831,0,0,1,.605-2.957A4.508,4.508,0,0,1,7.449,6.152a4.706,4.706,0,0,1,2.527-.684,4.706,4.706,0,0,1,2.527.684,4.508,4.508,0,0,1,1.711,1.961,6.811,6.811,0,0,1,.605,2.949Zm-2.375-.516A4.787,4.787,0,0,0,11.8,8.336a2.088,2.088,0,0,0-1.828-.93,2.088,2.088,0,0,0-1.82.918,4.732,4.732,0,0,0-.648,2.691v.555a4.847,4.847,0,0,0,.641,2.7,2.082,2.082,0,0,0,1.844.961,2.064,2.064,0,0,0,1.813-.926,4.819,4.819,0,0,0,.641-2.7Z" transform="translate(2011.011 -8419)" fill="#12263f"/><path d="M9.391,17h-7.8V15.453l3.68-3.922a9.078,9.078,0,0,0,1.121-1.445,2.322,2.322,0,0,0,.363-1.172,1.738,1.738,0,0,0-.383-1.191,1.382,1.382,0,0,0-1.094-.434,1.49,1.49,0,0,0-1.207.527A2.089,2.089,0,0,0,3.633,9.2H1.367a3.729,3.729,0,0,1,.5-1.9,3.5,3.5,0,0,1,1.4-1.348A4.262,4.262,0,0,1,5.32,5.469a4.036,4.036,0,0,1,2.73.844A2.985,2.985,0,0,1,9.023,8.7a3.825,3.825,0,0,1-.437,1.719,9.551,9.551,0,0,1-1.5,2.039L4.5,15.18H9.391ZM18.508,6.885,14.109,17H11.727l4.406-9.555H10.477V5.625h8.031Z" transform="translate(2038.011 -8449)" fill="#12263f"/><path d="M10.121,12.836H8.254V17H5.91V5.625h4.227a4.778,4.778,0,0,1,3.109.9A3.1,3.1,0,0,1,14.34,9.063a3.5,3.5,0,0,1-.5,1.941,3.437,3.437,0,0,1-1.527,1.238l2.461,4.648V17H12.254Zm-1.867-1.9h1.891a1.936,1.936,0,0,0,1.367-.449A1.606,1.606,0,0,0,12,9.25a1.719,1.719,0,0,0-.457-1.266,1.9,1.9,0,0,0-1.4-.461H8.254Z" transform="translate(2038.011 -8419)" fill="#12263f"/><path d="M9.391,17h-7.8V15.453l3.68-3.922a9.078,9.078,0,0,0,1.121-1.445,2.322,2.322,0,0,0,.363-1.172,1.738,1.738,0,0,0-.383-1.191,1.382,1.382,0,0,0-1.094-.434,1.49,1.49,0,0,0-1.207.527A2.089,2.089,0,0,0,3.633,9.2H1.367a3.729,3.729,0,0,1,.5-1.9,3.5,3.5,0,0,1,1.4-1.348A4.262,4.262,0,0,1,5.32,5.469a4.036,4.036,0,0,1,2.73.844A2.985,2.985,0,0,1,9.023,8.7a3.825,3.825,0,0,1-.437,1.719,9.551,9.551,0,0,1-1.5,2.039L4.5,15.18H9.391Zm8.8-8.352a2.646,2.646,0,0,1-.414,1.469,2.98,2.98,0,0,1-1.141,1.023,3.3,3.3,0,0,1,1.313,1.1,2.816,2.816,0,0,1,.484,1.645A2.981,2.981,0,0,1,17.4,16.277a4.183,4.183,0,0,1-2.8.879,4.2,4.2,0,0,1-2.812-.883,2.974,2.974,0,0,1-1.039-2.391,2.834,2.834,0,0,1,.484-1.648,3.239,3.239,0,0,1,1.3-1.094,2.95,2.95,0,0,1-1.137-1.023,2.664,2.664,0,0,1-.41-1.469,2.948,2.948,0,0,1,.969-2.316,3.814,3.814,0,0,1,2.633-.863,3.839,3.839,0,0,1,2.629.855A2.937,2.937,0,0,1,18.188,8.648Zm-2.023,5.07a1.638,1.638,0,0,0-.43-1.187,1.532,1.532,0,0,0-1.156-.445,1.529,1.529,0,0,0-1.148.441A1.635,1.635,0,0,0,13,13.719a1.634,1.634,0,0,0,.422,1.172,1.537,1.537,0,0,0,1.172.445,1.533,1.533,0,0,0,1.152-.43A1.631,1.631,0,0,0,16.164,13.719ZM15.93,8.758a1.563,1.563,0,0,0-.352-1.066A1.43,1.43,0,0,0,13.6,7.68a1.553,1.553,0,0,0-.352,1.078A1.633,1.633,0,0,0,13.6,9.852a1.391,1.391,0,0,0,1.98,0A1.645,1.645,0,0,0,15.93,8.758Z" transform="translate(2063.011 -8449)" fill="#12263f"/><path d="M12,14.016A1.2,1.2,0,0,0,11.527,13a6.148,6.148,0,0,0-1.687-.75,11.963,11.963,0,0,1-1.93-.777,3.153,3.153,0,0,1-1.937-2.82A2.747,2.747,0,0,1,6.492,7,3.389,3.389,0,0,1,7.984,5.875a5.616,5.616,0,0,1,2.184-.406,5.112,5.112,0,0,1,2.172.441,3.458,3.458,0,0,1,1.48,1.246,3.261,3.261,0,0,1,.527,1.828H12a1.534,1.534,0,0,0-.492-1.215,2.023,2.023,0,0,0-1.383-.434A2.162,2.162,0,0,0,8.793,7.7a1.146,1.146,0,0,0-.477.957,1.1,1.1,0,0,0,.559.93,6.311,6.311,0,0,0,1.645.7,7.106,7.106,0,0,1,2.914,1.492A2.972,2.972,0,0,1,14.348,14a2.737,2.737,0,0,1-1.117,2.316,4.891,4.891,0,0,1-3.008.84,5.808,5.808,0,0,1-2.391-.48,3.783,3.783,0,0,1-1.645-1.316,3.371,3.371,0,0,1-.566-1.937H7.973q0,1.883,2.25,1.883a2.189,2.189,0,0,0,1.3-.34A1.106,1.106,0,0,0,12,14.016Z" transform="translate(2064.011 -8419)" fill="#12263f"/><path d="M9.391,17h-7.8V15.453l3.68-3.922a9.078,9.078,0,0,0,1.121-1.445,2.322,2.322,0,0,0,.363-1.172,1.738,1.738,0,0,0-.383-1.191,1.382,1.382,0,0,0-1.094-.434,1.49,1.49,0,0,0-1.207.527A2.089,2.089,0,0,0,3.633,9.2H1.367a3.729,3.729,0,0,1,.5-1.9,3.5,3.5,0,0,1,1.4-1.348A4.262,4.262,0,0,1,5.32,5.469a4.036,4.036,0,0,1,2.73.844A2.985,2.985,0,0,1,9.023,8.7a3.825,3.825,0,0,1-.437,1.719,9.551,9.551,0,0,1-1.5,2.039L4.5,15.18H9.391Zm6.664-4.547a2.851,2.851,0,0,1-2.062.867,3.049,3.049,0,0,1-2.414-1.035,4.091,4.091,0,0,1-.906-2.793,4.357,4.357,0,0,1,.488-2.051,3.582,3.582,0,0,1,1.363-1.453,3.782,3.782,0,0,1,1.969-.52,3.617,3.617,0,0,1,2,.563,3.7,3.7,0,0,1,1.359,1.617,5.806,5.806,0,0,1,.492,2.414V10.9a6.579,6.579,0,0,1-1.414,4.469A5.346,5.346,0,0,1,12.922,17.1l-.555.008V15.227l.5-.008Q15.813,15.086,16.055,12.453Zm-1.508-.859a1.579,1.579,0,0,0,.941-.281,1.879,1.879,0,0,0,.6-.68V9.7a3.1,3.1,0,0,0-.437-1.781,1.358,1.358,0,0,0-1.172-.633,1.318,1.318,0,0,0-1.117.621,2.641,2.641,0,0,0-.437,1.559A2.57,2.57,0,0,0,13.348,11,1.387,1.387,0,0,0,14.547,11.594Z" transform="translate(2090.011 -8449)" fill="#12263f"/><path d="M14.629,7.523H11.145V17H8.8V7.523H5.363v-1.9h9.266Z" transform="translate(2090.011 -8419)" fill="#12263f"/><path d="M3.891,10.313h1.2a1.7,1.7,0,0,0,1.273-.43,1.574,1.574,0,0,0,.414-1.141,1.392,1.392,0,0,0-.41-1.07,1.59,1.59,0,0,0-1.129-.383,1.666,1.666,0,0,0-1.086.355,1.137,1.137,0,0,0-.437.926H1.461a2.777,2.777,0,0,1,.48-1.6A3.2,3.2,0,0,1,3.285,5.867a4.485,4.485,0,0,1,1.9-.4,4.253,4.253,0,0,1,2.828.863A2.945,2.945,0,0,1,9.039,8.711a2.394,2.394,0,0,1-.477,1.438,3.1,3.1,0,0,1-1.25,1.008,2.826,2.826,0,0,1,1.434,1.031,2.8,2.8,0,0,1,.473,1.625,2.994,2.994,0,0,1-1.105,2.43,4.445,4.445,0,0,1-2.926.914,4.214,4.214,0,0,1-2.785-.9A2.934,2.934,0,0,1,1.32,13.883H3.578a1.308,1.308,0,0,0,.48,1.047,1.771,1.771,0,0,0,1.184.406A1.779,1.779,0,0,0,6.5,14.91a1.47,1.47,0,0,0,.457-1.129q0-1.7-1.875-1.7h-1.2ZM18.43,12.3a5.763,5.763,0,0,1-.977,3.609,3.409,3.409,0,0,1-2.859,1.25A3.433,3.433,0,0,1,11.75,15.93a5.594,5.594,0,0,1-1.008-3.516V10.32A5.687,5.687,0,0,1,11.73,6.7a3.434,3.434,0,0,1,2.848-1.234,3.437,3.437,0,0,1,2.844,1.223A5.576,5.576,0,0,1,18.43,10.2Zm-2.258-2.3a4.165,4.165,0,0,0-.387-2.061,1.307,1.307,0,0,0-1.207-.645A1.284,1.284,0,0,0,13.4,7.9a3.9,3.9,0,0,0-.4,1.92v2.768a4.372,4.372,0,0,0,.379,2.068,1.29,1.29,0,0,0,1.215.676,1.268,1.268,0,0,0,1.2-.649,4.268,4.268,0,0,0,.383-1.986Z" transform="translate(2116.011 -8449)" fill="#12263f"/><path d="M14.359,5.625v7.492a3.836,3.836,0,0,1-1.168,2.953A4.5,4.5,0,0,1,10,17.156,4.553,4.553,0,0,1,6.836,16.1a3.77,3.77,0,0,1-1.2-2.9V5.625H7.984v7.508a2.167,2.167,0,0,0,.535,1.629,2.054,2.054,0,0,0,1.48.512q1.977,0,2.008-2.078V5.625Z" transform="translate(2116.011 -8419)" fill="#12263f"/><path d="M3.07,10.313h1.2a1.7,1.7,0,0,0,1.273-.43,1.574,1.574,0,0,0,.414-1.141,1.392,1.392,0,0,0-.41-1.07,1.59,1.59,0,0,0-1.129-.383,1.666,1.666,0,0,0-1.086.355A1.137,1.137,0,0,0,2.9,8.57H.641a2.777,2.777,0,0,1,.48-1.6A3.2,3.2,0,0,1,2.465,5.867a4.485,4.485,0,0,1,1.9-.4A4.253,4.253,0,0,1,7.2,6.332,2.945,2.945,0,0,1,8.219,8.711a2.394,2.394,0,0,1-.477,1.438,3.1,3.1,0,0,1-1.25,1.008,2.826,2.826,0,0,1,1.434,1.031A2.8,2.8,0,0,1,8.4,13.813a2.994,2.994,0,0,1-1.105,2.43,4.445,4.445,0,0,1-2.926.914,4.214,4.214,0,0,1-2.785-.9A2.934,2.934,0,0,1,.5,13.883H2.758a1.308,1.308,0,0,0,.48,1.047,1.771,1.771,0,0,0,1.184.406,1.779,1.779,0,0,0,1.262-.426,1.47,1.47,0,0,0,.457-1.129q0-1.7-1.875-1.7H3.07ZM15.438,17H13.18V8.3l-2.7.836V7.3L15.2,5.609h.242Z" transform="translate(2143.011 -8449)" fill="#12263f"/><path d="M9.988,14.18l2.578-8.555h2.609L11.215,17H8.77L4.824,5.625h2.6Z" transform="translate(2143.011 -8419)" fill="#12263f"/><path d="M3.891,10.313h1.2a1.7,1.7,0,0,0,1.273-.43,1.574,1.574,0,0,0,.414-1.141,1.392,1.392,0,0,0-.41-1.07,1.59,1.59,0,0,0-1.129-.383,1.666,1.666,0,0,0-1.086.355,1.137,1.137,0,0,0-.437.926H1.461a2.777,2.777,0,0,1,.48-1.6A3.2,3.2,0,0,1,3.285,5.867a4.485,4.485,0,0,1,1.9-.4,4.253,4.253,0,0,1,2.828.863A2.945,2.945,0,0,1,9.039,8.711a2.394,2.394,0,0,1-.477,1.438,3.1,3.1,0,0,1-1.25,1.008,2.826,2.826,0,0,1,1.434,1.031,2.8,2.8,0,0,1,.473,1.625,2.994,2.994,0,0,1-1.105,2.43,4.445,4.445,0,0,1-2.926.914,4.214,4.214,0,0,1-2.785-.9A2.934,2.934,0,0,1,1.32,13.883H3.578a1.308,1.308,0,0,0,.48,1.047,1.771,1.771,0,0,0,1.184.406A1.779,1.779,0,0,0,6.5,14.91a1.47,1.47,0,0,0,.457-1.129q0-1.7-1.875-1.7h-1.2ZM18.57,17h-7.8V15.453l3.68-3.922a9.078,9.078,0,0,0,1.121-1.445,2.322,2.322,0,0,0,.363-1.172,1.738,1.738,0,0,0-.383-1.191,1.382,1.382,0,0,0-1.094-.434,1.49,1.49,0,0,0-1.207.527A2.089,2.089,0,0,0,12.813,9.2H10.547a3.729,3.729,0,0,1,.5-1.9,3.5,3.5,0,0,1,1.4-1.348A4.262,4.262,0,0,1,14.5,5.469a4.036,4.036,0,0,1,2.73.844A2.985,2.985,0,0,1,18.2,8.7a3.825,3.825,0,0,1-.437,1.719,9.551,9.551,0,0,1-1.5,2.039L13.68,15.18H18.57Z" transform="translate(2167.011 -8449)" fill="#12263f"/><path d="M12.879,13.719,14.41,5.625h2.336L14.223,17H11.863L10.012,9.391,8.16,17H5.8L3.277,5.625H5.613L7.152,13.7,9.027,5.625h1.984Z" transform="translate(2167.011 -8419)" fill="#12263f"/><path d="M3.891,10.313h1.2a1.7,1.7,0,0,0,1.273-.43,1.574,1.574,0,0,0,.414-1.141,1.392,1.392,0,0,0-.41-1.07,1.59,1.59,0,0,0-1.129-.383,1.666,1.666,0,0,0-1.086.355,1.137,1.137,0,0,0-.437.926H1.461a2.777,2.777,0,0,1,.48-1.6A3.2,3.2,0,0,1,3.285,5.867a4.485,4.485,0,0,1,1.9-.4,4.253,4.253,0,0,1,2.828.863A2.945,2.945,0,0,1,9.039,8.711a2.394,2.394,0,0,1-.477,1.438,3.1,3.1,0,0,1-1.25,1.008,2.826,2.826,0,0,1,1.434,1.031,2.8,2.8,0,0,1,.473,1.625,2.994,2.994,0,0,1-1.105,2.43,4.445,4.445,0,0,1-2.926.914,4.214,4.214,0,0,1-2.785-.9A2.934,2.934,0,0,1,1.32,13.883H3.578a1.308,1.308,0,0,0,.48,1.047,1.771,1.771,0,0,0,1.184.406A1.779,1.779,0,0,0,6.5,14.91a1.47,1.47,0,0,0,.457-1.129q0-1.7-1.875-1.7h-1.2Zm9.18,0h1.2a1.7,1.7,0,0,0,1.273-.43,1.574,1.574,0,0,0,.414-1.141,1.392,1.392,0,0,0-.41-1.07,1.59,1.59,0,0,0-1.129-.383,1.666,1.666,0,0,0-1.086.355,1.137,1.137,0,0,0-.437.926H10.641a2.777,2.777,0,0,1,.48-1.6,3.2,3.2,0,0,1,1.344-1.105,4.485,4.485,0,0,1,1.9-.4,4.253,4.253,0,0,1,2.828.863,2.945,2.945,0,0,1,1.023,2.379,2.394,2.394,0,0,1-.477,1.438,3.1,3.1,0,0,1-1.25,1.008,2.826,2.826,0,0,1,1.434,1.031,2.8,2.8,0,0,1,.473,1.625,2.994,2.994,0,0,1-1.105,2.43,4.445,4.445,0,0,1-2.926.914,4.214,4.214,0,0,1-2.785-.9A2.934,2.934,0,0,1,10.5,13.883h2.258a1.308,1.308,0,0,0,.48,1.047,1.771,1.771,0,0,0,1.184.406,1.779,1.779,0,0,0,1.262-.426,1.47,1.47,0,0,0,.457-1.129q0-1.7-1.875-1.7h-1.2Z" transform="translate(2194.011 -8449)" fill="#12263f"/><path d="M10,9.547l2.133-3.922h2.7L11.52,11.266,14.918,17H12.191L10,13.016,7.816,17H5.09l3.4-5.734L5.176,5.625h2.7Z" transform="translate(2194.011 -8419)" fill="#12263f"/><path d="M3.891,10.313h1.2a1.7,1.7,0,0,0,1.273-.43,1.574,1.574,0,0,0,.414-1.141,1.392,1.392,0,0,0-.41-1.07,1.59,1.59,0,0,0-1.129-.383,1.666,1.666,0,0,0-1.086.355,1.137,1.137,0,0,0-.437.926H1.461a2.777,2.777,0,0,1,.48-1.6A3.2,3.2,0,0,1,3.285,5.867a4.485,4.485,0,0,1,1.9-.4,4.253,4.253,0,0,1,2.828.863A2.945,2.945,0,0,1,9.039,8.711a2.394,2.394,0,0,1-.477,1.438,3.1,3.1,0,0,1-1.25,1.008,2.826,2.826,0,0,1,1.434,1.031,2.8,2.8,0,0,1,.473,1.625,2.994,2.994,0,0,1-1.105,2.43,4.445,4.445,0,0,1-2.926.914,4.214,4.214,0,0,1-2.785-.9A2.934,2.934,0,0,1,1.32,13.883H3.578a1.308,1.308,0,0,0,.48,1.047,1.771,1.771,0,0,0,1.184.406A1.779,1.779,0,0,0,6.5,14.91a1.47,1.47,0,0,0,.457-1.129q0-1.7-1.875-1.7h-1.2Zm13.563,2.406h1.289v1.82H17.453V17H15.2V14.539H10.531l-.1-1.422,4.742-7.492h2.281Zm-4.773,0H15.2V8.7l-.148.258Z" transform="translate(2220.011 -8449)" fill="#12263f"/><path d="M9.992,10.75l2.367-5.125h2.563l-3.734,7.25V17H8.8V12.875L5.07,5.625h2.57Z" transform="translate(2220.011 -8419)" fill="#12263f"/><path d="M3.891,10.313h1.2a1.7,1.7,0,0,0,1.273-.43,1.574,1.574,0,0,0,.414-1.141,1.392,1.392,0,0,0-.41-1.07,1.59,1.59,0,0,0-1.129-.383,1.666,1.666,0,0,0-1.086.355,1.137,1.137,0,0,0-.437.926H1.461a2.777,2.777,0,0,1,.48-1.6A3.2,3.2,0,0,1,3.285,5.867a4.485,4.485,0,0,1,1.9-.4,4.253,4.253,0,0,1,2.828.863A2.945,2.945,0,0,1,9.039,8.711a2.394,2.394,0,0,1-.477,1.438,3.1,3.1,0,0,1-1.25,1.008,2.826,2.826,0,0,1,1.434,1.031,2.8,2.8,0,0,1,.473,1.625,2.994,2.994,0,0,1-1.105,2.43,4.445,4.445,0,0,1-2.926.914,4.214,4.214,0,0,1-2.785-.9A2.934,2.934,0,0,1,1.32,13.883H3.578a1.308,1.308,0,0,0,.48,1.047,1.771,1.771,0,0,0,1.184.406A1.779,1.779,0,0,0,6.5,14.91a1.47,1.47,0,0,0,.457-1.129q0-1.7-1.875-1.7h-1.2Zm7.219,1.094.656-5.781h6.375V7.508H13.617l-.281,2.445a3.58,3.58,0,0,1,1.711-.43,3.279,3.279,0,0,1,2.547,1.008,4.026,4.026,0,0,1,.922,2.82,4.124,4.124,0,0,1-.465,1.973,3.281,3.281,0,0,1-1.332,1.352,4.158,4.158,0,0,1-2.047.48,4.416,4.416,0,0,1-1.914-.418,3.4,3.4,0,0,1-1.395-1.176,3.2,3.2,0,0,1-.543-1.727h2.234a1.669,1.669,0,0,0,.5,1.105,1.573,1.573,0,0,0,1.113.395,1.388,1.388,0,0,0,1.18-.551,2.551,2.551,0,0,0,.414-1.559,2.11,2.11,0,0,0-.477-1.484,1.749,1.749,0,0,0-1.352-.516,1.954,1.954,0,0,0-1.3.422l-.219.2Z" transform="translate(2246.011 -8449)" fill="#12263f"/><path d="M8.652,15.117h5.734V17H5.723V15.625l5.625-8.1H5.73v-1.9h8.531V6.969Z" transform="translate(2247.011 -8419)" fill="#12263f"/></g></svg>