<svg xmlns="http://www.w3.org/2000/svg" width="190" height="106.981" viewBox="0 0 190 106.981">
  <g id="Grupo_924104" data-name="Grupo 924104" transform="translate(-180 -2126.843)">
    <rect id="Rect치ngulo_62562" data-name="Rect치ngulo 62562" width="190" height="106.981" rx="11" transform="translate(180 2126.843)" fill="#ffba5b" opacity="0.4"/>
    <rect id="Rect치ngulo_62563" data-name="Rect치ngulo 62563" width="10" height="106.981" transform="translate(360 2126.843)" fill="#ffba5b"/>
    <g id="Grupo_251494" data-name="Grupo 251494" transform="translate(231 2137.582)">
      <g id="Grupo_251495" data-name="Grupo 251495" transform="translate(0 0.761)">
        <path id="Trazado_274974" data-name="Trazado 274974" d="M0,160.14a1.878,1.878,0,0,1,1.788-.853q40.22.023,80.441.013c1.348,0,1.756.409,1.756,1.755q0,22.8.016,45.591a2.056,2.056,0,0,1-.835,1.883H0V160.14m76.77,45.74h4.561v-2.605c.01-.163.028-.327.028-.49q0-20.133,0-40.265c0-.182-.032-.365-.05-.563H76.767l-2.623,0H62l-2.623,0h-12.3l-2.623,0H39.531l-2.623,0H24.6l-2.623,0H9.841l-2.779,0H2.673v43.92H7.215l2.618-.005,4.768,0,2.616,0,4.775,0,2.617,0,4.919,0h2.619l4.768,0,2.618,0h4.919l2.618,0,4.768,0h2.619l4.919,0,2.617-.006,4.771,0h2.619l4.769,0,2.618,0" transform="translate(0 -124.548)" fill="#010101"/>
        <path id="Trazado_274975" data-name="Trazado 274975" d="M115.464,6.894a6.888,6.888,0,0,1,4.024,11.016l12.56,10.774c1.057.907,2.12,1.808,3.168,2.726.744.652.872,1.39.379,2-.524.646-1.3.659-2.081-.008q-7.78-6.663-15.544-13.345a.946.946,0,0,0-1.2-.216,6.091,6.091,0,0,1-5.3-.019.835.835,0,0,0-1.065.162q-7.629,6.588-15.283,13.147c-.166.142-.328.29-.5.422a1.307,1.307,0,1,1-1.672-2c2.165-1.882,4.347-3.743,6.523-5.612l9.375-8.053a7.315,7.315,0,0,1-1.486-3.83c-.062-1.028.342-1.669,1.161-1.759.793-.088,1.275.469,1.465,1.5.144.781.424,1.537.7,2.491a5.087,5.087,0,0,1,3.433-1.651,4.566,4.566,0,0,1,3.256,1.459c1.924-1.94.867-5.549-1.856-6.454a6.65,6.65,0,0,0-1.284-.218,1.356,1.356,0,0,1-1.387-1.494q-.019-2.869,0-5.738a1.312,1.312,0,1,1,2.615-.01c.017,1.554.005,3.109.005,4.714m-2.2,10.5q0,.143,0,.285h1.75q0-.143-.006-.285Z" transform="translate(-72.159 -0.761)" fill="#040404"/>
        <path id="Trazado_274976" data-name="Trazado 274976" d="M179.919,171.471h4.922q.019,2,.037,4.009c-.023.353-.066.707-.066,1.061q-.005,16.706,0,33.412a9.149,9.149,0,0,0,.157,1.2q-.07.823-.14,1.647h-4.906l-.142-1.647a11.591,11.591,0,0,0,.158-1.366q.013-16.541,0-33.083c0-.408-.044-.816-.067-1.224l.038-4.011" transform="translate(-140.387 -134.062)" fill="#f1a99c"/>
        <path id="Trazado_274977" data-name="Trazado 274977" d="M16.741,215.409H12.2v-43.92h4.389q.059,2.123.118,4.246,0,17.029,0,34.058a11.705,11.705,0,0,0,.157,1.367q-.063,2.125-.127,4.249" transform="translate(-9.526 -134.076)" fill="#ff6d4b"/>
        <path id="Trazado_274978" data-name="Trazado 274978" d="M111.675,171.466H116.6l.13,3.923a8.03,8.03,0,0,0-.134,1.044q-.011,16.8,0,33.6a7.984,7.984,0,0,0,.156,1.122l-.163,1.321a13.032,13.032,0,0,1-1.364-.123c-1.133-.217-2.259-.474-3.388-.715l-.274-.482a8.654,8.654,0,0,0,.167-1.205q.014-16.722,0-33.445a7.425,7.425,0,0,0-.22-1.272,3.892,3.892,0,0,0,.163-.758c.019-1,.007-2,.007-3.007" transform="translate(-87.07 -134.058)" fill="#f1a99c"/>
        <path id="Trazado_274979" data-name="Trazado 274979" d="M247.963,171.467h4.922c0,.514-.022,1.03,0,1.543.036.741.106,1.481.162,2.221a10.682,10.682,0,0,0-.238,1.6q-.021,16.428-.005,32.855c0,.461.075.922.115,1.384l-.048,1.735-4.907-.007-.158-1.643a9.118,9.118,0,0,0,.158-1.2q.013-16.716,0-33.431a9.226,9.226,0,0,0-.135-1.126l.131-3.923" transform="translate(-193.505 -134.058)" fill="#f1a99c"/>
        <path id="Trazado_274980" data-name="Trazado 274980" d="M315.78,171.479h4.759c0,.842-.021,1.684.007,2.525.016.47.114.937.175,1.406a13.843,13.843,0,0,0-.134,1.379q-.011,16.484,0,32.967c0,.354.031.708.048,1.063l-.09,1.977-4.759.008-.051-1.906c.015-.245.042-.49.042-.736q0-16.891-.008-33.781a5.627,5.627,0,0,0-.223-1.108,3.32,3.32,0,0,0,.228-.8c.027-1,.01-1.995.01-2.992" transform="translate(-246.395 -134.068)" fill="#f1a99c"/>
        <path id="Trazado_274981" data-name="Trazado 274981" d="M146.156,171.478h4.759c0,.732-.023,1.464.006,2.2.023.579.109,1.155.167,1.732a11.971,11.971,0,0,0-.137,1.293q-.012,16.578,0,33.156c0,.326.034.653.051.979q-.041.982-.083,1.964l-4.758,0-.059-1.919c.016-.3.046-.6.046-.9q0-16.728,0-33.455A8.97,8.97,0,0,0,146,175.4a4.252,4.252,0,0,0,.149-.763c.017-1.053.007-2.106.006-3.16" transform="translate(-114.007 -134.068)" fill="#f1a99c"/>
        <path id="Trazado_274982" data-name="Trazado 274982" d="M282.1,171.479h4.759q.067,1.961.134,3.923a10.576,10.576,0,0,0-.135,1.208q-.011,16.669,0,33.338c0,.327.023.654.035.982l-.032,1.875-4.759-.011-.233-1.663a12.49,12.49,0,0,0,.167-1.455q.014-16.433.006-32.866c0-.355-.02-.709-.031-1.064Z" transform="translate(-220.097 -134.068)" fill="#f1a99c"/>
        <path id="Trazado_274983" data-name="Trazado 274983" d="M214.519,171.478h4.759c0,.513-.019,1.027,0,1.539.036.8.1,1.589.151,2.383a11.864,11.864,0,0,0-.139,1.292q-.012,16.564,0,33.128c0,.355.028.709.043,1.064q-.028.959-.057,1.918l-4.758,0q-.042-.982-.085-1.963c.018-.381.053-.762.054-1.143q.007-16.954.009-33.908.012-2.153.024-4.306" transform="translate(-167.442 -134.068)" fill="#f1a99c"/>
        <path id="Trazado_274984" data-name="Trazado 274984" d="M349.87,171.471h4.541c.018.2.05.38.05.563q0,20.133,0,40.265c0,.163-.018.327-.028.49l-4.555.015-.134-1.649a11.451,11.451,0,0,0,.161-1.368q.014-16.549,0-33.1c0-.408-.046-.816-.071-1.225q.015-2,.03-3.994" transform="translate(-273.103 -134.062)" fill="#f1a99c"/>
        <path id="Trazado_274985" data-name="Trazado 274985" d="M78.11,171.478H82.87c0,.9-.02,1.8.009,2.705a6.925,6.925,0,0,0,.2,1.075c-.047.678-.135,1.355-.136,2.033q-.013,16.041-.007,32.082c0,.327-.019.653-.029.98a3.109,3.109,0,0,1-.765-.218c-1.341-.794-2.668-1.613-4-2.425-.008-.327-.023-.654-.023-.981q0-15.021-.007-30.041a11.954,11.954,0,0,0-.136-1.289l.135-3.923" transform="translate(-60.888 -134.068)" fill="#f1a99c"/>
        <path id="Trazado_274986" data-name="Trazado 274986" d="M44.252,171.478H49.01c0,1-.017,1.994.01,2.99a3.352,3.352,0,0,0,.225.8,8.349,8.349,0,0,0-.221,1.352Q49,187.831,49.014,199.04c0,2.072-.017,4.144-.026,6.216a16.651,16.651,0,0,1-1.625-1.695c-1.079-1.482-2.08-3.021-3.113-4.538-.013-.353-.038-.707-.038-1.06q0-10.59-.008-21.18a13.7,13.7,0,0,0-.136-1.375,3.594,3.594,0,0,0,.177-.753c.02-1.059.008-2.119.008-3.178" transform="translate(-34.41 -134.068)" fill="#f1a99c"/>
        <path id="Trazado_274987" data-name="Trazado 274987" d="M44.162,297.179c1.033,1.516,2.034,3.055,3.113,4.538a16.672,16.672,0,0,0,1.625,1.695q.015,2.78.031,5.561,0,2.29-.006,4.581l-4.768,0c0-1.147.016-2.293-.005-3.44a3.938,3.938,0,0,0-.2-.832,12.341,12.341,0,0,0,.159-1.373c.026-3.576.034-7.152.048-10.728" transform="translate(-34.324 -232.223)" fill="#ff6d4b"/>
        <path id="Trazado_274988" data-name="Trazado 274988" d="M78.258,336.82c1.331.811,2.657,1.631,4,2.425a3.1,3.1,0,0,0,.765.218l.192.754a2.819,2.819,0,0,0-.216.731c-.02,1.186,0,2.373,0,3.56l-4.775,0-.1-4.407q.067-1.642.134-3.285" transform="translate(-61.004 -263.177)" fill="#ff6d4b"/>
        <path id="Trazado_274989" data-name="Trazado 274989" d="M112.442,354.771c1.129.241,2.255.5,3.388.715a12.975,12.975,0,0,0,1.364.122q.006,1.458.011,2.916l-4.919,0c0-.35-.012-.7,0-1.051.043-.9.1-1.8.151-2.705" transform="translate(-87.677 -277.194)" fill="#ff6d4b"/>
        <path id="Trazado_274990" data-name="Trazado 274990" d="M248.511,360.063l4.907.007q0,1.295.007,2.59l-4.919,0q0-1.3.005-2.594" transform="translate(-194.049 -281.327)" fill="#ff6d4b"/>
        <path id="Trazado_274991" data-name="Trazado 274991" d="M180.41,360.083h4.905q0,1.3.007,2.591H180.4q0-1.3.007-2.591" transform="translate(-140.87 -281.342)" fill="#ff6d4b"/>
        <path id="Trazado_274992" data-name="Trazado 274992" d="M316.622,360.029l4.759-.007.006,2.6-4.769,0q0-1.3,0-2.6" transform="translate(-247.234 -281.294)" fill="#ff6d4b"/>
        <path id="Trazado_274993" data-name="Trazado 274993" d="M282.9,360.011l4.759.01q0,1.3,0,2.6l-4.77,0,.007-2.6" transform="translate(-220.904 -281.286)" fill="#ff6d4b"/>
        <path id="Trazado_274994" data-name="Trazado 274994" d="M214.8,360.031l4.758.005q0,1.3,0,2.6l-4.768,0q0-1.3.006-2.6" transform="translate(-167.725 -281.302)" fill="#ff6d4b"/>
        <path id="Trazado_274995" data-name="Trazado 274995" d="M146.7,360.036l4.758,0,.006,2.6-4.768,0,0-2.6" transform="translate(-114.55 -281.302)" fill="#ff6d4b"/>
        <path id="Trazado_274996" data-name="Trazado 274996" d="M350.334,360.036l4.555-.015v2.605h-4.562q0-1.3.007-2.59" transform="translate(-273.557 -281.294)" fill="#ff6d4b"/>
        <path id="Trazado_274997" data-name="Trazado 274997" d="M69.152,351.173q.049,2.2.1,4.407l-2.616,0q0-2.291.006-4.581c.791,1.2,1.67,1.261,2.512.178" transform="translate(-52.032 -274.246)" fill="#f1a99c"/>
        <path id="Trazado_274998" data-name="Trazado 274998" d="M304.651,355.86q0-1.3,0-2.6.016-.937.032-1.875,1.31,1.686,2.544-.032l.051,1.906,0,2.6h-2.619" transform="translate(-237.887 -274.529)" fill="#f1a99c"/>
        <path id="Trazado_274999" data-name="Trazado 274999" d="M137.329,353.215l0,2.6h-2.619q-.006-1.458-.011-2.916.082-.66.163-1.321c.975.891,1.658.812,2.412-.278l.059,1.919" transform="translate(-105.177 -274.481)" fill="#f1a99c"/>
        <path id="Trazado_275000" data-name="Trazado 275000" d="M103.1,352.858c-.051.9-.107,1.8-.151,2.705-.017.35,0,.7,0,1.051l-2.617,0c0-1.187-.019-2.374,0-3.56a2.828,2.828,0,0,1,.216-.731c.831.86,1.4.874,2.281.055l.274.482" transform="translate(-78.336 -275.281)" fill="#f1a99c"/>
        <path id="Trazado_275001" data-name="Trazado 275001" d="M236.538,355.815l0-2.6q.028-.959.057-1.918c.76,1.09,1.437,1.168,2.414.277l.158,1.643q0,1.3-.005,2.594h-2.619" transform="translate(-184.7 -274.485)" fill="#f1a99c"/>
        <path id="Trazado_275002" data-name="Trazado 275002" d="M205.449,353.038q0,1.3-.006,2.6l-2.618,0q0-1.3-.007-2.591.07-.823.14-1.647c.977.912,1.72.811,2.4-.327l.085,1.962" transform="translate(-158.374 -274.309)" fill="#f1a99c"/>
        <path id="Trazado_275003" data-name="Trazado 275003" d="M168.437,355.631q0-1.3-.006-2.6.041-.982.083-1.964c.683,1.139,1.428,1.241,2.405.328l.142,1.647q0,1.3-.007,2.591l-2.618,0" transform="translate(-131.521 -274.302)" fill="#f1a99c"/>
        <path id="Trazado_275004" data-name="Trazado 275004" d="M340.984,352.99q0,1.3-.007,2.59l-2.618,0q0-1.3-.006-2.6l.09-1.977c.668,1.154,1.427,1.262,2.406.344q.067.824.134,1.649" transform="translate(-264.208 -274.247)" fill="#f1a99c"/>
        <path id="Trazado_275005" data-name="Trazado 275005" d="M35.342,352.4a3.954,3.954,0,0,1,.2.832c.021,1.146.007,2.293.005,3.44l-2.619,0q.063-2.125.127-4.249c.858.829,1.422.823,2.291-.027" transform="translate(-25.709 -275.341)" fill="#f1a99c"/>
        <path id="Trazado_275006" data-name="Trazado 275006" d="M273.552,353.892l-.007,2.6-2.618.006q0-1.295-.007-2.59l.048-1.735c.861.91,1.48.924,2.35.054l.233,1.663" transform="translate(-211.552 -275.167)" fill="#f1a99c"/>
        <path id="Trazado_275007" data-name="Trazado 275007" d="M35.008,171.478c0,1.06.012,2.119-.008,3.178a3.594,3.594,0,0,1-.177.753c-1-.993-1.815-.889-2.476.317q-.059-2.123-.118-4.246l2.779,0" transform="translate(-25.166 -134.068)" fill="#f1a99c"/>
        <path id="Trazado_275008" data-name="Trazado 275008" d="M205.48,171.473q-.012,2.153-.024,4.306c-.714-1.294-1.6-1.4-2.562-.3q-.018-2-.037-4.009l2.623,0" transform="translate(-158.403 -134.062)" fill="#f1a99c"/>
        <path id="Trazado_275009" data-name="Trazado 275009" d="M340.94,171.471q-.015,2-.03,3.994c-.887-.974-1.479-.989-2.411-.062-.061-.469-.159-.936-.175-1.406-.029-.841-.007-1.683-.007-2.525l2.623,0" transform="translate(-264.173 -134.062)" fill="#f1a99c"/>
        <path id="Trazado_275010" data-name="Trazado 275010" d="M273.563,171.47l-.094,4.266c-.629-1.157-1.308-1.3-2.363-.506-.056-.74-.126-1.48-.162-2.221-.025-.513,0-1.028,0-1.543l2.623,0" transform="translate(-211.56 -134.059)" fill="#f1a99c"/>
        <path id="Trazado_275011" data-name="Trazado 275011" d="M168.568,175.4c-.058-.577-.145-1.154-.168-1.732-.029-.731-.006-1.463-.006-2.2l2.623,0-.038,4.011c-.861-.986-1.48-1.007-2.411-.082" transform="translate(-131.486 -134.062)" fill="#f1a99c"/>
        <path id="Trazado_275012" data-name="Trazado 275012" d="M137.364,171.473c0,1.053.011,2.107-.006,3.16a4.252,4.252,0,0,1-.149.763c-.9-.9-1.465-.9-2.338,0q-.065-1.962-.13-3.923h2.623" transform="translate(-105.214 -134.063)" fill="#f1a99c"/>
        <path id="Trazado_275013" data-name="Trazado 275013" d="M236.669,175.4c-.052-.794-.115-1.588-.151-2.383-.023-.512,0-1.026,0-1.539h2.623q-.065,1.962-.131,3.923c-.874-.9-1.445-.9-2.338,0" transform="translate(-184.679 -134.063)" fill="#f1a99c"/>
        <path id="Trazado_275014" data-name="Trazado 275014" d="M100.494,175.249a6.921,6.921,0,0,1-.2-1.075c-.029-.9-.009-1.8-.009-2.705l2.623,0c0,1,.012,2.005-.007,3.007a3.908,3.908,0,0,1-.163.758c-.9-.675-1.1-.673-2.245.018" transform="translate(-78.304 -134.058)" fill="#f1a99c"/>
        <path id="Trazado_275015" data-name="Trazado 275015" d="M304.792,175.4q-.067-1.961-.134-3.923h2.623c0,1,.017,2-.01,2.992a3.306,3.306,0,0,1-.228.8c-.923-.753-1.422-.724-2.251.13" transform="translate(-237.896 -134.067)" fill="#f1a99c"/>
        <path id="Trazado_275016" data-name="Trazado 275016" d="M66.84,175.27a3.337,3.337,0,0,1-.225-.8c-.027-1-.011-1.993-.01-2.99h2.623l-.135,3.923c-.829-.853-1.327-.882-2.252-.131" transform="translate(-52.005 -134.068)" fill="#f1a99c"/>
        <path id="Trazado_275017" data-name="Trazado 275017" d="M187.587,76.662h1.749c0,.1,0,.19.006.285h-1.75q0-.143,0-.285" transform="translate(-146.48 -60.029)" fill="#d6d6d6"/>
        <path id="Trazado_275018" data-name="Trazado 275018" d="M168.707,186.992c.931-.925,1.55-.9,2.411.082.023.408.067.816.067,1.224q.006,16.541,0,33.083a11.642,11.642,0,0,1-.158,1.366c-.978.912-1.722.811-2.405-.328-.018-.327-.051-.653-.051-.979q0-16.578,0-33.156a11.92,11.92,0,0,1,.137-1.293" transform="translate(-131.625 -145.654)" fill="#040203"/>
        <path id="Trazado_275019" data-name="Trazado 275019" d="M202.782,187.076c.962-1.1,1.848-1,2.562.3q0,16.954-.009,33.908c0,.381-.035.762-.054,1.143-.684,1.138-1.427,1.239-2.4.327a9.116,9.116,0,0,1-.157-1.2q-.013-16.706,0-33.412c0-.354.043-.707.066-1.061" transform="translate(-158.291 -145.658)" fill="#040203"/>
        <path id="Trazado_275020" data-name="Trazado 275020" d="M32.763,187.333c.661-1.206,1.473-1.31,2.476-.317a13.7,13.7,0,0,1,.136,1.375q.013,10.59.008,21.18c0,.353.025.706.038,1.06-.013,3.576-.021,7.152-.048,10.728a12.336,12.336,0,0,1-.159,1.373c-.869.85-1.432.857-2.291.027a11.67,11.67,0,0,1-.157-1.368q-.012-17.029,0-34.058" transform="translate(-25.582 -145.675)" fill="#050303"/>
        <path id="Trazado_275021" data-name="Trazado 275021" d="M134.834,186.976c.873-.9,1.44-.9,2.338,0a9.01,9.01,0,0,1,.14,1.128q.011,16.727,0,33.455c0,.3-.03.6-.046.9-.755,1.091-1.438,1.17-2.412.278a7.98,7.98,0,0,1-.156-1.122q-.013-16.8,0-33.6a8.031,8.031,0,0,1,.134-1.044" transform="translate(-105.178 -145.644)" fill="#020101"/>
        <path id="Trazado_275022" data-name="Trazado 275022" d="M100.644,186.873c1.147-.691,1.343-.693,2.245-.018a7.424,7.424,0,0,1,.22,1.272q.018,16.722,0,33.445a8.654,8.654,0,0,1-.167,1.205c-.878.819-1.45.8-2.281-.055l-.192-.754c.01-.327.029-.653.029-.98q0-16.041.007-32.082c0-.678.089-1.356.136-2.033" transform="translate(-78.455 -145.682)"/>
        <path id="Trazado_275023" data-name="Trazado 275023" d="M270.841,186.86c1.056-.8,1.734-.652,2.363.506.011.355.031.709.031,1.064q0,16.433-.006,32.866a12.457,12.457,0,0,1-.167,1.454c-.87.87-1.49.856-2.35-.054-.04-.462-.114-.923-.115-1.384q-.01-16.428.005-32.855a10.71,10.71,0,0,1,.238-1.6" transform="translate(-211.295 -145.688)" fill="#070304"/>
        <path id="Trazado_275024" data-name="Trazado 275024" d="M236.731,186.975c.893-.9,1.464-.9,2.338,0a9.18,9.18,0,0,1,.136,1.126q.011,16.716,0,33.431a9.052,9.052,0,0,1-.158,1.2c-.976.891-1.654.813-2.414-.277-.015-.355-.043-.709-.044-1.064q0-16.564,0-33.128a11.858,11.858,0,0,1,.139-1.292" transform="translate(-184.741 -145.643)" fill="#020101"/>
        <path id="Trazado_275025" data-name="Trazado 275025" d="M338.677,186.985c.932-.927,1.523-.911,2.411.062.025.408.07.816.071,1.225q.006,16.549,0,33.1a11.446,11.446,0,0,1-.161,1.368c-.979.918-1.738.81-2.406-.344-.017-.354-.048-.708-.048-1.063q0-16.483,0-32.967a13.768,13.768,0,0,1,.134-1.379" transform="translate(-264.35 -145.644)" fill="#060303"/>
        <path id="Trazado_275026" data-name="Trazado 275026" d="M304.769,186.995c.828-.854,1.328-.883,2.251-.13a5.63,5.63,0,0,1,.224,1.108q.018,16.891.008,33.781c0,.245-.028.49-.042.736q-1.238,1.718-2.544.032c-.012-.327-.035-.654-.035-.982q0-16.669,0-33.338a10.617,10.617,0,0,1,.135-1.208" transform="translate(-237.872 -145.662)" fill="#010101"/>
        <path id="Trazado_275027" data-name="Trazado 275027" d="M66.778,186.865c.925-.751,1.424-.722,2.252.131a11.954,11.954,0,0,1,.136,1.289q.012,15.02.007,30.041c0,.327.015.654.023.981q-.067,1.642-.134,3.284c-.841,1.083-1.721,1.02-2.512-.178q-.015-2.78-.031-5.561c.009-2.072.025-4.144.026-6.216q0-11.209.011-22.418a8.349,8.349,0,0,1,.221-1.352" transform="translate(-51.943 -145.663)" fill="#010101"/>
      </g>
    </g>
  </g>
</svg>
