<svg xmlns="http://www.w3.org/2000/svg" width="156" height="156" viewBox="0 0 156 156"><g transform="translate(5635 -2121)"><g transform="translate(-6147 -4008)"><circle cx="78" cy="78" r="78" transform="translate(512 6129)" fill="#f1a99c"/></g><g transform="translate(-5602.853 2154.881)"><g transform="translate(2.209)"><path d="M48.583,52.736a1.4,1.4,0,0,1,1.454-1.3c2.9.011,5.807-.107,8.7.074a11.187,11.187,0,0,1,10.51,9.58c.947,6.032,1.747,12.088,2.61,18.133.32,2.242.611,4.489.971,6.725a2.209,2.209,0,0,1-.627,2.292H71.163l-.868-1.208L69.706,82.4H61.581v4.464l-.76,1.376H59.787l-.862-1.224q.015-9.363.028-18.727c0-1.941-.835-2.673-2.793-2.467-.285-.019-.569-.056-.854-.056q-18.292,0-36.584,0c-.23,0-.46,0-.688.015a1.9,1.9,0,0,0-1.875,1.964c-.012,6.425.006,12.851.013,19.276l-.854,1.219H14.283l-.77-1.376V82.415H5.385L4.822,86.86l-.88,1.378H2.908a2.206,2.206,0,0,1-.635-2.292c.807-5.506,1.576-11.017,2.36-16.526.421-2.953.714-5.932,1.3-8.852a11.491,11.491,0,0,1,11.489-9.133c3.849-.023,7.7,0,11.547,0h.952V48c-6.375-2.14-8.826-6.778-8.341-13.288-.32,0-.544.009-.767,0a6.251,6.251,0,0,1-6.225-6.437c-.01-1.35-.027-2.7.01-4.049a6.152,6.152,0,0,1,5.178-5.989c.579-.1,1.172-.134,1.776-.2,0-.157,0-.271,0-.384A17.9,17.9,0,0,1,33.938.867C35.008.517,36.117.286,37.208,0h16.03a14.688,14.688,0,0,1,1.739.566A7.285,7.285,0,0,1,59.4,7.356a12.272,12.272,0,0,1-3.3,9.451c-.368.389-.687.825-1.107,1.335.33.068.54.1.748.154A6.162,6.162,0,0,1,60.5,24.107c.04,1.4.028,2.811.013,4.216a6.242,6.242,0,0,1-6.172,6.391c-.227.011-.454,0-.836,0a31.949,31.949,0,0,1-.016,3.267,10.864,10.864,0,0,1-7.779,9.8c-.135.047-.265.108-.4.162l-.129.139q0,2.327,0,4.653c-.134,1.3-.269,2.591-.4,3.9H63.911L64.1,56.6l-.185-.211a8.039,8.039,0,0,0-3.778-2.061l-.179-.029a9.668,9.668,0,0,0-1.429-.228c-2.713-.036-5.426-.038-8.139-.056-1.207-.008-1.426-.168-1.806-1.28M65.819,71.168H68.1l-.765-5.354H61.379c.08,1.8.157,3.555.237,5.354ZM54.27,20.724c-.52-.116-.727.1-.726.623.008,3.4.014,6.793,0,10.19,0,.591.242.691.73.541a3.589,3.589,0,0,0,3.649-3.638q.028-1.979,0-3.959a3.643,3.643,0,0,0-3.649-3.757m-35.008,11,2.233.5v-11.7l-2.256.638A3.145,3.145,0,0,0,17.207,24c-.07,1.6-.076,3.213,0,4.815a3.151,3.151,0,0,0,2.053,2.91M44.491,45.38l-.044-.024.04.031a7.209,7.209,0,0,0,3.49-1.747c3.38-2.84,3.084-6.684,2.936-10.5l-2.567,1.276c-1.168.088-2.336.19-3.5.262a7.185,7.185,0,0,1-6.3-3.044c-.763-.955-1.272-1.011-1.939-.024-2.629,3.89-8.715,3.692-11.516,2.01-.283-.17-.56-.352-.943-.594,0,1.375-.006,2.626,0,3.877a8.485,8.485,0,0,0,8.8,8.773q4.647.018,9.295-.007c.625,0,1.249-.124,1.873-.19l.388-.1M66.157,73.829H61.584v5.92h7.733c-.287-2.01-.566-3.97-.844-5.92ZM32.719,48.3l-.14.124c-.012.658-.03,1.316-.034,1.974-.006,1,0,2.006,0,3.009.008,3.35,2.323,5.2,5.865,4.692a4.163,4.163,0,0,0,3.936-3,6.511,6.511,0,0,0,.2-1.69c.025-1.7.009-3.4.009-5.1H40.3Zm15.85-27.553c-.143-.01-.286-.028-.429-.028q-11.716,0-23.431,0c-.164,0-.329.023-.519.037v2.74c.879,0,1.708-.006,2.537,0,1.075.01,1.379.249,1.705,1.313a1.5,1.5,0,0,1-1.727,1.3c-.822-.014-1.645,0-2.445,0a4.806,4.806,0,0,0,3.575,5.856,14.575,14.575,0,0,0,2.646.081,4.2,4.2,0,0,0,3.98-2.015c.156-.164.319-.323.469-.493a3.386,3.386,0,0,1,5.256.071,5.735,5.735,0,0,0,5.979,2.436,4.661,4.661,0,0,0,4.8-4.631c.062-1.35.062-1.356-1.306-1.347-.541,0-1.081.039-1.621.059-.342-.016-.685-.046-1.027-.046-4.439,0-8.879-.02-13.318.012-.971.007-1.607-.3-1.834-1.276.149-.909.675-1.314,1.752-1.318q7.486-.024,14.971-.038h2.324V20.743ZM63.922,59.275q-10.469-.01-20.938,0a2.34,2.34,0,0,0-1.014.356,8.731,8.731,0,0,1-8.935-.051,2.4,2.4,0,0,0-1.113-.307c-3.906-.022-7.813-.014-11.719-.014-3.476,0-6.951-.01-10.427.018-.3,0-.787.2-.853.407-.344,1.1-.58,2.238-.884,3.49H63.725c.287,0,.573-.018.86-.028h2.408c-.1-.633-.157-1.2-.293-1.748-.655-2.642-.175-2.172-2.778-2.118m-13.966-41.2a2.18,2.18,0,0,0,2.618-1.058,7.734,7.734,0,0,1,1.2-1.454,10.153,10.153,0,0,0,2.955-8.874,4.473,4.473,0,0,0-4.2-4.047c-.286-.017-.572-.049-.858-.049-4.079,0-8.159-.05-12.237.01A14.926,14.926,0,0,0,26.519,9.718a14.783,14.783,0,0,0-2.363,8.358c.339.017.619.043.9.043q12.022,0,24.044,0c.286,0,.572-.031.858-.047M10.877,56.632H30.47l-.616-2.62c-2.246,0-4.483-.011-6.72,0-2.353.015-4.71-.028-7.056.111a8.168,8.168,0,0,0-5.2,2.506m2.641,17.219h-6.9L5.8,79.71h7.721Zm.206-8.032H7.759L7,71.163h6.475l.245-5.345" transform="translate(-2.209)" fill="#040404"/><path d="M276.238,120.916h-3.61a1.422,1.422,0,0,0-1.647-1.256q-4.432.034-8.863,0a3.747,3.747,0,0,1-3.324-5.613c3.038-5.418,6.136-10.8,9.225-16.192a3.344,3.344,0,0,1,3.137-1.741c1.324,2.236,2.667,4.462,3.967,6.711,1.817,3.141,3.606,6.3,5.4,9.453.884,1.555,1.779,3.145,1.1,5a15.808,15.808,0,0,1-1.335,2.353c-.83.013-1.661.053-2.491.031a1.353,1.353,0,0,0-1.557,1.244m-6.308-15.346c0,1.378-.013,2.757,0,4.135a1.288,1.288,0,1,0,2.571.031q.038-4.091,0-8.183a1.269,1.269,0,0,0-1.324-1.378c-.771.014-1.241.532-1.25,1.432-.014,1.321,0,2.642,0,3.962m2.607,9.6a1.3,1.3,0,1,0-1.336,1.264,1.3,1.3,0,0,0,1.336-1.264" transform="translate(-199.447 -74.032)" fill="#fddf76"/><path d="M267.524,111.973a1.353,1.353,0,0,1,1.557-1.244c.829.023,1.66-.018,2.491-.031a3.739,3.739,0,0,0,3.423-5.43c-3.058-5.481-6.188-10.922-9.316-16.363a3.795,3.795,0,0,0-6.374.013c-3.089,5.389-6.187,10.773-9.225,16.192a3.746,3.746,0,0,0,3.323,5.613q4.432.033,8.863,0a1.422,1.422,0,0,1,1.647,1.256c-.254,1.049-.6,1.336-1.663,1.338-2.987.006-5.974.026-8.96,0a6.323,6.323,0,0,1-5.522-9.349q4.574-8.222,9.31-16.353a6.28,6.28,0,0,1,10.8-.057q4.806,8.188,9.4,16.5a6.347,6.347,0,0,1-5.337,9.259c-.946.033-1.9.024-2.843.01-.982-.015-1.337-.334-1.569-1.347" transform="translate(-190.733 -65.089)" fill="#040403"/><path d="M202.794,231.087a8.04,8.04,0,0,1,3.778,2.062c0,.082,0,.165,0,.247H187.428c.136-1.312.27-2.607.4-3.9h3.409c.38,1.112.6,1.272,1.806,1.281,2.713.017,5.426.02,8.139.056a9.694,9.694,0,0,1,1.429.228l.179.029" transform="translate(-144.867 -176.759)" fill="#f0f6f9"/><path d="M189.206,208.778l.129-.138-.129.138" transform="translate(-146.237 -160.698)" fill="#f0f6f9"/><path d="M103.45,307.408c-.4.012-.8.034-1.2.034q-19.665,0-39.33,0c-.007-6.425-.024-12.851-.013-19.277a1.9,1.9,0,0,1,1.875-1.964c.228-.02.459-.015.688-.015q18.292,0,36.584,0c.285,0,.569.036.854.056a9.614,9.614,0,0,1,.532,3.873c-.015,5.763.005,11.526.013,17.29M90.019,297.76h0c0-.516.01-1.033,0-1.549a4.175,4.175,0,0,0-4.1-4.229c-1.088-.048-2.182-.049-3.269,0a4.157,4.157,0,0,0-4.078,4.157q-.042,1.591,0,3.184a4.164,4.164,0,0,0,4.092,4.144c1.088.04,2.181.042,3.27,0a4.174,4.174,0,0,0,4.081-4.158c.015-.516,0-1.032,0-1.549" transform="translate(-48.954 -220.425)" fill="#b2d9fd"/><path d="M123.518,26.682c-.286.017-.572.047-.858.047q-12.022,0-24.044,0c-.28,0-.56-.026-.9-.043A15.285,15.285,0,0,1,113,11.21c4.078-.06,8.158-.013,12.237-.01.286,0,.572.032.858.049q.55.8,1.1,1.606c1.012,1.478.81,3.161.8,4.808a9.5,9.5,0,0,1-2.244,6.043c-.776.969-1.5,1.982-2.242,2.975" transform="translate(-75.771 -8.611)" fill="#928392"/><path d="M117.6,149.048c-.624.066-1.248.186-1.873.19q-4.647.03-9.295.007a8.486,8.486,0,0,1-8.8-8.773c-.007-1.251,0-2.5,0-3.877.384.242.66.424.943.594,2.8,1.682,8.887,1.879,11.516-2.01.667-.987,1.176-.931,1.938.024a7.186,7.186,0,0,0,6.3,3.044c1.169-.073,2.337-.174,3.5-.262a3.235,3.235,0,0,1,.229.772c.031.741.009,1.484.011,2.226a8.7,8.7,0,0,1-1.934,5.612c-.665.83-1.439,1.574-2.164,2.357l-.04-.031.044.024-.388.1m-6.577-3.782a8.629,8.629,0,0,0,5.676-1.909,1.339,1.339,0,0,0,.386-1.883,1.313,1.313,0,0,0-1.968-.159,5.987,5.987,0,0,1-7.558.051c-.864-.578-1.572-.543-2.042.1-.49.672-.293,1.411.578,2.034a9.194,9.194,0,0,0,4.928,1.764" transform="translate(-75.705 -103.565)" fill="#fcccbd"/><path d="M84.127,261.752c-.287.01-.573.028-.86.028H27.583c.3-1.252.54-2.388.884-3.49.065-.21.557-.4.853-.407,3.476-.028,6.951-.018,10.427-.018,3.906,0,7.813-.008,11.719.014a2.4,2.4,0,0,1,1.113.307,8.731,8.731,0,0,0,8.935.051,2.341,2.341,0,0,1,1.014-.356q10.469-.021,20.938,0l.662,3.867" transform="translate(-21.752 -198.61)" fill="#f4fbfe"/><path d="M104.029,115.193a14.6,14.6,0,0,1-2.646-.081,4.806,4.806,0,0,1-3.575-5.856c.8,0,1.623-.011,2.445,0a1.5,1.5,0,0,0,1.727-1.3l3.43,0c.227.979.863,1.283,1.834,1.276,4.439-.031,8.879-.015,13.318-.012.342,0,.685.03,1.027.046a6.912,6.912,0,0,1-.526,3.862c-.389.719-.9,1.373-1.35,2.057a5.735,5.735,0,0,1-5.979-2.436,3.386,3.386,0,0,0-5.256-.071c-.15.17-.312.329-.469.493a2.938,2.938,0,0,0-.892-.368c-1.689-.084-2.275,1.3-3.088,2.383" transform="translate(-75.756 -83.151)" fill="#918391"/><path d="M105.542,94.243l-3.43,0c-.326-1.063-.63-1.3-1.705-1.313-.829-.008-1.658,0-2.537,0v-2.74c.19-.014.354-.037.519-.037q11.716,0,23.431,0c.143,0,.286.018.429.028q.009,1.356.018,2.713-7.486.018-14.971.038c-1.077,0-1.6.409-1.752,1.318" transform="translate(-75.888 -69.431)" fill="#fecdbe"/><path d="M140.078,219.977c-3.542.51-5.857-1.341-5.865-4.691,0-1,0-2.006,0-3.009,0-.658.022-1.316.034-1.974l.14-.124,7.582.008c0,1.345-.019,2.691.011,4.035a7.578,7.578,0,0,1-1.9,5.755" transform="translate(-103.879 -161.883)" fill="#fdccbd"/><path d="M39.93,237.661a8.168,8.168,0,0,1,5.2-2.506c2.346-.139,4.7-.1,7.056-.111,2.237-.015,4.474,0,6.72,0l.616,2.62Z" transform="translate(-31.262 -181.029)" fill="#e9f0f3"/><path d="M237.542,307.491c-.008-5.763-.028-11.526-.013-17.29a9.615,9.615,0,0,0-.532-3.873c1.958-.206,2.795.526,2.793,2.467q-.009,9.364-.028,18.727l-2.22-.031" transform="translate(-183.047 -220.508)" fill="#89c8fd"/><path d="M25.543,321.391v5.859H17.822c.27-1.929.54-3.867.819-5.859Z" transform="translate(-14.234 -247.54)" fill="#eff6f9"/><path d="M22.27,363.107l-8.692,0,.564-4.445H22.27Z" transform="translate(-10.966 -276.245)" fill="#f2f9fc"/><path d="M29.8,286.435l-.245,5.345H23.075l.755-5.345Z" transform="translate(-18.28 -220.616)" fill="#f2f9fc"/><path d="M210,26.916c.745-.993,1.466-2.006,2.242-2.975a9.5,9.5,0,0,0,2.244-6.043c.005-1.647.207-3.33-.8-4.808q-.55-.8-1.1-1.606a4.474,4.474,0,0,1,4.2,4.047,10.153,10.153,0,0,1-2.955,8.874,7.735,7.735,0,0,0-1.205,1.454A2.179,2.179,0,0,1,210,26.916" transform="translate(-162.252 -8.845)" fill="#796a77"/><path d="M266.04,327.214H260.6v-5.92h4.573l.864,5.92" transform="translate(-201.228 -247.465)" fill="#f4fbfe"/><path d="M266.9,363.045l-6.31.005v-4.464h5.789l.521,4.459" transform="translate(-201.217 -276.188)" fill="#f2f9fc"/><path d="M186.2,156.478c.725-.783,1.5-1.526,2.164-2.357a8.7,8.7,0,0,0,1.934-5.612c0-.742.02-1.485-.011-2.226a3.236,3.236,0,0,0-.229-.772l2.567-1.277c.148,3.813.445,7.657-2.936,10.5a7.212,7.212,0,0,1-3.49,1.747" transform="translate(-143.919 -111.091)" fill="#f9ac9b"/><path d="M76.319,89.967l2.256-.638v11.7l-2.233-.5a2.334,2.334,0,0,0,.183-.623q.018-4.62,0-9.241a2.626,2.626,0,0,0-.205-.7" transform="translate(-59.29 -68.803)" fill="#fbae9c"/><path d="M228.773,90.188a3.643,3.643,0,0,1,3.649,3.757q.026,1.979,0,3.959a3.589,3.589,0,0,1-3.649,3.638,5.49,5.49,0,0,0,1.55-3.779c0-1.146-.006-2.292,0-3.438a5.725,5.725,0,0,0-1.552-4.138" transform="translate(-176.712 -69.464)" fill="#fbae9c"/><path d="M226.324,90.087a5.725,5.725,0,0,1,1.552,4.138c-.008,1.146,0,2.292,0,3.438a5.49,5.49,0,0,1-1.55,3.779c-.488.15-.734.05-.73-.541.019-3.4.013-6.793,0-10.19,0-.523.206-.739.726-.623" transform="translate(-174.263 -69.363)" fill="#fecdbe"/><path d="M159.747,220a7.578,7.578,0,0,0,1.9-5.755c-.03-1.344-.009-2.69-.011-4.035H163.9c0,1.7.016,3.4-.009,5.1a6.525,6.525,0,0,1-.2,1.69,4.163,4.163,0,0,1-3.937,3" transform="translate(-123.547 -161.91)" fill="#fbae9c"/><path d="M264.15,291.769h-4.2c-.08-1.8-.158-3.558-.237-5.354h3.751l.688,5.354" transform="translate(-200.541 -220.601)" fill="#f2f9fc"/><path d="M69.327,92.106a2.625,2.625,0,0,1,.205.7q.021,4.62,0,9.241a2.333,2.333,0,0,1-.183.623,3.151,3.151,0,0,1-2.053-2.91c-.078-1.6-.072-3.212,0-4.815a3.144,3.144,0,0,1,2.032-2.838" transform="translate(-52.298 -70.941)" fill="#fcccbd"/><path d="M193.505,119.4c.454-.684.96-1.338,1.349-2.057a6.909,6.909,0,0,0,.526-3.862c.54-.021,1.081-.056,1.621-.059,1.368-.008,1.368,0,1.306,1.348a4.662,4.662,0,0,1-4.8,4.631" transform="translate(-149.548 -87.357)" fill="#736572"/><path d="M281.367,327.214l-.864-5.92h2.316l.843,5.92Z" transform="translate(-216.555 -247.465)" fill="#d6e8ef"/><path d="M276.722,291.769l-.688-5.354h2.2l.765,5.354Z" transform="translate(-213.113 -220.601)" fill="#def2fb"/><path d="M286.3,363.045l-.521-4.459h2.336l.588,4.632-2.4-.174" transform="translate(-220.62 -276.188)" fill="#def2fb"/><path d="M271.438,261.606l-.662-3.867c2.6-.054,2.123-.523,2.778,2.118.136.547.189,1.115.293,1.748Z" transform="translate(-209.063 -198.464)" fill="#acb7bd"/><path d="M203.98,92.985q-.009-1.356-.018-2.713H206.3v2.713Z" transform="translate(-157.602 -69.529)" fill="#dda193"/><path d="M125.251,131.446c.813-1.078,1.4-2.467,3.088-2.383a2.938,2.938,0,0,1,.892.368,4.2,4.2,0,0,1-3.98,2.015" transform="translate(-96.978 -99.403)" fill="#796a77"/><path d="M184.529,197.592l.388-.1-.388.1" transform="translate(-142.635 -152.109)" fill="#f9ac9b"/><path d="M270.727,245.65c0-.082,0-.165,0-.247l.185.211-.188.036" transform="translate(-209.026 -189.013)" fill="#c5d2d7"/><path d="M134.515,210.179l-.14.124.14-.124" transform="translate(-104.005 -161.883)" fill="#fbae9c"/><path d="M253.7,236.336l-.179-.029.179.029" transform="translate(-195.773 -182.007)" fill="#c5d2d7"/><path d="M314.282,96.108a3.35,3.35,0,0,1,3.237,1.728c3.128,5.442,6.258,10.882,9.316,16.363a3.739,3.739,0,0,1-3.423,5.43,15.846,15.846,0,0,0,1.335-2.353c.682-1.86-.213-3.45-1.1-5-1.794-3.155-3.583-6.312-5.4-9.453-1.3-2.249-2.644-4.475-3.968-6.711" transform="translate(-242.572 -74.021)" fill="#face5a"/><path d="M308.93,119.166c0-1.321-.011-2.642,0-3.962.01-.9.479-1.419,1.25-1.432a1.269,1.269,0,0,1,1.324,1.378q.032,4.091,0,8.183a1.288,1.288,0,1,1-2.571-.031c-.017-1.378,0-2.757-.005-4.135" transform="translate(-238.447 -87.628)" fill="#040403"/><path d="M311.59,174.556a1.3,1.3,0,1,1-2.6-.074,1.3,1.3,0,0,1,2.6.074" transform="translate(-238.499 -133.42)" fill="#040403"/><path d="M142.483,317.065c0,.516.013,1.033,0,1.549a4.174,4.174,0,0,1-4.081,4.158c-1.088.043-2.181.042-3.27,0a4.164,4.164,0,0,1-4.092-4.144q-.044-1.591,0-3.183a4.157,4.157,0,0,1,4.078-4.157c1.088-.05,2.182-.049,3.269,0a4.174,4.174,0,0,1,4.1,4.229c.012.516,0,1.033,0,1.549Zm-5.372-3.172c-.628-.01-1.258-.058-1.883-.02a1.577,1.577,0,0,0-1.6,1.656q-.04,1.5,0,3a1.577,1.577,0,0,0,1.6,1.656c.625.035,1.256-.01,1.884-.019.286.011.573.034.859.03,1.341-.017,1.917-.6,1.928-1.961.007-.89.018-1.78,0-2.67a1.607,1.607,0,0,0-1.665-1.7c-.37-.023-.744.016-1.116.026" transform="translate(-101.418 -239.73)" fill="#020304"/><path d="M136.568,167.022a9.194,9.194,0,0,1-4.928-1.764c-.871-.623-1.068-1.361-.578-2.034.47-.645,1.178-.68,2.042-.1a5.987,5.987,0,0,0,7.558-.051,1.313,1.313,0,0,1,1.968.159,1.339,1.339,0,0,1-.386,1.883,8.629,8.629,0,0,1-5.676,1.909" transform="translate(-101.251 -125.321)" fill="#040403"/><path d="M145.792,328.908c-.628.009-1.258.054-1.884.019a1.577,1.577,0,0,1-1.6-1.656q-.04-1.5,0-3a1.578,1.578,0,0,1,1.6-1.656c.625-.038,1.255.01,1.883.02a2.92,2.92,0,0,1,.361.854,28.826,28.826,0,0,1,.123,3.39,10.591,10.591,0,0,1-.485,2.029" transform="translate(-110.101 -248.471)" fill="#5eb5fc"/><path d="M157.535,328.911a10.592,10.592,0,0,0,.485-2.029,28.826,28.826,0,0,0-.123-3.39,2.919,2.919,0,0,0-.361-.854c.372-.011.746-.049,1.117-.026a1.607,1.607,0,0,1,1.665,1.7c.023.889.012,1.78,0,2.67-.011,1.36-.587,1.944-1.928,1.961-.286,0-.572-.02-.859-.03" transform="translate(-121.843 -248.475)" fill="#26a3fa"/></g></g></g></svg>