<svg xmlns="http://www.w3.org/2000/svg" width="105.108" height="119" viewBox="0 0 105.108 119"><g transform="translate(-22.377 -0.734)"><g transform="translate(22.377 0.734)"><path d="M114.477,256.3c-2.447-1.176-3.2-3.217-2.911-5.765a2.728,2.728,0,0,0-.869-2.366c-.723-.736-1.367-1.547-2.045-2.326-1.675-2.026-3.342-4.058-5.026-6.077-2.108-2.527-4.272-5.01-6.334-7.574a6.885,6.885,0,0,1-.849-7.834,6.235,6.235,0,0,1,10.582-1.213c1.424,1.7,2.858,3.392,4.463,5.3v-9.284h-1.433q-23.937,0-47.874,0c-3,0-4.346-1.334-4.351-4.292q-.005-2.789,0-5.578c0-3.075,1.314-4.407,4.354-4.409q13.246,0,26.493,0c7.282,0,14.564-.009,21.845.013.73,0,1-.163,1.221-.948a8.589,8.589,0,0,1,1.534-3.05,6.3,6.3,0,0,1,9.3-.109,7.817,7.817,0,0,1,1.7,5.373c-.079,2.961-.02,5.927-.02,8.592H129.1l2.7,1.571c3.5-2.457,5.717-2.46,9.2.075a6.527,6.527,0,0,1,5.936-1.725,6.29,6.29,0,0,1,4.944,5.83c.076,2.819.019,5.642.033,8.462a1.826,1.826,0,0,1-1.63,1.921c-1.471-.34-1.854-.8-1.859-2.3-.009-2.543.035-5.086-.02-7.627a2.776,2.776,0,0,0-4.186-2.533,8.178,8.178,0,0,0-1.328,1.508,2.118,2.118,0,0,1-1.953,1.384,1.927,1.927,0,0,1-1.9-1.441,2.159,2.159,0,0,0-.106-.206,2.727,2.727,0,0,0-2.582-1.663,2.637,2.637,0,0,0-2.576,1.659c-.4.928-.931,1.65-2,1.664-1.128.015-1.668-.744-2.093-1.7a2.758,2.758,0,0,0-2.833-1.615,2.871,2.871,0,0,0-2.5,2.254c-.072.3-.057.618-.128.917a1.729,1.729,0,0,1-3.388.044,4.67,4.67,0,0,1-.066-1.154c0-4.918.009-9.837-.013-14.755a2.891,2.891,0,0,0-2.3-2.947,2.729,2.729,0,0,0-3.122,1.641,6.146,6.146,0,0,0-.273,2.046q-.026,13.129-.012,26.257a2.593,2.593,0,0,1-.054,1.145c-.313.563-.7,1.275-1.228,1.47a2.432,2.432,0,0,1-1.742-.465,5.72,5.72,0,0,1-1.148-1.295c-2.191-2.609-4.35-5.246-6.581-7.82a2.772,2.772,0,0,0-4.936,1.006,3.833,3.833,0,0,0,.888,3.974c4.2,4.971,8.3,10.024,12.592,14.906,1.615,1.835,2.6,3.676,2.216,6.132-.168,1.09.277,1.476,1.426,1.468,7.281-.049,14.562-.02,21.842-.033a16.411,16.411,0,0,0,1.712-.176,9.506,9.506,0,0,0,8.355-8.942c.076-2.356.021-4.717.033-7.075.008-1.507.387-1.968,1.861-2.308a1.894,1.894,0,0,1,1.635,2.154,82.884,82.884,0,0,1-.264,8.784A12.719,12.719,0,0,1,140.729,256.1c-.083.014-.148.137-.222.21Zm-2.98-47.866H61.41v7.19H111.5Z" transform="translate(-46.82 -137.305)" fill="#030304"/><path d="M105.884,68.242a6.3,6.3,0,0,0-9.3.109,8.584,8.584,0,0,0-1.534,3.05c-.221.785-.492.95-1.221.948-7.282-.022-14.564-.013-21.845-.013q-13.246,0-26.493,0c-3.04,0-4.351,1.333-4.354,4.409q0,2.789,0,5.577c.005,2.958,1.356,4.292,4.351,4.292q23.937,0,47.874,0H94.8V95.9c-1.605-1.9-3.039-3.6-4.463-5.3A6.234,6.234,0,0,0,79.75,91.817a6.884,6.884,0,0,0,.849,7.834c2.062,2.564,4.225,5.047,6.334,7.574,1.684,2.018,3.351,4.051,5.026,6.077l-3.688.016c-.524-1.5-.794-1.687-2.473-1.687q-22.775,0-45.549,0c-4.186,0-6.628-2.453-6.629-6.643q0-45.027,0-90.053c0-4.278,2.407-6.681,6.683-6.682q13.885,0,27.771,0c1.525,0,1.93-.3,2.357-1.678l3.392,0A2.093,2.093,0,0,0,76.2,8.268c9.051-.019,18.1.008,27.153.021a8.986,8.986,0,0,1,2.781,6.982q.019,25.889,0,51.779a5.836,5.836,0,0,1-.251,1.193m-33.8-2.335q13.592,0,27.185,0a3.588,3.588,0,0,0,3.864-3.819c.015-2.246.088-4.5-.04-6.736a5.152,5.152,0,0,0-.931-2.527c-.808-1.148-2.14-1.231-3.459-1.23q-16.091.017-32.181.006-10.456,0-20.912,0c-3.127,0-4.471,1.34-4.474,4.429,0,1.9-.006,3.8,0,5.693.01,2.8,1.408,4.184,4.225,4.185q13.36,0,26.72,0m.067-19.9c1-.115,2-.18,2.99-.354,7.1-1.246,12.814-8.091,12.651-15.131a1.753,1.753,0,1,0-3.49-.088c-.049.615-.09,1.235-.19,1.843a12.132,12.132,0,1,1-14.55-13.828c.977-.211,2-.209,2.983-.4a1.542,1.542,0,0,0,1.308-1.78A1.532,1.532,0,0,0,72.3,14.711a12.336,12.336,0,0,0-2.432.1c-7.974,1.2-13.97,8.524-13.359,16.281A15.763,15.763,0,0,0,72.151,46.012M52.874,91.759c-2.05,0-4.1-.027-6.148.006a5.321,5.321,0,0,0-5.514,4.878,18.052,18.052,0,0,0,.074,4.158,4.908,4.908,0,0,0,4.571,4.37q6.95.21,13.91,0a4.942,4.942,0,0,0,4.582-4.365,21.119,21.119,0,0,0,.136-3.351,5.443,5.443,0,0,0-5.694-5.693c-1.972-.022-3.944,0-5.916,0M70.333,35.223c-.34,0-.61-.022-.876,0a1.719,1.719,0,0,0-1.717,1.8A1.68,1.68,0,0,0,69.576,38.7c1.741.026,3.483.031,5.224,0a1.738,1.738,0,0,0,1.8-1.735,1.8,1.8,0,0,0-1.706-1.73c-.3-.035-.607-.037-1.018-.06V34c0-3.367.008-6.733-.005-10.1,0-1.194-.523-1.884-1.53-1.948a24.054,24.054,0,0,0-3.131,0,1.5,1.5,0,0,0-1.443,1.417,1.563,1.563,0,0,0,1.048,1.848,8.9,8.9,0,0,0,1.519.272Zm8.614-12.394c0,.666-.019,1.314,0,1.96a1.711,1.711,0,0,0,1.665,1.84,1.73,1.73,0,0,0,1.81-1.826c.032-.647.006-1.3.006-2.037.723,0,1.335.022,1.944,0a1.749,1.749,0,1,0,.019-3.481c-.634-.036-1.272-.007-1.963-.007,0-.79.025-1.405-.005-2.018a1.722,1.722,0,0,0-1.808-1.826,1.7,1.7,0,0,0-1.668,1.835c-.023.645,0,1.291,0,1.916-1.55.3-3.586-.568-3.874,1.855-.146,1.229.74,1.614,3.874,1.793" transform="translate(-30.128 -4.759)" fill="#d5f8f5"/><path d="M62.68,2.546c-.428,1.382-.833,1.678-2.357,1.678q-13.885,0-27.771,0c-4.276,0-6.683,2.4-6.683,6.682q0,45.026,0,90.053c0,4.19,2.443,6.641,6.629,6.643q22.775.007,45.55,0c1.679,0,1.949.19,2.473,1.687-.453,1.473-.87,1.8-2.4,1.8q-22.939,0-45.879-.006a9.47,9.47,0,0,1-9.858-9.879q-.014-45.3,0-90.6A9.45,9.45,0,0,1,32.232.741Q46.286.723,60.34.739c1.564,0,2.017.358,2.34,1.808" transform="translate(-22.377 -0.734)" fill="#020303"/><path d="M192.64,4.265c-9.051-.012-18.1-.039-27.153-.021a2.093,2.093,0,0,1-2.381-1.692c.44-1.529.8-1.813,2.361-1.814q13.989,0,27.978,0c5.951,0,9.992,3.991,10.021,9.942.032,6.5.008,13,.008,19.5q0,20.954,0,41.909c0,1.706-.246,2.05-1.755,2.553-1.548-.524-1.724-.777-1.725-2.566q0-30.381-.012-60.763A10.537,10.537,0,0,0,199.7,8.56c-.822-2.995-3.352-4.493-7.059-4.3" transform="translate(-119.411 -0.735)" fill="#050505"/><path d="M258.227,12.066c3.707-.2,6.237,1.3,7.059,4.3a10.536,10.536,0,0,1,.282,2.757q.022,30.382.012,60.763c0,1.79.177,2.042,1.725,2.566q-.014,1.768-.028,3.536h-4.842c0-2.665-.059-5.63.02-8.592a7.817,7.817,0,0,0-1.7-5.373A5.837,5.837,0,0,0,261,70.827q.019-25.889,0-51.779a8.986,8.986,0,0,0-2.781-6.982" transform="translate(-184.998 -8.536)" fill="#73e8dc"/><path d="M326.8,261.222a2.776,2.776,0,0,1,4.186,2.533c.055,2.541.01,5.085.02,7.627.006,1.5.388,1.957,1.859,2.3q0,1.711,0,3.421c-1.475.339-1.854.8-1.862,2.308-.012,2.358.043,4.719-.033,7.075a9.506,9.506,0,0,1-8.355,8.942A12.839,12.839,0,0,0,327.55,284.4c-.193-6.761-.022-13.532-.081-20.3a13.276,13.276,0,0,0-.669-2.877" transform="translate(-229.395 -180.096)" fill="#e29674"/><path d="M235.958,226.256a13.276,13.276,0,0,1,.669,2.877c.059,6.766-.112,13.537.081,20.3a12.839,12.839,0,0,1-4.933,11.027,16.411,16.411,0,0,1-1.712.176c-7.281.012-14.562-.016-21.842.033-1.15.008-1.594-.379-1.426-1.468.379-2.457-.6-4.3-2.216-6.132-4.3-4.882-8.4-9.935-12.592-14.906a3.833,3.833,0,0,1-.888-3.974,2.772,2.772,0,0,1,4.936-1.006c2.232,2.574,4.39,5.211,6.581,7.82a5.726,5.726,0,0,0,1.148,1.295,2.432,2.432,0,0,0,1.742.465c.526-.2.915-.908,1.228-1.47a2.6,2.6,0,0,0,.054-1.145q0-13.129.012-26.257a6.146,6.146,0,0,1,.273-2.046A2.728,2.728,0,0,1,210.2,210.2a2.891,2.891,0,0,1,2.3,2.947c.022,4.918.008,9.837.013,14.755a4.685,4.685,0,0,0,.066,1.154,1.729,1.729,0,0,0,3.388-.044c.071-.3.056-.619.128-.918a2.871,2.871,0,0,1,2.5-2.254,2.757,2.757,0,0,1,2.833,1.615c.425.961.965,1.72,2.094,1.7,1.069-.014,1.6-.736,2-1.664a2.637,2.637,0,0,1,2.576-1.659,2.727,2.727,0,0,1,2.582,1.663,2.156,2.156,0,0,1,.106.206,1.928,1.928,0,0,0,1.9,1.441,2.119,2.119,0,0,0,1.953-1.384,8.176,8.176,0,0,1,1.328-1.508" transform="translate(-138.554 -145.131)" fill="#f4b992"/><path d="M119.455,237.027H69.368v-7.19h50.087Zm-38.141-1.853A1.818,1.818,0,0,0,83.33,233.4a1.8,1.8,0,0,0-1.951-1.714,1.756,1.756,0,1,0-.064,3.491m7.126-3.491a1.759,1.759,0,1,0,.054,3.491,1.756,1.756,0,1,0-.054-3.491m14.262,3.491a1.76,1.76,0,1,0,.052-3.491,1.756,1.756,0,1,0-.052,3.491m-28.492,0a1.755,1.755,0,1,0,.068-3.49,1.762,1.762,0,1,0-.068,3.49m21.35,0a1.794,1.794,0,0,0,2.008-1.741,1.756,1.756,0,0,0-1.874-1.749,1.805,1.805,0,0,0-2.068,1.674,1.785,1.785,0,0,0,1.935,1.816" transform="translate(-54.778 -158.703)" fill="#e9ecf0"/><path d="M88.773,165.889q-13.36,0-26.72,0c-2.817,0-4.216-1.384-4.225-4.185-.007-1.9,0-3.8,0-5.693,0-3.089,1.347-4.427,4.474-4.429q10.456-.007,20.912,0,16.09,0,32.181-.006c1.318,0,2.651.082,3.459,1.23a5.152,5.152,0,0,1,.931,2.527c.128,2.239.055,4.49.04,6.736a3.588,3.588,0,0,1-3.864,3.819q-13.592.011-27.185,0M116.3,155.154H61.369v7.186H116.3Z" transform="translate(-46.818 -104.74)" fill="#040405"/><path d="M122.885,64.049a15.763,15.763,0,0,1-15.643-14.915c-.611-7.758,5.385-15.08,13.359-16.282a12.36,12.36,0,0,1,2.432-.1,1.695,1.695,0,0,1,.247,3.341c-.983.193-2.005.191-2.983.4a12.134,12.134,0,1,0,14.55,13.828c.1-.609.141-1.227.19-1.843a1.753,1.753,0,1,1,3.49.088c.163,7.04-5.549,13.885-12.651,15.131-.987.173-1.993.238-2.99.354" transform="translate(-80.863 -22.796)" fill="#020404"/><path d="M69.543,280.915c1.972,0,3.944-.018,5.916,0a5.442,5.442,0,0,1,5.694,5.693,21.157,21.157,0,0,1-.136,3.352,4.942,4.942,0,0,1-4.582,4.366q-6.95.209-13.91,0a4.908,4.908,0,0,1-4.571-4.37,18.053,18.053,0,0,1-.074-4.158,5.322,5.322,0,0,1,5.514-4.878c2.049-.033,4.1-.006,6.148-.006m-.054,3.485h-4.3c-3.744,0-3.923.182-3.9,3.945.013,1.991.642,2.621,2.667,2.626,3.214.009,6.428,0,9.643,0,3.934,0,4.139-.209,4.074-4.128-.03-1.761-.705-2.433-2.494-2.443-1.9-.012-3.8,0-5.693,0" transform="translate(-46.798 -193.915)" fill="#030505"/><path d="M146.1,69.273V59.544a8.867,8.867,0,0,1-1.519-.272,1.563,1.563,0,0,1-1.048-1.848,1.5,1.5,0,0,1,1.443-1.417,24.057,24.057,0,0,1,3.131,0c1.007.064,1.525.754,1.53,1.948.013,3.367,0,6.733.005,10.1v1.168c.41.023.716.025,1.018.06a1.8,1.8,0,0,1,1.706,1.73,1.738,1.738,0,0,1-1.8,1.735c-1.741.033-3.483.028-5.224,0a1.68,1.68,0,0,1-1.836-1.666,1.718,1.718,0,0,1,1.717-1.8c.265-.026.536,0,.876,0" transform="translate(-105.9 -38.809)" fill="#020303"/><path d="M170.972,42.5c-3.134-.179-4.02-.564-3.874-1.793.288-2.422,2.324-1.551,3.874-1.855,0-.626-.019-1.272,0-1.916a1.7,1.7,0,0,1,1.668-1.835,1.722,1.722,0,0,1,1.808,1.826c.03.613.005,1.228.005,2.018.691,0,1.329-.03,1.963.007a1.749,1.749,0,1,1-.019,3.481c-.609.027-1.221,0-1.944,0,0,.74.026,1.39-.006,2.037a1.73,1.73,0,0,1-1.81,1.826,1.711,1.711,0,0,1-1.665-1.84c-.023-.646,0-1.295,0-1.96" transform="translate(-122.153 -24.43)" fill="#020404"/><path d="M103.582,239.272a1.756,1.756,0,1,1,.064-3.491A1.8,1.8,0,0,1,105.6,237.5a1.818,1.818,0,0,1-2.015,1.777" transform="translate(-77.046 -162.802)" fill="#070707"/><path d="M126.462,235.782a1.756,1.756,0,1,1,.054,3.491,1.759,1.759,0,1,1-.054-3.491" transform="translate(-92.799 -162.802)" fill="#070707"/><path d="M172.454,239.272a1.756,1.756,0,1,1,.052-3.491,1.76,1.76,0,1,1-.052,3.491" transform="translate(-124.529 -162.802)" fill="#070707"/><path d="M80.59,239.272a1.762,1.762,0,1,1,.068-3.49,1.755,1.755,0,1,1-.068,3.49" transform="translate(-61.158 -162.802)" fill="#060606"/><path d="M149.423,239.27a1.785,1.785,0,0,1-1.935-1.816,1.805,1.805,0,0,1,2.068-1.674,1.756,1.756,0,0,1,1.874,1.749,1.794,1.794,0,0,1-2.008,1.741" transform="translate(-108.642 -162.8)" fill="#060606"/><rect width="54.927" height="7.186" transform="translate(14.552 50.414)" fill="#eaedf1"/><path d="M77.253,292.157c1.9,0,3.8-.009,5.693,0,1.789.011,2.465.683,2.494,2.444.066,3.919-.14,4.128-4.074,4.128-3.214,0-6.428.007-9.643,0-2.026-.006-2.654-.636-2.667-2.627-.025-3.763.155-3.945,3.9-3.944h4.3" transform="translate(-54.561 -201.671)" fill="#ffba5b"/></g></g></svg>