<svg xmlns="http://www.w3.org/2000/svg" width="156" height="156" viewBox="0 0 156 156"><g transform="translate(6276 -1063)"><g transform="translate(-6788 -5066)"><circle cx="78" cy="78" r="78" transform="translate(512 6129)" fill="#f1a99c"/></g><g transform="translate(-6251.566 1083.244)"><g transform="translate(5.922 6.133)"><path d="M68.182,78.573l1.685,1.166c.38-.585.675-1.116,1.043-1.59a6.966,6.966,0,0,1,5.636-2.789A3.908,3.908,0,0,0,79.79,73.9a8.807,8.807,0,0,1-3.868-5.393,16.161,16.161,0,0,1,.252-8.621A9.2,9.2,0,0,1,94,62.772a33.6,33.6,0,0,1-.074,4.509A9.1,9.1,0,0,1,89.8,73.9a3.555,3.555,0,0,0,2.766,1.433,7.4,7.4,0,0,1,7.106,4.411l1.717-1.14c-.307-.246-.52-.414-.729-.585a8.94,8.94,0,0,1-3.546-7.233,24.845,24.845,0,0,1,.376-5.523,9.047,9.047,0,0,1,9.748-6.776,9.246,9.246,0,0,1,8.285,8.96,32.976,32.976,0,0,1-.071,4.414c-.313,2.754-1.385,4.375-4.113,6.674a3.886,3.886,0,0,0,3,1.437c4.518.155,7.342,3.075,7.346,7.6q0,3.7,0,7.4c0,1.371-.544,1.909-1.925,1.91q-13.447.005-26.895,0c-1.375,0-1.908-.541-1.915-1.918s0-2.746,0-4.174H78.651c0,1.383.006,2.78,0,4.177-.007,1.373-.544,1.915-1.92,1.915q-13.447.005-26.895,0c-1.379,0-1.917-.539-1.92-1.913-.006-2.594-.016-5.188,0-7.782a7.077,7.077,0,0,1,7.152-7.208,4.063,4.063,0,0,0,3.216-1.47c-3.177-2.205-4.394-5.273-4.249-9.042.078-2.022.046-4.02.987-5.894a9.212,9.212,0,0,1,17.465,3.851,33.82,33.82,0,0,1-.066,4.414,9.186,9.186,0,0,1-4.24,6.737m1.212,7.738V83.758c-.344.258-.567.428-.793.595a8.788,8.788,0,0,1-11.14-.436,3.234,3.234,0,0,0-2.643-.875A4.023,4.023,0,0,0,51,86.892c-.049,1.789.006,3.581.015,5.371v1.494H75.513V90.734c-1.5,0-2.932.015-4.367,0A1.55,1.55,0,0,1,69.43,89c-.021-.9-.025-1.791-.036-2.687M75,87.625c.159.012.318.034.476.034q10.446,0,20.892,0c.214,0,.428-.026.7-.044,0-1.907.082-3.757-.024-5.6a3.762,3.762,0,0,0-3.018-3.4,3.294,3.294,0,0,0-3.391.667,8.7,8.7,0,0,1-11.712-.022,3.047,3.047,0,0,0-2.47-.834A3.9,3.9,0,0,0,72.6,81.783c-.184,1.921-.04,3.873-.04,5.841Zm40.544-4.4a3.288,3.288,0,0,0-3.392.668,8.757,8.757,0,0,1-11.216.418c-.215-.161-.44-.309-.769-.539,0,1.64,0,3.136,0,4.631,0,1.944-.393,2.329-2.373,2.329H94.051v3.026h24.528c0-2.437.093-4.833-.031-7.218a3.7,3.7,0,0,0-3-3.316M78.651,64.56c0,.544-.009,1.087,0,1.631a6.185,6.185,0,0,0,5.554,6.074,6.008,6.008,0,0,0,6.555-4.911,19.174,19.174,0,0,0,.106-5.059,6.063,6.063,0,0,0-6.486-5.367,6.169,6.169,0,0,0-5.729,6.1c-.009.511,0,1.023,0,1.535m-9.231,4.658h0c0-.576.015-1.152,0-1.727a6.181,6.181,0,0,0-5.582-5.946A6,6,0,0,0,57.327,66.4a21.781,21.781,0,0,0-.152,4.87,6.1,6.1,0,0,0,6.266,5.629,6.169,6.169,0,0,0,5.975-5.853c.026-.606,0-1.215,0-1.822m30.747-.047c0,.544-.009,1.087,0,1.631a6.182,6.182,0,0,0,5.553,6.074,6,6,0,0,0,6.552-4.912,18.207,18.207,0,0,0,.064-5.245,6.016,6.016,0,0,0-6.536-5.176,6.175,6.175,0,0,0-5.633,6.189c-.006.48,0,.959,0,1.439M81.1,77.01A5.727,5.727,0,0,0,88.48,77a3.988,3.988,0,0,0-3.657-1.774A4.1,4.1,0,0,0,81.1,77.01M59.612,81.63c1.913,1.931,6.078,1.6,7.294-.042-.507-.58-.907-1.388-1.537-1.661s-1.473.03-2.224.033c-.441,0-.884-.13-1.325-.125a1.3,1.3,0,0,0-.82.245c-.5.476-.931,1.028-1.389,1.551m50.408,0a12.186,12.186,0,0,1-1.188-1.3,1.142,1.142,0,0,0-1.279-.5c-.874.1-1.769-.014-2.654,0a1.345,1.345,0,0,0-.839.2c-.515.492-.952,1.065-1.419,1.605a5.818,5.818,0,0,0,7.378-.014" transform="translate(-37.154 -41.608)" fill="#020202"/><path d="M30.513,237.042c4.9,0,9.691-.024,14.487.008,3.723.024,2.541-.5,5.217,2.16,3.221,3.2,6.39,6.463,9.609,9.67a1.123,1.123,0,0,0,.909.109c6.748-1.821,13.488-3.67,20.233-5.5,3.788-1.028,7.549-2.184,11.382-3a7.339,7.339,0,0,1,8.858,7.286c0,.192,0,.384,0,.576,0,2-.068,2.11-1.932,2.751q-23.93,8.236-47.87,16.442a3.449,3.449,0,0,1-1.841,0,16.262,16.262,0,0,1-3.17-1.067c-5.078-2.458-10.487-1.632-15.883-1.771,0,.491.007.9,0,1.306a1.572,1.572,0,0,1-1.77,1.774c-2.3.014-4.609,0-6.914,0H21.29c0,.54.019,1.012,0,1.481a1.5,1.5,0,0,1-1.566,1.582q-6.1.032-12.194,0c-1.1-.006-1.6-.658-1.6-1.934q0-8.932,0-17.864,0-7.491,0-14.982c0-1.632.473-2.1,2.115-2.1q9.986,0,19.972,0c2.172,0,2.489.315,2.5,2.485,0,.158,0,.315,0,.59m.034,24.595c1.253,0,2.411.083,3.553-.014a30.276,30.276,0,0,1,14.587,2.39,3.005,3.005,0,0,0,.907.3,4.863,4.863,0,0,0,1.833-.023q22.7-7.758,45.386-15.581c1.482-.51,1.56-.66,1.13-2.179-.035-.122-.083-.241-.129-.36-.865-2.278-3.116-3.232-5.89-2.478q-15.071,4.1-30.141,8.2c-.549.149-.831.353-.878,1a5.459,5.459,0,0,1-3.723,5.008,5.581,5.581,0,0,1-6.207-1.308c-2.5-2.43-4.945-4.925-7.412-7.395a2.255,2.255,0,0,1-.2-.264l2.1-2.16c.253.24.487.453.711.677q3.4,3.395,6.789,6.795a2.863,2.863,0,0,0,2.408.949,2.63,2.63,0,0,0,2.367-1.829,2.8,2.8,0,0,0-.779-3.071c-3.242-3.233-6.467-6.483-9.728-9.7a1.816,1.816,0,0,0-1.158-.456c-4.93-.03-9.86-.021-14.791-.017-.243,0-.486.037-.728.057Zm-21.479,6.1h9.094V237.086H9.069Zm18.3-30.617H21.34v27.549h6.033Z" transform="translate(-5.922 -175.62)" fill="#020202"/><path d="M162.637,10.083l-.493-3.03,3.109-.424c.1,1.047.194,2.019.294,3.055l-2.91.4" transform="translate(-122.136 -6.502)" fill="#090909"/><path d="M366.812,211.779l-.43,3.093-3.024-.531.4-2.92,3.049.358" transform="translate(-271.821 -158.848)" fill="#090909"/><path d="M97.93,30.408,95.4,31.866l-1.632-2.591,2.713-1.585,1.451,2.719" transform="translate(-71.27 -22.169)" fill="#090909"/><path d="M42.991,78.38l-2.5-1.791L42.4,74.1l2.372,1.941L42.991,78.38" transform="translate(-31.638 -56.696)" fill="#080808"/><path d="M6.888,210.5l3.041-.335.418,2.9-3.031.539L6.888,210.5" transform="translate(-6.641 -157.912)" fill="#080808"/><path d="M233.128,10.84l3.039.826-.9,2.937-2.807-.753c.212-.948.425-1.907.671-3.009" transform="translate(-174.443 -9.635)" fill="#080808"/><path d="M119.321,20.527l-2.707,1.108-1.269-2.791,2.893-1.195,1.083,2.878" transform="translate(-87.323 -14.7)" fill="#070707"/><path d="M258.275,19.326l-1.291,2.8-2.7-1.145,1.1-2.862,2.894,1.207" transform="translate(-190.676 -15.049)" fill="#080808"/><path d="M10.491,141.678c.281-1.058.533-2.007.8-3.03l2.933.875c-.247.954-.482,1.862-.734,2.84l-3-.685" transform="translate(-9.321 -104.712)" fill="#080808"/><path d="M362.9,143.033l-3,.657-.734-2.832,2.944-.87.791,3.045" transform="translate(-268.699 -105.708)" fill="#090909"/><path d="M7.062,162.512l3.027.493-.364,2.9-3.054-.279.391-3.117" transform="translate(-6.479 -122.464)" fill="#080808"/><path d="M30.291,98.167,27.58,96.723,29.153,94l2.6,1.626-1.466,2.54" transform="translate(-22.033 -71.498)" fill="#080808"/><path d="M209.754,9.9c.113-1.075.213-2.016.321-3.044l3.086.392-.487,3.034L209.754,9.9" transform="translate(-157.554 -6.668)" fill="#070707"/><path d="M141.3,10.561l.683,2.982-2.811.769-.909-2.939,3.037-.812" transform="translate(-104.37 -9.427)" fill="#080808"/><path d="M277.631,32.572,275.1,31.084l1.47-2.7,2.708,1.591-1.649,2.594" transform="translate(-206.166 -22.687)" fill="#080808"/><path d="M18.725,115.7l2.8,1.257-1.117,2.714-2.874-1.073,1.193-2.9" transform="translate(-14.559 -87.637)" fill="#080808"/><path d="M364.1,164.416l3.021-.452c.133,1.052.255,2.023.391,3.095l-3.071.269-.341-2.912" transform="translate(-272.374 -123.544)" fill="#070707"/><path d="M357.791,236.852l.807-2.808,2.966.727-.833,3.022-2.94-.941" transform="translate(-267.679 -175.677)" fill="#080808"/><path d="M314.093,61.622l-2.154-2.011,2.1-2.2,2.237,2.207-2.184,2.007" transform="translate(-233.57 -44.277)" fill="#080808"/><path d="M355.347,119.863l-2.9,1.048-1.1-2.7,2.8-1.262,1.192,2.914" transform="translate(-262.89 -88.57)" fill="#080808"/><path d="M9.189,190.147l-2.975.132v-3.066H9.189Z" transform="translate(-6.139 -140.839)" fill="#060606"/><path d="M327.535,77.192l2.405-1.931,1.884,2.5-2.489,1.773-1.8-2.337" transform="translate(-245.172 -57.558)" fill="#080808"/><path d="M296.8,45.811,294.489,44l1.808-2.473,2.474,1.926L296.8,45.811" transform="translate(-220.589 -32.459)" fill="#070707"/><path d="M73.87,42.57l2.478-1.918,1.807,2.493-2.335,1.779L73.87,42.57" transform="translate(-56.469 -31.812)" fill="#070707"/><rect width="2.999" height="2.937" transform="translate(92.226 46.742)" fill="#070707"/><path d="M343.376,95.278,344.917,98l-2.7,1.427-1.462-2.541,2.622-1.611" transform="translate(-255.005 -72.448)" fill="#070707"/><path d="M56.132,58.474l2.19-2.235,2.062,2.194-2.158,2-2.094-1.955" transform="translate(-43.273 -43.407)" fill="#070707"/><rect width="2.928" height="2.984" transform="translate(46.361)" fill="#050505"/><path d="M167.951,73.55c0-.512-.008-1.023,0-1.535a6.169,6.169,0,0,1,5.729-6.1,6.063,6.063,0,0,1,6.486,5.367,19.165,19.165,0,0,1-.105,5.059,6.008,6.008,0,0,1-6.555,4.911,6.185,6.185,0,0,1-5.553-6.074c-.01-.543,0-1.087,0-1.631" transform="translate(-126.454 -50.598)" fill="#edbc9a"/><path d="M96.159,91.586c0,.608.022,1.216,0,1.823a6.169,6.169,0,0,1-5.975,5.853,6.1,6.1,0,0,1-6.266-5.628,21.8,21.8,0,0,1,.152-4.87,6,6,0,0,1,6.512-4.849,6.181,6.181,0,0,1,5.583,5.946c.018.575,0,1.151,0,1.726h0" transform="translate(-63.893 -63.976)" fill="#edbc9a"/><path d="M251.967,91.546c0-.48-.005-.959,0-1.439a6.176,6.176,0,0,1,5.634-6.189,6.017,6.017,0,0,1,6.536,5.176,18.207,18.207,0,0,1-.064,5.245,6,6,0,0,1-6.552,4.911,6.183,6.183,0,0,1-5.554-6.074c-.01-.543,0-1.087,0-1.631" transform="translate(-188.954 -63.983)" fill="#edbc9a"/><path d="M249.588,168.64a3.7,3.7,0,0,1,3,3.316c.124,2.385.031,4.781.031,7.218H228.094v-1.5a40.036,40.036,0,0,0,4.183-.243,30.916,30.916,0,0,0,11.214-3.809,22.229,22.229,0,0,0,6.1-4.986" transform="translate(-171.197 -127.023)" fill="#4472af"/><path d="M146.453,159.07H144.01c0-1.968-.144-3.921.04-5.841a3.9,3.9,0,0,1,3.858-3.358,3.046,3.046,0,0,1,2.47.834,8.7,8.7,0,0,0,11.712.022,3.3,3.3,0,0,1,3.392-.667,25.54,25.54,0,0,1-13.069,7.867c-1.946.529-3.97.771-5.959,1.144" transform="translate(-108.607 -113.053)" fill="#688dbe"/><path d="M59.959,177.106c-.009-1.791-.064-3.582-.015-5.371a4.022,4.022,0,0,1,3.815-3.85,3.234,3.234,0,0,1,2.643.875,8.788,8.788,0,0,0,11.14.436c.226-.167.449-.337.793-.595v2.553c-.428.276-.86.544-1.283.828a30.244,30.244,0,0,1-17.092,5.125" transform="translate(-46.094 -126.45)" fill="#688dbe"/><path d="M153.706,159.644c1.989-.373,4.013-.615,5.959-1.144a25.54,25.54,0,0,0,13.069-7.867,3.762,3.762,0,0,1,3.018,3.4c.106,1.839.024,3.69.024,5.6-.274.018-.488.044-.7.044q-10.446,0-20.892,0c-.159,0-.318-.022-.477-.034" transform="translate(-115.859 -113.627)" fill="#4472af"/><path d="M60.061,186.642a30.244,30.244,0,0,0,17.092-5.125c.423-.283.855-.552,1.283-.828.012.9.015,1.791.036,2.687a1.55,1.55,0,0,0,1.716,1.731c1.435.019,2.87,0,4.367,0v3.025H60.061Z" transform="translate(-46.196 -135.987)" fill="#4472af"/><path d="M249.588,168.1a22.228,22.228,0,0,1-6.1,4.986,30.915,30.915,0,0,1-11.214,3.809,40.036,40.036,0,0,1-4.183.243v-1.53h3.743c1.981,0,2.373-.385,2.373-2.33,0-1.5,0-2.991,0-4.631.329.229.554.378.769.539a8.757,8.757,0,0,0,11.217-.418,3.287,3.287,0,0,1,3.392-.668" transform="translate(-171.197 -126.481)" fill="#688dbe"/><path d="M177.533,139.2a4.1,4.1,0,0,1,3.721-1.781,3.988,3.988,0,0,1,3.657,1.774,5.727,5.727,0,0,1-7.378.007" transform="translate(-133.584 -103.795)" fill="#e9b998"/><path d="M93.614,157.141c.458-.522.888-1.074,1.389-1.55a1.3,1.3,0,0,1,.82-.245c.441-.005.883.126,1.325.125.751,0,1.6-.3,2.224-.033s1.031,1.081,1.537,1.661c-1.217,1.641-5.381,1.973-7.294.041" transform="translate(-71.157 -117.119)" fill="#e9ba98"/><path d="M269.014,157.156a5.818,5.818,0,0,1-7.378.014c.467-.54.9-1.113,1.419-1.605a1.345,1.345,0,0,1,.839-.2c.885-.013,1.78.1,2.654,0a1.142,1.142,0,0,1,1.279.5,12.187,12.187,0,0,0,1.188,1.3" transform="translate(-196.149 -117.13)" fill="#e9b998"/><path d="M102.079,279.5v-21.46c.241-.02.485-.057.728-.057,4.93,0,9.861-.013,14.791.017a1.816,1.816,0,0,1,1.158.456c3.261,3.214,6.486,6.464,9.728,9.7a2.8,2.8,0,0,1,.779,3.071,2.631,2.631,0,0,1-2.367,1.829,2.863,2.863,0,0,1-2.407-.949q-3.385-3.407-6.789-6.795c-.224-.224-.459-.437-.711-.677l-2.1,2.16a2.284,2.284,0,0,0,.2.264c2.466,2.469,4.907,4.965,7.412,7.395a5.581,5.581,0,0,0,6.207,1.308,5.459,5.459,0,0,0,3.723-5.009c.048-.647.33-.852.878-1q15.073-4.088,30.141-8.2c2.774-.754,5.025.2,5.89,2.478.045.119.094.238.129.36.429,1.518.352,1.669-1.13,2.179q-22.689,7.8-45.386,15.581a4.859,4.859,0,0,1-1.833.023,3,3,0,0,1-.907-.3,30.269,30.269,0,0,0-14.587-2.39c-1.142.1-2.3.014-3.553.014" transform="translate(-77.454 -193.48)" fill="#edbd9b"/><rect width="9.094" height="30.649" transform="translate(3.147 61.466)" fill="#4472af"/><rect width="6.033" height="27.549" transform="translate(15.418 61.498)" fill="#698dbf"/></g></g></g></svg>