<svg xmlns="http://www.w3.org/2000/svg" width="91.995" height="81.959" viewBox="0 0 91.995 81.959"><g transform="translate(0.001 -20.919)"><g transform="translate(-0.001 20.919)"><path d="M0,89.932a2.958,2.958,0,0,0,.258-.516,9.07,9.07,0,0,1,5.772-6.382c.111-.042.212-.109.373-.193C4.471,80.3,4.575,77.379,5.026,74.506a7.493,7.493,0,0,1,9.046-6.069,2.415,2.415,0,0,0,2.069-.29,9.148,9.148,0,0,1,1.355-.618c-.292-.557-.621-1.113-.88-1.7-.481-1.085-.281-1.583.8-2.172a1.61,1.61,0,0,1,1.7,1.148,4.747,4.747,0,0,0,4.6,2.982,4.847,4.847,0,0,0,4.868-4.427,23.184,23.184,0,0,0-.009-3.4,4.956,4.956,0,0,0-9.477-1.31,1.571,1.571,0,0,1-1.679,1.153c-1.073-.546-1.278-1.078-.838-2.165a7.732,7.732,0,0,1,8.528-4.615,2.681,2.681,0,0,0,1.383-.272c.736-.3,1.434-.7,2.192-1.074-1.917-2.79-1.913-5.917-1.174-9.022a7.537,7.537,0,0,1,8.62-5.47,1.672,1.672,0,0,0,.974-.2c.893-.469,1.756-.994,2.517-1.432a21.542,21.542,0,0,1-1.189-3.94,15.183,15.183,0,0,1,.162-4.809,7.613,7.613,0,0,1,14.988.929c.281,2.694.334,5.4-1.418,7.681,1,.59,1.948,1.173,2.923,1.711a1.711,1.711,0,0,0,.754.08,24.292,24.292,0,0,1,2.758.051c1.3.172,1.6.661,1.443,1.965a1.636,1.636,0,0,1-1.938.67,5.022,5.022,0,0,0-5.819,4.14,19.046,19.046,0,0,0,.012,3.833,4.832,4.832,0,0,0,4.844,4.113,4.747,4.747,0,0,0,4.823-3.85,19.272,19.272,0,0,0,.054-4.188A1.743,1.743,0,0,1,62.89,42c1.2-.037,1.669.3,1.8,1.481.311,2.852.457,5.691-1.381,8.148.873.483,1.683.96,2.522,1.377a1.463,1.463,0,0,0,.843.075c5.186-.887,9.283,2.587,9.336,7.872.023,2.3-.036,4.558-1.569,6.5.771.393,1.463.775,2.182,1.1a1.238,1.238,0,0,0,.744,0,7.683,7.683,0,0,1,9.792,7.541c.032,2.385.048,4.748-1.607,6.777a9.217,9.217,0,0,1,5.647,5.03c.322.714.535,1.478.8,2.218v11.86c-.386.534-.807,1.022-1.562.883a1.423,1.423,0,0,1-1.163-1.267.137.137,0,0,0,0-.15c.006-3.4.077-6.807,0-10.208a6.23,6.23,0,0,0-5.544-5.94,8.791,8.791,0,0,0-1.738.171,8.187,8.187,0,0,1-5.1-.044,3.01,3.01,0,0,0-.858-.2,6.278,6.278,0,0,0-6.3,5.858c-.086,3.49-.011,6.983-.006,10.476-.188.748-.552,1.335-1.422,1.315a1.34,1.34,0,0,1-1.339-1.282c.007-3.4.094-6.811,0-10.212a6.219,6.219,0,0,0-5.865-6.1,6.388,6.388,0,0,0-1.3.149,8.171,8.171,0,0,1-5.283-.012,3.016,3.016,0,0,0-1.039-.178,6.307,6.307,0,0,0-6.061,5.752c-.083.945-.3,1.722-1.405,1.86-1.121-.294-1.281-.513-1.415-1.939a6.3,6.3,0,0,0-5.6-5.615,6.238,6.238,0,0,0-1.479.119,8.178,8.178,0,0,1-5.357-.014,2.943,2.943,0,0,0-1.041-.16,6.016,6.016,0,0,0-5.927,5.317c-.26,3.653-.115,7.334-.145,11a1.347,1.347,0,0,1-1.313,1.312c-.869.04-1.246-.54-1.45-1.283,0-3.525.083-7.053-.012-10.576a6.177,6.177,0,0,0-5.748-5.728,6.769,6.769,0,0,0-1.387.15,8.161,8.161,0,0,1-5.2,0,3.083,3.083,0,0,0-.947-.207,6.3,6.3,0,0,0-6.258,6.034c-.075,3.439-.008,6.881,0,10.322a1.406,1.406,0,0,1-1.152,1.28C.811,103,.384,102.512,0,101.972V89.932M68.453,55.639a4.831,4.831,0,0,0-5.045,4.414,24.159,24.159,0,0,0-.007,3.221,4.859,4.859,0,0,0,4.877,4.518,4.692,4.692,0,0,0,4.808-3.736,15.162,15.162,0,0,0,0-4.7,4.641,4.641,0,0,0-4.632-3.715M79.594,83.106a4.55,4.55,0,0,0,4.619-3.578,15.035,15.035,0,0,0,0-4.952A4.572,4.572,0,0,0,79.582,71,4.832,4.832,0,0,0,74.56,75.45a27.956,27.956,0,0,0,0,3.228,4.808,4.808,0,0,0,5.033,4.428M12.557,71a4.6,4.6,0,0,0-4.784,3.627,14.744,14.744,0,0,0,0,4.88,4.593,4.593,0,0,0,4.8,3.6A4.8,4.8,0,0,0,17.43,78.7a28,28,0,0,0,.005-3.218A4.838,4.838,0,0,0,12.557,71M57.313,83.1a4.635,4.635,0,0,0,4.64-3.79,15.739,15.739,0,0,0,0-4.524A4.647,4.647,0,0,0,57.3,71.008a4.762,4.762,0,0,0-5,4.045,18.03,18.03,0,0,0-.011,3.933A4.738,4.738,0,0,0,57.313,83.1M46,35.809a4.762,4.762,0,0,0,4.84-4.034,16.438,16.438,0,0,0-.013-4.184,4.926,4.926,0,0,0-9.652,0,16.457,16.457,0,0,0-.014,4.185A4.766,4.766,0,0,0,46,35.809m0,19.823a4.744,4.744,0,0,0-4.828,3.937,16.413,16.413,0,0,0-.014,4.185,4.922,4.922,0,0,0,9.665.09,16.329,16.329,0,0,0,0-4.272A4.739,4.739,0,0,0,46,55.632M34.857,39.821a4.705,4.705,0,0,0-4.817,3.82,15.458,15.458,0,0,0,0,4.524,4.744,4.744,0,0,0,4.813,3.814A4.8,4.8,0,0,0,39.7,47.82a18.363,18.363,0,0,0,0-3.846,4.785,4.785,0,0,0-4.846-4.153m.162,31.194a4.674,4.674,0,0,0-4.986,3.821,15.346,15.346,0,0,0,0,4.451,4.678,4.678,0,0,0,5,3.813A4.712,4.712,0,0,0,39.7,79.012a18.358,18.358,0,0,0,0-3.92,4.731,4.731,0,0,0-4.677-4.077M59.469,54.38a7.488,7.488,0,0,1-4.759-.1c-1.332-.525-2.474-.088-3.714.35,3.308,4.118,3.656,8.1,1.18,12.873a17.423,17.423,0,0,1,1.665.807,1.574,1.574,0,0,0,1.411.206,7.043,7.043,0,0,1,3.9,0,1.433,1.433,0,0,0,.839.043c.73-.313,1.425-.708,2.071-1.039a14.424,14.424,0,0,1-1.127-2.8,12.987,12.987,0,0,1,.529-7.663l1.818-2.446c-1.286-.436-2.5-.972-3.81-.234M39.209,56.9l1.782-2.3c-1.3-.381-2.5-1-3.816-.227a8.907,8.907,0,0,1-5.357-.258,4.236,4.236,0,0,0-3.2.583,8.049,8.049,0,0,1,2.725,6.24c.009,2.322-.012,4.607-1.571,6.528a16.074,16.074,0,0,1,1.779.871,1.548,1.548,0,0,0,1.415.167,7.219,7.219,0,0,1,3.894.016,1.409,1.409,0,0,0,.833.02c.726-.312,1.42-.7,1.994-.993a18.183,18.183,0,0,1-1.2-3.361,12.216,12.216,0,0,1,.718-7.289m9.3,13.257a9.585,9.585,0,0,1-5.634-.242c-.77-.262-1.769.147-2.733.259,3.2,4.2,3.017,8.381.924,12.769a9.491,9.491,0,0,1,4.94,3.878,9.5,9.5,0,0,1,4.844-3.871,20.1,20.1,0,0,1-1.223-3.581,12.362,12.362,0,0,1,.694-7.048l1.531-2.056c-1.2-.25-2.235-.818-3.343-.109M72.574,72.5l1.492-2.1a3.3,3.3,0,0,0-3.273-.224,9.573,9.573,0,0,1-5.543-.233c-.8-.262-1.807.129-2.775.229,3.18,4.224,3.029,8.4.92,12.76a9.509,9.509,0,0,1,4.937,3.883,9.444,9.444,0,0,1,4.91-3.883,15.005,15.005,0,0,1-1.167-2.939,13.161,13.161,0,0,1,.5-7.491M26.229,70.143a9.551,9.551,0,0,1-5.63-.212c-.787-.266-1.8.138-2.775.245,3.206,4.22,2.955,8.4.988,12.669.845.489,1.782.956,2.635,1.545.879.606,1.675,1.329,2.2,1.754.561-.441,1.373-1.154,2.26-1.757s1.821-1.079,2.585-1.524a20.079,20.079,0,0,1-1.174-3.425,12.161,12.161,0,0,1,.686-7.12L29.53,70.26c-1.172-.205-2.2-.838-3.3-.117m22.1-31.937a7.41,7.41,0,0,1-4.673-.06c-1.462-.575-2.721-.113-4.047.443,3.9,4.059,3.587,8.508,1.525,13.105a8.982,8.982,0,0,0,4.913,1.342,9.2,9.2,0,0,0,4.8-1.3,17.749,17.749,0,0,1-1.2-3.378,12.331,12.331,0,0,1,.667-7.131l2.042-2.646c-1.3-.543-2.583-1.138-4.023-.371" transform="translate(0.001 -20.919)" fill="#030303"/><path d="M72.707,169.991a1.571,1.571,0,0,0,1.679-1.153,4.788,4.788,0,0,1,4.621-3.018c3.273,3.821,3.272,8.482,0,12.153a4.747,4.747,0,0,1-4.6-2.982,1.61,1.61,0,0,0-1.7-1.148l0-3.852" transform="translate(-55.288 -131.104)" fill="#fdccbe"/><path d="M244.26,100.1a1.742,1.742,0,0,0-.876,1.945,19.273,19.273,0,0,1-.054,4.188,4.747,4.747,0,0,1-4.823,3.85,16.708,16.708,0,0,0,1.244-1.4c1.534-2.152,1.148-4.608.982-7-.11-1.576-1.166-2.7-2.226-3.764a4.8,4.8,0,0,1,.963.074,1.635,1.635,0,0,0,1.938-.67,5.5,5.5,0,0,1,2.852,2.772" transform="translate(-181.369 -79.021)" fill="#f9ae9e"/><path d="M296.512,113.733a9.835,9.835,0,0,1,.689.792,1.27,1.27,0,0,1-.15,1.78,1.181,1.181,0,0,1-1.7.09,16.536,16.536,0,0,1-1.772-1.769,1.231,1.231,0,0,1,.124-1.775c.426-.46.873-.9,1.327-1.334a1.363,1.363,0,1,1,1.916,1.9,3.043,3.043,0,0,1-.432.318" transform="translate(-222.999 -89.393)" fill="#060606"/><path d="M73.958,113.74a8.637,8.637,0,0,1-.636-.725,1.256,1.256,0,0,1,.1-1.715,1.2,1.2,0,0,1,1.768-.134,16.669,16.669,0,0,1,1.718,1.7,1.234,1.234,0,0,1-.036,1.781c-.457.512-.95.993-1.453,1.462a1.317,1.317,0,0,1-1.985.075,1.359,1.359,0,0,1,.1-2c.117-.133.244-.257.426-.447" transform="translate(-55.537 -89.297)" fill="#060606"/><path d="M118.219,47.526a8.283,8.283,0,0,1-.618-.693,1.256,1.256,0,0,1,.076-1.716,1.218,1.218,0,0,1,1.771-.157,13.362,13.362,0,0,1,1.772,1.767,1.239,1.239,0,0,1-.127,1.778c-.469.5-.953.991-1.459,1.455a1.343,1.343,0,1,1-1.9-1.9c.153-.179.316-.35.483-.534" transform="translate(-89.198 -38.964)" fill="#050505"/><path d="M252.321,47.638a7.847,7.847,0,0,1,.612.692,1.269,1.269,0,0,1-.132,1.782,1.2,1.2,0,0,1-1.708.1,14.674,14.674,0,0,1-1.774-1.766,1.241,1.241,0,0,1,.12-1.779c.445-.483.912-.947,1.39-1.4a1.38,1.38,0,0,1,2-.1,1.364,1.364,0,0,1-.079,1.995c-.133.153-.272.3-.424.469" transform="translate(-189.344 -39.073)" fill="#050505"/><path d="M340.824,177.375a7.946,7.946,0,0,1,.631.71,1.263,1.263,0,0,1-.144,1.78,1.208,1.208,0,0,1-1.71.089,14.454,14.454,0,0,1-1.772-1.769,1.248,1.248,0,0,1,.133-1.78c.425-.461.876-.9,1.329-1.332a1.4,1.4,0,0,1,2.06-.144,1.36,1.36,0,0,1-.1,1.994c-.118.134-.246.258-.431.452" transform="translate(-256.655 -137.737)" fill="#050505"/><path d="M29.711,177.275a8.033,8.033,0,0,1-.644-.727,1.254,1.254,0,0,1,.114-1.713,1.194,1.194,0,0,1,1.7-.166,13.538,13.538,0,0,1,1.841,1.822,1.212,1.212,0,0,1-.107,1.709c-.461.508-.952.992-1.454,1.46a1.347,1.347,0,1,1-1.92-1.883c.136-.156.282-.3.47-.5" transform="translate(-21.887 -137.621)" fill="#050505"/><path d="M210.351,305.653l-16.952.02q-.02-1.554-.04-3.108c-.016-1.2-.222-1.48-1.36-1.861q0-1.875.006-3.749c1.108-.138,1.322-.915,1.405-1.861a6.306,6.306,0,0,1,6.061-5.751,3.016,3.016,0,0,1,1.039.178,8.17,8.17,0,0,0,5.283.012,6.411,6.411,0,0,1,1.3-.149,8.256,8.256,0,0,1,3.232,6.76c-.005,3.169.016,6.339.026,9.508" transform="translate(-146.002 -225.036)" fill="#68daf8"/><path d="M121.474,305.66l-17.009.015c.03-3.669-.115-7.351.145-11a6.017,6.017,0,0,1,5.927-5.317,2.943,2.943,0,0,1,1.041.16,8.179,8.179,0,0,0,5.357.014,6.233,6.233,0,0,1,1.479-.119c.35.391.7.781,1.051,1.174a8.971,8.971,0,0,1,2,6.214c.015,2.954.006,5.908.006,8.863" transform="translate(-79.428 -225.044)" fill="#22c0f6"/><path d="M307.8,305.593l-16.887.029c0-3.492-.08-6.986.006-10.476a6.278,6.278,0,0,1,6.3-5.858,3.009,3.009,0,0,1,.858.2,8.188,8.188,0,0,0,5.1.043,8.773,8.773,0,0,1,1.738-.171,3.57,3.57,0,0,0,.428.652,8,8,0,0,1,2.461,6.094c-.038,3.161-.008,6.322-.007,9.483" transform="translate(-221.192 -224.993)" fill="#22c0f7"/><path d="M28.146,305.6c-.624.022-1.248.061-1.872.062q-7.511.007-15.022,0c0-3.441-.072-6.883,0-10.322a6.3,6.3,0,0,1,6.258-6.034,3.091,3.091,0,0,1,.947.207,8.159,8.159,0,0,0,5.2,0,6.775,6.775,0,0,1,1.388-.15c.181.2.349.409.544.591a7.706,7.706,0,0,1,2.549,6.057c-.06,3.195,0,6.392.007,9.588" transform="translate(-8.532 -225.013)" fill="#68daf8"/><path d="M176.043,95.062a12.327,12.327,0,0,0-.667,7.131,17.748,17.748,0,0,0,1.2,3.378,9.206,9.206,0,0,1-4.8,1.3,8.984,8.984,0,0,1-4.913-1.342c2.062-4.6,2.378-9.046-1.525-13.105,1.326-.556,2.585-1.018,4.047-.443a7.407,7.407,0,0,0,4.673.06,5.218,5.218,0,0,1,.643.715c.467.754.894,1.532,1.337,2.3" transform="translate(-125.731 -74.759)" fill="#f84958"/><path d="M84.587,227.608a12.161,12.161,0,0,0-.686,7.12,20.071,20.071,0,0,0,1.174,3.425c-.764.445-1.712.93-2.585,1.524s-1.7,1.316-2.26,1.757c-.526-.425-1.324-1.148-2.2-1.754-.853-.588-1.79-1.056-2.635-1.545,1.967-4.267,2.218-8.449-.988-12.669.974-.106,1.987-.51,2.775-.245a9.551,9.551,0,0,0,5.63.212l1.779,2.175" transform="translate(-56.579 -176.209)" fill="#a1e13f"/><path d="M270.883,227.808a13.16,13.16,0,0,0-.5,7.491,15.024,15.024,0,0,0,1.167,2.939,9.446,9.446,0,0,0-4.91,3.883,9.51,9.51,0,0,0-4.937-3.883c2.109-4.364,2.259-8.536-.92-12.76.968-.1,1.978-.491,2.775-.229a9.575,9.575,0,0,0,5.543.233l1.781,2.326" transform="translate(-198.308 -176.23)" fill="#a1e13f"/><path d="M177.749,227.576a12.36,12.36,0,0,0-.694,7.048,20.087,20.087,0,0,0,1.223,3.581,9.5,9.5,0,0,0-4.844,3.871,9.491,9.491,0,0,0-4.94-3.878c2.093-4.388,2.273-8.57-.925-12.769.964-.112,1.963-.521,2.733-.259a9.584,9.584,0,0,0,5.634.242l1.812,2.165" transform="translate(-127.425 -176.172)" fill="#27ceb1"/><path d="M130.056,161.855a12.218,12.218,0,0,0-.718,7.289,18.2,18.2,0,0,0,1.2,3.361c-.575.292-1.268.681-1.994.994a1.409,1.409,0,0,1-.833-.02,7.219,7.219,0,0,0-3.894-.016,1.548,1.548,0,0,1-1.415-.167,16.08,16.08,0,0,0-1.779-.871c1.559-1.921,1.58-4.206,1.571-6.528a8.049,8.049,0,0,0-2.724-6.24,4.236,4.236,0,0,1,3.2-.583,8.908,8.908,0,0,0,5.357.258l2.034,2.524" transform="translate(-90.845 -125.873)" fill="#fcd194"/><path d="M223.335,162.2a12.987,12.987,0,0,0-.529,7.663,14.406,14.406,0,0,0,1.127,2.8c-.645.331-1.341.726-2.071,1.039a1.435,1.435,0,0,1-.839-.043,7.042,7.042,0,0,0-3.9,0,1.574,1.574,0,0,1-1.411-.206,17.441,17.441,0,0,0-1.665-.807c2.476-4.775,2.128-8.755-1.18-12.873,1.239-.438,2.382-.875,3.714-.35a7.49,7.49,0,0,0,4.759.1l1.992,2.679" transform="translate(-161.873 -126.064)" fill="#f9b24c"/><path d="M129.853,242.056a4.677,4.677,0,0,1-5-3.813,15.346,15.346,0,0,1,0-4.451,4.674,4.674,0,0,1,4.986-3.821c2.333,2.42,2.451,5.355,2,8.444-.215,1.479-1.185,2.507-1.991,3.642" transform="translate(-94.821 -179.874)" fill="#fcccbe"/><path d="M129.685,111.972a4.744,4.744,0,0,1-4.813-3.814,15.466,15.466,0,0,1,0-4.524,4.706,4.706,0,0,1,4.817-3.82c3.326,3.866,3.325,8.412,0,12.157" transform="translate(-94.83 -80.913)" fill="#fcccbe"/><path d="M222.8,99.815c1.06,1.068,2.116,2.187,2.226,3.764.166,2.388.552,4.843-.982,7a16.667,16.667,0,0,1-1.244,1.4,4.832,4.832,0,0,1-4.844-4.113,19.047,19.047,0,0,1-.012-3.833,4.792,4.792,0,0,1,4.856-4.213" transform="translate(-165.665 -80.914)" fill="#fcccbe"/><path d="M176.233,177.972a4.763,4.763,0,0,1-4.839-4.036,16.413,16.413,0,0,1,.014-4.185,4.743,4.743,0,0,1,4.828-3.937c3.376,3.941,3.375,8.377,0,12.158" transform="translate(-130.236 -131.101)" fill="#fcccbe"/><path d="M176.234,44.472a4.766,4.766,0,0,1-4.84-4.036,16.469,16.469,0,0,1,.014-4.185,4.759,4.759,0,0,1,4.828-3.939c3.389,3.923,3.388,8.3,0,12.16" transform="translate(-130.237 -29.582)" fill="#fcccbe"/><path d="M222.971,242.061a4.738,4.738,0,0,1-5.022-4.118,18.032,18.032,0,0,1,.011-3.933,4.761,4.761,0,0,1,5-4.044,9.345,9.345,0,0,1,1.381,1.946c1.368,3.607,1.422,7.083-1.369,10.15" transform="translate(-165.657 -179.877)" fill="#fcccbe"/><path d="M36.61,242.069a4.593,4.593,0,0,1-4.8-3.6,14.757,14.757,0,0,1,0-4.88,4.6,4.6,0,0,1,4.784-3.627A12.413,12.413,0,0,1,37.97,231.7a10.152,10.152,0,0,1,.64,7.133,7.111,7.111,0,0,1-2,3.232" transform="translate(-24.033 -179.88)" fill="#fdccbe"/><path d="M316.116,242.064a4.807,4.807,0,0,1-5.033-4.428,28.021,28.021,0,0,1,0-3.228,4.832,4.832,0,0,1,5.021-4.446c.36.43.749.838,1.075,1.292,1.6,2.234,1.149,4.775.967,7.238-.107,1.448-1.105,2.519-2.03,3.572" transform="translate(-236.521 -179.877)" fill="#fdccbe"/><path d="M269.363,177.984a4.859,4.859,0,0,1-4.877-4.518,24.039,24.039,0,0,1,.007-3.221,4.831,4.831,0,0,1,5.045-4.414c2.537,2.417,2.366,5.477,2.012,8.568a6.253,6.253,0,0,1-2.187,3.584" transform="translate(-201.085 -131.112)" fill="#fdccbe"/><path d="M165.8,305.839c0-2.954.008-5.908-.006-8.863a8.971,8.971,0,0,0-2-6.214c-.348-.393-.7-.783-1.051-1.174a6.3,6.3,0,0,1,5.6,5.615c.134,1.426.294,1.646,1.415,1.94q0,1.875-.006,3.749c-1.132.378-1.344.672-1.367,1.849-.021,1.058-.054,2.116-.081,3.174l-2.5-.076" transform="translate(-123.749 -225.223)" fill="#1fa8ec"/><path d="M72.033,305.782c-.008-3.2-.067-6.393-.007-9.588a7.706,7.706,0,0,0-2.549-6.057c-.195-.183-.363-.393-.544-.591a6.178,6.178,0,0,1,5.748,5.728c.1,3.523.016,7.051.012,10.576l-2.66-.068" transform="translate(-52.419 -225.191)" fill="#25cff6"/><path d="M258.262,305.789c-.01-3.169-.031-6.339-.026-9.508a8.256,8.256,0,0,0-3.232-6.76,6.218,6.218,0,0,1,5.865,6.1c.1,3.4.01,6.808,0,10.212l-2.61-.043" transform="translate(-193.913 -225.172)" fill="#23cdf3"/><path d="M352.365,305.841c0-3.161-.031-6.322.007-9.483a8,8,0,0,0-2.461-6.094,3.569,3.569,0,0,1-.428-.652,6.23,6.23,0,0,1,5.544,5.94c.078,3.4.007,6.805,0,10.209l-.143.112-2.52-.031" transform="translate(-265.757 -225.241)" fill="#1fa8ec"/><path d="M192,44.472c3.391-3.862,3.392-8.237,0-12.16a4.746,4.746,0,0,1,4.824,3.941,16.416,16.416,0,0,1,.013,4.184A4.762,4.762,0,0,1,192,44.472" transform="translate(-146.001 -29.582)" fill="#f8ad9d"/><path d="M145.493,111.973c3.328-3.746,3.329-8.291,0-12.157a4.785,4.785,0,0,1,4.846,4.153,18.347,18.347,0,0,1,0,3.846,4.8,4.8,0,0,1-4.848,4.158" transform="translate(-110.637 -80.914)" fill="#f7ac9d"/><path d="M192,177.972c3.377-3.781,3.378-8.217,0-12.158a4.74,4.74,0,0,1,4.824,3.939,16.328,16.328,0,0,1,0,4.272A4.76,4.76,0,0,1,192,177.972" transform="translate(-146 -131.101)" fill="#f7ac9d"/><path d="M285,178a6.253,6.253,0,0,0,2.187-3.584c.354-3.091.525-6.151-2.012-8.568a4.641,4.641,0,0,1,4.632,3.714,15.161,15.161,0,0,1,0,4.7A4.692,4.692,0,0,1,285,178" transform="translate(-216.726 -131.126)" fill="#f8ad9d"/><path d="M332.2,242.081c.924-1.052,1.923-2.123,2.03-3.572.182-2.464.637-5-.967-7.238-.326-.454-.715-.863-1.075-1.292a4.572,4.572,0,0,1,4.627,3.572,15.022,15.022,0,0,1,0,4.952,4.55,4.55,0,0,1-4.619,3.578" transform="translate(-252.606 -179.895)" fill="#f9ae9e"/><path d="M239.2,242.094c2.792-3.067,2.737-6.543,1.369-10.15A9.346,9.346,0,0,0,239.186,230a4.647,4.647,0,0,1,4.648,3.781,15.739,15.739,0,0,1,0,4.524,4.635,4.635,0,0,1-4.64,3.79" transform="translate(-181.884 -179.91)" fill="#f8ad9d"/><path d="M146.193,242.113c.807-1.135,1.777-2.163,1.991-3.642.448-3.089.33-6.024-2-8.444a4.731,4.731,0,0,1,4.677,4.076,18.342,18.342,0,0,1,0,3.92,4.712,4.712,0,0,1-4.668,4.089" transform="translate(-111.161 -179.931)" fill="#f7ac9d"/><path d="M52.438,242.076a7.111,7.111,0,0,0,2-3.232,10.152,10.152,0,0,0-.64-7.133,12.415,12.415,0,0,0-1.379-1.743,4.838,4.838,0,0,1,4.878,4.481,28,28,0,0,1-.005,3.218,4.8,4.8,0,0,1-4.854,4.409" transform="translate(-39.861 -179.886)" fill="#f9ae9e"/><path d="M99,177.979c3.273-3.672,3.274-8.333,0-12.153a4.821,4.821,0,0,1,4.857,4.329,23.217,23.217,0,0,1,.009,3.4A4.847,4.847,0,0,1,99,177.979" transform="translate(-75.279 -131.111)" fill="#f9ae9e"/><path d="M203.723,94.931c-.443-.769-.871-1.547-1.337-2.3a5.218,5.218,0,0,0-.643-.715c1.44-.768,2.723-.172,4.023.371l-2.042,2.646" transform="translate(-153.411 -74.628)" fill="#ef2e3e"/><path d="M157.212,161.935l-2.034-2.524c1.311-.77,2.515-.155,3.816.227l-1.782,2.3" transform="translate(-118.002 -125.952)" fill="#f4ae4b"/><path d="M250.228,162.108l-1.992-2.679c1.308-.738,2.524-.2,3.81.234l-1.818,2.445" transform="translate(-188.766 -125.968)" fill="#f29426"/><path d="M297.285,227.768l-1.781-2.326a3.3,3.3,0,0,1,3.273.224l-1.492,2.1" transform="translate(-224.71 -176.19)" fill="#87be35"/><path d="M111.266,227.5l-1.779-2.175c1.106-.72,2.129-.088,3.3.117l-1.522,2.058" transform="translate(-83.257 -176.098)" fill="#87be35"/><path d="M204.308,227.527l-1.812-2.165c1.108-.709,2.147-.141,3.343.109l-1.531,2.055" transform="translate(-153.984 -176.123)" fill="#1faf99"/><path d="M372.031,357.13l.143-.112a.137.137,0,0,1,0,.15.205.205,0,0,1-.142-.038" transform="translate(-282.904 -276.499)" fill="#22c0f7"/><path d="M185.952,341.793c.028-1.058.06-2.116.081-3.174.023-1.178.235-1.471,1.367-1.849,1.138.381,1.344.661,1.36,1.861q.021,1.554.04,3.108c-.184.707-.522,1.273-1.343,1.312-.871.041-1.225-.574-1.506-1.258" transform="translate(-141.403 -261.102)" fill="#050a0c"/></g></g></svg>