<svg xmlns="http://www.w3.org/2000/svg" width="190" height="106.981" viewBox="0 0 190 106.981"><g transform="translate(-180 -4397.009)"><rect width="190" height="106.981" rx="11" transform="translate(180 4397.009)" fill="#ffba5b" opacity="0.4"/><rect width="10" height="106.981" transform="translate(360 4397.009)" fill="#ffba5b"/><g transform="translate(227.152 4401.929)"><g transform="translate(5.97 6.593)"><path d="M11.378,71.464c0-2.575,0-5.049,0-7.523,0-2.06.681-2.918,2.7-3.361a6.73,6.73,0,0,1,.008-1.079c.621-3.817-.363-7.656.157-11.471.178-1.308.355-2.619.617-3.911a1.285,1.285,0,0,0-.408-1.316c-4.1-4.28-5.494-9.33-3.7-14.987a14.253,14.253,0,0,1,11.61-10.178,14.052,14.052,0,0,1,10.9,2.406,1.223,1.223,0,0,0,1.275.141c2.2-.752,4.435-1.392,6.644-2.115A1.556,1.556,0,0,0,42,17.4a9.33,9.33,0,0,1,8.683-5.391c9.314-.037,18.628-.019,27.943,0a1.1,1.1,0,0,0,1.2-.753c.45-1.027.985-2.017,1.49-3.019a2.762,2.762,0,0,1,2.708-1.651c.562.012,1.126,0,1.688,0a3.921,3.921,0,0,1,4,4.331c-.2,2.467-.485,4.927-.734,7.39-.028.28-.073.559-.083.84-.117,3.073-1.461,5.255-4.563,6.213,0,1.738,0,3.476,0,5.214,0,1.959-1.083,2.9-3.014,3.074a4.055,4.055,0,0,1-4.684-2.886c-.622-1.616-1.541-3.116-2.289-4.687a.886.886,0,0,0-.967-.58c-1.124.036-2.25.012-3.374.012l-.212.23a2.924,2.924,0,0,1,.623.344A33.428,33.428,0,0,1,81.581,52.468a47.7,47.7,0,0,1-.755,5.844,1.206,1.206,0,0,0,.34,1.185c4.157,4.273,5.588,9.335,3.8,15.034A14.257,14.257,0,0,1,73.383,84.74a14.043,14.043,0,0,1-10.9-2.379,1.214,1.214,0,0,0-1.35-.132,33.024,33.024,0,0,1-10.49,2.627,1.72,1.72,0,0,0-1.093.581,12.129,12.129,0,0,1-9.969,4.944q-10.637.025-21.273,0A12.152,12.152,0,0,1,5.974,78.022c0-1.239-.01-2.477,0-3.716a2.708,2.708,0,0,1,2.874-2.84c.812-.007,1.624,0,2.528,0m37.778,5.407h-.967q-11.6,0-23.2,0c-3.609,0-3.057.323-5.672-2.286a1.479,1.479,0,0,0-.937-.4c-3.066-.029-6.131-.018-9.2-.015a3.984,3.984,0,0,0-.5.066c0,1.226,0,2.406,0,3.585a9.475,9.475,0,0,0,9.888,9.858q10.337.005,20.673,0c6.2,0,10.375-4.5,9.916-10.809M62.672,49.8A38.351,38.351,0,0,0,60,36.727c-.078-.194-.44-.323-.693-.389a7.814,7.814,0,0,1-2.371-.608,7.406,7.406,0,0,1-1.451-2.08H39.759a.975.975,0,0,0-.112.246,14.8,14.8,0,0,1-5.783,10.2c-.126.1-.29.24-.307.376-.214,1.767-.4,3.536-.6,5.328ZM55.978,71.436a14.981,14.981,0,0,1,5.856-13.145.935.935,0,0,0,.33-.55c.21-1.7.391-3.395.586-5.15H33.039a39.022,39.022,0,0,0,2.649,13.043,2.976,2.976,0,0,1,3.318-2.285c.673.037,1.35,0,2.025.009A2.7,2.7,0,0,1,43.8,66.135c.015.865,0,1.731,0,2.59a2.9,2.9,0,0,1,2.762,2.711ZM12.73,32.214a12.158,12.158,0,1,0,12.258-12.1,12.185,12.185,0,0,0-12.258,12.1M58.663,70.071A12.158,12.158,0,1,0,70.9,57.951a12.185,12.185,0,0,0-12.241,12.12M84.33,22.445A3.122,3.122,0,0,0,86.152,19.5c.251-2.518.394-5.052.759-7.553.349-2.392-.212-2.762-2.506-2.666a.871.871,0,0,0-.884.578c-.452.966-.968,1.9-1.406,2.873a3.134,3.134,0,0,1-3.189,1.989c-9.283-.033-18.566-.02-27.849-.009a9.185,9.185,0,0,0-2.007.18,6.364,6.364,0,0,0-3.846,2.53h3.944V20.1H44.029c-.541,1.512-.226,2.826,1.884,2.739,2.752-.114,5.513-.014,8.269-.048a1.1,1.1,0,0,0,.8-.465,3.988,3.988,0,0,1,3.7-2.218c1.66,0,3.322.065,4.978-.015,2.118-.1,3.669.611,4.364,2.684h5.6a3.622,3.622,0,0,1,3.863-2.668c1.069,0,2.141.052,3.206-.012,1.807-.108,3.159.43,3.636,2.346M65.618,49.779H78.882a31.394,31.394,0,0,0-5.019-15.59,1.107,1.107,0,0,0-1.082-.577c-2.784.028-5.567.013-8.351.013a2.15,2.15,0,0,0-1.742,2.493,41.275,41.275,0,0,1,1.431,4.661c.591,2.965,1,5.966,1.5,9M14.1,71.464c.946,0,1.814,0,2.682,0,3.539.009,2.986-.264,5.527,2.229a1.715,1.715,0,0,0,1.075.453c2.98.036,5.961.021,8.941.018.214,0,.427-.03.668-.048,0-.952.047-1.853-.022-2.745A1.976,1.976,0,0,0,32.5,70.22q-3.149-3.233-6.381-6.383a1.834,1.834,0,0,0-1.156-.46c-3.374-.036-6.748-.021-10.122-.019-.242,0-.484.025-.742.039ZM33.038,66.9l.191-.107a42.283,42.283,0,0,1-2.905-14.206H16.846c.056.742.1,1.439.164,2.136a3.789,3.789,0,0,0,.126.524c.745,0,1.474-.007,2.2,0a2.708,2.708,0,0,1,2.845,2.87c.008.832,0,1.664,0,2.534,1.086,0,2.069.037,3.047-.01a3.347,3.347,0,0,1,2.7,1.123c1.681,1.732,3.4,3.425,5.108,5.134m9.739-41.751c-.776,1-1.705,2.259-2.716,3.454a2.195,2.195,0,0,0-.332,2.284H55.44l-.683-5.37c-2.883,0-5.69.031-8.5-.015-1.072-.018-2.141-.21-3.485-.352m15.736,8.476a11.25,11.25,0,0,0,1.522-.019,1.02,1.02,0,0,0,.691-.423q2.3-4.5,4.528-9.034c.385-.781.024-1.32-.868-1.329q-2.868-.027-5.736,0a1.2,1.2,0,0,0-1.315,1.456c.373,3.093.777,6.182,1.179,9.349M16.772,49.8H30.3l.281-3.785a15,15,0,0,1-13.257-.944c-.189,1.624-.363,3.123-.55,4.729m62.156,2.783H65.408c-.1,1.253-.191,2.473-.292,3.779a15.044,15.044,0,0,1,13.258.943l.554-4.722M81.6,22.814c-1.5,0-2.9-.012-4.305,0-.938.011-1.292.548-.886,1.375q1.559,3.174,3.171,6.322a.741.741,0,0,0,.464.385c.516.051,1.04.018,1.556.018ZM52.24,81.969a29.1,29.1,0,0,0,7.323-2.023l-2.315-3.592L52.24,81.969M36.081,22.352l2.408,3.727c.837-.99,1.712-2.009,2.563-3.047a.929.929,0,0,0,.187-.6c-.035-.5-.134-.99-.226-1.617l-4.932,1.534m30.96,4.288-2.113,4.241H71.5L67.041,26.64M50,74.185c1.856.767,2.025,2.324,1.881,4.046l.219-.026,3.317-4.02ZM19.441,57.993H16.825v2.63h2.616ZM38.436,68.716h2.611V66.09H38.436Zm-.071,2.789H35.744v2.607h2.621Zm5.391.012h-2.6v2.612h2.6Z" transform="translate(-5.97 -6.593)" fill="#020202"/><path d="M58.451,308.93c.458,6.305-3.715,10.808-9.916,10.809q-10.337,0-20.673,0a9.475,9.475,0,0,1-9.888-9.858c0-1.179,0-2.359,0-3.585a3.985,3.985,0,0,1,.5-.066c3.066,0,6.132-.015,9.2.015a1.479,1.479,0,0,1,.937.4c2.615,2.609,2.064,2.282,5.672,2.286q11.6.015,23.2,0h.967m-21.5,5.367h2.6v-2.628h-2.6Zm5.4-.024h2.577v-2.608H42.351Zm5.392.012h2.6v-2.628h-2.6Z" transform="translate(-15.265 -238.652)" fill="#a9b1bc"/><path d="M155.34,142.721H125.622c.2-1.792.39-3.562.6-5.328.017-.137.181-.277.307-.377a14.8,14.8,0,0,0,5.783-10.2.985.985,0,0,1,.112-.246h15.726a7.394,7.394,0,0,0,1.451,2.08,7.816,7.816,0,0,0,2.371.608c.254.066.615.195.693.389a38.357,38.357,0,0,1,2.671,13.074" transform="translate(-98.638 -99.513)" fill="#68d5f3"/><path d="M148.937,229.4h-9.414a2.9,2.9,0,0,0-2.762-2.711c0-.859.012-1.725,0-2.59a2.7,2.7,0,0,0-2.768-2.777c-.675-.013-1.352.029-2.025-.009a2.976,2.976,0,0,0-3.318,2.285A39.023,39.023,0,0,1,126,210.56H155.71c-.2,1.755-.376,3.455-.586,5.15a.934.934,0,0,1-.33.55,14.98,14.98,0,0,0-5.856,13.144" transform="translate(-98.928 -164.561)" fill="#68d5f3"/><path d="M35.946,78.64A12.158,12.158,0,1,1,48,90.861,12.178,12.178,0,0,1,35.946,78.64m13.562-1.352H52.12c.228-2.2-.311-3.959-2.382-5a.8.8,0,0,1-.271-.6c-.031-.8-.013-1.608-.013-2.393H46.707V72H44.051c0,1.23,0,2.384,0,3.538,0,2.714,1.373,4.239,4.06,4.519a1.346,1.346,0,0,1,1.336,1.354c.026.438,0,.878,0,1.477-.8-.15-1.725-.052-2.085-.457A6.83,6.83,0,0,1,46.5,80.11H44.088c-.233,2.2.313,3.958,2.383,5a.806.806,0,0,1,.269.6c.031.8.012,1.609.012,2.392H49.5v-2.67h2.656c0-1.219,0-2.393,0-3.568,0-2.709-1.377-4.24-4.06-4.518a1.325,1.325,0,0,1-1.328-1.272,13.76,13.76,0,0,1-.009-1.391c2.4-.142,2.521-.029,2.748,2.6" transform="translate(-29.186 -53.019)" fill="#ffba5b"/><path d="M239.619,246.445a12.158,12.158,0,1,1,12.074,12.2,12.18,12.18,0,0,1-12.074-12.2m16.167-1.347c.236-2.163-.267-3.925-2.317-4.994a.878.878,0,0,1-.326-.648c-.039-.8-.015-1.606-.015-2.365H250.4v2.647h-2.672c0,1.307,0,2.54,0,3.773a4.045,4.045,0,0,0,4,4.323,1.331,1.331,0,0,1,1.369,1.132,9.415,9.415,0,0,1,.016,1.553c-2.422.087-2.448.062-2.75-2.641h-2.587c-.242,2.164.268,3.922,2.318,4.989a.882.882,0,0,1,.324.653c.039.8.015,1.605.015,2.364h2.732v-2.647h2.672c0-1.307,0-2.54,0-3.773a4.048,4.048,0,0,0-4-4.323,1.332,1.332,0,0,1-1.37-1.132,9.415,9.415,0,0,1-.016-1.553c2.424-.086,2.448-.062,2.751,2.642Z" transform="translate(-186.926 -182.966)" fill="#ffba5b"/><path d="M214.234,31.631c-.477-1.916-1.829-2.455-3.636-2.346-1.065.064-2.137.011-3.206.012a3.622,3.622,0,0,0-3.863,2.668h-5.6c-.695-2.073-2.245-2.786-4.364-2.684-1.656.08-3.319.02-4.978.015a3.988,3.988,0,0,0-3.7,2.218,1.1,1.1,0,0,1-.8.465c-2.756.034-5.517-.065-8.269.049-2.11.087-2.425-1.227-1.884-2.739h5.139v-2.68h-3.945a6.364,6.364,0,0,1,3.846-2.53,9.174,9.174,0,0,1,2.007-.181c9.283-.011,18.566-.024,27.849.009a3.134,3.134,0,0,0,3.189-1.989c.438-.972.955-1.907,1.406-2.873a.871.871,0,0,1,.884-.578c2.295-.1,2.856.274,2.506,2.666-.365,2.5-.508,5.035-.759,7.553a3.122,3.122,0,0,1-1.822,2.944" transform="translate(-135.873 -15.779)" fill="#e4e7eb"/><path d="M260.19,142.567c-.495-3.033-.907-6.034-1.5-9a41.305,41.305,0,0,0-1.431-4.661A2.15,2.15,0,0,1,259,126.414c2.784,0,5.568.014,8.351-.013a1.107,1.107,0,0,1,1.082.577,31.393,31.393,0,0,1,5.019,15.59Z" transform="translate(-200.542 -99.381)" fill="#68d4f2"/><path d="M42.021,266.391v-8.067c.258-.014.5-.039.742-.039,3.374,0,6.748-.017,10.122.019a1.834,1.834,0,0,1,1.156.46q3.233,3.149,6.381,6.383a1.976,1.976,0,0,1,.471,1.152c.069.892.022,1.793.022,2.745-.241.018-.455.048-.668.048-2.98,0-5.961.018-8.941-.018a1.715,1.715,0,0,1-1.075-.453c-2.54-2.493-1.988-2.22-5.527-2.229-.868,0-1.736,0-2.682,0m2.721-2.741h2.623v-2.634H44.742Zm5.4-.025h2.633v-2.6H50.141Z" transform="translate(-33.891 -201.519)" fill="#e5e8ec"/><path d="M70.39,224.855c-1.7-1.709-3.426-3.4-5.108-5.134a3.346,3.346,0,0,0-2.7-1.123c-.979.046-1.961.01-3.047.01,0-.87.007-1.7,0-2.534a2.708,2.708,0,0,0-2.845-2.87c-.729-.009-1.458,0-2.2,0a3.79,3.79,0,0,1-.126-.524c-.061-.7-.109-1.394-.164-2.136H67.675a42.277,42.277,0,0,0,2.905,14.206l-.191.107" transform="translate(-43.322 -164.547)" fill="#68d4f2"/><path d="M158.13,88.874c1.344.142,2.413.335,3.485.352,2.805.046,5.612.016,8.5.016l.683,5.37H155.083a2.2,2.2,0,0,1,.332-2.284c1.011-1.195,1.94-2.459,2.716-3.454" transform="translate(-121.323 -70.318)" fill="#68d4f2"/><path d="M234.855,89.3c-.4-3.166-.806-6.256-1.179-9.349a1.2,1.2,0,0,1,1.315-1.456q2.868-.027,5.736,0c.892.008,1.253.548.868,1.329q-2.234,4.532-4.528,9.034a1.02,1.02,0,0,1-.691.423,11.249,11.249,0,0,1-1.522.019" transform="translate(-182.312 -62.272)" fill="#ff6d4b"/><path d="M53.868,181.95c.187-1.606.361-3.105.55-4.729a15,15,0,0,0,13.257.944c-.1,1.317-.188,2.532-.282,3.785Z" transform="translate(-43.066 -138.741)" fill="#67d3f0"/><path d="M282.048,210.53l-.554,4.722a15.042,15.042,0,0,0-13.257-.943l.292-3.779Z" transform="translate(-209.09 -164.538)" fill="#67d3f0"/><path d="M322.907,78.505v8.106c-.516,0-1.041.032-1.556-.018a.743.743,0,0,1-.464-.385q-1.605-3.151-3.171-6.322c-.406-.827-.053-1.364.886-1.375,1.4-.016,2.808,0,4.305,0" transform="translate(-247.282 -62.284)" fill="#ff6d4b"/><path d="M211.141,321.538l5.007-5.615,2.315,3.592a29.1,29.1,0,0,1-7.323,2.023" transform="translate(-164.871 -246.162)" fill="#66d0ed"/><path d="M139.489,71.2l4.932-1.534c.093.628.191,1.12.226,1.617a.925.925,0,0,1-.187.6c-.851,1.038-1.725,2.057-2.563,3.047L139.489,71.2" transform="translate(-109.378 -55.445)" fill="#66d0ee"/><path d="M269.513,95.487l4.458,4.241H267.4l2.113-4.241" transform="translate(-208.442 -75.439)" fill="#67d2ef"/><path d="M201.229,306.31h5.417l-3.317,4.02-.219.026c.145-1.723-.025-3.28-1.881-4.046" transform="translate(-157.194 -238.717)" fill="#67d2f0"/><rect width="2.616" height="2.63" transform="translate(10.855 51.401)" fill="#cbd0d8"/><rect width="2.611" height="2.626" transform="translate(32.466 59.497)" fill="#d29f6c"/><rect width="2.621" height="2.607" transform="translate(29.774 64.912)" fill="#d29f6c"/><rect width="2.596" height="2.612" transform="translate(35.19 64.925)" fill="#d29f6c"/><rect width="2.597" height="2.628" transform="translate(21.687 73.017)"/><rect width="2.577" height="2.608" transform="translate(27.086 73.013)"/><rect width="2.602" height="2.628" transform="translate(32.478 73.006)"/><path d="M77.3,86.761c-.227-2.632-.344-2.746-2.748-2.6a13.76,13.76,0,0,0,.009,1.391,1.325,1.325,0,0,0,1.328,1.272c2.684.277,4.058,1.808,4.06,4.518,0,1.175,0,2.349,0,3.568H77.292v2.67H74.545c0-.783.018-1.589-.012-2.392a.806.806,0,0,0-.269-.6c-2.07-1.038-2.616-2.8-2.383-5h2.414a6.83,6.83,0,0,0,.865,2.316c.359.4,1.285.307,2.085.457,0-.6.021-1.039,0-1.477A1.346,1.346,0,0,0,75.9,89.526c-2.687-.28-4.058-1.805-4.06-4.519,0-1.154,0-2.308,0-3.538H74.5v-2.7h2.747c0,.784-.018,1.589.013,2.393a.8.8,0,0,0,.271.6c2.071,1.039,2.61,2.8,2.382,5Z" transform="translate(-56.978 -62.492)" fill="#010101"/><path d="M283.584,254.6H281c-.3-2.7-.327-2.728-2.751-2.642a9.415,9.415,0,0,0,.016,1.553,1.332,1.332,0,0,0,1.37,1.132,4.048,4.048,0,0,1,4,4.323c0,1.232,0,2.465,0,3.773h-2.672v2.647h-2.732c0-.758.024-1.563-.015-2.364a.882.882,0,0,0-.324-.653c-2.05-1.067-2.56-2.825-2.318-4.989h2.587c.3,2.7.328,2.729,2.75,2.641a9.415,9.415,0,0,0-.016-1.553,1.331,1.331,0,0,0-1.369-1.132,4.045,4.045,0,0,1-4-4.323c0-1.232,0-2.465,0-3.773h2.672v-2.647h2.732c0,.759-.024,1.563.015,2.365a.877.877,0,0,0,.326.648c2.05,1.069,2.553,2.831,2.317,4.994" transform="translate(-214.724 -192.466)" fill="#010101"/><rect width="2.623" height="2.634" transform="translate(10.852 59.496)"/><rect width="2.633" height="2.604" transform="translate(16.25 59.501)"/></g></g></g></svg>