<svg xmlns="http://www.w3.org/2000/svg" width="156" height="156" viewBox="0 0 156 156"><g transform="translate(5956 -2121)"><g transform="translate(-6468 -4008)"><circle cx="78" cy="78" r="78" transform="translate(512 6129)" fill="#f1a99c"/></g><g transform="translate(-5922 2155)"><path d="M42.436,75.687c-.165,1.042-.449,1.348-1.485,1.412A37.187,37.187,0,0,1,20.41,72.625,38.032,38.032,0,0,1,1.143,47.881C.688,46.113.5,44.277.179,42.473A2.025,2.025,0,0,0,0,42.051V35.157a2.052,2.052,0,0,0,.178-.424c.327-1.831.537-3.69.983-5.491A37.817,37.817,0,0,1,14.114,8.769,37.293,37.293,0,0,1,31.592.655C32.781.442,33.969.219,35.157,0h6.377l3.161.494A38.556,38.556,0,0,1,75.91,48.437c-.315,1.194-.575,1.388-1.791,1.392a1.548,1.548,0,0,1-.74-1.966,35.933,35.933,0,0,0,1.105-11.936,35.109,35.109,0,0,0-7.147-18.967A35.819,35.819,0,0,0,24.792,5.355a32.206,32.206,0,0,0-10.173,6.478c-1.131,1.133-2.36,2.185-3.378,3.412-7.5,9.039-10.213,19.368-7.815,30.866a34.834,34.834,0,0,0,16.3,23.1,34.8,34.8,0,0,0,20.994,5.3c.967-.057,1.367.2,1.719,1.174" fill="#030303"/><path d="M190.614,247.4a4.605,4.605,0,0,0-.573-.3,5.347,5.347,0,0,1-2.978-7.654c.927-1.741,1.945-3.433,2.923-5.147.7-1.2,1.423-2.393,2.11-3.6.616-1.085,1.2-2.19,1.793-3.287l3.819-6.536c.227-.359.467-.711.68-1.078,1.949-3.364,3.914-6.719,5.83-10.1a5.723,5.723,0,0,1,4.143-3.02,6.105,6.105,0,0,1,3.959.984c.637.832,1.306,1.641,1.9,2.5.624.9,1.177,1.849,1.76,2.777a10.558,10.558,0,0,0,.454,1.012q7.123,12.363,14.251,24.724c.432.751.748,1.568,1.118,2.354v2.068c-.142.328-.288.655-.426.985a5.766,5.766,0,0,1-4.055,3.323Zm38.568-5.514a8.538,8.538,0,0,0-.54-1.582q-8.436-14.665-16.915-29.3a9.61,9.61,0,0,0-.77-1.008,2.746,2.746,0,0,0-4.407.853q-3.714,6.4-7.4,12.815-4.84,8.382-9.677,16.766a2.8,2.8,0,0,0,2.521,4.388c.747.008,1.493,0,2.24,0q15.939,0,31.878,0a2.771,2.771,0,0,0,3.069-2.926" transform="translate(-143.566 -159.165)" fill="#030202"/><path d="M112.329,62.442c-.584-.928-1.137-1.877-1.76-2.777-.6-.86-1.265-1.67-1.9-2.5l.864-3.152c1.22-.2,1.43-.39,1.632-1.612a31.479,31.479,0,0,0-.307-11.975A33.016,33.016,0,0,0,75.809,14.335a32.336,32.336,0,0,0-16.156,5.785,35.864,35.864,0,0,0-7.831,7.563c.419-1.27.8-2.554,1.268-3.8.43-1.144.958-2.251,1.443-3.374a32.207,32.207,0,0,1,10.173-6.478,35.819,35.819,0,0,1,42.546,11.606A35.108,35.108,0,0,1,114.4,44.6a35.939,35.939,0,0,1-1.105,11.936,1.548,1.548,0,0,0,.74,1.966c-.45,1.226-.894,2.455-1.36,3.675-.044.116-.226.179-.344.267" transform="translate(-39.914 -8.671)" fill="#9b929b"/><path d="M23.26,51.494c-.485,1.123-1.013,2.23-1.443,3.374-.47,1.25-.849,2.535-1.268,3.8a2.188,2.188,0,0,1-.151.3,32.415,32.415,0,0,0-6.1,21.973,31.609,31.609,0,0,0,9.006,20.062c8.185,8.4,18.187,11.592,29.775,9.8.982-.151,1.324-.589,1.358-1.649.279-.057.564-.1.837-.175,1.23-.354,2.456-.719,3.684-1.08-.6,1.1-1.177,2.2-1.793,3.287-.687,1.211-1.405,2.4-2.11,3.6l-3.984.551c-.352-.972-.752-1.231-1.719-1.174a34.8,34.8,0,0,1-20.994-5.3,34.834,34.834,0,0,1-16.3-23.1c-2.4-11.5.315-21.827,7.815-30.866,1.018-1.227,2.247-2.279,3.378-3.412" transform="translate(-8.641 -39.661)" fill="#867d86"/><path d="M101.776,84.438a5.723,5.723,0,0,0-4.143,3.02c-1.916,3.383-3.881,6.738-5.83,10.1-.213.367-.453.719-.68,1.078a3.343,3.343,0,0,0-.7.23,30.116,30.116,0,0,1-7.006,3.155,21.266,21.266,0,0,1-7.48,1.019,1.494,1.494,0,0,0,.936-1.58c-.028-.774.011-1.551-.013-2.326-.029-.907-.5-1.4-1.285-1.4s-1.26.5-1.295,1.406c-.029.774.008,1.551-.011,2.326a1.522,1.522,0,0,0,.952,1.577c-1.388-.093-2.787-.107-4.162-.295a24.135,24.135,0,0,1-8.16-2.727c-.139-.074-.728-.064-.23-.488a2.967,2.967,0,0,0,1.7-2.4,1.359,1.359,0,0,0-.559-1.119,1.581,1.581,0,0,0-1.271-.069,3.118,3.118,0,0,0-1.188,3.031,6.111,6.111,0,0,1-1.077-.455,28.411,28.411,0,0,1-6.979-6.646,16.115,16.115,0,0,1-1.169-2.148,3.21,3.21,0,0,0,3.051-1.174,1.278,1.278,0,0,0-1.071-1.88,3.045,3.045,0,0,0-2.572,2.107,7.742,7.742,0,0,1-.781-1.088,28.637,28.637,0,0,1-2.712-9.568,9.9,9.9,0,0,1,.157-1.912,4.555,4.555,0,0,0,1.273.571,17.006,17.006,0,0,0,2.489.021c.9-.031,1.407-.517,1.409-1.283a1.268,1.268,0,0,0-1.4-1.3c-.773-.027-1.547.01-2.32-.011a1.519,1.519,0,0,0-1.555.846,9.024,9.024,0,0,1-.077-1.028,26.9,26.9,0,0,1,3.093-11.4c.081-.157.284-.252.43-.376A2.969,2.969,0,0,0,54.1,64.357a1.269,1.269,0,0,0,1.036-1.935,3.33,3.33,0,0,0-2.993-1.153,3.307,3.307,0,0,1,.238-.708,25.832,25.832,0,0,1,6.342-6.907,24.5,24.5,0,0,1,2.6-1.566,3.29,3.29,0,0,0,1.151,2.992,1.27,1.27,0,0,0,1.937-1.033,2.981,2.981,0,0,0-2.094-2.561c.226-.2.42-.483.684-.581,2.114-.781,4.216-1.616,6.373-2.257a14.105,14.105,0,0,1,5.757-.62c-.284.4-.755.778-.813,1.21a15.272,15.272,0,0,0-.026,2.834A1.279,1.279,0,0,0,76.85,52a15.05,15.05,0,0,0-.013-2.407,6.046,6.046,0,0,0-.565-1.449,27.606,27.606,0,0,1,3.522.066,27.076,27.076,0,0,1,7.435,2.235,12.882,12.882,0,0,1,1.626,1.048,3,3,0,0,0-2.122,2.547,1.273,1.273,0,0,0,1.943,1.041,3.211,3.211,0,0,0,1.121-3,3.472,3.472,0,0,1,.787.27,27.042,27.042,0,0,1,8.177,8.173,3.542,3.542,0,0,1,.278.784A3.106,3.106,0,0,0,96,62.483a1.578,1.578,0,0,0,.068,1.27,1.362,1.362,0,0,0,1.121.559,2.942,2.942,0,0,0,2.4-1.7c.3-.423.377-.049.457.148a55.85,55.85,0,0,1,2.141,5.415,18.755,18.755,0,0,1,.91,7,1.624,1.624,0,0,0-1.744-.955c-7.006.014-14.011,0-21.017.021a1.188,1.188,0,0,1-1.269-.7,3.816,3.816,0,0,0-4.535-1.906,1.2,1.2,0,0,1-1.447-.421Q66.063,64.167,59.02,57.141a5.73,5.73,0,0,0-.625-.59,1.191,1.191,0,0,0-1.7.132,1.177,1.177,0,0,0-.1,1.642,5.622,5.622,0,0,0,.588.627q7.1,7.1,14.2,14.182a1.035,1.035,0,0,1,.332,1.242,4.017,4.017,0,0,0,7.346,3.14,1.2,1.2,0,0,1,1.265-.713c6.977.022,13.954.009,20.931.021.8,0,1.494-.1,1.837-.944a31.048,31.048,0,0,1-.2,3.569c-.278,1.678-.735,3.327-1.116,4.988" transform="translate(-36.983 -36.929)" fill="#fdfdfd"/><path d="M237.154,221.2a9.608,9.608,0,0,1,.77,1.008q8.472,14.644,16.915,29.3a8.522,8.522,0,0,1,.54,1.582c-10.77,0-21.541-.034-32.31.034a2.7,2.7,0,0,1-2.343-3.909c.844-1.4,1.646-2.818,2.46-4.232q6.3-10.944,12.6-21.885a22.655,22.655,0,0,1,1.368-1.9m-.59,15.607c0-2.554,0-5.109,0-7.663a3.892,3.892,0,0,0-.093-1.022,1.267,1.267,0,0,0-2.445.084,3.52,3.52,0,0,0-.06.77q0,7.792,0,15.584c0,.285-.064.662.087.837.326.378.764.89,1.17.9s.9-.455,1.221-.829c.182-.213.119-.659.119-1,.008-2.554,0-5.108,0-7.663m-1.3,15.081a1.289,1.289,0,1,0-1.287-1.237,1.279,1.279,0,0,0,1.287,1.237" transform="translate(-169.763 -170.373)" fill="#fd7d91"/><path d="M41.835,52.542c-.146.124-.349.218-.43.376a26.9,26.9,0,0,0-3.093,11.4,9.124,9.124,0,0,0,.077,1.028l.1,1.152a9.925,9.925,0,0,0-.157,1.912,28.634,28.634,0,0,0,2.713,9.568,7.72,7.72,0,0,0,.781,1.088l.592.947a16.1,16.1,0,0,0,1.168,2.148A28.414,28.414,0,0,0,50.566,88.8a6.123,6.123,0,0,0,1.078.455l1.316.553c-.5.424.091.414.23.488a24.136,24.136,0,0,0,8.16,2.727c1.375.188,2.774.2,4.162.294l.716,0a21.261,21.261,0,0,0,7.48-1.019,30.135,30.135,0,0,0,7.006-3.155,3.332,3.332,0,0,1,.7-.23L77.6,95.452c-1.228.361-2.454.727-3.684,1.08-.273.079-.557.118-.836.175-.556-.956-.875-1.091-2.148-.865a29.279,29.279,0,0,1-10.783-.105A30.471,30.471,0,1,1,95.989,70.4a1.768,1.768,0,0,0,.905,2.149L96.03,75.7a6.1,6.1,0,0,0-3.959-.984c.381-1.661.838-3.31,1.116-4.988a31.1,31.1,0,0,0,.2-3.569q0-.353.008-.706a18.761,18.761,0,0,0-.91-7,55.97,55.97,0,0,0-2.141-5.414c-.08-.2-.154-.571-.458-.148l-.553-1.308a3.516,3.516,0,0,0-.278-.784,27.042,27.042,0,0,0-8.177-8.173,3.468,3.468,0,0,0-.787-.27l-.941-.585a12.879,12.879,0,0,0-1.626-1.048,27.076,27.076,0,0,0-7.435-2.235,27.605,27.605,0,0,0-3.522-.066l-1.14-.113a14.1,14.1,0,0,0-5.757.62c-2.158.642-4.259,1.476-6.374,2.257-.263.1-.458.383-.684.581l-.995.6a24.449,24.449,0,0,0-2.6,1.566,25.833,25.833,0,0,0-6.342,6.907,3.306,3.306,0,0,0-.237.708l-.6.995" transform="translate(-27.277 -27.207)" fill="#e9e7e9"/><path d="M219.678,218.624a22.654,22.654,0,0,0-1.368,1.9q-6.317,10.932-12.6,21.885c-.814,1.414-1.616,2.836-2.46,4.232a2.7,2.7,0,0,0,2.343,3.909c10.77-.067,21.54-.033,32.31-.034a2.771,2.771,0,0,1-3.069,2.926q-15.939.007-31.878,0c-.747,0-1.494.006-2.24,0a2.8,2.8,0,0,1-2.521-4.388q4.82-8.393,9.677-16.766,3.7-6.408,7.4-12.815a2.746,2.746,0,0,1,4.407-.853" transform="translate(-152.287 -167.795)" fill="#fd5f79"/><path d="M88.2,64a1.767,1.767,0,0,1-.905-2.149A30.467,30.467,0,1,0,51.456,87.186a29.274,29.274,0,0,0,10.783.105c1.272-.226,1.591-.092,2.148.864-.035,1.06-.377,1.5-1.358,1.649C51.44,91.593,41.438,88.4,33.253,80A31.608,31.608,0,0,1,24.247,59.94a32.416,32.416,0,0,1,6.1-21.973,2.162,2.162,0,0,0,.151-.3A35.859,35.859,0,0,1,38.324,30.1,32.337,32.337,0,0,1,54.48,24.319,33.015,33.015,0,0,1,89.528,50.41a31.478,31.478,0,0,1,.307,11.975c-.2,1.222-.412,1.407-1.632,1.612" transform="translate(-18.585 -18.655)" fill="#030303"/><path d="M130.884,103.021q0,.353-.008.706c-.344.839-1.039.945-1.837.944-6.977-.012-13.954,0-20.931-.021a1.2,1.2,0,0,0-1.265.713,4.017,4.017,0,0,1-7.346-3.14,1.035,1.035,0,0,0-.332-1.242Q92.052,93.9,84.965,86.8a5.646,5.646,0,0,1-.588-.627,1.177,1.177,0,0,1,.1-1.642,1.191,1.191,0,0,1,1.7-.132,5.728,5.728,0,0,1,.625.59q7.037,7.033,14.066,14.073a1.2,1.2,0,0,0,1.447.421,3.816,3.816,0,0,1,4.535,1.906,1.188,1.188,0,0,0,1.269.7c7.006-.02,14.011-.007,21.017-.021a1.625,1.625,0,0,1,1.744.955M103.355,104.8a1.433,1.433,0,0,0,.012-2.866,1.433,1.433,0,1,0-.012,2.866" transform="translate(-64.768 -64.775)" fill="#050505"/><path d="M48.458,164.282l-.1-1.152a1.518,1.518,0,0,1,1.555-.846c.773.021,1.548-.016,2.32.011a1.268,1.268,0,0,1,1.4,1.3c0,.766-.509,1.252-1.409,1.283a17,17,0,0,1-2.489-.021,4.55,4.55,0,0,1-1.273-.571" transform="translate(-37.244 -124.993)" fill="#080808"/><path d="M163.031,48.306l1.14.114a6.046,6.046,0,0,1,.565,1.449,15.075,15.075,0,0,1,.013,2.407,1.279,1.279,0,0,1-2.557.074,15.254,15.254,0,0,1,.026-2.834c.058-.432.529-.808.813-1.21" transform="translate(-124.881 -37.206)" fill="#070707"/><path d="M163.914,269.929l-.716,0a1.522,1.522,0,0,1-.952-1.577c.019-.775-.018-1.551.011-2.326.034-.9.52-1.4,1.295-1.406s1.256.493,1.285,1.4c.024.775-.015,1.551.013,2.326a1.494,1.494,0,0,1-.936,1.58" transform="translate(-124.964 -203.817)" fill="#080808"/><path d="M63.909,219.557l-.592-.947a3.045,3.045,0,0,1,2.572-2.107,1.278,1.278,0,0,1,1.071,1.88,3.21,3.21,0,0,1-3.051,1.174" transform="translate(-48.768 -166.753)" fill="#070707"/><path d="M218.626,63.373l.941.585a3.211,3.211,0,0,1-1.121,3A1.273,1.273,0,0,1,216.5,65.92a3,3,0,0,1,2.122-2.547" transform="translate(-166.754 -48.811)" fill="#070707"/><path d="M259.551,105.841l.553,1.308a2.942,2.942,0,0,1-2.4,1.7,1.362,1.362,0,0,1-1.121-.559,1.577,1.577,0,0,1-.068-1.271,3.106,3.106,0,0,1,3.034-1.179" transform="translate(-197.496 -81.466)" fill="#060606"/><path d="M107.132,260.1l-1.316-.553A3.119,3.119,0,0,1,107,256.517a1.583,1.583,0,0,1,1.271.069,1.36,1.36,0,0,1,.559,1.119,2.966,2.966,0,0,1-1.7,2.4" transform="translate(-81.45 -197.496)" fill="#060606"/><path d="M105.737,63.957l.995-.6a2.98,2.98,0,0,1,2.094,2.561,1.27,1.27,0,0,1-1.937,1.033,3.29,3.29,0,0,1-1.151-2.992" transform="translate(-81.397 -48.797)" fill="#060606"/><path d="M63.353,106.74l.6-.995a3.33,3.33,0,0,1,2.993,1.152,1.269,1.269,0,0,1-1.036,1.935,2.969,2.969,0,0,1-2.559-2.093" transform="translate(-48.795 -81.405)" fill="#060606"/><path d="M281.948,257.011c0,2.554,0,5.109,0,7.663,0,.341.063.787-.12,1-.32.374-.813.842-1.221.829s-.844-.525-1.17-.9c-.151-.175-.086-.551-.087-.837q-.006-7.792,0-15.584a3.522,3.522,0,0,1,.06-.77,1.267,1.267,0,0,1,2.445-.084,3.893,3.893,0,0,1,.093,1.022c.007,2.554,0,5.108,0,7.663" transform="translate(-215.146 -190.575)" fill="#080404"/><path d="M280.748,346.11a1.289,1.289,0,0,1-.017-2.578,1.289,1.289,0,0,1,.017,2.578" transform="translate(-215.244 -264.593)" fill="#080405"/><path d="M163.138,164.581a1.433,1.433,0,1,1,1.437-1.382,1.389,1.389,0,0,1-1.437,1.382" transform="translate(-124.551 -124.555)" fill="#857c85"/></g></g></svg>