<svg xmlns="http://www.w3.org/2000/svg" width="126.054" height="126.021" viewBox="0 0 126.054 126.021"><g transform="translate(-5.955 -6.662)"><g transform="translate(5.955 6.662)"><path d="M137.13,263.234q-10.794,0-21.588,0c-2.083,0-2.732-.647-2.733-2.722q0-14.41.011-28.821a2.313,2.313,0,0,0-.748-1.878,9.623,9.623,0,0,1-1.786-11.2c2.3-4.176,4.409-8.464,6.552-12.728a2.6,2.6,0,0,1,2.594-1.609q17.778.036,35.556,0a2.537,2.537,0,0,1,2.531,1.511c2.307,4.559,4.663,9.093,6.964,13.656,1.564,3.1.688,7.519-2.076,10.29a2.657,2.657,0,0,0-.825,2.1q.039,14.284.016,28.567c0,2.228-.615,2.83-2.881,2.831q-10.794,0-21.588,0m20.3-4.134V232.58a10.223,10.223,0,0,1-10.5-4.453,12.8,12.8,0,0,1-9.8,4.614,12.6,12.6,0,0,1-9.409-4.32c-1.676,1.23-3.117,2.714-4.871,3.454-1.78.751-3.871.769-5.887,1.118V259.1Zm-28.2-40.645h15.939c-1.073-3.25-2.1-6.408-3.18-9.549a1.072,1.072,0,0,0-.821-.527q-3.992-.06-7.985,0a1.061,1.061,0,0,0-.785.573c-1.067,3.1-2.085,6.225-3.168,9.5m-14.3.061c3.315,0,6.351.023,9.386-.037.3-.006.73-.472.848-.811.94-2.71,1.824-5.439,2.713-8.166a11.477,11.477,0,0,0,.241-1.145c-2.574,0-4.979-.015-7.384.021a1.071,1.071,0,0,0-.793.456c-1.649,3.13-3.259,6.279-5.012,9.683m34.539-.067h9.736c.012-.149.051-.246.02-.307-1.568-3.086-3.132-6.174-4.731-9.244a1.07,1.07,0,0,0-.754-.515c-2.485-.039-4.971-.023-7.608-.023l3.339,10.089m-20.087,4.193c.42,3.129,3.9,5.928,7.477,6.035,3.906.116,7.539-2.54,8.18-6.035Zm20.093.015a6.017,6.017,0,0,0,6.467,6c3.1-.32,5.522-3.2,5-6Zm-24.535.012h-11.56a5.654,5.654,0,0,0,5.306,6,6.033,6.033,0,0,0,6.255-6" transform="translate(-74.179 -137.213)"/><path d="M160.06,6.664q5.838,0,11.676,0c2.91.005,4.53,1.639,4.533,4.572q.008,7.613,0,15.226c0,2.95-1.609,4.587-4.516,4.589q-11.739.009-23.479,0c-2.9,0-4.527-1.646-4.53-4.576q-.008-7.613,0-15.226c0-3.012,1.595-4.583,4.64-4.586q5.838-.006,11.676,0M172.1,10.8H147.887V26.946H172.1Z" transform="translate(-96.982 -6.662)"/><path d="M22.279,84.526q5.838,0,11.676,0c2.91.005,4.527,1.639,4.53,4.575q.008,7.613,0,15.226c0,2.948-1.611,4.584-4.519,4.586q-11.739.009-23.478,0c-2.861,0-4.521-1.633-4.526-4.452q-.013-7.74,0-15.48c0-2.835,1.646-4.45,4.515-4.455q5.9-.011,11.8,0m12.087,4.152H10.123v16.109H34.366Z" transform="translate(-5.955 -58.101)"/><path d="M297.648,108.912c-3.892,0-7.784.007-11.676,0a4.09,4.09,0,0,1-4.45-4.4q-.016-7.8,0-15.607a4.051,4.051,0,0,1,4.335-4.378q11.929-.017,23.859,0a4.056,4.056,0,0,1,4.324,4.266q.027,7.93,0,15.861a4.046,4.046,0,0,1-4.336,4.256c-4.019.015-8.037,0-12.056,0m-12.009-4.152h24.243V88.651H285.639Z" transform="translate(-188.001 -58.096)"/><path d="M132.281,132.754H128.3V118.623H114.081v-4.071c.251-.022.57-.074.89-.074q7.359-.008,14.718,0c1.9,0,2.587.695,2.59,2.605q.009,7.358,0,14.716v.957" transform="translate(-77.387 -77.886)"/><path d="M219.7,118.492v14.2H215.69c-.019-.316-.056-.64-.056-.964q-.006-7.358,0-14.716c0-1.824.709-2.531,2.531-2.534,5.2-.007,10.4,0,15.679,0v4.019Z" transform="translate(-144.474 -77.886)"/><rect width="3.941" height="26.243" transform="translate(61.077 28.548)"/><rect width="3.924" height="3.955" transform="translate(50.898 58.985)"/><rect width="3.953" height="3.952" transform="translate(61.048 59.002)"/><rect width="3.875" height="3.919" transform="translate(71.252 59.042)"/><path d="M172.5,305.534H132.026V279.427c2.016-.349,4.107-.367,5.887-1.118,1.754-.74,3.195-2.224,4.871-3.454a12.6,12.6,0,0,0,9.409,4.32,12.8,12.8,0,0,0,9.8-4.614,10.222,10.222,0,0,0,10.5,4.453Zm-20.263-22.289c-3.6,0-7.2-.009-10.794,0-1.664.006-2.381.732-2.385,2.413q-.015,6.729,0,13.458c0,1.679.721,2.412,2.385,2.414q10.794.014,21.587,0c1.744,0,2.446-.716,2.45-2.478q.012-6.666,0-13.331c0-1.764-.7-2.473-2.45-2.477-3.6-.01-7.2,0-10.794,0" transform="translate(-89.243 -183.647)" fill="#738ba5"/><path d="M168.184,226.385c1.083-3.276,2.1-6.4,3.168-9.5a1.062,1.062,0,0,1,.785-.573q3.992-.064,7.985,0a1.07,1.07,0,0,1,.821.527c1.081,3.141,2.108,6.3,3.18,9.549Z" transform="translate(-113.13 -145.144)" fill="#f0f0f0"/><path d="M126.048,226.456c1.753-3.4,3.363-6.553,5.012-9.683a1.071,1.071,0,0,1,.793-.456c2.4-.035,4.81-.021,7.384-.021a11.429,11.429,0,0,1-.242,1.145c-.889,2.727-1.772,5.457-2.713,8.167-.118.34-.552.806-.848.811-3.035.06-6.071.037-9.386.037" transform="translate(-85.293 -145.153)" fill="#ffba5b"/><path d="M221.327,226.394l-3.339-10.09c2.638,0,5.124-.016,7.608.023a1.069,1.069,0,0,1,.754.515c1.6,3.07,3.164,6.158,4.731,9.244.031.061-.008.158-.02.307Z" transform="translate(-146.033 -145.158)" fill="#ffba5b"/><path d="M168.635,258.4h15.657c-.641,3.494-4.273,6.151-8.18,6.035-3.58-.107-7.057-2.906-7.477-6.035" transform="translate(-113.428 -172.969)" fill="#efefef"/><path d="M227.846,258.443H239.31c.526,2.8-1.894,5.684-5,6a6.017,6.017,0,0,1-6.467-6" transform="translate(-152.545 -172.999)" fill="#ffba5b"/><path d="M133.008,258.477a6.033,6.033,0,0,1-6.255,6,5.654,5.654,0,0,1-5.306-6Z" transform="translate(-82.242 -173.021)" fill="#ffba5b"/><rect width="24.218" height="16.151" transform="translate(50.905 4.133)" fill="#c5dbf7"/><rect width="24.243" height="16.109" transform="translate(4.168 30.577)" fill="#c5dbf7"/><rect width="24.243" height="16.109" transform="translate(97.638 30.555)" fill="#c5dbf7"/><path d="M165.908,300.143c3.6,0,7.2-.007,10.794,0,1.746,0,2.447.713,2.45,2.477q.012,6.665,0,13.331c0,1.762-.706,2.476-2.45,2.478q-10.794.011-21.587,0c-1.663,0-2.381-.734-2.384-2.414q-.015-6.729,0-13.458c0-1.68.72-2.407,2.385-2.412,3.6-.013,7.2,0,10.793,0m-9.062,14.141h18.144V304.272H156.846Z" transform="translate(-102.916 -200.546)"/><rect width="18.144" height="10.012" transform="translate(53.931 103.726)" fill="#c5dbf7"/></g></g></svg>