<svg xmlns="http://www.w3.org/2000/svg" width="156" height="156" viewBox="0 0 156 156"><g transform="translate(6276 -2497)"><g transform="translate(-6788 -3632)"><circle cx="78" cy="78" r="78" transform="translate(512 6129)" fill="#f1a99c"/></g><g transform="translate(-6247.964 2523.723)"><g transform="translate(6.964 8.277)"><path d="M31.284,108.572a1.051,1.051,0,0,1-.925-1.1q-.329-6.686-.712-13.368a1.437,1.437,0,0,1,.866-1.546c1.719-.912,3.405-1.885,5.1-2.84.241-.136.461-.31.914-.619-.5-.042-.742-.079-.982-.079-2.247,0-4.494,0-6.741,0-1.058,0-1.3-.25-1.308-1.306-.007-.916.005-1.833,0-2.749-.007-.726.312-1.091,1.066-1.086,1.922.013,3.843.009,5.765,0,.753,0,1.066.373,1.052,1.1s0,1.462,0,2.18c1.435.175,1.431.174,1.764-1.046.744-2.727,1.493-5.452,2.253-8.226-.213-.13-.4-.258-.6-.366a15.365,15.365,0,0,1-8.575-13.792c-.109-3.6-.027-7.212-.022-10.818,0-.953.234-1.175,1.23-1.181,1.656-.011,3.311.007,4.967-.005a4.631,4.631,0,0,0,4.493-2.865c.159-.339.593-.755.906-.76s.748.41.907.746a4.648,4.648,0,0,0,4.488,2.878c1.685.012,3.371.015,5.055,0,.765-.008,1.181.316,1.175,1.1-.034,4.107,0,8.217-.151,12.32a27.538,27.538,0,0,1-.9,4.456,4.606,4.606,0,0,0,.543.052q12.506,0,25.012.006c.463,0,.883.041.935-.624.016-.208.311-.395.479-.591.865-.1,1.245.351,1.263,1.173H82.75l2.567.049c3.5.069,2.763-.556,3.84,2.857.357,1.133.712,2.266,1.075,3.419a5.668,5.668,0,0,0,3.188-4.342c.109-.638.127-1.345,1.024-1.413.726.163.9.623.8,1.322a7.52,7.52,0,0,1-3.908,5.88c-.176.1-.343.216-.568.359.933,3.046,1.83,6.089,2.839,9.094.1.3.879.38,1.527.634,0-.993.017-1.72,0-2.446-.023-.769.293-1.153,1.094-1.146q2.836.023,5.673,0c.791-.008,1.131.35,1.114,1.128-.019.915,0,1.832-.006,2.747-.008,1-.263,1.263-1.255,1.267-2.157.009-4.314,0-6.471,0h-.858l-.055.15c1.717,1.107,3.413,2.249,5.16,3.305a1.79,1.79,0,0,1,.935,1.89c-.265,4.274-.48,8.552-.69,12.829-.036.725-.2,1.286-1.027,1.393-.7-.223-.807-.74-.771-1.4.224-4.132.411-8.266.651-12.4a1.065,1.065,0,0,0-.573-1.137c-1.309-.8-2.56-1.7-3.891-2.463a4.187,4.187,0,0,0-1.955-.589c-9.343-.037-18.687-.026-28.031-.026q-8.205,0-16.41.005c-.714,0-1.312-.1-1.421-.961.209-.917.93-.83,1.614-.83q20.511,0,41.022,0c.353,0,.707-.024,1.06-.037h2.181c-.086-.354-.14-.635-.223-.906-1.575-5.164-3.168-10.322-4.713-15.495A1.1,1.1,0,0,0,86,71.408q-16.54.039-33.081.018a1.958,1.958,0,0,0-.616.015,5.6,5.6,0,0,0-.8.421l.092.282c.363.031.727.089,1.09.09q16.141.007,32.283,0c1.261,0,1.381.09,1.719,1.3,1.181,4.234,2.346,8.472,3.545,12.7.177.624.149,1.1-.438,1.449-.729.12-1.075-.237-1.258-.915-.615-2.275-1.262-4.542-1.9-6.812L84.99,74.046c-.245-.011-.391-.023-.538-.023q-16.354,0-32.708.007a6.916,6.916,0,0,0-.785.087c-.62.065-1.477-.108-1.822.234a20.769,20.769,0,0,1-6.154,4.064l-.172.164.006,0-1.838.248L40.305,81.4l-2.087,7.432,1.944-.088c1.171.015,2.341.043,3.512.04.6,0,1.031.18,1.148.826-.059.762-.552.966-1.221.965-1.712,0-3.424-.024-5.135.014a3.075,3.075,0,0,0-1.333.334c-1.664.887-3.284,1.856-4.952,2.734a1.176,1.176,0,0,0-.725,1.3c.251,4.034.449,8.071.685,12.105.042.717-.045,1.3-.855,1.51M49.959,53.549c-.707-.016-1.416-.066-2.121-.041a6.776,6.776,0,0,1-6.053-2.681c-1.733,2.386-4.19,2.812-6.87,2.682-.959-.047-1.922-.008-2.931-.008,0,3.571-.017,7.02.013,10.47a11.378,11.378,0,0,0,.278,2.367,14.023,14.023,0,0,0,8.5,10.175c.7.312,1.26.509,1.852-.093a1.255,1.255,0,0,0,.428-.032c4.831-2.244,7.9-5.93,8.4-11.272.352-3.777.137-7.608.171-11.415,0-.048-.06-.1-.1-.153ZM101.2,85.7H96.986v1.48H101.2Zm-67.637-.006H29.342v1.493h4.217Z" transform="translate(-22.637 -38.674)" fill="#040506"/><path d="M58.581,223.611c.109.86.707.962,1.421.961q8.205-.014,16.41-.005c9.343,0,18.687-.012,28.031.026a4.185,4.185,0,0,1,1.955.589c1.331.761,2.583,1.66,3.892,2.463a1.065,1.065,0,0,1,.573,1.137c-.24,4.131-.426,8.264-.651,12.4-.036.658.071,1.175.771,1.4q-.021.793-.041,1.586L99.6,244.154q.01-2.842.021-5.685c.643-.059,1.294-.075,1.927-.186a5.2,5.2,0,0,0,4.1-3.688,8.238,8.238,0,0,0,1.389-4.409c-.005-2.286-.644-2.945-2.949-2.945H50.545c-.3,0-.592-.008-.886.008a2.089,2.089,0,0,0-2.111,2.152,8.22,8.22,0,0,0,1.46,5.357,7.424,7.424,0,0,0,.708,1.473,5.884,5.884,0,0,0,4.895,2.226q19.646.013,39.292.015.009,2.841.019,5.682c-.265.014-.529.041-.794.041q-24.341,0-48.682,0c-.265,0-.529-.028-.794-.043q-.066-.791-.131-1.582c.81-.207.9-.793.855-1.51-.236-4.035-.434-8.072-.685-12.105a1.175,1.175,0,0,1,.725-1.3c1.668-.878,3.288-1.847,4.952-2.734a3.077,3.077,0,0,1,1.333-.334c1.711-.038,3.424-.019,5.135-.014.67,0,1.162-.2,1.221-.965l1.523.008M48.76,240.767c-.794,0-1.589.007-2.383,0-.606-.007-.983.3-.993.879-.011.6.417.887.988.892,1.559.014,3.118.012,4.678,0,.606,0,1.041-.24,1.014-.935-.025-.641-.429-.844-1.009-.838-.765.007-1.53,0-2.295,0m6.167,2.014a5.683,5.683,0,0,0,1.271-.912c.117-.144-.175-.916-.323-.929a8.168,8.168,0,0,0-2.185.113,1.2,1.2,0,0,0-.136.983,4.931,4.931,0,0,0,1.372.745" transform="translate(-34.873 -172.67)" fill="#5cb4e5"/><path d="M71.688,310.475l11.345.009c.687.206.855.708.848,1.367-.02,1.862-.006,3.724-.007,5.587,0,1.4-.161,1.554-1.584,1.569-.145,0-.29,0-.328,0l-1.034,3.9c.485,0,1.142.011,1.8,0s1.138.238,1.116.944c-.021.66-.5.843-1.116.843q-17.074-.013-34.147,0c-.641,0-1.173-.147-1.171-.874,0-.777.577-.914,1.239-.913q8.692.012,17.384,0h.823l-1.062-3.852H32.7l-1.006,3.852h3.271c.5,0,1.007-.021,1.507.012.56.036.948.392.814.922-.083.328-.507.6-.828.823-.139.1-.4.02-.61.02H8.438c-.177,0-.355,0-.532,0a.823.823,0,0,1-.941-.837.855.855,0,0,1,.947-.934c.473-.012.946,0,1.419,0h8.257l-1-3.844c-1.709-.224-1.709-.224-1.709-2.2,0-1.685.027-3.37-.013-5.054a1.174,1.174,0,0,1,.875-1.338c.264.015.529.042.794.042q24.341,0,48.682,0c.265,0,.529-.026.794-.041l1.437,0,1.92,0h2.318m-50.755,6.73h7.106c0-1.526-.009-2.993.005-4.46,0-.42-.156-.529-.531-.388H20.329c0,1.508.012,2.951-.007,4.394-.006.484.231.539.61.455m50.754.006h6.858v-4.9l-.628.051H70.7v4.845Zm-41.837-.039H68.827v-4.824H29.85Zm38.021,1.87c-.214,2.143.965,3.773,2.827,3.838,2.123.074,4.252.074,6.375,0a2.953,2.953,0,0,0,2.68-3.836Zm-49.2,0a3.138,3.138,0,0,0,2.873,3.856c2.066,0,4.133.039,6.2-.011a3.035,3.035,0,0,0,2.806-3.844ZM16.7,317.178h1.814v-4.843H16.7Zm63.7,0h1.634v-4.824H80.394Z" transform="translate(-6.964 -238.992)" fill="#030404"/><path d="M272.8,98.117c-.9.068-.915.775-1.024,1.413a5.667,5.667,0,0,1-3.188,4.342c-.362-1.153-.717-2.287-1.075-3.42-1.077-3.413-.342-2.788-3.84-2.857l-2.567-.049.727-4.169c1.17.191,1.644-.308,1.208-1.435a3.188,3.188,0,0,1,.224-3.189,7.383,7.383,0,0,0,1.763-4.058,5.967,5.967,0,0,1,2.474,4.349c.073.614.333.989.98,1.023q.039,1.034.079,2.068a9.305,9.305,0,0,0-.9,1.7c-.094.311.134,1,.34,1.058a1.79,1.79,0,0,0,1.188-.329c.215-.129.253-.524.433-.749.438-.546.912-1.062,1.359-1.575.172,1.342.29,2.523.486,3.69a.974.974,0,0,0,1.151.849l.177,1.339" transform="translate(-200.99 -66.619)" fill="#e44f21"/><path d="M140.235,9.174c.176-.787.733-.9,1.419-.824a6.178,6.178,0,0,1,5.1,3.729l.45,4.4a6.358,6.358,0,0,0,6.276,6.929,11.693,11.693,0,0,1,2.1.251A8.409,8.409,0,0,1,161,27.824l-.021,0a.333.333,0,0,0,.041.157l.1.193c.246,1.022.527,2.037.723,3.068.115.6-.052,1.153-.8,1.2s-.916-.42-.966-1.068a6.37,6.37,0,0,0-4.943-6.016,6.1,6.1,0,0,0-1.04-.149,8.768,8.768,0,0,1-5.947-2.019,8.191,8.191,0,0,1-2.686-5.05,33.155,33.155,0,0,1-.084-3.452,4.241,4.241,0,0,0-3.893-4.553c-.652-.017-1.2-.169-1.254-.964" transform="translate(-108.712 -8.316)" fill="#060606"/><path d="M250.039,81.219c-.648-.034-.907-.409-.98-1.023a5.968,5.968,0,0,0-2.474-4.348,7.384,7.384,0,0,1-1.763,4.058,3.187,3.187,0,0,0-.224,3.189c.436,1.126-.038,1.626-1.208,1.435a11.611,11.611,0,0,1-.521-1.087,4.164,4.164,0,0,0-2.263-2.529l-.215-.013.111.116a7.033,7.033,0,0,1,.054,4.6,1.1,1.1,0,0,1-1.167.868c-.676-.36-.715-.854-.492-1.559a4.135,4.135,0,0,0-1.348-4.78c-.411-.341-.835-.776-.442-1.252a1.7,1.7,0,0,1,1.276-.482,7.924,7.924,0,0,1,4.252,1.667c.5-.774.963-1.516,1.453-2.238a3.686,3.686,0,0,0,.475-3.369c-.12-.384-.078-1.108.147-1.242a1.578,1.578,0,0,1,1.341.056,8.687,8.687,0,0,1,4.712,6.079c.129.7.434,1.6-.724,1.853" transform="translate(-182.549 -57.772)" fill="#050403"/><path d="M135.022,23.153a8.768,8.768,0,0,0,5.947,2.019,6.1,6.1,0,0,1,1.04.149c.34.472.67.952,1.022,1.414a7.819,7.819,0,0,1,1.56,4.617,1.345,1.345,0,0,1-.746,1c-.576.208-.9-.242-1-.815a11.787,11.787,0,0,0-.513-2.4,6.269,6.269,0,0,0-6.042-4,8.1,8.1,0,0,1-8-6.69,19.235,19.235,0,0,1-.12-3.445c-.015-3.018-1.3-4.523-4.278-4.946-.565-.08-.88-.34-.843-.916a.818.818,0,0,1,1.021-.838c1.028.211,2.031.55,3.044.835.054.795.6.947,1.254.964a7.911,7.911,0,0,1,1.579,4.761c-.033.912-.025,1.827.015,2.738a6.161,6.161,0,0,0,5.069,5.555" transform="translate(-95.581 -8.277)" fill="#a2a2a2"/><path d="M186.437,30.794a8.036,8.036,0,0,1-2.78-5.909c-.019-.61.135-1.075.836-1.1s.889.429.947,1.03c.372,3.879,2.757,6.108,6.675,6.253a8.141,8.141,0,0,1,8,7.787c.038.632-.078,1.176-.8,1.24s-.912-.442-.983-1.08c-.363-3.281-2.258-5.513-5.06-6.006-.484-.056-.967-.143-1.453-.161a8.384,8.384,0,0,1-5.38-2.054" transform="translate(-141.862 -20.117)" fill="#060606"/><path d="M174.312,30.963a8.384,8.384,0,0,0,5.38,2.054c.486.018.969.105,1.453.161a9.093,9.093,0,0,1,2.536,4.524,10.057,10.057,0,0,1,.148,1.392c.024,1.026-.34,1.293-1.342,1.04a1.25,1.25,0,0,0-.335.008l-.1-.193.1-.076-.145-.082.021,0a6.218,6.218,0,0,0-5.883-6.755,8.6,8.6,0,0,1-7.921-4.594q-.225-2.2-.45-4.4c1.129-.152,1.362.069,1.461,1.265a6.176,6.176,0,0,0,4.043,5.45,4.78,4.78,0,0,0,1.034.2" transform="translate(-129.737 -20.286)" fill="#a2a2a2"/><path d="M293.723,111.053a.975.975,0,0,1-1.151-.849c-.2-1.168-.314-2.348-.486-3.69-.447.514-.922,1.029-1.36,1.575-.18.225-.218.62-.433.749a1.791,1.791,0,0,1-1.188.329c-.206-.054-.434-.747-.34-1.058a9.294,9.294,0,0,1,.9-1.7,9.138,9.138,0,0,1,4.831-2.918c.539-.129,1.064-.232,1.4.366.35.625-.069.979-.486,1.339a3.748,3.748,0,0,0-1.156,4.389,1.039,1.039,0,0,1-.524,1.467" transform="translate(-222.092 -80.894)" fill="#060504"/><path d="M246.8,111.683a1.1,1.1,0,0,0,1.167-.868,7.034,7.034,0,0,0-.054-4.6q.054-.05.1-.1a4.167,4.167,0,0,1,2.263,2.53,11.5,11.5,0,0,0,.521,1.087l-.727,4.169h-2.154c-.019-.823-.4-1.278-1.263-1.173q.071-.52.143-1.04" transform="translate(-189.959 -82.969)" fill="#f0b908"/><path d="M346.914,364.769a7.89,7.89,0,0,1-1.754-.037,1.323,1.323,0,0,1-.82-.8c-.145-.533.249-.908.795-.923a33.028,33.028,0,0,1,3.609.03c.295.024.719.515.782.848.1.509-.27.871-.849.877s-1.175,0-1.763,0" transform="translate(-264.515 -279.079)" fill="#060606"/><path d="M148.43,364.747a6.269,6.269,0,0,1-1.582-.034,1.362,1.362,0,0,1-.846-.783.745.745,0,0,1,.784-.94,22.035,22.035,0,0,1,3.177.035c.313.035.736.566.79.919.034.221-.487.67-.83.771a5.484,5.484,0,0,1-1.493.034" transform="translate(-113.091 -279.056)" fill="#060606"/><path d="M220.009,123.359c-.359-.511-.779-.856-.726-1.1.068-.313.514-.543.8-.809.246.274.671.538.685.824s-.386.585-.757,1.083" transform="translate(-169.059 -94.683)" fill="#e44f21"/><path d="M326.828,125.8c-.511.357-.828.75-1.1.721-.293-.031-.544-.457-.813-.711.278-.274.524-.706.844-.771.235-.048.568.384,1.068.761" transform="translate(-249.709 -97.415)" fill="#e44f21"/><path d="M258.212,59.8c-.347-.516-.732-.839-.7-1.105.039-.294.463-.537.72-.8.272.283.7.535.762.86.046.228-.4.556-.786,1.048" transform="translate(-198.249 -46.16)" fill="#e44f21"/><path d="M87.239,173.311l-1.523-.008c-.117-.645-.548-.827-1.148-.826-1.17,0-2.341-.025-3.511-.04q.109-.492.217-.985c.718,0,1.012-.443,1.181-1.077.47-1.755.969-3.5,1.456-5.252a45.858,45.858,0,0,0,4.476-2.745,10.6,10.6,0,0,0,3.467-4.566,6.926,6.926,0,0,1,.785-.088q16.354-.008,32.708-.007c.146,0,.292.012.537.023l1.655,5.916c.635,2.27,1.282,4.537,1.9,6.812.183.678.529,1.035,1.258.916l.242,1.059c-.353.013-.707.037-1.06.037q-20.511,0-41.022,0c-.685,0-1.406-.087-1.614.83m37.748-3.221c.972-.01,1.3-.59.929-1.309-.683-1.307-1.384-2.608-2.145-3.87a1.243,1.243,0,0,0-.929-.494c-2.415.054-4.828.176-7.243.259a.9.9,0,0,1-.622-.2c-.628-.662-1.208-1.369-1.819-2.048-.907-1.009-1.791-2.042-2.762-2.985a1.225,1.225,0,0,0-1.132-.13c-.487.255-.445.786-.142,1.234a5.222,5.222,0,0,0,.465.532c1.124,1.249,2.261,2.487,3.361,3.757.177.2.344.719.249.81a18.346,18.346,0,0,1-2.685,2.283c-.322.206-1.026-.184-1.556-.3-.115-.024-.264-.085-.344-.039-.322.187-.847.381-.878.625a1.235,1.235,0,0,0,.507,1.022,6.949,6.949,0,0,0,2.01.642,1.555,1.555,0,0,0,1.1-.255c.933-.718,1.762-1.573,2.71-2.267a4.444,4.444,0,0,1,2-.958c1.9-.185,3.827-.2,5.743-.207a1.323,1.323,0,0,1,.937.547c.579.887,1.039,1.852,1.6,2.754a2.611,2.611,0,0,0,.647.587" transform="translate(-63.531 -122.37)" fill="#cdcdcd"/><path d="M57.109,85.246c-.591.6-1.153.4-1.851.093a14.022,14.022,0,0,1-8.5-10.175,11.378,11.378,0,0,1-.278-2.367c-.03-3.449-.013-6.9-.013-10.47,1.009,0,1.972-.039,2.931.008,2.679.13,5.137-.3,6.87-2.682a6.776,6.776,0,0,0,6.053,2.681c.706-.025,1.414.025,2.121.041q0,2.142-.006,4.283l-2.294,1.969-.242-.365a1.063,1.063,0,0,0-.3-1.54,7.37,7.37,0,0,0-6.45-1.889,23.4,23.4,0,0,0-3.739,1.425l-.283.262-.012-.058.016.057a3.523,3.523,0,0,0-.8.275,7.118,7.118,0,0,0-1.454,10.281A12.865,12.865,0,0,0,51.093,78.7l-.008-.005.241.181c.327.2.648.406.984.589a7.945,7.945,0,0,0,11.92-7.25c-.015-.842-.359-1.271-1.212-1.258l.049-.591,1.32-1.333c.015,1.149.051,2.3.042,3.447A13.988,13.988,0,0,1,60.7,82.145a39.525,39.525,0,0,1-3.592,3.1" transform="translate(-37.118 -47.501)" fill="#f98a5b"/><path d="M167.562,164l-.242-1.059c.588-.35.615-.825.438-1.449-1.2-4.228-2.365-8.466-3.545-12.7-.338-1.213-.458-1.3-1.719-1.3q-16.141,0-32.283,0c-.363,0-.726-.059-1.09-.09l-.092-.282a5.639,5.639,0,0,1,.8-.42,1.96,1.96,0,0,1,.617-.015q16.54,0,33.081-.018a1.1,1.1,0,0,1,1.282.939c1.545,5.173,3.138,10.331,4.713,15.495.083.272.137.552.223.906Z" transform="translate(-100.157 -113.929)" fill="#1076b8"/><path d="M98.8,75.443q0-2.142.006-4.283h1.574c.037.056.1.1.1.153-.034,3.807.181,7.638-.171,11.415-.5,5.342-3.571,9.028-8.4,11.272a1.263,1.263,0,0,1-.429.032,39.558,39.558,0,0,0,3.592-3.1A13.988,13.988,0,0,0,98.8,81.264c.009-1.149-.027-2.3-.042-3.447.151-.179.3-.363.456-.536.789-.859.685-1.332-.409-1.837" transform="translate(-71.488 -56.286)" fill="#f6f3f1"/><path d="M99.531,158.116a10.6,10.6,0,0,1-3.467,4.566,45.817,45.817,0,0,1-4.476,2.745,1.125,1.125,0,0,0-.475-1.378l.276-1.475-.005,0,.172-.164a20.769,20.769,0,0,0,6.154-4.064c.345-.342,1.2-.17,1.821-.234" transform="translate(-71.209 -122.674)" fill="#7f7f7f"/><path d="M75,195.256l-.217.985-1.945.088,2.087-7.432.728.018a7.823,7.823,0,0,1-.132.861c-.347,1.307-.71,2.609-1.067,3.913-.177.646-.177,1.232.545,1.567" transform="translate(-57.255 -146.174)" fill="#1076b8"/><rect width="4.209" height="1.48" transform="translate(74.35 47.027)" fill="#f48859"/><rect width="4.217" height="1.493" transform="translate(6.705 47.021)" fill="#f48859"/><path d="M82.388,179.8l-.728-.017.674-2.575,1.838-.248q-.138.737-.276,1.474c-1.132-.239-1.11.8-1.508,1.366" transform="translate(-63.992 -137.063)" fill="#024a7a"/><path d="M92.43,176.289l-.172.164.172-.164" transform="translate(-72.083 -136.548)" fill="#024a7a"/><path d="M61.931,246.49a8.221,8.221,0,0,1-1.46-5.357,2.089,2.089,0,0,1,2.111-2.152c.295-.016.591-.008.886-.008h53.54c2.306,0,2.944.659,2.949,2.945a8.235,8.235,0,0,1-1.389,4.409,7.513,7.513,0,0,1-6.064,2.518h-2.284l-1.967,0-1.4.007c-.384-.013-.767-.037-1.151-.037q-18.941,0-37.882-.007a14.2,14.2,0,0,1-2.028-.135,7.811,7.811,0,0,1-3.865-2.177m15.7-5.713a3.583,3.583,0,0,1,1.933,3.13,3.66,3.66,0,0,1-1.813,3.058h24.974a3.508,3.508,0,0,1-1.914-3.041,3.735,3.735,0,0,1,1.846-3.146Zm-10.045-.021c-1.4,0-2.543-.018-3.686,0-1.785.035-1.686-.4-1.619,1.733a4.7,4.7,0,0,0,5.174,4.451c-2.7-2.015-2.016-4.711.131-6.189m45.433,6.2c3.065.3,5.9-2.873,5.129-5.768a.836.836,0,0,0-.628-.426c-.733-.055-1.473-.022-2.21-.022H112.9c2.479,2.09,2.448,4.032.116,6.216m-7.31-6.151a3.494,3.494,0,0,1-.025,6.178h4.221a3.648,3.648,0,0,1-1.883-3.047,3.6,3.6,0,0,1,1.836-3.131ZM74.6,240.82H70.69c2.4,2.106,2.364,4.144-.031,6.137h4.022c-2.455-1.834-2.5-4.124-.08-6.137m29.607,1.449a1.638,1.638,0,0,0-1.626,1.547,1.6,1.6,0,0,0,1.582,1.661,1.572,1.572,0,0,0,1.616-1.527,1.62,1.62,0,0,0-1.572-1.682m-28.044,3.2a1.54,1.54,0,0,0,1.617-1.511,1.613,1.613,0,0,0-1.555-1.691,1.68,1.68,0,0,0-1.649,1.629,1.614,1.614,0,0,0,1.586,1.574m-5.5-1.6a1.61,1.61,0,0,0-1.555-1.6,1.674,1.674,0,0,0-1.646,1.627,1.619,1.619,0,0,0,1.582,1.58,1.556,1.556,0,0,0,1.619-1.6m40.7,1.6A1.617,1.617,0,0,0,113,243.859a1.67,1.67,0,0,0-1.592-1.589,1.62,1.62,0,0,0-1.611,1.638,1.548,1.548,0,0,0,1.567,1.565" transform="translate(-47.797 -184.403)" fill="#010304"/><path d="M66.719,270.762a7.811,7.811,0,0,0,3.865,2.177,14.2,14.2,0,0,0,2.027.135q18.941.011,37.882.007c.384,0,.767.024,1.151.037l-.006,1.33-.024.026q-19.646-.006-39.292-.015a5.884,5.884,0,0,1-4.895-2.226,7.425,7.425,0,0,1-.708-1.473" transform="translate(-52.585 -208.675)" fill="#3b7291"/><path d="M273.114,292.041H270.8q.009-2.838.018-5.676l2.3-.039.025.029q-.011,2.842-.021,5.685" transform="translate(-208.39 -220.558)" fill="#fdfdfd"/><path d="M54.774,296.158c.765,0,1.53.005,2.294,0,.58-.006.985.2,1.01.838.027.694-.409.931-1.014.935-1.559.01-3.119.012-4.678,0-.571-.005-1-.288-.988-.892a.857.857,0,0,1,.993-.879c.794.009,1.589,0,2.383,0" transform="translate(-40.887 -228.062)" fill="#fdfdfd"/><path d="M257.978,292l-1.437,0q-.009-2.841-.019-5.682l.024-.025,1.428-.021.039.035q-.017,2.849-.035,5.7" transform="translate(-197.492 -220.51)" fill="#fdfdfd"/><path d="M280.527,272.59a7.513,7.513,0,0,0,6.064-2.518,5.2,5.2,0,0,1-4.1,3.688c-.634.111-1.284.127-1.927.186l-.024-.029q-.006-.663-.013-1.327" transform="translate(-215.819 -208.148)" fill="#3b7291"/><path d="M87.124,298.645a4.931,4.931,0,0,1-1.372-.745,1.2,1.2,0,0,1,.136-.983,8.167,8.167,0,0,1,2.185-.113c.149.013.44.786.323.929a5.684,5.684,0,0,1-1.271.912" transform="translate(-67.07 -228.535)" fill="#fafafa"/><path d="M103.717,318.408h38.977v4.824H103.717Zm19.467,3.292c1.772,0,3.544-.013,5.316.007.646.007,1.168-.162,1.17-.879s-.532-.9-1.166-.9q-5.272,0-10.545,0c-.625,0-1.149.161-1.157.9-.008.765.526.879,1.153.875,1.743-.012,3.485,0,5.228,0" transform="translate(-80.831 -245.051)" fill="#0077c6"/><path d="M264.376,346.707h11.881a2.953,2.953,0,0,1-2.68,3.836c-2.123.075-4.252.075-6.375,0-1.862-.064-3.04-1.695-2.827-3.838" transform="translate(-203.47 -266.656)" fill="#707070"/><path d="M56.246,346.711H68.123a3.035,3.035,0,0,1-2.806,3.844c-2.065.05-4.132.015-6.2.011a3.138,3.138,0,0,1-2.873-3.855" transform="translate(-44.535 -266.659)" fill="#707070"/><path d="M277.419,323.324h-.983v-4.845h7.213a2.2,2.2,0,0,1-.337.382c-1.6,1.138-3.226,2.252-4.819,3.406a9.671,9.671,0,0,0-1.074,1.057" transform="translate(-212.696 -245.105)" fill="#c6c6c6"/><path d="M64.049,323.288c-.379.084-.616.029-.61-.455.019-1.442.007-2.885.007-4.393h7.183c-.775.575-1.548,1.152-2.325,1.725q-2.125,1.564-4.254,3.124" transform="translate(-50.08 -245.075)" fill="#c9c9c9"/><path d="M280.591,323.161a9.674,9.674,0,0,1,1.074-1.057c1.593-1.154,3.214-2.269,4.819-3.406a2.2,2.2,0,0,0,.337-.382l.628-.051v4.9h-6.858" transform="translate(-215.868 -244.941)" fill="#fdfdfd"/><path d="M66.018,323.1q2.127-1.561,4.254-3.124c.777-.572,1.55-1.15,2.325-1.725.375-.141.535-.032.531.388-.014,1.467-.005,2.935-.005,4.46Z" transform="translate(-52.05 -244.887)" fill="#fdfdfd"/><path d="M262.678,291.95q.017-2.849.035-5.7l1.832-.049a.927.927,0,0,0,.071.069q-.009,2.838-.018,5.676l-1.92,0" transform="translate(-202.192 -220.463)" fill="#5cb4e5"/><rect width="1.814" height="4.843" transform="translate(9.733 73.344)" fill="#eab508"/><rect width="1.634" height="4.824" transform="translate(73.429 73.359)" fill="#eab508"/><path d="M227.943,90.738l.145.082-.1.076a.33.33,0,0,1-.042-.157" transform="translate(-175.673 -71.233)" fill="#fafafa"/><path d="M251.6,106.172l-.111-.116.215.013c-.034.035-.069.069-.1.1" transform="translate(-193.654 -82.928)" fill="#f0b908"/><path d="M211.075,174.982a2.612,2.612,0,0,1-.647-.587c-.558-.9-1.019-1.867-1.6-2.754a1.323,1.323,0,0,0-.937-.547c-1.916.01-3.839.022-5.743.207a4.444,4.444,0,0,0-2,.958c-.948.694-1.777,1.55-2.71,2.267a1.555,1.555,0,0,1-1.1.255,6.95,6.95,0,0,1-2.01-.642,1.235,1.235,0,0,1-.507-1.022c.031-.244.556-.439.878-.625.081-.047.23.014.344.039.53.113,1.234.5,1.556.3a18.348,18.348,0,0,0,2.685-2.283c.1-.092-.072-.606-.249-.81-1.1-1.27-2.236-2.508-3.361-3.757a5.222,5.222,0,0,1-.465-.532c-.3-.448-.345-.979.142-1.234a1.225,1.225,0,0,1,1.132.13c.971.944,1.855,1.977,2.762,2.985.611.679,1.191,1.386,1.819,2.048a.9.9,0,0,0,.622.2c2.414-.083,4.828-.205,7.243-.259a1.243,1.243,0,0,1,.929.494c.761,1.262,1.462,2.562,2.145,3.87.375.718.044,1.3-.929,1.309" transform="translate(-149.619 -127.262)" fill="#fdfdfd"/><path d="M80.554,184.448c.4-.571.376-1.605,1.508-1.366a1.126,1.126,0,0,1,.475,1.379c-.488,1.75-.987,3.5-1.456,5.252-.17.633-.463,1.073-1.181,1.077-.722-.334-.721-.92-.544-1.567.356-1.3.72-2.606,1.067-3.913a7.825,7.825,0,0,0,.132-.861" transform="translate(-62.157 -141.707)" fill="#030404"/><path d="M57.649,82.511a23.411,23.411,0,0,1,3.739-1.425,7.369,7.369,0,0,1,6.45,1.889,1.063,1.063,0,0,1,.3,1.54c-.659.408-1.129.1-1.646-.345a6.1,6.1,0,0,0-7.178-.539,6.157,6.157,0,1,0,9.367,5.038c-.011-.594.017-1.117.577-1.461.854-.013,1.2.416,1.212,1.258a7.945,7.945,0,0,1-11.919,7.25c-.335-.183-.656-.392-.984-.589l-.241-.181.008.005c-.17-.2-.335-.4-.509-.591a7.877,7.877,0,0,1-1.884-7.678,9.438,9.438,0,0,1,2.433-3.91l-.017-.057.012.058.283-.261" transform="translate(-43.357 -63.753)" fill="#060504"/><path d="M79.8,89.268c1.093.505,1.2.978.409,1.837-.158.173-.3.357-.456.536l-1.319,1.332-1.52,1.5Q74.459,96.908,72,99.338c-.67.659-1.053.661-1.723,0-1.076-1.058-2.133-2.133-3.205-3.193-.448-.443-.71-.926-.2-1.456s1.007-.285,1.447.174c.9.937,1.8,1.868,2.648,2.742l5.294-5.128,1.246-1.241Z" transform="translate(-52.488 -70.111)" fill="#0b0802"/><path d="M73.379,93.833l1.52-1.5q-.026.3-.05.592c-.559.343-.588.866-.577,1.461a6.156,6.156,0,1,1-2.189-4.5c.516.441.986.752,1.646.345l.242.365-1.246,1.241a5.326,5.326,0,0,0-6.219-2.355,5.366,5.366,0,0,0,.658,10.4c3.545.724,7.042-2.681,6.215-6.051" transform="translate(-48.95 -69.468)" fill="#f7f6f2"/><path d="M53.842,88.682a9.439,9.439,0,0,0-2.433,3.91,7.877,7.877,0,0,0,1.884,7.678c.174.193.34.394.509.591a12.849,12.849,0,0,1-2.215-1.623,7.118,7.118,0,0,1,1.454-10.281,3.514,3.514,0,0,1,.8-.275" transform="translate(-39.827 -69.663)" fill="#e44f21"/><path d="M66.473,87.58l-.283.261.283-.261" transform="translate(-52.181 -68.822)" fill="#e44f21"/><path d="M66.012,140.148l.241.181-.241-.181" transform="translate(-52.045 -108.956)" fill="#e44f21"/><path d="M133.091,246.61h25.026a3.735,3.735,0,0,0-1.846,3.146,3.508,3.508,0,0,0,1.914,3.041H133.21a3.66,3.66,0,0,0,1.813-3.058,3.583,3.583,0,0,0-1.933-3.13m12.559.9c-1.773,0-3.546.006-5.319,0-.6,0-1.088.142-1.1.843-.015.737.474.938,1.118.937q5.319,0,10.638,0c.616,0,1.094-.211,1.113-.861.02-.708-.467-.931-1.128-.924-1.773.017-3.546.006-5.319.006m-.034,2.661c-1.743,0-3.487.006-5.23,0-.627,0-1.16.117-1.156.879,0,.742.519.9,1.152.9q5.274-.007,10.549,0c.646,0,1.164-.187,1.167-.9s-.515-.9-1.163-.892c-1.773.017-3.546.006-5.319.006" transform="translate(-103.257 -190.235)" fill="#0078c7"/><path d="M73.411,246.487c-2.148,1.478-2.826,4.174-.131,6.189a4.7,4.7,0,0,1-5.174-4.451c-.066-2.135-.166-1.7,1.62-1.733,1.143-.023,2.287,0,3.685,0" transform="translate(-53.622 -190.133)" fill="#0077c6"/><path d="M282.325,252.656c2.332-2.184,2.363-4.125-.116-6.216h2.406c.737,0,1.477-.033,2.21.022a.837.837,0,0,1,.628.426c.774,2.895-2.064,6.068-5.129,5.768" transform="translate(-217.104 -190.099)" fill="#0077c6"/><path d="M251.717,246.743h4.151a3.6,3.6,0,0,0-1.836,3.131,3.648,3.648,0,0,0,1.883,3.047h-4.222a3.494,3.494,0,0,0,.025-6.178" transform="translate(-193.805 -190.337)" fill="#0075c2"/><path d="M107.557,246.791c-2.419,2.013-2.375,4.3.08,6.137h-4.023c2.4-1.994,2.432-4.032.032-6.138Z" transform="translate(-80.753 -190.374)" fill="#0075c2"/><path d="M240.2,252.918a1.621,1.621,0,0,1,1.573,1.682,1.572,1.572,0,0,1-1.617,1.527,1.6,1.6,0,0,1-1.582-1.661,1.639,1.639,0,0,1,1.626-1.548" transform="translate(-183.789 -195.051)" fill="#f0b908"/><path d="M121.773,256.118a1.614,1.614,0,0,1-1.586-1.574,1.68,1.68,0,0,1,1.649-1.629,1.613,1.613,0,0,1,1.555,1.691,1.54,1.54,0,0,1-1.617,1.511" transform="translate(-93.406 -195.05)" fill="#f0b908"/><path d="M93.3,254.527a1.555,1.555,0,0,1-1.619,1.6,1.619,1.619,0,0,1-1.582-1.58,1.674,1.674,0,0,1,1.646-1.628,1.611,1.611,0,0,1,1.555,1.6" transform="translate(-70.436 -195.056)" fill="#f48859"/><path d="M270.632,256.122a1.548,1.548,0,0,1-1.567-1.565,1.62,1.62,0,0,1,1.611-1.638,1.67,1.67,0,0,1,1.592,1.589,1.617,1.617,0,0,1-1.635,1.613" transform="translate(-207.068 -195.052)" fill="#f48859"/><path d="M272.927,280.715q.006.664.013,1.327l-2.3.039a.966.966,0,0,1-.07-.068q.036-.649.071-1.3h2.283" transform="translate(-208.219 -216.273)" fill="#a2a2a2"/><path d="M264.525,280.7q-.035.649-.071,1.3l-1.832.049-.039-.035q-.012-.658-.024-1.317l1.967,0" transform="translate(-202.101 -216.261)" fill="#3b7291"/><path d="M258.027,280.7q.012.658.024,1.317l-1.428.021q0-.666.006-1.331l1.4-.007" transform="translate(-197.57 -216.261)" fill="#a2a2a2"/><path d="M165.423,326.591c-1.743,0-3.485-.008-5.228,0-.627,0-1.16-.11-1.153-.875.007-.743.532-.9,1.157-.9q5.272,0,10.545,0c.633,0,1.168.188,1.166.9s-.524.886-1.17.879c-1.772-.019-3.544-.007-5.316-.007" transform="translate(-123.071 -249.942)" fill="#010304"/><path d="M75.908,96.389c.826,3.371-2.67,6.775-6.215,6.051a5.366,5.366,0,0,1-.658-10.4,5.326,5.326,0,0,1,6.219,2.355L69.96,99.52c-.845-.874-1.75-1.8-2.648-2.742-.44-.459-.926-.71-1.447-.174s-.252,1.013.2,1.456c1.072,1.061,2.13,2.136,3.205,3.193.671.659,1.053.658,1.724,0q2.466-2.424,4.918-4.863" transform="translate(-51.479 -72.024)" fill="#f5be0b"/><path d="M165.458,250.4c1.773,0,3.546.011,5.319-.006.661-.006,1.149.216,1.128.924-.018.651-.5.863-1.113.861q-5.319-.013-10.638,0c-.644,0-1.133-.2-1.118-.937.014-.7.5-.846,1.1-.843,1.773.009,3.546,0,5.319,0" transform="translate(-123.066 -193.123)" fill="#010304"/><path d="M165.427,261.65c1.773,0,3.546.011,5.319-.006.648-.006,1.166.177,1.163.892s-.521.9-1.167.9q-5.275-.016-10.549,0c-.633,0-1.148-.16-1.152-.9,0-.762.53-.882,1.156-.879,1.743.01,3.487,0,5.23,0" transform="translate(-123.069 -201.714)" fill="#010304"/></g></g></g></svg>