<svg xmlns="http://www.w3.org/2000/svg" xmlns:xlink="http://www.w3.org/1999/xlink" width="156" height="156" viewBox="0 0 156 156"><defs><clipPath id="a"><rect width="99" height="99" fill="none"/></clipPath></defs><g transform="translate(5636 -1748)"><g transform="translate(-6148 -4381)"><circle cx="78" cy="78" r="78" transform="translate(512 6129)" fill="#f1a99c"/></g><g transform="translate(-5607 1777)"><g clip-path="url(#a)"><path d="M0,46.311c.184-1.05.4-2.1.548-3.15a49.444,49.444,0,0,1,96.475-6.016C97.834,40,98.139,43,98.686,45.934a3.871,3.871,0,0,0,.2.57v8.112a2.525,2.525,0,0,0-.2.569,48.083,48.083,0,0,1-5.959,19.177C85.07,87.735,73.7,96.013,58.559,99.052c-1.423.286-2.858.507-4.288.758H52.34l-.993-1.353.242-.952a8.473,8.473,0,0,1,1.463-.593c.908-.19,1.838-.272,2.76-.4a4.932,4.932,0,0,0,.673-.02A45.408,45.408,0,0,0,84.956,80.518c9.269-11.1,12.867-23.952,10.221-38.181C92.023,25.373,82.048,13.725,66.163,7.124A34.528,34.528,0,0,0,56.019,4.563l.013.006-.6-.13c-3.11-.09-6.233-.408-9.328-.228a42.991,42.991,0,0,0-25.162,9.614C6.215,25.8.352,41.334,3.96,59.945,6.793,74.558,15.406,85.2,28.6,92.077a44.677,44.677,0,0,0,17.246,4.8,1.768,1.768,0,0,1,1.683,1.2l.011.386-.992,1.354H44.228a2.634,2.634,0,0,0-.474-.2c-3.1-.672-6.321-1.014-9.293-2.056C15.468,90.891,4.122,77.618.547,57.768.358,56.719.182,55.667,0,54.616v-8.3" transform="translate(0 -0.925)" fill="#040303"/><path d="M59.746,110.646a1.767,1.767,0,0,0-1.683-1.2,44.679,44.679,0,0,1-17.246-4.8c-13.191-6.877-21.8-17.519-24.637-32.132C12.572,53.91,18.435,38.378,33.161,26.4a42.992,42.992,0,0,1,25.162-9.614c3.095-.18,6.218.138,9.328.228l.6.13-.012-.006c.737.286,1.467.592,2.213.854A46.914,46.914,0,0,1,86.439,27.6a48.076,48.076,0,0,1,15.732,35.353,52.675,52.675,0,0,1-.727,8.017,45.1,45.1,0,0,1-7.15,18.416,46.432,46.432,0,0,1-9.388,10.5,45.622,45.622,0,0,1-11.247,6.981c-1.857.784-3.751,1.48-5.628,2.215-.921.127-1.852.21-2.76.4a8.48,8.48,0,0,0-1.463.593ZM51.528,84.618l2.64-2.636a1.752,1.752,0,0,0,2.409-.39c1.649-1.7,3.338-3.369,5.041-5.081.3.274.517.457.717.657q4.134,4.125,8.265,8.253c2.166,2.156,4.257,4.4,6.537,6.427a9.378,9.378,0,0,0,12.683-13.8c-4.633-4.7-9.321-9.336-14-13.99a9.973,9.973,0,0,0-1.192-.834,12.789,12.789,0,0,0,1.2-.9q6.908-6.88,13.8-13.776a9.2,9.2,0,0,0,2.782-8.708,9.388,9.388,0,0,0-15.648-5c-1.656,1.524-3.2,3.168-4.8,4.756a1.523,1.523,0,0,0-.1,2.235l-2.693,2.6a1.656,1.656,0,0,0-2.387.335c-1.667,1.728-3.378,3.414-5.221,5.269a10.03,10.03,0,0,0-.73-.949c-4.659-4.667-9.306-9.346-14-13.98a9.4,9.4,0,1,0-13.22,13.368c4.621,4.659,9.279,9.282,13.919,13.922.262.262.51.54.855.905-.345.291-.633.5-.883.751q-6.967,6.953-13.927,13.913a9.069,9.069,0,0,0-2.705,8.455,8.868,8.868,0,0,0,6.345,7.222,8.952,8.952,0,0,0,9.239-2.006c1.639-1.494,3.151-3.126,4.744-4.671a1.7,1.7,0,0,0,.322-2.335" transform="translate(-12.22 -13.501)" fill="#e4544e"/><path d="M288.977,110.786c1.877-.736,3.771-1.432,5.628-2.215a45.626,45.626,0,0,0,11.247-6.981,46.426,46.426,0,0,0,9.388-10.5,45.1,45.1,0,0,0,7.15-18.416,52.653,52.653,0,0,0,.727-8.017A48.075,48.075,0,0,0,307.385,29.3,46.918,46.918,0,0,0,291.4,19.691c-.746-.262-1.475-.568-2.213-.854A34.521,34.521,0,0,1,299.328,21.4c15.885,6.6,25.86,18.249,29.014,35.214,2.646,14.228-.953,27.084-10.221,38.181a45.407,45.407,0,0,1-28.472,15.974,4.964,4.964,0,0,1-.673.02" transform="translate(-233.165 -15.199)" fill="#c42430"/><path d="M246.079,500.63l4.062-.566-.242.952h-3.81l-.011-.386" transform="translate(-198.553 -403.484)" fill="#c62732"/><path d="M287.606,18.323l-.6-.13.6.13" transform="translate(-231.574 -14.679)" fill="#c42430"/><path d="M146.308,121.337l2.693-2.6a1.622,1.622,0,0,0,2.3-.324c1.4-1.444,2.789-2.913,4.29-4.251a18.41,18.41,0,0,1,2.706-1.7,4.239,4.239,0,0,0,.386.638,7.922,7.922,0,0,1-.349,11.179q-6.782,6.789-13.569,13.573a2.856,2.856,0,0,0-.007,4.4q6.887,6.889,13.771,13.78a7.973,7.973,0,0,1,.229,10.9,4.359,4.359,0,0,0-.472.8,16.9,16.9,0,0,1-2.852-1.861c-5.092-5-10.117-10.064-15.165-15.106-1.2-1.2-1.751-1.195-2.97.022q-2.832,2.827-5.662,5.656c-.917.92-.964,1.3-.339,2.45l-2.64,2.636c-1.143-.628-1.526-.58-2.45.338-1.483,1.473-2.937,2.978-4.448,4.422a6.494,6.494,0,1,1-9.044-9.322c5.143-5.184,10.325-10.329,15.488-15.493,1.067-1.068,1.066-1.69-.009-2.767q-4.159-4.166-8.328-8.323c-2.39-2.387-4.8-4.751-7.163-7.167a6.5,6.5,0,1,1,9.347-9.042q7.7,7.656,15.365,15.343c1.043,1.041,1.714,1.038,2.767-.011q2.871-2.861,5.733-5.731c.942-.945.995-1.3.39-2.445" transform="translate(-89.352 -90.417)" fill="#fdfdfd"/><path d="M215.45,146.7c-.625-1.145-.578-1.53.339-2.45q2.826-2.833,5.662-5.656c1.219-1.217,1.766-1.224,2.97-.022,5.049,5.042,10.073,10.108,15.165,15.106a16.9,16.9,0,0,0,2.852,1.861,6.07,6.07,0,0,0,5.993-.944,6.462,6.462,0,0,0,.528-9.886q-7.652-7.7-15.348-15.352c-1.168-1.168-1.17-1.739-.01-2.9q6.416-6.41,12.832-12.82c1.045-1.046,2.136-2.056,3.094-3.178a6.439,6.439,0,0,0,.2-7.948,6.342,6.342,0,0,0-7.281-2.246,18.41,18.41,0,0,0-2.706,1.7c-1.5,1.338-2.887,2.806-4.29,4.251a1.622,1.622,0,0,1-2.3.324,1.522,1.522,0,0,1,.1-2.235c1.6-1.588,3.143-3.232,4.8-4.756a9.388,9.388,0,0,1,15.648,5,9.2,9.2,0,0,1-2.782,8.708q-6.9,6.886-13.8,13.776a12.792,12.792,0,0,1-1.2.9,9.969,9.969,0,0,1,1.192.834c4.674,4.654,9.363,9.294,14,13.99a9.378,9.378,0,0,1-12.683,13.8c-2.28-2.029-4.371-4.271-6.537-6.427q-4.139-4.119-8.265-8.253c-.2-.2-.417-.383-.717-.657-1.7,1.711-3.393,3.376-5.041,5.081a1.753,1.753,0,0,1-2.409.39" transform="translate(-173.502 -78.221)" fill="#050403"/><path d="M134.132,109.275c.605,1.144.553,1.5-.39,2.445q-2.863,2.87-5.733,5.731c-1.053,1.05-1.724,1.052-2.767.011q-7.682-7.672-15.365-15.343a6.5,6.5,0,1,0-9.347,9.042c2.36,2.416,4.774,4.78,7.163,7.167q4.165,4.161,8.328,8.323c1.075,1.077,1.076,1.7.009,2.767-5.163,5.164-10.345,10.309-15.488,15.493a6.494,6.494,0,1,0,9.044,9.322c1.511-1.444,2.965-2.949,4.448-4.422.924-.918,1.307-.966,2.45-.338a1.7,1.7,0,0,1-.323,2.335c-1.593,1.545-3.1,3.177-4.744,4.671a9.4,9.4,0,0,1-15.584-5.215,9.069,9.069,0,0,1,2.705-8.455q6.965-6.955,13.928-13.913c.25-.249.538-.46.883-.751-.345-.366-.592-.643-.855-.905-4.64-4.64-9.3-9.263-13.919-13.922A9.4,9.4,0,1,1,111.8,99.949c4.691,4.634,9.338,9.314,14,13.98a10,10,0,0,1,.73.949c1.843-1.855,3.554-3.541,5.221-5.269a1.656,1.656,0,0,1,2.387-.335" transform="translate(-77.176 -78.355)" fill="#040303"/><path d="M296.118,112.514a6.343,6.343,0,0,1,7.281,2.246,6.438,6.438,0,0,1-.2,7.948c-.958,1.122-2.049,2.132-3.094,3.178q-6.411,6.414-12.832,12.82c-1.161,1.16-1.159,1.73.01,2.9q7.676,7.674,15.348,15.352a6.462,6.462,0,0,1-.528,9.886,6.07,6.07,0,0,1-5.993.944,4.352,4.352,0,0,1,.472-.8,7.973,7.973,0,0,0-.229-10.9q-6.867-6.908-13.771-13.78a2.856,2.856,0,0,1,.007-4.4q6.78-6.791,13.569-13.573a7.922,7.922,0,0,0,.349-11.179,4.252,4.252,0,0,1-.386-.638" transform="translate(-227.172 -90.466)" fill="#e4e4e4"/></g></g></g></svg>