<svg xmlns="http://www.w3.org/2000/svg" width="156" height="156" viewBox="0 0 156 156"><g transform="translate(-672 -12610)"><g transform="translate(160 6481)"><circle cx="78" cy="78" r="78" transform="translate(512 6129)" fill="#f1a99c"/></g><g transform="translate(702.114 12634.272)"><g transform="translate(5.886 5.805)"><path d="M82.629,90.762H74.038q-7.533,0-15.065,0a14.244,14.244,0,0,1-14.7-13.446c-.01-.111-.029-.22-.039-.3h-2.7v13.7H14.141V77.062c-.882,0-1.7,0-2.515,0A5.477,5.477,0,0,1,5.9,71.376c-.01-5.194-.019-10.388,0-15.582A13.721,13.721,0,0,1,17.438,42.3c1.04-.168,2.074-.378,3.115-.542a.779.779,0,0,0,.758-.744c.178-1.1.452-2.175.63-3.27.046-.285-.01-.756-.2-.884A11.3,11.3,0,0,1,17.2,30.508a5.547,5.547,0,0,1-4.641-2.132,5.417,5.417,0,0,1-.641-5.8,2.409,2.409,0,0,0,.124-1.344c-.37-1.841-.936-3.664-.532-5.569a5.433,5.433,0,0,1,3.858-4.181,1.718,1.718,0,0,0,.871-.665,9.474,9.474,0,0,1,8.574-4.991c2.682-.028,5.364-.01,8.046,0A11.137,11.137,0,0,1,43.846,19.948c-.076.3-.154.608-.248.906A2.5,2.5,0,0,0,43.74,22.8a5.44,5.44,0,0,1-4.6,7.67c-.226.015-.454.021-.72.034A10.65,10.65,0,0,1,34.5,36.355a1.518,1.518,0,0,0-.727,1.952A13.756,13.756,0,0,1,34.29,40.9c.07.615.375.779.914.884a45.354,45.354,0,0,1,5.333,1.153,13.077,13.077,0,0,1,7.392,6.138c.114.2.224.395.34.59.01.016.048.016.118.036.366-.579.712-1.188,1.116-1.757a13.989,13.989,0,0,1,9.958-5.81,3.279,3.279,0,0,1,.588-.1c1.911.1,2.617-.948,2.883-2.7a2.116,2.116,0,0,0-.723-2.344c-5.507-4.769-7.7-10.884-6.823-18.061A12.267,12.267,0,0,1,67.66,8.565a4.438,4.438,0,0,1,3.113,1.487,15.4,15.4,0,0,1,6.292-3.625,11.757,11.757,0,0,1,5.234-.5,6.829,6.829,0,0,1,.866,13.3l-.7.225a45.348,45.348,0,0,1-.024,4.607A19.179,19.179,0,0,1,75.134,37.4c-.442.36-.631.672-.4,1.2a2.854,2.854,0,0,1,.122.409c.224.85.189,2,.738,2.471.623.533,1.76.508,2.686.636a14.089,14.089,0,0,1,9.831,5.568,13.207,13.207,0,0,1,2.7,7.953c.033,3.91.026,7.819.005,11.729a6.847,6.847,0,0,1-6.928,6.954c-.4,0-.792,0-1.255,0Zm-39.9-35.007c-.21.425-.344.773-.541,1.083a4.963,4.963,0,0,0-.694,2.925c.058,2.082.045,4.167,0,6.249a1.747,1.747,0,0,0,.668,1.545c.615.493,1.206,1.017,1.759,1.487L41.877,71.2c-.655-.672-1.276-1.335-1.93-1.964a1.211,1.211,0,0,0-.705-.376c-1.961-.03-3.922-.017-5.917-.017V74.3c3.367,0,6.7,0,10.029-.006a1.035,1.035,0,0,0,.575-.137,2.213,2.213,0,0,0,.7-.693c.722-1.41,1.405-2.84,2.086-4.27a2.145,2.145,0,0,0,.257-.861c.015-4.224.023-8.448,0-12.671a10.443,10.443,0,0,0-1.732-5.73A10.723,10.723,0,0,0,38.7,45.237L27.81,60.207,16.922,45.242a10.789,10.789,0,0,0-8.246,9.952c-.113,5.477-.045,10.959-.033,16.438a2.54,2.54,0,0,0,2.087,2.576,23.517,23.517,0,0,0,3.319.033V68.813H11.409V66.1h2.7c0-1.462-.047-2.856.011-4.245.089-2.12.066-4.2-1.2-6.109l2.389-1.192a9.99,9.99,0,0,1,1.577,4.8c-.089,9.246-.041,18.494-.041,27.74v.878H38.709v-10.9c-4.564,0-9.071.012-13.578,0a5.483,5.483,0,0,1-5.487-4.678A5.538,5.538,0,0,1,23.3,66.385a1.7,1.7,0,0,0,.81-.735,4.312,4.312,0,0,1,6.714-1.2c.467.418.883.893,1.35,1.312a1.123,1.123,0,0,0,.642.32c1.961.024,3.921.014,5.949.014,0-2.489.076-4.911-.026-7.325-.071-1.681.967-2.828,1.55-4.247l2.433,1.225M66.189,14.04c.422,0,.76.007,1.1,0,.993-.023,1.6-.557,1.607-1.4s-.613-1.385-1.626-1.324a9.476,9.476,0,0,0-8.3,5.31c-1.226,2.324-1.182,4.834-.879,7.353A16.62,16.62,0,0,0,64.75,35.587a1.947,1.947,0,0,0,1.086.357q3.081.05,6.163,0a1.993,1.993,0,0,0,1.082-.372,16.772,16.772,0,0,0,5.179-6.377,19.555,19.555,0,0,0,1.58-9.516c-.01-.214-.255-.446-.44-.618a11.9,11.9,0,0,1-1.567-1.411,3.93,3.93,0,0,1-.036-4.5,4.381,4.381,0,0,1,4.735-1.736v2.631c-.381,0-.695,0-1.007,0-1.094.018-1.75.619-1.649,1.507s.882,1.369,1.924,1.192a4.163,4.163,0,0,0,3.529-4.364,4.113,4.113,0,0,0-4.2-3.8,12.16,12.16,0,0,0-9.24,4.314,2.445,2.445,0,0,0-.427.908,4.24,4.24,0,0,1-5.273,2.84Zm1.493,49.414c.1-.183.148-.28.2-.378a4.294,4.294,0,0,1,7.026-1.13c.368.358.713.742,1.1,1.079a1.167,1.167,0,0,0,.646.321c1.046.033,2.094.015,3.208.015a37.37,37.37,0,0,0-.027-4c-.2-1.86.769-3.249,1.566-4.819L83.913,55.8c-1.948,2.285-1.152,4.947-1.327,7.508h5.485c0-2.611.039-5.174-.008-7.736a10.849,10.849,0,0,0-8.473-10.385,32.723,32.723,0,0,0-8.8-1.023c-3.379.16-6.769-.217-10.139.507-2.5.537-4.968,1.013-6.979,2.747a10.719,10.719,0,0,0-3.882,8.447,6.771,6.771,0,0,1,5.472-3.5V49.593c1.644.083,3.21.138,4.773.252a18.553,18.553,0,0,1,2.366.346,13.937,13.937,0,0,1,5.808,2.354,1.556,1.556,0,0,1,.7,1.433,15.445,15.445,0,0,1-1.7,6.648c-.778,1.488-.774,1.49.464,2.827m3.63,10.863c-.888,0-1.741.021-2.593,0a5.5,5.5,0,0,1-3.58-9.475c-.884-1.476-.884-1.476-2.525-1.476-2.452,0-4.9.019-7.355-.014a1.3,1.3,0,0,0-1.2.6c-1.655,2.25-3.364,4.459-5,6.719a11.344,11.344,0,0,0-1.39,2.435c-2.121,5.353.906,11.807,6.53,14.086a15.149,15.149,0,0,0,6.045.835,11.533,11.533,0,0,0,10.832-7.959,9.551,9.551,0,0,0,.238-5.748M14.436,19.9c.968-.146,1.729-.22,2.467-.392a1.532,1.532,0,0,0,.9-.55,6.769,6.769,0,0,1,3.715-2.993,1.628,1.628,0,0,0,1.195-1.111,5.443,5.443,0,0,1,7.459-3.017c2.076.963,3.374,3.539,2.992,4.917H30.6a2.891,2.891,0,0,0-1.726-2.485,2.6,2.6,0,0,0-2.933.533,2.728,2.728,0,0,0,1.848,4.715c2.424.024,4.848-.011,7.272.014,1.952.02,3.9.092,6,.144-.071.12.006.031.039-.071A8.426,8.426,0,0,0,33.161,8.568c-2.851-.033-5.7-.024-8.555.009a7.555,7.555,0,0,0-1.93.3,7.01,7.01,0,0,0-4.582,4.393,1.114,1.114,0,0,1-1.207.789,2.557,2.557,0,0,0-2.7,2.239,24.987,24.987,0,0,0,.253,3.6m8.16-1.4a4.074,4.074,0,0,0-3,4.073c-.008,1.8-.029,3.6.009,5.393a8.241,8.241,0,0,0,7.4,7.969,7.956,7.956,0,0,0,8.653-6.062,54.01,54.01,0,0,0,.512-7.605c-2.672,0-5.12-.058-7.565.015A5.737,5.737,0,0,1,22.6,18.493M70.272,66.1c-.511,0-.934-.01-1.356,0a2.735,2.735,0,1,0,0,5.47c5.043.018,10.087.007,15.131,0a3.472,3.472,0,0,0,.76-.093C87.168,70.946,88.337,69,88,66.1h-.822c-3.078,0-6.162-.122-9.23.044-1.977.107-3.55-.293-4.7-1.964a2.354,2.354,0,0,0-.421-.424,1.358,1.358,0,0,0-1.727-.223,2.957,2.957,0,0,0-.808,1.358,3.962,3.962,0,0,0-.023,1.209m3.967,8.263a14.423,14.423,0,0,1-5.6,13.607H79.81V74.365Zm-47.8-5.519c-.568,0-1.049-.023-1.526,0a2.744,2.744,0,0,0-2.58,2.6,2.648,2.648,0,0,0,2.317,2.818c1.946.113,3.9.029,5.9.029,0-2,.007-3.937-.01-5.868a.98.98,0,0,0-.223-.6c-.418-.465-.862-.909-1.324-1.33a1.334,1.334,0,0,0-1.724-.221,2.958,2.958,0,0,0-.805,1.358,3.985,3.985,0,0,0-.023,1.211M58,52.427a22.416,22.416,0,0,0,1.9,7.62.807.807,0,0,0,.888.586,25.1,25.1,0,0,1,2.65,0,.975.975,0,0,0,1-.594,12.138,12.138,0,0,0,1.653-5.072.986.986,0,0,0-.415-.785A18.616,18.616,0,0,0,58,52.427M24.64,38.242l-.753,3.811c1.2.6,2.313,1.174,3.439,1.718a.979.979,0,0,0,.7.124c1.254-.59,2.485-1.228,3.722-1.85l-.774-3.8a11.331,11.331,0,0,1-6.329-.005m3.172,17.307,3.243-4.465L27.8,47.834l-3.25,3.228,3.266,4.486M71.941,38.728h-6.08L65.2,41.4h7.4l-.663-2.677m-16.526,16.3a19.33,19.33,0,0,0-1.913.763c-.69.358-.981.879-.432,1.641a9.707,9.707,0,0,1,.7,1.366c.978,1.954.979,1.954,3.188,1.8a.262.262,0,0,0,.071-.025l-1.612-5.547m-38.6-27.319V22.29a2.707,2.707,0,0,0,0,5.415m21.981-.015A2.682,2.682,0,0,0,41.5,24.906a2.646,2.646,0,0,0-2.709-2.577ZM19.973,44.771l2.683,3.693,2.677-2.633c-1.662-.653-3.144-2.226-5.36-1.06m10.371,1.053,2.612,2.653,2.688-3.709c-2.215-1.192-3.712.406-5.3,1.056M49.758,65.143a14.419,14.419,0,0,1,1.37-1.8,2.187,2.187,0,0,0,.291-3.191,35.109,35.109,0,0,1-1.66-3.221Z" transform="translate(-5.886 -5.805)" fill="#020202"/><path d="M51.941,189.09l-2.433-1.225c-.584,1.418-1.621,2.566-1.551,4.247.1,2.414.026,4.835.026,7.325-2.028,0-3.989.01-5.949-.014a1.123,1.123,0,0,1-.642-.32c-.467-.419-.882-.894-1.35-1.312a4.312,4.312,0,0,0-6.714,1.2,1.7,1.7,0,0,1-.81.735,5.538,5.538,0,0,0-3.658,5.993,5.483,5.483,0,0,0,5.487,4.678c4.507.017,9.013,0,13.578,0v10.9H26.069v-.878c0-9.247-.048-18.494.041-27.74a9.991,9.991,0,0,0-1.577-4.8l-2.389,1.192c1.263,1.906,1.285,3.988,1.2,6.109-.058,1.389-.011,2.783-.011,4.246h-2.7v2.718h2.639v5.427a23.517,23.517,0,0,1-3.319-.033,2.54,2.54,0,0,1-2.087-2.576c-.012-5.48-.08-10.961.033-16.438a10.789,10.789,0,0,1,8.247-9.952l10.888,14.966,10.89-14.97a10.724,10.724,0,0,1,6.542,4.692A10.446,10.446,0,0,1,56.191,189c.022,4.224.014,8.448,0,12.671a2.141,2.141,0,0,1-.257.861c-.68,1.431-1.364,2.86-2.086,4.27a2.215,2.215,0,0,1-.7.693,1.036,1.036,0,0,1-.575.137c-3.331.008-6.662.006-10.029.006v-5.457c1.995,0,3.956-.013,5.917.017a1.212,1.212,0,0,1,.705.376c.654.63,1.275,1.293,1.93,1.964l2.041-2.157c-.554-.47-1.145-.993-1.76-1.487a1.747,1.747,0,0,1-.668-1.545c.044-2.083.057-4.167,0-6.249a4.964,4.964,0,0,1,.694-2.925c.2-.309.331-.658.54-1.083" transform="translate(-15.102 -139.14)" fill="#e4e7eb"/><path d="M242.107,23.4V25.99a4.24,4.24,0,0,0,5.273-2.839,2.442,2.442,0,0,1,.427-.908,12.16,12.16,0,0,1,9.241-4.314,4.113,4.113,0,0,1,4.2,3.8,4.163,4.163,0,0,1-3.53,4.364c-1.042.177-1.823-.307-1.924-1.192s.555-1.488,1.649-1.507c.313-.005.626,0,1.007,0V20.767a4.381,4.381,0,0,0-4.735,1.737,3.929,3.929,0,0,0,.036,4.5,11.9,11.9,0,0,0,1.568,1.411c.184.172.43.4.439.618a19.554,19.554,0,0,1-1.58,9.516A16.772,16.772,0,0,1,249,44.927a2,2,0,0,1-1.082.372q-3.081.053-6.163,0a1.945,1.945,0,0,1-1.086-.357,16.62,16.62,0,0,1-6.659-11.606c-.3-2.52-.347-5.029.879-7.353a9.476,9.476,0,0,1,8.3-5.31c1.012-.061,1.629.482,1.626,1.324s-.615,1.374-1.608,1.4c-.338.008-.676,0-1.1,0" transform="translate(-181.804 -15.161)" fill="#646c77"/><path d="M216.143,193.093c-1.238-1.337-1.242-1.339-.464-2.827a15.445,15.445,0,0,0,1.7-6.648,1.556,1.556,0,0,0-.7-1.433,13.938,13.938,0,0,0-5.808-2.354,18.6,18.6,0,0,0-2.366-.346c-1.562-.114-3.129-.169-4.773-.252v2.773a6.77,6.77,0,0,0-5.472,3.5,10.719,10.719,0,0,1,3.882-8.447c2.011-1.734,4.48-2.211,6.979-2.747,3.37-.724,6.76-.347,10.139-.507a32.72,32.72,0,0,1,8.8,1.023,10.849,10.849,0,0,1,8.473,10.385c.047,2.562.008,5.125.008,7.736h-5.485c.175-2.561-.622-5.222,1.327-7.508l-2.516-1.261c-.8,1.57-1.77,2.959-1.566,4.819a37.364,37.364,0,0,1,.027,4c-1.115,0-2.162.018-3.208-.015a1.167,1.167,0,0,1-.646-.321c-.386-.337-.73-.721-1.1-1.079a4.294,4.294,0,0,0-7.026,1.13c-.051.1-.1.2-.2.378" transform="translate(-154.347 -135.444)" fill="#5bd4b2"/><path d="M210.291,268.888a9.549,9.549,0,0,1-.238,5.748,11.532,11.532,0,0,1-10.832,7.959,15.151,15.151,0,0,1-6.045-.835c-5.624-2.28-8.65-8.734-6.53-14.086a11.363,11.363,0,0,1,1.39-2.435c1.639-2.26,3.349-4.47,5-6.719a1.3,1.3,0,0,1,1.2-.6c2.451.033,4.9.014,7.355.014,1.64,0,1.64,0,2.525,1.477a5.5,5.5,0,0,0,3.58,9.475c.852.025,1.705,0,2.593,0m-13.368,10.9h2.792v-2.712H202.4c0-1.3,0-2.549,0-3.8a4.1,4.1,0,0,0-4.051-4.384,1.351,1.351,0,0,1-1.389-1.148,9.6,9.6,0,0,1-.016-1.573c2.437-.09,2.441-.086,2.8,2.672h2.615c.245-2.205-.284-3.986-2.364-5.066a.9.9,0,0,1-.316-.668c-.039-.789-.015-1.582-.015-2.4H196.9v2.727h-2.718c0,1.277,0,2.473,0,3.669a4.123,4.123,0,0,0,4.094,4.52,1.372,1.372,0,0,1,1.38,1.437c.019.417,0,.835,0,1.424-.8-.144-1.737-.038-2.1-.445a7.019,7.019,0,0,1-.9-2.359h-2.443c-.125,2.272.13,3.592,1.452,4.351,1.282.737,1.346,1.689,1.256,2.867-.021.279,0,.561,0,.882" transform="translate(-144.865 -200.376)" fill="#ddb08a"/><path d="M42.442,29.17a24.988,24.988,0,0,1-.253-3.6,2.557,2.557,0,0,1,2.7-2.239,1.113,1.113,0,0,0,1.207-.789,7.011,7.011,0,0,1,4.582-4.393,7.564,7.564,0,0,1,1.93-.3c2.851-.032,5.7-.041,8.555-.009a8.426,8.426,0,0,1,7.939,11.031c-.033.1-.11.192-.039.072-2.1-.052-4.052-.124-6-.144-2.423-.025-4.848.01-7.271-.014a2.728,2.728,0,0,1-1.848-4.715,2.6,2.6,0,0,1,2.933-.533A2.891,2.891,0,0,1,58.6,26.025h2.566c.381-1.379-.916-3.955-2.992-4.918a5.443,5.443,0,0,0-7.459,3.017,1.628,1.628,0,0,1-1.195,1.111,6.769,6.769,0,0,0-3.715,2.993,1.532,1.532,0,0,1-.9.55c-.738.172-1.5.246-2.467.392" transform="translate(-33.891 -15.08)" fill="#b07845"/><path d="M68.9,61.4a5.736,5.736,0,0,0,6.009,3.783c2.445-.073,4.893-.015,7.565-.015a54.008,54.008,0,0,1-.512,7.605,7.956,7.956,0,0,1-8.653,6.062,8.242,8.242,0,0,1-7.4-7.969c-.039-1.8-.018-3.6-.009-5.393a4.073,4.073,0,0,1,3-4.073m-.089,11.22a5.749,5.749,0,0,0,5.646,3.5,5.566,5.566,0,0,0,4.918-3.533l-2.362-1.165a3.161,3.161,0,0,1-2.941,1.956,3.268,3.268,0,0,1-2.884-1.946l-2.376,1.187" transform="translate(-52.192 -48.71)" fill="#edceb2"/><path d="M274.093,260.555a3.959,3.959,0,0,1,.023-1.21,2.957,2.957,0,0,1,.808-1.358,1.358,1.358,0,0,1,1.727.223,2.361,2.361,0,0,1,.421.424c1.146,1.671,2.719,2.071,4.7,1.964,3.068-.166,6.152-.044,9.23-.044h.822c.338,2.9-.831,4.844-3.191,5.38a3.5,3.5,0,0,1-.76.093c-5.044.006-10.087.016-15.131,0a2.735,2.735,0,1,1,0-5.47c.422-.012.845,0,1.356,0" transform="translate(-209.707 -200.258)" fill="#eeceb3"/><path d="M286.429,306.191H292V319.8H280.828a14.423,14.423,0,0,0,5.6-13.607" transform="translate(-218.075 -237.631)" fill="#5bd5b2"/><path d="M82.051,272.552a3.985,3.985,0,0,1,.023-1.211,2.959,2.959,0,0,1,.8-1.359,1.334,1.334,0,0,1,1.724.221,18.669,18.669,0,0,1,1.324,1.33.981.981,0,0,1,.223.6c.016,1.932.01,3.864.01,5.868-1.994,0-3.951.084-5.9-.029a2.648,2.648,0,0,1-2.317-2.818,2.744,2.744,0,0,1,2.58-2.6c.477-.028.957,0,1.526,0" transform="translate(-61.497 -209.511)" fill="#eeceb2"/><path d="M234.209,210.073a18.616,18.616,0,0,1,7.672,1.757.986.986,0,0,1,.415.785,12.138,12.138,0,0,1-1.653,5.073.976.976,0,0,1-1,.594,25.106,25.106,0,0,0-2.65,0,.807.807,0,0,1-.888-.586,22.415,22.415,0,0,1-1.9-7.62" transform="translate(-182.097 -163.451)" fill="#cc9c74"/><path d="M85.507,147.923a11.331,11.331,0,0,0,6.329,0l.774,3.8c-1.238.622-2.469,1.26-3.723,1.85a.978.978,0,0,1-.7-.123c-1.126-.545-2.24-1.116-3.439-1.718l.753-3.811" transform="translate(-66.753 -115.486)" fill="#eccdb1"/><path d="M90.908,197.665l-3.266-4.486,3.25-3.228,3.259,3.249-3.243,4.465" transform="translate(-68.982 -147.921)" fill="#fb806c"/><path d="M272.5,150.051l.662,2.677h-7.4l.662-2.677Z" transform="translate(-206.446 -117.128)" fill="#47cdab"/><path d="M213.99,221.454,215.6,227a.263.263,0,0,1-.071.025c-2.21.152-2.21.152-3.188-1.8a9.7,9.7,0,0,0-.7-1.366c-.549-.761-.258-1.283.432-1.641a19.272,19.272,0,0,1,1.913-.763" transform="translate(-164.461 -172.234)" fill="#ce9d6a"/><path d="M44.617,83.449a2.707,2.707,0,0,1,0-5.415Z" transform="translate(-33.689 -61.548)" fill="#eacbb0"/><path d="M150.072,83.564V78.2a2.646,2.646,0,0,1,2.71,2.577,2.682,2.682,0,0,1-2.71,2.785" transform="translate(-117.163 -61.678)" fill="#eacbb0"/><path d="M67.608,175.116c2.216-1.166,3.7.408,5.36,1.06l-2.677,2.633-2.683-3.694" transform="translate(-53.521 -136.15)" fill="#f66b4f"/><path d="M113.049,176.122c1.587-.65,3.084-2.248,5.3-1.056l-2.688,3.708-2.611-2.653" transform="translate(-88.59 -136.103)" fill="#f66b4f"/><path d="M198.105,238.034v-8.207a35.11,35.11,0,0,0,1.66,3.221,2.187,2.187,0,0,1-.291,3.191,14.422,14.422,0,0,0-1.37,1.8" transform="translate(-154.233 -178.696)" fill="#5ad2b0"/><path d="M224.705,289.259c0-.321-.018-.6,0-.882.09-1.178.025-2.13-1.256-2.867-1.322-.759-1.577-2.079-1.452-4.351h2.443a7.019,7.019,0,0,0,.9,2.359c.365.407,1.3.3,2.1.445,0-.589.016-1.008,0-1.424a1.372,1.372,0,0,0-1.38-1.437,4.123,4.123,0,0,1-4.094-4.52c0-1.2,0-2.392,0-3.669h2.718v-2.727h2.761c0,.814-.024,1.606.015,2.4a.9.9,0,0,0,.316.668c2.079,1.08,2.608,2.861,2.364,5.066h-2.615c-.356-2.758-.36-2.762-2.8-2.672a9.6,9.6,0,0,0,.016,1.573,1.351,1.351,0,0,0,1.389,1.148,4.1,4.1,0,0,1,4.051,4.384c0,1.249,0,2.5,0,3.8H227.5v2.712Z" transform="translate(-172.648 -209.844)" fill="#010101"/><path d="M78.708,106.51l2.376-1.187a3.268,3.268,0,0,0,2.884,1.946,3.161,3.161,0,0,0,2.941-1.956l2.362,1.165a5.566,5.566,0,0,1-4.918,3.533,5.749,5.749,0,0,1-5.646-3.5" transform="translate(-62.087 -82.601)" fill="#040403"/></g></g></g></svg>