<svg xmlns="http://www.w3.org/2000/svg" width="190" height="106.981" viewBox="0 0 190 106.981"><g transform="translate(-180 -4757.009)"><rect width="190" height="106.981" rx="11" transform="translate(180 4757.009)" fill="#ffba5b" opacity="0.4"/><rect width="10" height="106.981" transform="translate(360 4757.009)" fill="#ffba5b"/><g transform="translate(223.44 4759.314)"><g transform="translate(6.26 6.9)"><path d="M96.86,31.693c-.1,7.311.043,14.529-.371,21.715a32.426,32.426,0,0,1-6.407,17,1.824,1.824,0,0,0-.3,1.747c1.534,5.494,3.013,11,4.509,16.507.038.14.067.282.13.546-2.135-.533-4.186-1.013-6.216-1.569a1.111,1.111,0,0,0-1.5.619c-1.423,2.473-2.916,4.906-4.386,7.353-.149.247-.316.484-.561.858l-4.872-14.6c-.968.423-1.877.882-2.828,1.225-4.357,1.573-2.84,1.561-7.228-.027-.91-.329-1.778-.775-2.774-1.215L59.185,96.443c-.214-.308-.37-.507-.5-.721-1.535-2.549-3.086-5.088-4.581-7.659a.859.859,0,0,0-1.154-.468c-2.1.554-4.212,1.075-6.454,1.641.595-2.207,1.156-4.3,1.725-6.4.979-3.6,1.949-7.2,2.96-10.8a1.555,1.555,0,0,0-.24-1.5,35.751,35.751,0,0,1-6.4-15.986c-.12-.833-.532-1.031-1.3-.695-1.247.548-2.523,1.031-3.764,1.592a1.293,1.293,0,0,0-.652.705c-.306,1.046-.528,2.116-.8,3.234h-11.1c-.239-1.01-.448-2.079-.763-3.115a1.535,1.535,0,0,0-.745-.837c-1.233-.577-2.495-1.1-3.767-1.583a1.281,1.281,0,0,0-.957.053c-.98.539-1.92,1.152-2.844,1.719l-7.837-7.858c.541-.883,1.155-1.814,1.684-2.791a1.4,1.4,0,0,0,.055-1.036c-.469-1.246-1.048-2.451-1.51-3.7a1.021,1.021,0,0,0-.832-.8c-1.04-.209-2.068-.479-3.165-.74V27.613c1.024-.247,2.117-.473,3.181-.793a1.409,1.409,0,0,0,.762-.705c.554-1.211,1.009-2.468,1.566-3.677a1,1,0,0,0-.038-1.148c-.612-.9-1.156-1.849-1.7-2.729l7.851-7.86c.865.527,1.8,1.136,2.771,1.663a1.4,1.4,0,0,0,1.032.078q1.913-.716,3.771-1.575a1.413,1.413,0,0,0,.7-.77c.311-1.041.527-2.11.787-3.2H38.03c.258,1.082.474,2.152.785,3.192a1.409,1.409,0,0,0,.7.771q1.857.851,3.773,1.569a1.4,1.4,0,0,0,1.033-.057c.958-.519,1.869-1.124,2.734-1.657l7.875,7.869c-.539.873-1.157,1.811-1.7,2.791a1.288,1.288,0,0,0-.038.961c.494,1.3,1.03,2.588,1.6,3.86a1.177,1.177,0,0,0,.652.6c1.076.307,2.171.543,3.318.819V30.8a29.986,29.986,0,0,0,7.131-2.556,32.456,32.456,0,0,0,3.62-2.094,1.452,1.452,0,0,1,1.92.018,29.208,29.208,0,0,0,10.9,4.64,69.08,69.08,0,0,0,8.138.855c2.056.132,4.128.026,6.4.026M47.1,34.461v1.144c0,4.471-.059,8.944.025,13.414a34.808,34.808,0,0,0,.572,6.615c2.684,12.516,10.038,21.044,22.12,25.4a2.287,2.287,0,0,0,1.385-.011,33.256,33.256,0,0,0,22.629-30.9c.053-4.958.012-9.916.011-14.874,0-.2-.038-.4-.056-.586a1.431,1.431,0,0,0-.231-.049c-1.308,0-2.616,0-3.924-.008a35.621,35.621,0,0,1-18.458-5.156,1.209,1.209,0,0,0-1.463.04,34.011,34.011,0,0,1-15.377,4.938c-2.358.155-4.735.026-7.233.026M13.79,47.233l4.616,4.627c.644-.4,1.384-.821,2.081-1.305a1.143,1.143,0,0,1,1.308-.026c1.956.883,3.934,1.728,5.947,2.469a1.191,1.191,0,0,1,.936,1.021c.154.827.387,1.64.59,2.469h6.448c.209-.879.434-1.727.6-2.585.1-.508.358-.7.854-.886,2.008-.757,3.979-1.611,5.963-2.431.342-.141.678-.295.986-.429V46.336A17.553,17.553,0,1,1,33.085,15.642a16.716,16.716,0,0,1,9.894,3.494,17.585,17.585,0,0,1,7,12.631l5.837-.327V29.919c-.926-.215-1.824-.382-2.69-.648a1.157,1.157,0,0,1-.7-.669,23.439,23.439,0,0,0-2.59-6.3,1.25,1.25,0,0,1,.021-1.027c.413-.8.929-1.555,1.367-2.266l-4.6-4.586c-.669.412-1.428.851-2.155,1.339a.969.969,0,0,1-1.225.034,21.078,21.078,0,0,0-6.1-2.57,1.365,1.365,0,0,1-.776-.8c-.284-.851-.442-1.744-.647-2.606H29.253c-.214.923-.382,1.82-.648,2.686a1.159,1.159,0,0,1-.664.7,23.4,23.4,0,0,0-6.3,2.588,1.248,1.248,0,0,1-1.028-.016c-.821-.426-1.589-.953-2.286-1.383L13.742,19c.439.713.961,1.46,1.364,2.267a1.352,1.352,0,0,1,0,1.108,24,24,0,0,0-2.54,6.121,1.363,1.363,0,0,1-.786.788c-.852.285-1.747.441-2.624.648v6.454c.916.215,1.811.384,2.676.651a1.163,1.163,0,0,1,.715.653,23.309,23.309,0,0,0,2.629,6.377,1.152,1.152,0,0,1-.043.949c-.423.8-.933,1.557-1.343,2.222M47,31.7c-.048-.441-.065-.775-.123-1.1A14.619,14.619,0,1,0,42.945,43.33a3.754,3.754,0,0,0,1.264-3.03c-.122-2.549-.036-5.108-.036-7.663V31.7ZM53.639,74.12,50.633,85.165c1.338-.329,2.491-.555,3.6-.907.7-.221,1.008-.015,1.345.585.865,1.54,1.808,3.037,2.816,4.709,1.016-3.034,1.979-5.87,2.893-8.722a.956.956,0,0,0-.356-.768c-.69-.544-1.474-.971-2.148-1.531-1.722-1.431-3.4-2.91-5.149-4.411m33.634-.084a2.13,2.13,0,0,0-.3.206,35.6,35.6,0,0,1-6.993,5.8c-.5.318-.413.623-.265,1.059.867,2.555,1.713,5.116,2.57,7.674.069.206.168.4.3.713,1.01-1.682,1.959-3.233,2.873-4.8.264-.454.5-.635,1.07-.461,1.175.356,2.386.594,3.773.926L87.273,74.036" transform="translate(-6.26 -6.9)" fill="#030302"/><path d="M173.6,103.67c2.5,0,4.875.129,7.233-.026a34.009,34.009,0,0,0,15.376-4.938,1.209,1.209,0,0,1,1.463-.04,35.621,35.621,0,0,0,18.458,5.156c1.308.008,2.616,0,3.924.008a1.429,1.429,0,0,1,.231.049c.018.184.055.385.055.586,0,4.958.042,9.917-.011,14.874a33.256,33.256,0,0,1-22.629,30.9,2.287,2.287,0,0,1-1.385.011c-12.082-4.361-19.436-12.888-22.12-25.4a34.83,34.83,0,0,1-.572-6.615c-.084-4.47-.025-8.943-.025-13.414V103.67m2.921,3.073c0,2.587-.028,5.075.007,7.563a61.8,61.8,0,0,0,.254,8.2c1.781,11.945,8.37,20.187,19.582,24.7a1.841,1.841,0,0,0,1.2.009,30.323,30.323,0,0,0,19.844-27.777c.045-4.015.012-8.03.01-12.046a5.433,5.433,0,0,0-.064-.6,2.659,2.659,0,0,0-.321-.041,39.652,39.652,0,0,1-19.607-4.8,1.437,1.437,0,0,0-1.061.075c-2.126.887-4.192,1.934-6.357,2.7a37.71,37.71,0,0,1-13.489,2.02" transform="translate(-132.764 -76.109)" fill="#5b4794"/><path d="M22.766,56.3c.41-.665.919-1.421,1.343-2.222a1.15,1.15,0,0,0,.042-.949,23.322,23.322,0,0,1-2.629-6.377,1.164,1.164,0,0,0-.715-.653c-.865-.266-1.76-.436-2.676-.65V39c.877-.207,1.772-.364,2.624-.649a1.362,1.362,0,0,0,.786-.788,24,24,0,0,1,2.54-6.122,1.352,1.352,0,0,0,0-1.107c-.4-.806-.925-1.553-1.364-2.267l4.589-4.592c.7.431,1.465.958,2.287,1.384a1.248,1.248,0,0,0,1.028.016,23.387,23.387,0,0,1,6.3-2.588,1.157,1.157,0,0,0,.664-.7c.266-.867.433-1.764.648-2.686h6.458c.205.863.363,1.755.647,2.606a1.365,1.365,0,0,0,.777.8,21.092,21.092,0,0,1,6.1,2.571.969.969,0,0,0,1.224-.034c.726-.489,1.487-.927,2.155-1.339l4.6,4.586c-.438.711-.954,1.462-1.367,2.266a1.25,1.25,0,0,0-.021,1.027,23.438,23.438,0,0,1,2.59,6.3,1.158,1.158,0,0,0,.7.669c.866.267,1.764.433,2.69.648v1.521l-5.837.327a17.586,17.586,0,0,0-7-12.631,16.715,16.715,0,0,0-9.894-3.494A17.537,17.537,0,1,0,53.1,55.4v3.821c-.308.135-.644.288-.986.429-1.984.821-3.956,1.674-5.964,2.431-.5.187-.753.378-.853.886-.17.858-.4,1.706-.6,2.585H38.242c-.2-.829-.436-1.642-.589-2.469a1.191,1.191,0,0,0-.936-1.022C34.7,61.324,32.727,60.48,30.77,59.6a1.143,1.143,0,0,0-1.308.026c-.7.484-1.438.906-2.081,1.305L22.766,56.3" transform="translate(-15.235 -15.967)" fill="#fbc428"/><path d="M82.987,67.79H80.164v.937c0,2.555-.086,5.114.036,7.663a3.754,3.754,0,0,1-1.264,3.03,14.6,14.6,0,1,1,3.929-12.734c.058.327.075.662.123,1.1M68.513,78.009a8.764,8.764,0,1,0-8.8-8.73,8.788,8.788,0,0,0,8.8,8.73" transform="translate(-42.25 -42.991)" fill="#f9d56f"/><path d="M191.168,282.463c1.745,1.5,3.427,2.979,5.149,4.411.674.56,1.458.987,2.148,1.531a.956.956,0,0,1,.356.768c-.915,2.851-1.877,5.687-2.893,8.722-1.008-1.673-1.951-3.169-2.816-4.71-.337-.6-.646-.806-1.345-.585-1.113.352-2.267.579-3.6.907l3.007-11.044" transform="translate(-143.788 -215.243)" fill="#ff6d4b"/><path d="M314.572,282.118,317.6,293.23c-1.387-.332-2.6-.57-3.773-.926-.575-.174-.806.007-1.07.461-.914,1.571-1.863,3.122-2.873,4.8-.132-.311-.231-.507-.3-.713-.857-2.558-1.7-5.12-2.57-7.674-.148-.435-.239-.741.265-1.059a35.6,35.6,0,0,0,6.993-5.8,2.129,2.129,0,0,1,.3-.206" transform="translate(-233.559 -214.982)" fill="#ff6d4b"/><path d="M185.6,117.38a37.709,37.709,0,0,0,13.489-2.02c2.165-.77,4.232-1.817,6.357-2.7a1.437,1.437,0,0,1,1.061-.075,39.652,39.652,0,0,0,19.607,4.8,2.609,2.609,0,0,1,.321.041,5.376,5.376,0,0,1,.064.6c0,4.015.035,8.031-.01,12.046a30.323,30.323,0,0,1-19.844,27.777,1.843,1.843,0,0,1-1.2-.009c-11.212-4.512-17.8-12.753-19.582-24.7a61.8,61.8,0,0,1-.254-8.2c-.035-2.487-.008-4.975-.008-7.563m3.077,3.111c0,3.8-.36,7.787.069,11.686,1.17,10.637,6.892,18.108,16.645,22.479a1.865,1.865,0,0,0,1.339-.008,27.179,27.179,0,0,0,15.034-15.414c2.5-6.136,1.659-12.559,1.824-18.919-.2-.025-.312-.047-.429-.054a43.332,43.332,0,0,1-16.624-4.359,1.687,1.687,0,0,0-1.158.075c-2.646.959-5.224,2.157-7.93,2.884-2.882.774-5.882,1.112-8.771,1.63" transform="translate(-141.848 -86.745)" fill="#030302"/><path d="M86.65,96.128a8.764,8.764,0,1,1,8.728-8.8,8.794,8.794,0,0,1-8.728,8.8M86.628,93.2a5.841,5.841,0,1,0-5.853-5.851A5.859,5.859,0,0,0,86.628,93.2" transform="translate(-60.388 -61.11)" fill="#040302"/><path d="M197.811,130.783c2.889-.518,5.888-.856,8.771-1.63,2.706-.726,5.284-1.925,7.93-2.884a1.688,1.688,0,0,1,1.158-.075,43.339,43.339,0,0,0,16.624,4.359c.117.007.233.029.429.054-.165,6.36.678,12.783-1.824,18.919a27.179,27.179,0,0,1-15.034,15.414,1.868,1.868,0,0,1-1.339.008c-9.753-4.371-15.475-11.842-16.645-22.479-.429-3.9-.069-7.886-.069-11.686m11.716,11-6.361,6.349,9.092,9.1,17.864-17.865-6.431-6.433L212.142,144.5l-2.615-2.711M206.1,132.41l-5.44.92v7.6l2.837-.157v-4.9l3.248-.669-.645-2.794m6.622,1.006-1.051-2.727-2.745.933.856,2.791,2.939-1" transform="translate(-150.978 -97.037)" fill="#e4e7eb"/><path d="M226.561,162.908l2.615,2.711,11.549-11.561,6.43,6.433-17.864,17.865-9.092-9.1,6.361-6.349m14.278-4.736L229.116,169.9l-2.575-2.764-2.124,2.066,4.958,4.96,13.764-13.742-2.3-2.252" transform="translate(-168.012 -118.16)" fill="#050404"/><path d="M215.365,151.909l.645,2.794-3.248.669v4.9l-2.837.157v-7.6l5.44-.92" transform="translate(-160.243 -116.536)" fill="#030303"/><path d="M247.607,147.582l-2.939,1-.856-2.791,2.745-.933,1.051,2.727" transform="translate(-185.864 -111.203)" fill="#070707"/><path d="M253.908,170.925l2.3,2.252-13.764,13.742-4.958-4.96,2.124-2.066,2.575,2.764,11.724-11.732" transform="translate(-181.08 -130.913)" fill="#ff6d4b"/></g></g></g></svg>