<svg xmlns="http://www.w3.org/2000/svg" width="190" height="106.981" viewBox="0 0 190 106.981"><g transform="translate(-180 -13293.01)"><rect width="190" height="106.981" rx="11" transform="translate(180 13293.01)" fill="#ffba5b" opacity="0.4"/><rect width="10" height="106.981" transform="translate(360 13293.01)" fill="#ffba5b"/><g transform="translate(219.359 13295.479)"><g transform="translate(11.974 6.638)"><path d="M101.166,84.386l3.284,2.334-1.6,2.291c-.22-.131-.42-.236-.6-.364q-3.117-2.171-6.228-4.35c-1.31-.923-1.317-1.922-.028-2.826,2.242-1.573,4.489-3.138,6.817-4.765l1.648,2.317-3.4,2.419h1.063c5.249,0,10.5-.012,15.747,0a14.307,14.307,0,0,1,.489,28.608c-8.469.066-16.94.006-25.409.025a12.157,12.157,0,0,0-.332,24.311c6.65.067,13.3.017,19.952.019H113.6v2.82c-.234.014-.491.042-.747.043-6.591,0-13.182.014-19.773,0a15.023,15.023,0,0,1-.591-30.04c8.41-.066,16.82-.011,25.231-.023a11.443,11.443,0,0,0,.795-22.87c-5.665-.1-11.332-.027-17-.027a2.324,2.324,0,0,0-.352.076" transform="translate(-62.121 -59.958)"/><path d="M20.565,39.186h2.863c0-1.256.02-2.525-.007-3.793-.017-.809.131-1.509.981-1.807s1.4.185,1.871.833C27.331,35.861,28.4,37.3,29.5,38.7a5.415,5.415,0,0,0,1.086.773c0-1.6.018-2.907-.007-4.214A1.514,1.514,0,0,1,31.6,33.573a1.484,1.484,0,0,1,1.749.736c1.062,1.439,2.16,2.852,3.2,4.3a1.35,1.35,0,0,0,1.256.626c2.691-.024,2.8.108,2.8,2.816q0,7.65,0,15.3c0,1.454-.463,1.911-1.933,1.911q-12.393,0-24.786,0c-1.458,0-1.913-.46-1.913-1.93q0-12.391,0-24.783c0-1.464.455-1.915,1.924-1.917,1.64,0,3.281-.007,4.921,0,1.227.006,1.737.513,1.742,1.741.009,2.236,0,4.473,0,6.81m5.909.3-.182.056c0,.2,0,.4,0,.6-.014,1.524-.436,1.937-1.986,1.938-1.639,0-3.279.008-4.918,0-1.171-.008-1.677-.52-1.684-1.7-.009-1.788,0-3.577,0-5.365V33.561H14.916V56.339h22.75V42c-2.384.766-2.944-1.379-4.025-2.463a7.375,7.375,0,0,1-.65,2.108c-.547.79-4.316.626-4.96-.1-.118-.133-.21-.289-.318-.431q-.618-.812-1.239-1.622" transform="translate(-11.974 -24.896)"/><path d="M282.512,270.2q5.454,0,10.908,0c1.407,0,1.884.472,1.884,1.867q0,11.041,0,22.082c0,1.331-.5,1.816-1.846,1.817q-11.042,0-22.085,0c-1.348,0-1.837-.485-1.837-1.823q0-11.086,0-22.172c0-1.275.505-1.768,1.8-1.77q5.588-.007,11.177,0m-10.057,2.886v19.951H292.4V273.125h-5.681c0,2.319.007,4.579,0,6.841-.005,1.13-.523,1.676-1.614,1.686q-2.683.025-5.367,0a1.432,1.432,0,0,1-1.6-1.606c-.016-2.027-.005-4.055-.005-6.082v-.873Zm8.606,5.645h2.725v-5.651h-2.725Z" transform="translate(-207.971 -207.205)"/><path d="M26.908,10.908H24.164a4.168,4.168,0,0,1,3.979-4.236c2.435-.066,4.873-.015,7.367-.015V9.513H30.472c-.536,0-1.071,0-1.607,0-1.225,0-1.517.213-1.957,1.395" transform="translate(-21.25 -6.638)"/><path d="M242.6,321.145a1.49,1.49,0,0,1-.26.049c-.8,0-1.6,0-2.469,0V318.4H242.6Z" transform="translate(-185.398 -243.883)"/><path d="M35.843,48.814q.62.811,1.239,1.622c.108.142.2.3.318.431.644.726,4.413.891,4.96.1a7.375,7.375,0,0,0,.65-2.108c1.081,1.084,1.64,3.229,4.025,2.463V65.666H24.285V42.887h2.784v1.459c0,1.788-.007,3.577,0,5.365.006,1.179.513,1.692,1.684,1.7,1.639.011,3.279,0,4.918,0,1.55,0,1.972-.414,1.986-1.938,0-.2,0-.4,0-.6l.182-.056" transform="translate(-21.342 -34.223)" fill="#bfb7d5"/><path d="M281.755,282.282h5.67v.873c0,2.027-.011,4.055.005,6.082a1.432,1.432,0,0,0,1.6,1.606q2.683.026,5.367,0c1.091-.01,1.608-.555,1.614-1.686.011-2.261,0-4.522,0-6.84H301.7v19.916H281.755Z" transform="translate(-217.271 -216.397)" fill="#73e8dc"/><rect width="2.725" height="5.651" transform="translate(73.09 65.879)" fill="#eca037"/></g></g></g></svg>